G04 #@! TF.GenerationSoftware,KiCad,Pcbnew,(5.1.6)-1*
G04 #@! TF.CreationDate,2020-08-03T23:14:59+02:00*
G04 #@! TF.ProjectId,Programmer,50726f67-7261-46d6-9d65-722e6b696361,rev?*
G04 #@! TF.SameCoordinates,Original*
G04 #@! TF.FileFunction,Copper,L1,Top*
G04 #@! TF.FilePolarity,Positive*
%FSLAX46Y46*%
G04 Gerber Fmt 4.6, Leading zero omitted, Abs format (unit mm)*
G04 Created by KiCad (PCBNEW (5.1.6)-1) date 2020-08-03 23:14:59*
%MOMM*%
%LPD*%
G01*
G04 APERTURE LIST*
G04 #@! TA.AperFunction,SMDPad,CuDef*
%ADD10R,0.650000X1.060000*%
G04 #@! TD*
G04 #@! TA.AperFunction,ComponentPad*
%ADD11C,0.650000*%
G04 #@! TD*
G04 #@! TA.AperFunction,ComponentPad*
%ADD12O,1.400000X0.800000*%
G04 #@! TD*
G04 #@! TA.AperFunction,SMDPad,CuDef*
%ADD13R,0.700000X0.300000*%
G04 #@! TD*
G04 #@! TA.AperFunction,SMDPad,CuDef*
%ADD14R,0.450000X1.750000*%
G04 #@! TD*
G04 #@! TA.AperFunction,SMDPad,CuDef*
%ADD15R,1.060000X0.650000*%
G04 #@! TD*
G04 #@! TA.AperFunction,SMDPad,CuDef*
%ADD16R,0.400000X0.650000*%
G04 #@! TD*
G04 #@! TA.AperFunction,SMDPad,CuDef*
%ADD17R,2.400000X0.740000*%
G04 #@! TD*
G04 #@! TA.AperFunction,ViaPad*
%ADD18C,0.800000*%
G04 #@! TD*
G04 #@! TA.AperFunction,Conductor*
%ADD19C,0.250000*%
G04 #@! TD*
G04 #@! TA.AperFunction,Conductor*
%ADD20C,0.500000*%
G04 #@! TD*
G04 #@! TA.AperFunction,Conductor*
%ADD21C,0.127000*%
G04 #@! TD*
G04 #@! TA.AperFunction,Conductor*
%ADD22C,0.200000*%
G04 #@! TD*
G04 #@! TA.AperFunction,Conductor*
%ADD23C,0.254000*%
G04 #@! TD*
G04 APERTURE END LIST*
D10*
X118400000Y-81100000D03*
X119350000Y-81100000D03*
X117450000Y-81100000D03*
X117450000Y-78900000D03*
X118400000Y-78900000D03*
X119350000Y-78900000D03*
D11*
X113090000Y-77150000D03*
X113090000Y-77950000D03*
X113090000Y-78750000D03*
X113090000Y-80350000D03*
X113090000Y-81150000D03*
X113090000Y-81950000D03*
X113790000Y-76750000D03*
X113790000Y-78350000D03*
X113790000Y-79150000D03*
X113790000Y-79950000D03*
X113790000Y-80750000D03*
X113790000Y-82350000D03*
D12*
X107240000Y-75060000D03*
X107240000Y-84040000D03*
X113190000Y-83680000D03*
D13*
X115100000Y-81800000D03*
X115100000Y-80300000D03*
X115100000Y-80800000D03*
X115100000Y-81300000D03*
X115100000Y-82300000D03*
X115100000Y-79800000D03*
X115100000Y-79300000D03*
X115100000Y-78800000D03*
X115100000Y-78300000D03*
X115100000Y-77800000D03*
X115100000Y-77300000D03*
X115100000Y-76800000D03*
D12*
X113190000Y-75420000D03*
D14*
X134300000Y-82600000D03*
X133650000Y-82600000D03*
X133000000Y-82600000D03*
X132350000Y-82600000D03*
X131700000Y-82600000D03*
X131050000Y-82600000D03*
X130400000Y-82600000D03*
X129750000Y-82600000D03*
X129100000Y-82600000D03*
X128450000Y-82600000D03*
X127800000Y-82600000D03*
X127150000Y-82600000D03*
X126500000Y-82600000D03*
X125850000Y-82600000D03*
X125850000Y-75400000D03*
X126500000Y-75400000D03*
X127150000Y-75400000D03*
X127800000Y-75400000D03*
X128450000Y-75400000D03*
X129100000Y-75400000D03*
X129750000Y-75400000D03*
X130400000Y-75400000D03*
X131050000Y-75400000D03*
X131700000Y-75400000D03*
X132350000Y-75400000D03*
X133000000Y-75400000D03*
X133650000Y-75400000D03*
X134300000Y-75400000D03*
D15*
X126100000Y-70050000D03*
X126100000Y-71950000D03*
X123900000Y-71950000D03*
X123900000Y-71000000D03*
X123900000Y-70050000D03*
G04 #@! TA.AperFunction,SMDPad,CuDef*
G36*
G01*
X130043750Y-71512500D02*
X130956250Y-71512500D01*
G75*
G02*
X131200000Y-71756250I0J-243750D01*
G01*
X131200000Y-72243750D01*
G75*
G02*
X130956250Y-72487500I-243750J0D01*
G01*
X130043750Y-72487500D01*
G75*
G02*
X129800000Y-72243750I0J243750D01*
G01*
X129800000Y-71756250D01*
G75*
G02*
X130043750Y-71512500I243750J0D01*
G01*
G37*
G04 #@! TD.AperFunction*
G04 #@! TA.AperFunction,SMDPad,CuDef*
G36*
G01*
X130043750Y-69637500D02*
X130956250Y-69637500D01*
G75*
G02*
X131200000Y-69881250I0J-243750D01*
G01*
X131200000Y-70368750D01*
G75*
G02*
X130956250Y-70612500I-243750J0D01*
G01*
X130043750Y-70612500D01*
G75*
G02*
X129800000Y-70368750I0J243750D01*
G01*
X129800000Y-69881250D01*
G75*
G02*
X130043750Y-69637500I243750J0D01*
G01*
G37*
G04 #@! TD.AperFunction*
G04 #@! TA.AperFunction,SMDPad,CuDef*
G36*
G01*
X136256250Y-70587500D02*
X135343750Y-70587500D01*
G75*
G02*
X135100000Y-70343750I0J243750D01*
G01*
X135100000Y-69856250D01*
G75*
G02*
X135343750Y-69612500I243750J0D01*
G01*
X136256250Y-69612500D01*
G75*
G02*
X136500000Y-69856250I0J-243750D01*
G01*
X136500000Y-70343750D01*
G75*
G02*
X136256250Y-70587500I-243750J0D01*
G01*
G37*
G04 #@! TD.AperFunction*
G04 #@! TA.AperFunction,SMDPad,CuDef*
G36*
G01*
X136256250Y-72462500D02*
X135343750Y-72462500D01*
G75*
G02*
X135100000Y-72218750I0J243750D01*
G01*
X135100000Y-71731250D01*
G75*
G02*
X135343750Y-71487500I243750J0D01*
G01*
X136256250Y-71487500D01*
G75*
G02*
X136500000Y-71731250I0J-243750D01*
G01*
X136500000Y-72218750D01*
G75*
G02*
X136256250Y-72462500I-243750J0D01*
G01*
G37*
G04 #@! TD.AperFunction*
G04 #@! TA.AperFunction,SMDPad,CuDef*
G36*
G01*
X122487500Y-81956250D02*
X122487500Y-81043750D01*
G75*
G02*
X122731250Y-80800000I243750J0D01*
G01*
X123218750Y-80800000D01*
G75*
G02*
X123462500Y-81043750I0J-243750D01*
G01*
X123462500Y-81956250D01*
G75*
G02*
X123218750Y-82200000I-243750J0D01*
G01*
X122731250Y-82200000D01*
G75*
G02*
X122487500Y-81956250I0J243750D01*
G01*
G37*
G04 #@! TD.AperFunction*
G04 #@! TA.AperFunction,SMDPad,CuDef*
G36*
G01*
X120612500Y-81956250D02*
X120612500Y-81043750D01*
G75*
G02*
X120856250Y-80800000I243750J0D01*
G01*
X121343750Y-80800000D01*
G75*
G02*
X121587500Y-81043750I0J-243750D01*
G01*
X121587500Y-81956250D01*
G75*
G02*
X121343750Y-82200000I-243750J0D01*
G01*
X120856250Y-82200000D01*
G75*
G02*
X120612500Y-81956250I0J243750D01*
G01*
G37*
G04 #@! TD.AperFunction*
G04 #@! TA.AperFunction,SMDPad,CuDef*
G36*
G01*
X122512500Y-79356250D02*
X122512500Y-78443750D01*
G75*
G02*
X122756250Y-78200000I243750J0D01*
G01*
X123243750Y-78200000D01*
G75*
G02*
X123487500Y-78443750I0J-243750D01*
G01*
X123487500Y-79356250D01*
G75*
G02*
X123243750Y-79600000I-243750J0D01*
G01*
X122756250Y-79600000D01*
G75*
G02*
X122512500Y-79356250I0J243750D01*
G01*
G37*
G04 #@! TD.AperFunction*
G04 #@! TA.AperFunction,SMDPad,CuDef*
G36*
G01*
X120637500Y-79356250D02*
X120637500Y-78443750D01*
G75*
G02*
X120881250Y-78200000I243750J0D01*
G01*
X121368750Y-78200000D01*
G75*
G02*
X121612500Y-78443750I0J-243750D01*
G01*
X121612500Y-79356250D01*
G75*
G02*
X121368750Y-79600000I-243750J0D01*
G01*
X120881250Y-79600000D01*
G75*
G02*
X120637500Y-79356250I0J243750D01*
G01*
G37*
G04 #@! TD.AperFunction*
G04 #@! TA.AperFunction,SMDPad,CuDef*
G36*
G01*
X117887500Y-83443750D02*
X117887500Y-84356250D01*
G75*
G02*
X117643750Y-84600000I-243750J0D01*
G01*
X117156250Y-84600000D01*
G75*
G02*
X116912500Y-84356250I0J243750D01*
G01*
X116912500Y-83443750D01*
G75*
G02*
X117156250Y-83200000I243750J0D01*
G01*
X117643750Y-83200000D01*
G75*
G02*
X117887500Y-83443750I0J-243750D01*
G01*
G37*
G04 #@! TD.AperFunction*
G04 #@! TA.AperFunction,SMDPad,CuDef*
G36*
G01*
X119762500Y-83443750D02*
X119762500Y-84356250D01*
G75*
G02*
X119518750Y-84600000I-243750J0D01*
G01*
X119031250Y-84600000D01*
G75*
G02*
X118787500Y-84356250I0J243750D01*
G01*
X118787500Y-83443750D01*
G75*
G02*
X119031250Y-83200000I243750J0D01*
G01*
X119518750Y-83200000D01*
G75*
G02*
X119762500Y-83443750I0J-243750D01*
G01*
G37*
G04 #@! TD.AperFunction*
G04 #@! TA.AperFunction,SMDPad,CuDef*
G36*
G01*
X121587500Y-76143750D02*
X121587500Y-77056250D01*
G75*
G02*
X121343750Y-77300000I-243750J0D01*
G01*
X120856250Y-77300000D01*
G75*
G02*
X120612500Y-77056250I0J243750D01*
G01*
X120612500Y-76143750D01*
G75*
G02*
X120856250Y-75900000I243750J0D01*
G01*
X121343750Y-75900000D01*
G75*
G02*
X121587500Y-76143750I0J-243750D01*
G01*
G37*
G04 #@! TD.AperFunction*
G04 #@! TA.AperFunction,SMDPad,CuDef*
G36*
G01*
X123462500Y-76143750D02*
X123462500Y-77056250D01*
G75*
G02*
X123218750Y-77300000I-243750J0D01*
G01*
X122731250Y-77300000D01*
G75*
G02*
X122487500Y-77056250I0J243750D01*
G01*
X122487500Y-76143750D01*
G75*
G02*
X122731250Y-75900000I243750J0D01*
G01*
X123218750Y-75900000D01*
G75*
G02*
X123462500Y-76143750I0J-243750D01*
G01*
G37*
G04 #@! TD.AperFunction*
D16*
X132500000Y-70100000D03*
X133800000Y-70100000D03*
X133150000Y-72000000D03*
X133150000Y-70100000D03*
X133800000Y-72000000D03*
X132500000Y-72000000D03*
D17*
X143100000Y-79940000D03*
X139200000Y-79940000D03*
X143100000Y-78670000D03*
X139200000Y-78670000D03*
X143100000Y-77400000D03*
X139200000Y-77400000D03*
G04 #@! TA.AperFunction,SMDPad,CuDef*
G36*
G01*
X119612500Y-69543750D02*
X119612500Y-70456250D01*
G75*
G02*
X119368750Y-70700000I-243750J0D01*
G01*
X118881250Y-70700000D01*
G75*
G02*
X118637500Y-70456250I0J243750D01*
G01*
X118637500Y-69543750D01*
G75*
G02*
X118881250Y-69300000I243750J0D01*
G01*
X119368750Y-69300000D01*
G75*
G02*
X119612500Y-69543750I0J-243750D01*
G01*
G37*
G04 #@! TD.AperFunction*
G04 #@! TA.AperFunction,SMDPad,CuDef*
G36*
G01*
X121487500Y-69543750D02*
X121487500Y-70456250D01*
G75*
G02*
X121243750Y-70700000I-243750J0D01*
G01*
X120756250Y-70700000D01*
G75*
G02*
X120512500Y-70456250I0J243750D01*
G01*
X120512500Y-69543750D01*
G75*
G02*
X120756250Y-69300000I243750J0D01*
G01*
X121243750Y-69300000D01*
G75*
G02*
X121487500Y-69543750I0J-243750D01*
G01*
G37*
G04 #@! TD.AperFunction*
G04 #@! TA.AperFunction,SMDPad,CuDef*
G36*
G01*
X125787500Y-84643750D02*
X125787500Y-85556250D01*
G75*
G02*
X125543750Y-85800000I-243750J0D01*
G01*
X125056250Y-85800000D01*
G75*
G02*
X124812500Y-85556250I0J243750D01*
G01*
X124812500Y-84643750D01*
G75*
G02*
X125056250Y-84400000I243750J0D01*
G01*
X125543750Y-84400000D01*
G75*
G02*
X125787500Y-84643750I0J-243750D01*
G01*
G37*
G04 #@! TD.AperFunction*
G04 #@! TA.AperFunction,SMDPad,CuDef*
G36*
G01*
X127662500Y-84643750D02*
X127662500Y-85556250D01*
G75*
G02*
X127418750Y-85800000I-243750J0D01*
G01*
X126931250Y-85800000D01*
G75*
G02*
X126687500Y-85556250I0J243750D01*
G01*
X126687500Y-84643750D01*
G75*
G02*
X126931250Y-84400000I243750J0D01*
G01*
X127418750Y-84400000D01*
G75*
G02*
X127662500Y-84643750I0J-243750D01*
G01*
G37*
G04 #@! TD.AperFunction*
G04 #@! TA.AperFunction,SMDPad,CuDef*
G36*
G01*
X127543750Y-71387500D02*
X128456250Y-71387500D01*
G75*
G02*
X128700000Y-71631250I0J-243750D01*
G01*
X128700000Y-72118750D01*
G75*
G02*
X128456250Y-72362500I-243750J0D01*
G01*
X127543750Y-72362500D01*
G75*
G02*
X127300000Y-72118750I0J243750D01*
G01*
X127300000Y-71631250D01*
G75*
G02*
X127543750Y-71387500I243750J0D01*
G01*
G37*
G04 #@! TD.AperFunction*
G04 #@! TA.AperFunction,SMDPad,CuDef*
G36*
G01*
X127543750Y-69512500D02*
X128456250Y-69512500D01*
G75*
G02*
X128700000Y-69756250I0J-243750D01*
G01*
X128700000Y-70243750D01*
G75*
G02*
X128456250Y-70487500I-243750J0D01*
G01*
X127543750Y-70487500D01*
G75*
G02*
X127300000Y-70243750I0J243750D01*
G01*
X127300000Y-69756250D01*
G75*
G02*
X127543750Y-69512500I243750J0D01*
G01*
G37*
G04 #@! TD.AperFunction*
G04 #@! TA.AperFunction,SMDPad,CuDef*
G36*
G01*
X120487500Y-71543750D02*
X120487500Y-72456250D01*
G75*
G02*
X120243750Y-72700000I-243750J0D01*
G01*
X119756250Y-72700000D01*
G75*
G02*
X119512500Y-72456250I0J243750D01*
G01*
X119512500Y-71543750D01*
G75*
G02*
X119756250Y-71300000I243750J0D01*
G01*
X120243750Y-71300000D01*
G75*
G02*
X120487500Y-71543750I0J-243750D01*
G01*
G37*
G04 #@! TD.AperFunction*
G04 #@! TA.AperFunction,SMDPad,CuDef*
G36*
G01*
X122362500Y-71543750D02*
X122362500Y-72456250D01*
G75*
G02*
X122118750Y-72700000I-243750J0D01*
G01*
X121631250Y-72700000D01*
G75*
G02*
X121387500Y-72456250I0J243750D01*
G01*
X121387500Y-71543750D01*
G75*
G02*
X121631250Y-71300000I243750J0D01*
G01*
X122118750Y-71300000D01*
G75*
G02*
X122362500Y-71543750I0J-243750D01*
G01*
G37*
G04 #@! TD.AperFunction*
G04 #@! TA.AperFunction,SMDPad,CuDef*
G36*
G01*
X122487500Y-75156250D02*
X122487500Y-74243750D01*
G75*
G02*
X122731250Y-74000000I243750J0D01*
G01*
X123218750Y-74000000D01*
G75*
G02*
X123462500Y-74243750I0J-243750D01*
G01*
X123462500Y-75156250D01*
G75*
G02*
X123218750Y-75400000I-243750J0D01*
G01*
X122731250Y-75400000D01*
G75*
G02*
X122487500Y-75156250I0J243750D01*
G01*
G37*
G04 #@! TD.AperFunction*
G04 #@! TA.AperFunction,SMDPad,CuDef*
G36*
G01*
X120612500Y-75156250D02*
X120612500Y-74243750D01*
G75*
G02*
X120856250Y-74000000I243750J0D01*
G01*
X121343750Y-74000000D01*
G75*
G02*
X121587500Y-74243750I0J-243750D01*
G01*
X121587500Y-75156250D01*
G75*
G02*
X121343750Y-75400000I-243750J0D01*
G01*
X120856250Y-75400000D01*
G75*
G02*
X120612500Y-75156250I0J243750D01*
G01*
G37*
G04 #@! TD.AperFunction*
D18*
X144000000Y-68000000D03*
X112000000Y-68000000D03*
X112000000Y-86000000D03*
X145000000Y-86000000D03*
X123000000Y-73000000D03*
X125000000Y-73000000D03*
X118400000Y-77900000D03*
X116100000Y-76600000D03*
X116100000Y-82500000D03*
X126111000Y-79629000D03*
X136700000Y-79200000D03*
X134500000Y-77300000D03*
X133600000Y-73700000D03*
X134600000Y-70100000D03*
X126690908Y-80909829D03*
X125240908Y-80986336D03*
X132368416Y-76830084D03*
X128397000Y-84328000D03*
D19*
X129837499Y-74199999D02*
X128000000Y-72362500D01*
X130324999Y-74199999D02*
X129837499Y-74199999D01*
X128000000Y-72362500D02*
X128000000Y-71875000D01*
X130400000Y-74275000D02*
X130324999Y-74199999D01*
X130400000Y-75400000D02*
X130400000Y-74275000D01*
X125000000Y-72434315D02*
X125000000Y-73000000D01*
X125000000Y-71320000D02*
X125000000Y-72434315D01*
X124680000Y-71000000D02*
X125000000Y-71320000D01*
X123900000Y-71000000D02*
X124680000Y-71000000D01*
X122600001Y-73399999D02*
X123000000Y-73000000D01*
X121399999Y-73399999D02*
X122600001Y-73399999D01*
X120000000Y-72000000D02*
X121399999Y-73399999D01*
X115050000Y-82350000D02*
X115100000Y-82300000D01*
X113790000Y-82350000D02*
X115050000Y-82350000D01*
X115050000Y-76750000D02*
X115100000Y-76800000D01*
X113790000Y-76750000D02*
X115050000Y-76750000D01*
X118400000Y-78900000D02*
X118400000Y-77900000D01*
X115100000Y-76800000D02*
X115900000Y-76800000D01*
X115900000Y-76800000D02*
X116100000Y-76600000D01*
X115100000Y-82300000D02*
X115900000Y-82300000D01*
X115900000Y-82300000D02*
X116100000Y-82500000D01*
X133000000Y-82600000D02*
X133000000Y-84297000D01*
X132350000Y-82600000D02*
X132350000Y-84185000D01*
X129750000Y-82633000D02*
X129667000Y-82716000D01*
X129750000Y-82600000D02*
X129750000Y-82633000D01*
X129667000Y-82716000D02*
X129667000Y-84201000D01*
X126483081Y-79629000D02*
X126111000Y-79629000D01*
X127800000Y-82600000D02*
X127800000Y-80945919D01*
X127800000Y-80945919D02*
X126483081Y-79629000D01*
D20*
X118639473Y-70485527D02*
X119125000Y-70000000D01*
X118639473Y-72514473D02*
X118639473Y-70485527D01*
D19*
X113840000Y-80800000D02*
X115100000Y-80800000D01*
X113790000Y-80750000D02*
X113840000Y-80800000D01*
X113840000Y-78300000D02*
X115100000Y-78300000D01*
X113790000Y-78350000D02*
X113840000Y-78300000D01*
X118324999Y-81955001D02*
X118400000Y-81880000D01*
X116840003Y-81955001D02*
X118324999Y-81955001D01*
X115685002Y-80800000D02*
X116840003Y-81955001D01*
X118400000Y-81880000D02*
X118400000Y-81100000D01*
X115100000Y-80800000D02*
X115685002Y-80800000D01*
X120612500Y-74700000D02*
X121100000Y-74700000D01*
X115700000Y-78300000D02*
X119300000Y-74700000D01*
X115100000Y-78300000D02*
X115700000Y-78300000D01*
X118639473Y-72514473D02*
X118639473Y-74139473D01*
X118639473Y-74139473D02*
X119200000Y-74700000D01*
X119300000Y-74700000D02*
X119200000Y-74700000D01*
X119200000Y-74700000D02*
X120612500Y-74700000D01*
D20*
X121875000Y-70875000D02*
X121000000Y-70000000D01*
X121875000Y-72000000D02*
X121875000Y-70875000D01*
X121050000Y-70050000D02*
X121000000Y-70000000D01*
X123900000Y-70050000D02*
X121050000Y-70050000D01*
X121925000Y-71950000D02*
X121875000Y-72000000D01*
X123900000Y-71950000D02*
X121925000Y-71950000D01*
D19*
X123900000Y-76275000D02*
X123900000Y-72525000D01*
X129100000Y-81475000D02*
X123900000Y-76275000D01*
X123900000Y-72525000D02*
X123900000Y-71950000D01*
X129100000Y-82600000D02*
X129100000Y-81475000D01*
D20*
X127950000Y-70050000D02*
X128000000Y-70000000D01*
X126100000Y-70050000D02*
X127950000Y-70050000D01*
X143100000Y-75718874D02*
X143100000Y-76530000D01*
X129087519Y-68424981D02*
X135806107Y-68424981D01*
X128000000Y-69512500D02*
X129087519Y-68424981D01*
X143100000Y-76530000D02*
X143100000Y-77400000D01*
X135806107Y-68424981D02*
X143100000Y-75718874D01*
X128000000Y-70000000D02*
X128000000Y-69512500D01*
D21*
X127150000Y-85075000D02*
X127175000Y-85100000D01*
X127150000Y-82600000D02*
X127150000Y-85075000D01*
D19*
X120612500Y-76600000D02*
X121100000Y-76600000D01*
X118309998Y-76600000D02*
X120612500Y-76600000D01*
X116109998Y-78800000D02*
X118309998Y-76600000D01*
X115100000Y-78800000D02*
X116109998Y-78800000D01*
X112940001Y-80499999D02*
X113090000Y-80350000D01*
X112777999Y-80499999D02*
X112940001Y-80499999D01*
X117400000Y-83900000D02*
X116894990Y-84405010D01*
X112164990Y-81113008D02*
X112777999Y-80499999D01*
X112589692Y-84405010D02*
X112164990Y-83980308D01*
X116894990Y-84405010D02*
X112589692Y-84405010D01*
X112164990Y-83980308D02*
X112164990Y-81113008D01*
D21*
X137789199Y-78033501D02*
X137500000Y-77744302D01*
X140663501Y-78830501D02*
X140663501Y-78089199D01*
X143100000Y-79940000D02*
X141773000Y-79940000D01*
X141773000Y-79940000D02*
X140663501Y-78830501D01*
X140607803Y-78033501D02*
X137789199Y-78033501D01*
X140663501Y-78089199D02*
X140607803Y-78033501D01*
X137500000Y-77744302D02*
X137500000Y-75100000D01*
X137500000Y-75100000D02*
X135500000Y-73100000D01*
X135500000Y-73100000D02*
X134300000Y-73100000D01*
X133800000Y-72600000D02*
X133800000Y-72000000D01*
X134300000Y-73100000D02*
X133800000Y-72600000D01*
X139200000Y-79940000D02*
X137440000Y-79940000D01*
X137440000Y-79940000D02*
X136700000Y-79200000D01*
X134500000Y-75600000D02*
X134300000Y-75400000D01*
X134500000Y-77300000D02*
X134500000Y-75600000D01*
X137873000Y-78670000D02*
X137703000Y-78500000D01*
X139200000Y-78670000D02*
X137873000Y-78670000D01*
X137703000Y-78500000D02*
X133100000Y-78500000D01*
X131700000Y-77100000D02*
X131700000Y-75400000D01*
X133100000Y-78500000D02*
X131700000Y-77100000D01*
D19*
X132500000Y-70675000D02*
X132825000Y-71000000D01*
X132500000Y-70100000D02*
X132500000Y-70675000D01*
X132825000Y-71000000D02*
X136400000Y-71000000D01*
X139200000Y-73800000D02*
X139200000Y-77400000D01*
X136400000Y-71000000D02*
X139200000Y-73800000D01*
X133650000Y-75400000D02*
X133650000Y-73750000D01*
X133650000Y-73750000D02*
X133600000Y-73700000D01*
X135800000Y-70100000D02*
X134600000Y-70100000D01*
X134600000Y-70100000D02*
X133800000Y-70100000D01*
D21*
X133150000Y-71548000D02*
X133150000Y-72000000D01*
X133286501Y-71411499D02*
X133150000Y-71548000D01*
X135236499Y-71411499D02*
X133286501Y-71411499D01*
X135800000Y-71975000D02*
X135236499Y-71411499D01*
D19*
X132960001Y-69449999D02*
X131175001Y-69449999D01*
X133150000Y-69639998D02*
X132960001Y-69449999D01*
X130985527Y-69639473D02*
X130500000Y-70125000D01*
X131175001Y-69449999D02*
X130985527Y-69639473D01*
X133150000Y-70100000D02*
X133150000Y-69639998D01*
X132500000Y-72000000D02*
X130500000Y-72000000D01*
X132500000Y-73775000D02*
X132500000Y-72575000D01*
X133000000Y-74275000D02*
X132500000Y-73775000D01*
X132500000Y-72575000D02*
X132500000Y-72000000D01*
X133000000Y-75400000D02*
X133000000Y-74275000D01*
D21*
X122036490Y-77936490D02*
X122514473Y-78414473D01*
X120671136Y-77936490D02*
X122036490Y-77936490D01*
X119707626Y-78900000D02*
X120671136Y-77936490D01*
X122514473Y-78414473D02*
X123000000Y-78900000D01*
X119350000Y-78900000D02*
X119707626Y-78900000D01*
D22*
X123000000Y-78900000D02*
X124062500Y-79962500D01*
X124062500Y-79962500D02*
X125280700Y-79962500D01*
X125280700Y-79962500D02*
X125859100Y-80540900D01*
D19*
X125850000Y-81475000D02*
X125850000Y-82600000D01*
X125965908Y-81359092D02*
X125850000Y-81475000D01*
X125965908Y-80683054D02*
X125965908Y-81359092D01*
X125859100Y-80576246D02*
X125965908Y-80683054D01*
X125859100Y-80540900D02*
X125859100Y-80576246D01*
D21*
X122011490Y-82463510D02*
X122489473Y-81985527D01*
X120646136Y-82463510D02*
X122011490Y-82463510D01*
X119350000Y-81167374D02*
X120646136Y-82463510D01*
X122489473Y-81985527D02*
X122975000Y-81500000D01*
X119350000Y-81100000D02*
X119350000Y-81167374D01*
D22*
X124062500Y-80412500D02*
X125094300Y-80412500D01*
X122975000Y-81500000D02*
X124062500Y-80412500D01*
X125094300Y-80412500D02*
X125540900Y-80859100D01*
D19*
X126500000Y-82600000D02*
X126500000Y-81100737D01*
X126500000Y-81100737D02*
X126690908Y-80909829D01*
X125240908Y-80986336D02*
X125413664Y-80986336D01*
X125515898Y-80884102D02*
X125515898Y-80869454D01*
X125413664Y-80986336D02*
X125515898Y-80884102D01*
D22*
X116698607Y-80179992D02*
X119761792Y-80179992D01*
X115625001Y-79800000D02*
X115650001Y-79775000D01*
X115650001Y-79775000D02*
X116293615Y-79775000D01*
X115100000Y-79800000D02*
X115625001Y-79800000D01*
X116293615Y-79775000D02*
X116698607Y-80179992D01*
X119761792Y-80179992D02*
X119881312Y-80179992D01*
D21*
X120279992Y-80179992D02*
X120300000Y-80200000D01*
D19*
X120279992Y-80179992D02*
X120579992Y-80179992D01*
X121100000Y-80700000D02*
X121100000Y-81500000D01*
X120579992Y-80179992D02*
X121100000Y-80700000D01*
X119820008Y-80179992D02*
X119800000Y-80200000D01*
X120279992Y-80179992D02*
X119820008Y-80179992D01*
D21*
X119881312Y-80179992D02*
X119800000Y-80200000D01*
D22*
X119915001Y-79730001D02*
X119931601Y-79713401D01*
X116479998Y-79325000D02*
X116884999Y-79730001D01*
X115100000Y-79300000D02*
X115625001Y-79300000D01*
X115650001Y-79325000D02*
X116479998Y-79325000D01*
X115625001Y-79300000D02*
X115650001Y-79325000D01*
X116884999Y-79730001D02*
X119915001Y-79730001D01*
X119931601Y-79713401D02*
X120051121Y-79713401D01*
D19*
X120311599Y-79713401D02*
X121125000Y-78900000D01*
X119931601Y-79713401D02*
X120311599Y-79713401D01*
X128450000Y-82878000D02*
X128397000Y-82931000D01*
X128450000Y-82600000D02*
X128450000Y-82878000D01*
X128260000Y-85100000D02*
X127175000Y-85100000D01*
X128397000Y-84963000D02*
X128260000Y-85100000D01*
X132350000Y-75400000D02*
X132350000Y-76811668D01*
X132350000Y-76811668D02*
X132368416Y-76830084D01*
X128397000Y-82931000D02*
X128397000Y-84328000D01*
X128397000Y-84328000D02*
X128397000Y-84963000D01*
D23*
G36*
X145340001Y-86340000D02*
G01*
X127814107Y-86340000D01*
X127908664Y-86289458D01*
X128042292Y-86179792D01*
X128151958Y-86046164D01*
X128233447Y-85893709D01*
X128243063Y-85862008D01*
X128260000Y-85863676D01*
X128297322Y-85860000D01*
X128297333Y-85860000D01*
X128408986Y-85849003D01*
X128552247Y-85805546D01*
X128684276Y-85734974D01*
X128800001Y-85640001D01*
X128823804Y-85610997D01*
X128907997Y-85526804D01*
X128937001Y-85503001D01*
X129031974Y-85387276D01*
X129102546Y-85255247D01*
X129146003Y-85111986D01*
X129153572Y-85035139D01*
X129200937Y-84987774D01*
X129314205Y-84818256D01*
X129392226Y-84629898D01*
X129432000Y-84429939D01*
X129432000Y-84226061D01*
X129407901Y-84104907D01*
X129427838Y-84102944D01*
X129493250Y-84110000D01*
X129525497Y-84077753D01*
X129569180Y-84064502D01*
X129679494Y-84005537D01*
X129750000Y-83947674D01*
X129820506Y-84005537D01*
X129930820Y-84064502D01*
X129974503Y-84077753D01*
X130006750Y-84110000D01*
X130072162Y-84102944D01*
X130175000Y-84113072D01*
X130625000Y-84113072D01*
X130725000Y-84103223D01*
X130825000Y-84113072D01*
X131275000Y-84113072D01*
X131375000Y-84103223D01*
X131475000Y-84113072D01*
X131925000Y-84113072D01*
X132027838Y-84102944D01*
X132093250Y-84110000D01*
X132125497Y-84077753D01*
X132169180Y-84064502D01*
X132279494Y-84005537D01*
X132350256Y-83947464D01*
X132413476Y-84000772D01*
X132522995Y-84061199D01*
X132574243Y-84077493D01*
X132606750Y-84110000D01*
X132675000Y-84102637D01*
X132743250Y-84110000D01*
X132775757Y-84077493D01*
X132827005Y-84061199D01*
X132936524Y-84000772D01*
X132999744Y-83947464D01*
X133070506Y-84005537D01*
X133180820Y-84064502D01*
X133224503Y-84077753D01*
X133256750Y-84110000D01*
X133322162Y-84102944D01*
X133425000Y-84113072D01*
X133875000Y-84113072D01*
X133975000Y-84103223D01*
X134075000Y-84113072D01*
X134525000Y-84113072D01*
X134649482Y-84100812D01*
X134769180Y-84064502D01*
X134879494Y-84005537D01*
X134976185Y-83926185D01*
X135055537Y-83829494D01*
X135114502Y-83719180D01*
X135150812Y-83599482D01*
X135163072Y-83475000D01*
X135163072Y-81725000D01*
X135150812Y-81600518D01*
X135114502Y-81480820D01*
X135055537Y-81370506D01*
X134976185Y-81273815D01*
X134879494Y-81194463D01*
X134769180Y-81135498D01*
X134649482Y-81099188D01*
X134525000Y-81086928D01*
X134075000Y-81086928D01*
X133975000Y-81096777D01*
X133875000Y-81086928D01*
X133425000Y-81086928D01*
X133322162Y-81097056D01*
X133256750Y-81090000D01*
X133224503Y-81122247D01*
X133180820Y-81135498D01*
X133070506Y-81194463D01*
X132999744Y-81252536D01*
X132936524Y-81199228D01*
X132827005Y-81138801D01*
X132775757Y-81122507D01*
X132743250Y-81090000D01*
X132675000Y-81097363D01*
X132606750Y-81090000D01*
X132574243Y-81122507D01*
X132522995Y-81138801D01*
X132413476Y-81199228D01*
X132350256Y-81252536D01*
X132279494Y-81194463D01*
X132169180Y-81135498D01*
X132125497Y-81122247D01*
X132093250Y-81090000D01*
X132027838Y-81097056D01*
X131925000Y-81086928D01*
X131475000Y-81086928D01*
X131375000Y-81096777D01*
X131275000Y-81086928D01*
X130825000Y-81086928D01*
X130725000Y-81096777D01*
X130625000Y-81086928D01*
X130175000Y-81086928D01*
X130072162Y-81097056D01*
X130006750Y-81090000D01*
X129974503Y-81122247D01*
X129930820Y-81135498D01*
X129877002Y-81164265D01*
X129877002Y-81090000D01*
X129755968Y-81090000D01*
X129734974Y-81050724D01*
X129663799Y-80963997D01*
X129640001Y-80934999D01*
X129611003Y-80911201D01*
X125611548Y-76911747D01*
X125625000Y-76913072D01*
X126075000Y-76913072D01*
X126175000Y-76903223D01*
X126275000Y-76913072D01*
X126725000Y-76913072D01*
X126825000Y-76903223D01*
X126925000Y-76913072D01*
X127375000Y-76913072D01*
X127475000Y-76903223D01*
X127575000Y-76913072D01*
X128025000Y-76913072D01*
X128125000Y-76903223D01*
X128225000Y-76913072D01*
X128675000Y-76913072D01*
X128775000Y-76903223D01*
X128875000Y-76913072D01*
X129325000Y-76913072D01*
X129425000Y-76903223D01*
X129525000Y-76913072D01*
X129975000Y-76913072D01*
X130077838Y-76902944D01*
X130143250Y-76910000D01*
X130175497Y-76877753D01*
X130219180Y-76864502D01*
X130329494Y-76805537D01*
X130400000Y-76747674D01*
X130470506Y-76805537D01*
X130580820Y-76864502D01*
X130624503Y-76877753D01*
X130656750Y-76910000D01*
X130722162Y-76902944D01*
X130825000Y-76913072D01*
X131001500Y-76913072D01*
X131001500Y-77065701D01*
X130998122Y-77100000D01*
X131001500Y-77134298D01*
X131001500Y-77134308D01*
X131011607Y-77236929D01*
X131051548Y-77368596D01*
X131051549Y-77368598D01*
X131116409Y-77489943D01*
X131181826Y-77569653D01*
X131181829Y-77569656D01*
X131203697Y-77596302D01*
X131230344Y-77618171D01*
X132581829Y-78969657D01*
X132603697Y-78996303D01*
X132630343Y-79018171D01*
X132630346Y-79018174D01*
X132710056Y-79083591D01*
X132831401Y-79148451D01*
X132831403Y-79148452D01*
X132963070Y-79188393D01*
X133065691Y-79198500D01*
X133065702Y-79198500D01*
X133100000Y-79201878D01*
X133134298Y-79198500D01*
X135665000Y-79198500D01*
X135665000Y-79301939D01*
X135704774Y-79501898D01*
X135782795Y-79690256D01*
X135896063Y-79859774D01*
X136040226Y-80003937D01*
X136209744Y-80117205D01*
X136398102Y-80195226D01*
X136598061Y-80235000D01*
X136747172Y-80235000D01*
X136921829Y-80409657D01*
X136943697Y-80436303D01*
X136970343Y-80458171D01*
X136970346Y-80458174D01*
X137050056Y-80523591D01*
X137145267Y-80574482D01*
X137171403Y-80588452D01*
X137303070Y-80628393D01*
X137405691Y-80638500D01*
X137405701Y-80638500D01*
X137439999Y-80641878D01*
X137456505Y-80640252D01*
X137469463Y-80664494D01*
X137548815Y-80761185D01*
X137645506Y-80840537D01*
X137755820Y-80899502D01*
X137875518Y-80935812D01*
X138000000Y-80948072D01*
X140400000Y-80948072D01*
X140524482Y-80935812D01*
X140644180Y-80899502D01*
X140754494Y-80840537D01*
X140851185Y-80761185D01*
X140930537Y-80664494D01*
X140989502Y-80554180D01*
X141025812Y-80434482D01*
X141038072Y-80310000D01*
X141038072Y-80192900D01*
X141254829Y-80409657D01*
X141274050Y-80433077D01*
X141274188Y-80434482D01*
X141310498Y-80554180D01*
X141369463Y-80664494D01*
X141448815Y-80761185D01*
X141545506Y-80840537D01*
X141655820Y-80899502D01*
X141775518Y-80935812D01*
X141900000Y-80948072D01*
X144300000Y-80948072D01*
X144424482Y-80935812D01*
X144544180Y-80899502D01*
X144654494Y-80840537D01*
X144751185Y-80761185D01*
X144830537Y-80664494D01*
X144889502Y-80554180D01*
X144925812Y-80434482D01*
X144938072Y-80310000D01*
X144938072Y-79570000D01*
X144925812Y-79445518D01*
X144889502Y-79325820D01*
X144878373Y-79305000D01*
X144889502Y-79284180D01*
X144925812Y-79164482D01*
X144938072Y-79040000D01*
X144935000Y-78955750D01*
X144776250Y-78797000D01*
X143227000Y-78797000D01*
X143227000Y-78817000D01*
X142973000Y-78817000D01*
X142973000Y-78797000D01*
X142953000Y-78797000D01*
X142953000Y-78543000D01*
X142973000Y-78543000D01*
X142973000Y-78523000D01*
X143227000Y-78523000D01*
X143227000Y-78543000D01*
X144776250Y-78543000D01*
X144935000Y-78384250D01*
X144938072Y-78300000D01*
X144925812Y-78175518D01*
X144889502Y-78055820D01*
X144878373Y-78035000D01*
X144889502Y-78014180D01*
X144925812Y-77894482D01*
X144938072Y-77770000D01*
X144938072Y-77030000D01*
X144925812Y-76905518D01*
X144889502Y-76785820D01*
X144830537Y-76675506D01*
X144751185Y-76578815D01*
X144654494Y-76499463D01*
X144544180Y-76440498D01*
X144424482Y-76404188D01*
X144300000Y-76391928D01*
X143985000Y-76391928D01*
X143985000Y-75762339D01*
X143989281Y-75718873D01*
X143985000Y-75675407D01*
X143985000Y-75675397D01*
X143972195Y-75545384D01*
X143921589Y-75378561D01*
X143839411Y-75224815D01*
X143783141Y-75156250D01*
X143756532Y-75123827D01*
X143756530Y-75123825D01*
X143728817Y-75090057D01*
X143695051Y-75062346D01*
X136462641Y-67829937D01*
X136434924Y-67796164D01*
X136300166Y-67685570D01*
X136252327Y-67660000D01*
X145340000Y-67660000D01*
X145340001Y-86340000D01*
G37*
X145340001Y-86340000D02*
X127814107Y-86340000D01*
X127908664Y-86289458D01*
X128042292Y-86179792D01*
X128151958Y-86046164D01*
X128233447Y-85893709D01*
X128243063Y-85862008D01*
X128260000Y-85863676D01*
X128297322Y-85860000D01*
X128297333Y-85860000D01*
X128408986Y-85849003D01*
X128552247Y-85805546D01*
X128684276Y-85734974D01*
X128800001Y-85640001D01*
X128823804Y-85610997D01*
X128907997Y-85526804D01*
X128937001Y-85503001D01*
X129031974Y-85387276D01*
X129102546Y-85255247D01*
X129146003Y-85111986D01*
X129153572Y-85035139D01*
X129200937Y-84987774D01*
X129314205Y-84818256D01*
X129392226Y-84629898D01*
X129432000Y-84429939D01*
X129432000Y-84226061D01*
X129407901Y-84104907D01*
X129427838Y-84102944D01*
X129493250Y-84110000D01*
X129525497Y-84077753D01*
X129569180Y-84064502D01*
X129679494Y-84005537D01*
X129750000Y-83947674D01*
X129820506Y-84005537D01*
X129930820Y-84064502D01*
X129974503Y-84077753D01*
X130006750Y-84110000D01*
X130072162Y-84102944D01*
X130175000Y-84113072D01*
X130625000Y-84113072D01*
X130725000Y-84103223D01*
X130825000Y-84113072D01*
X131275000Y-84113072D01*
X131375000Y-84103223D01*
X131475000Y-84113072D01*
X131925000Y-84113072D01*
X132027838Y-84102944D01*
X132093250Y-84110000D01*
X132125497Y-84077753D01*
X132169180Y-84064502D01*
X132279494Y-84005537D01*
X132350256Y-83947464D01*
X132413476Y-84000772D01*
X132522995Y-84061199D01*
X132574243Y-84077493D01*
X132606750Y-84110000D01*
X132675000Y-84102637D01*
X132743250Y-84110000D01*
X132775757Y-84077493D01*
X132827005Y-84061199D01*
X132936524Y-84000772D01*
X132999744Y-83947464D01*
X133070506Y-84005537D01*
X133180820Y-84064502D01*
X133224503Y-84077753D01*
X133256750Y-84110000D01*
X133322162Y-84102944D01*
X133425000Y-84113072D01*
X133875000Y-84113072D01*
X133975000Y-84103223D01*
X134075000Y-84113072D01*
X134525000Y-84113072D01*
X134649482Y-84100812D01*
X134769180Y-84064502D01*
X134879494Y-84005537D01*
X134976185Y-83926185D01*
X135055537Y-83829494D01*
X135114502Y-83719180D01*
X135150812Y-83599482D01*
X135163072Y-83475000D01*
X135163072Y-81725000D01*
X135150812Y-81600518D01*
X135114502Y-81480820D01*
X135055537Y-81370506D01*
X134976185Y-81273815D01*
X134879494Y-81194463D01*
X134769180Y-81135498D01*
X134649482Y-81099188D01*
X134525000Y-81086928D01*
X134075000Y-81086928D01*
X133975000Y-81096777D01*
X133875000Y-81086928D01*
X133425000Y-81086928D01*
X133322162Y-81097056D01*
X133256750Y-81090000D01*
X133224503Y-81122247D01*
X133180820Y-81135498D01*
X133070506Y-81194463D01*
X132999744Y-81252536D01*
X132936524Y-81199228D01*
X132827005Y-81138801D01*
X132775757Y-81122507D01*
X132743250Y-81090000D01*
X132675000Y-81097363D01*
X132606750Y-81090000D01*
X132574243Y-81122507D01*
X132522995Y-81138801D01*
X132413476Y-81199228D01*
X132350256Y-81252536D01*
X132279494Y-81194463D01*
X132169180Y-81135498D01*
X132125497Y-81122247D01*
X132093250Y-81090000D01*
X132027838Y-81097056D01*
X131925000Y-81086928D01*
X131475000Y-81086928D01*
X131375000Y-81096777D01*
X131275000Y-81086928D01*
X130825000Y-81086928D01*
X130725000Y-81096777D01*
X130625000Y-81086928D01*
X130175000Y-81086928D01*
X130072162Y-81097056D01*
X130006750Y-81090000D01*
X129974503Y-81122247D01*
X129930820Y-81135498D01*
X129877002Y-81164265D01*
X129877002Y-81090000D01*
X129755968Y-81090000D01*
X129734974Y-81050724D01*
X129663799Y-80963997D01*
X129640001Y-80934999D01*
X129611003Y-80911201D01*
X125611548Y-76911747D01*
X125625000Y-76913072D01*
X126075000Y-76913072D01*
X126175000Y-76903223D01*
X126275000Y-76913072D01*
X126725000Y-76913072D01*
X126825000Y-76903223D01*
X126925000Y-76913072D01*
X127375000Y-76913072D01*
X127475000Y-76903223D01*
X127575000Y-76913072D01*
X128025000Y-76913072D01*
X128125000Y-76903223D01*
X128225000Y-76913072D01*
X128675000Y-76913072D01*
X128775000Y-76903223D01*
X128875000Y-76913072D01*
X129325000Y-76913072D01*
X129425000Y-76903223D01*
X129525000Y-76913072D01*
X129975000Y-76913072D01*
X130077838Y-76902944D01*
X130143250Y-76910000D01*
X130175497Y-76877753D01*
X130219180Y-76864502D01*
X130329494Y-76805537D01*
X130400000Y-76747674D01*
X130470506Y-76805537D01*
X130580820Y-76864502D01*
X130624503Y-76877753D01*
X130656750Y-76910000D01*
X130722162Y-76902944D01*
X130825000Y-76913072D01*
X131001500Y-76913072D01*
X131001500Y-77065701D01*
X130998122Y-77100000D01*
X131001500Y-77134298D01*
X131001500Y-77134308D01*
X131011607Y-77236929D01*
X131051548Y-77368596D01*
X131051549Y-77368598D01*
X131116409Y-77489943D01*
X131181826Y-77569653D01*
X131181829Y-77569656D01*
X131203697Y-77596302D01*
X131230344Y-77618171D01*
X132581829Y-78969657D01*
X132603697Y-78996303D01*
X132630343Y-79018171D01*
X132630346Y-79018174D01*
X132710056Y-79083591D01*
X132831401Y-79148451D01*
X132831403Y-79148452D01*
X132963070Y-79188393D01*
X133065691Y-79198500D01*
X133065702Y-79198500D01*
X133100000Y-79201878D01*
X133134298Y-79198500D01*
X135665000Y-79198500D01*
X135665000Y-79301939D01*
X135704774Y-79501898D01*
X135782795Y-79690256D01*
X135896063Y-79859774D01*
X136040226Y-80003937D01*
X136209744Y-80117205D01*
X136398102Y-80195226D01*
X136598061Y-80235000D01*
X136747172Y-80235000D01*
X136921829Y-80409657D01*
X136943697Y-80436303D01*
X136970343Y-80458171D01*
X136970346Y-80458174D01*
X137050056Y-80523591D01*
X137145267Y-80574482D01*
X137171403Y-80588452D01*
X137303070Y-80628393D01*
X137405691Y-80638500D01*
X137405701Y-80638500D01*
X137439999Y-80641878D01*
X137456505Y-80640252D01*
X137469463Y-80664494D01*
X137548815Y-80761185D01*
X137645506Y-80840537D01*
X137755820Y-80899502D01*
X137875518Y-80935812D01*
X138000000Y-80948072D01*
X140400000Y-80948072D01*
X140524482Y-80935812D01*
X140644180Y-80899502D01*
X140754494Y-80840537D01*
X140851185Y-80761185D01*
X140930537Y-80664494D01*
X140989502Y-80554180D01*
X141025812Y-80434482D01*
X141038072Y-80310000D01*
X141038072Y-80192900D01*
X141254829Y-80409657D01*
X141274050Y-80433077D01*
X141274188Y-80434482D01*
X141310498Y-80554180D01*
X141369463Y-80664494D01*
X141448815Y-80761185D01*
X141545506Y-80840537D01*
X141655820Y-80899502D01*
X141775518Y-80935812D01*
X141900000Y-80948072D01*
X144300000Y-80948072D01*
X144424482Y-80935812D01*
X144544180Y-80899502D01*
X144654494Y-80840537D01*
X144751185Y-80761185D01*
X144830537Y-80664494D01*
X144889502Y-80554180D01*
X144925812Y-80434482D01*
X144938072Y-80310000D01*
X144938072Y-79570000D01*
X144925812Y-79445518D01*
X144889502Y-79325820D01*
X144878373Y-79305000D01*
X144889502Y-79284180D01*
X144925812Y-79164482D01*
X144938072Y-79040000D01*
X144935000Y-78955750D01*
X144776250Y-78797000D01*
X143227000Y-78797000D01*
X143227000Y-78817000D01*
X142973000Y-78817000D01*
X142973000Y-78797000D01*
X142953000Y-78797000D01*
X142953000Y-78543000D01*
X142973000Y-78543000D01*
X142973000Y-78523000D01*
X143227000Y-78523000D01*
X143227000Y-78543000D01*
X144776250Y-78543000D01*
X144935000Y-78384250D01*
X144938072Y-78300000D01*
X144925812Y-78175518D01*
X144889502Y-78055820D01*
X144878373Y-78035000D01*
X144889502Y-78014180D01*
X144925812Y-77894482D01*
X144938072Y-77770000D01*
X144938072Y-77030000D01*
X144925812Y-76905518D01*
X144889502Y-76785820D01*
X144830537Y-76675506D01*
X144751185Y-76578815D01*
X144654494Y-76499463D01*
X144544180Y-76440498D01*
X144424482Y-76404188D01*
X144300000Y-76391928D01*
X143985000Y-76391928D01*
X143985000Y-75762339D01*
X143989281Y-75718873D01*
X143985000Y-75675407D01*
X143985000Y-75675397D01*
X143972195Y-75545384D01*
X143921589Y-75378561D01*
X143839411Y-75224815D01*
X143783141Y-75156250D01*
X143756532Y-75123827D01*
X143756530Y-75123825D01*
X143728817Y-75090057D01*
X143695051Y-75062346D01*
X136462641Y-67829937D01*
X136434924Y-67796164D01*
X136300166Y-67685570D01*
X136252327Y-67660000D01*
X145340000Y-67660000D01*
X145340001Y-86340000D01*
G36*
X128593460Y-67685570D02*
G01*
X128593458Y-67685571D01*
X128593459Y-67685571D01*
X128492472Y-67768449D01*
X128492470Y-67768451D01*
X128458702Y-67796164D01*
X128430989Y-67829932D01*
X127404951Y-68855971D01*
X127371184Y-68883683D01*
X127362606Y-68894135D01*
X127206291Y-68941553D01*
X127053836Y-69023042D01*
X126920208Y-69132708D01*
X126904582Y-69151748D01*
X126874180Y-69135498D01*
X126754482Y-69099188D01*
X126630000Y-69086928D01*
X125570000Y-69086928D01*
X125445518Y-69099188D01*
X125325820Y-69135498D01*
X125215506Y-69194463D01*
X125118815Y-69273815D01*
X125039463Y-69370506D01*
X125000000Y-69444335D01*
X124960537Y-69370506D01*
X124881185Y-69273815D01*
X124784494Y-69194463D01*
X124674180Y-69135498D01*
X124554482Y-69099188D01*
X124430000Y-69086928D01*
X123370000Y-69086928D01*
X123245518Y-69099188D01*
X123125820Y-69135498D01*
X123070627Y-69165000D01*
X122036376Y-69165000D01*
X121976958Y-69053836D01*
X121867292Y-68920208D01*
X121733664Y-68810542D01*
X121581209Y-68729053D01*
X121415785Y-68678872D01*
X121243750Y-68661928D01*
X120756250Y-68661928D01*
X120584215Y-68678872D01*
X120418791Y-68729053D01*
X120266336Y-68810542D01*
X120132708Y-68920208D01*
X120062500Y-69005756D01*
X119992292Y-68920208D01*
X119858664Y-68810542D01*
X119706209Y-68729053D01*
X119540785Y-68678872D01*
X119368750Y-68661928D01*
X118881250Y-68661928D01*
X118709215Y-68678872D01*
X118543791Y-68729053D01*
X118391336Y-68810542D01*
X118257708Y-68920208D01*
X118148042Y-69053836D01*
X118066553Y-69206291D01*
X118016372Y-69371715D01*
X117999428Y-69543750D01*
X117999428Y-69870392D01*
X117982944Y-69890478D01*
X117982941Y-69890481D01*
X117900063Y-69991468D01*
X117817885Y-70145214D01*
X117767278Y-70312037D01*
X117750192Y-70485527D01*
X117754474Y-70529006D01*
X117754473Y-72557949D01*
X117767278Y-72687962D01*
X117817884Y-72854785D01*
X117879473Y-72970012D01*
X117879474Y-74102141D01*
X117875797Y-74139473D01*
X117879474Y-74176806D01*
X117886068Y-74243750D01*
X117890471Y-74288458D01*
X117933927Y-74431719D01*
X118004499Y-74563749D01*
X118026521Y-74590582D01*
X118099473Y-74679474D01*
X118128471Y-74703272D01*
X118175199Y-74750000D01*
X116032492Y-76892706D01*
X115980537Y-76795506D01*
X115947725Y-76755525D01*
X116085000Y-76618250D01*
X116072675Y-76510674D01*
X116033529Y-76391873D01*
X115971959Y-76282992D01*
X115890330Y-76188215D01*
X115791780Y-76111184D01*
X115680095Y-76054859D01*
X115559567Y-76021406D01*
X115434829Y-76012108D01*
X115400000Y-76014160D01*
X115400000Y-75855448D01*
X115363108Y-75669978D01*
X115290741Y-75495269D01*
X115185681Y-75338036D01*
X115051964Y-75204319D01*
X114894731Y-75099259D01*
X114720022Y-75026892D01*
X114534552Y-74990000D01*
X114434792Y-74990000D01*
X114421128Y-74950582D01*
X114311658Y-74777948D01*
X114170612Y-74629987D01*
X114003410Y-74512386D01*
X113816478Y-74429664D01*
X113617000Y-74385000D01*
X113317000Y-74385000D01*
X113317000Y-75293000D01*
X113337000Y-75293000D01*
X113337000Y-75547000D01*
X113317000Y-75547000D01*
X113317000Y-75567000D01*
X113063000Y-75567000D01*
X113063000Y-75547000D01*
X112023002Y-75547000D01*
X111895334Y-75706123D01*
X111958872Y-75889418D01*
X112068342Y-76062052D01*
X112209388Y-76210013D01*
X112376590Y-76327614D01*
X112506678Y-76385181D01*
X112478036Y-76404319D01*
X112344319Y-76538036D01*
X112239259Y-76695269D01*
X112166892Y-76869978D01*
X112130000Y-77055448D01*
X112130000Y-77244552D01*
X112166892Y-77430022D01*
X112216589Y-77550000D01*
X112166892Y-77669978D01*
X112130000Y-77855448D01*
X112130000Y-78044552D01*
X112166892Y-78230022D01*
X112216589Y-78350000D01*
X112166892Y-78469978D01*
X112130000Y-78655448D01*
X112130000Y-78844552D01*
X112166892Y-79030022D01*
X112239259Y-79204731D01*
X112344319Y-79361964D01*
X112478036Y-79495681D01*
X112559330Y-79550000D01*
X112478036Y-79604319D01*
X112344319Y-79738036D01*
X112239259Y-79895269D01*
X112190703Y-80012493D01*
X111653988Y-80549209D01*
X111624990Y-80573007D01*
X111601192Y-80602005D01*
X111601191Y-80602006D01*
X111530016Y-80688732D01*
X111459444Y-80820762D01*
X111435053Y-80901171D01*
X111415988Y-80964022D01*
X111407448Y-81050725D01*
X111401314Y-81113008D01*
X111404991Y-81150340D01*
X111404990Y-83942985D01*
X111401314Y-83980308D01*
X111404990Y-84017630D01*
X111404990Y-84017640D01*
X111415987Y-84129293D01*
X111454430Y-84256024D01*
X111459444Y-84272554D01*
X111530016Y-84404584D01*
X111550825Y-84429939D01*
X111624989Y-84520309D01*
X111653993Y-84544112D01*
X112025888Y-84916007D01*
X112049691Y-84945011D01*
X112165416Y-85039984D01*
X112297445Y-85110556D01*
X112440706Y-85154013D01*
X112552359Y-85165010D01*
X112552368Y-85165010D01*
X112589691Y-85168686D01*
X112627014Y-85165010D01*
X116807684Y-85165010D01*
X116818791Y-85170947D01*
X116984215Y-85221128D01*
X117156250Y-85238072D01*
X117643750Y-85238072D01*
X117815785Y-85221128D01*
X117981209Y-85170947D01*
X118133664Y-85089458D01*
X118267292Y-84979792D01*
X118272508Y-84973436D01*
X118336315Y-85051185D01*
X118433006Y-85130537D01*
X118543320Y-85189502D01*
X118663018Y-85225812D01*
X118787500Y-85238072D01*
X118989250Y-85235000D01*
X119148000Y-85076250D01*
X119148000Y-84027000D01*
X119402000Y-84027000D01*
X119402000Y-85076250D01*
X119560750Y-85235000D01*
X119762500Y-85238072D01*
X119886982Y-85225812D01*
X120006680Y-85189502D01*
X120116994Y-85130537D01*
X120213685Y-85051185D01*
X120293037Y-84954494D01*
X120352002Y-84844180D01*
X120388312Y-84724482D01*
X120400572Y-84600000D01*
X120397500Y-84185750D01*
X120238750Y-84027000D01*
X119402000Y-84027000D01*
X119148000Y-84027000D01*
X119128000Y-84027000D01*
X119128000Y-83773000D01*
X119148000Y-83773000D01*
X119148000Y-82723750D01*
X118989250Y-82565000D01*
X118787500Y-82561928D01*
X118782898Y-82562381D01*
X118865000Y-82495002D01*
X118888801Y-82466001D01*
X118911002Y-82443800D01*
X118940001Y-82420001D01*
X119034974Y-82304276D01*
X119054326Y-82268072D01*
X119462870Y-82268072D01*
X119756812Y-82562015D01*
X119560750Y-82565000D01*
X119402000Y-82723750D01*
X119402000Y-83773000D01*
X120238750Y-83773000D01*
X120397500Y-83614250D01*
X120400572Y-83200000D01*
X120392344Y-83116453D01*
X120509206Y-83151903D01*
X120611827Y-83162010D01*
X120611837Y-83162010D01*
X120646135Y-83165388D01*
X120680433Y-83162010D01*
X121977192Y-83162010D01*
X122011490Y-83165388D01*
X122045788Y-83162010D01*
X122045799Y-83162010D01*
X122148420Y-83151903D01*
X122280087Y-83111962D01*
X122401433Y-83047101D01*
X122507793Y-82959813D01*
X122529665Y-82933162D01*
X122634304Y-82828524D01*
X122731250Y-82838072D01*
X123218750Y-82838072D01*
X123390785Y-82821128D01*
X123556209Y-82770947D01*
X123708664Y-82689458D01*
X123842292Y-82579792D01*
X123951958Y-82446164D01*
X124033447Y-82293709D01*
X124083628Y-82128285D01*
X124100572Y-81956250D01*
X124100572Y-81413875D01*
X124242452Y-81271995D01*
X124245682Y-81288234D01*
X124323703Y-81476592D01*
X124436971Y-81646110D01*
X124581134Y-81790273D01*
X124750652Y-81903541D01*
X124939010Y-81981562D01*
X124986928Y-81991093D01*
X124986928Y-83475000D01*
X124999188Y-83599482D01*
X125035498Y-83719180D01*
X125094463Y-83829494D01*
X125166401Y-83917151D01*
X125014250Y-83765000D01*
X124812500Y-83761928D01*
X124688018Y-83774188D01*
X124568320Y-83810498D01*
X124458006Y-83869463D01*
X124361315Y-83948815D01*
X124281963Y-84045506D01*
X124222998Y-84155820D01*
X124186688Y-84275518D01*
X124174428Y-84400000D01*
X124177500Y-84814250D01*
X124336250Y-84973000D01*
X125173000Y-84973000D01*
X125173000Y-84953000D01*
X125427000Y-84953000D01*
X125427000Y-84973000D01*
X125447000Y-84973000D01*
X125447000Y-85227000D01*
X125427000Y-85227000D01*
X125427000Y-85247000D01*
X125173000Y-85247000D01*
X125173000Y-85227000D01*
X124336250Y-85227000D01*
X124177500Y-85385750D01*
X124174428Y-85800000D01*
X124186688Y-85924482D01*
X124222998Y-86044180D01*
X124281963Y-86154494D01*
X124361315Y-86251185D01*
X124458006Y-86330537D01*
X124475710Y-86340000D01*
X105660000Y-86340000D01*
X105660000Y-84326123D01*
X105945334Y-84326123D01*
X106008872Y-84509418D01*
X106118342Y-84682052D01*
X106259388Y-84830013D01*
X106426590Y-84947614D01*
X106613522Y-85030336D01*
X106813000Y-85075000D01*
X107113000Y-85075000D01*
X107113000Y-84167000D01*
X107367000Y-84167000D01*
X107367000Y-85075000D01*
X107667000Y-85075000D01*
X107866478Y-85030336D01*
X108053410Y-84947614D01*
X108220612Y-84830013D01*
X108361658Y-84682052D01*
X108471128Y-84509418D01*
X108534666Y-84326123D01*
X108406998Y-84167000D01*
X107367000Y-84167000D01*
X107113000Y-84167000D01*
X106073002Y-84167000D01*
X105945334Y-84326123D01*
X105660000Y-84326123D01*
X105660000Y-83753877D01*
X105945334Y-83753877D01*
X106073002Y-83913000D01*
X107113000Y-83913000D01*
X107113000Y-83005000D01*
X107367000Y-83005000D01*
X107367000Y-83913000D01*
X108406998Y-83913000D01*
X108534666Y-83753877D01*
X108471128Y-83570582D01*
X108361658Y-83397948D01*
X108220612Y-83249987D01*
X108053410Y-83132386D01*
X107866478Y-83049664D01*
X107667000Y-83005000D01*
X107367000Y-83005000D01*
X107113000Y-83005000D01*
X106813000Y-83005000D01*
X106613522Y-83049664D01*
X106426590Y-83132386D01*
X106259388Y-83249987D01*
X106118342Y-83397948D01*
X106008872Y-83570582D01*
X105945334Y-83753877D01*
X105660000Y-83753877D01*
X105660000Y-75346123D01*
X105945334Y-75346123D01*
X106008872Y-75529418D01*
X106118342Y-75702052D01*
X106259388Y-75850013D01*
X106426590Y-75967614D01*
X106613522Y-76050336D01*
X106813000Y-76095000D01*
X107113000Y-76095000D01*
X107113000Y-75187000D01*
X107367000Y-75187000D01*
X107367000Y-76095000D01*
X107667000Y-76095000D01*
X107866478Y-76050336D01*
X108053410Y-75967614D01*
X108220612Y-75850013D01*
X108361658Y-75702052D01*
X108471128Y-75529418D01*
X108534666Y-75346123D01*
X108406998Y-75187000D01*
X107367000Y-75187000D01*
X107113000Y-75187000D01*
X106073002Y-75187000D01*
X105945334Y-75346123D01*
X105660000Y-75346123D01*
X105660000Y-75133877D01*
X111895334Y-75133877D01*
X112023002Y-75293000D01*
X113063000Y-75293000D01*
X113063000Y-74385000D01*
X112763000Y-74385000D01*
X112563522Y-74429664D01*
X112376590Y-74512386D01*
X112209388Y-74629987D01*
X112068342Y-74777948D01*
X111958872Y-74950582D01*
X111895334Y-75133877D01*
X105660000Y-75133877D01*
X105660000Y-74773877D01*
X105945334Y-74773877D01*
X106073002Y-74933000D01*
X107113000Y-74933000D01*
X107113000Y-74025000D01*
X107367000Y-74025000D01*
X107367000Y-74933000D01*
X108406998Y-74933000D01*
X108534666Y-74773877D01*
X108471128Y-74590582D01*
X108361658Y-74417948D01*
X108220612Y-74269987D01*
X108053410Y-74152386D01*
X107866478Y-74069664D01*
X107667000Y-74025000D01*
X107367000Y-74025000D01*
X107113000Y-74025000D01*
X106813000Y-74025000D01*
X106613522Y-74069664D01*
X106426590Y-74152386D01*
X106259388Y-74269987D01*
X106118342Y-74417948D01*
X106008872Y-74590582D01*
X105945334Y-74773877D01*
X105660000Y-74773877D01*
X105660000Y-67660000D01*
X128641299Y-67660000D01*
X128593460Y-67685570D01*
G37*
X128593460Y-67685570D02*
X128593458Y-67685571D01*
X128593459Y-67685571D01*
X128492472Y-67768449D01*
X128492470Y-67768451D01*
X128458702Y-67796164D01*
X128430989Y-67829932D01*
X127404951Y-68855971D01*
X127371184Y-68883683D01*
X127362606Y-68894135D01*
X127206291Y-68941553D01*
X127053836Y-69023042D01*
X126920208Y-69132708D01*
X126904582Y-69151748D01*
X126874180Y-69135498D01*
X126754482Y-69099188D01*
X126630000Y-69086928D01*
X125570000Y-69086928D01*
X125445518Y-69099188D01*
X125325820Y-69135498D01*
X125215506Y-69194463D01*
X125118815Y-69273815D01*
X125039463Y-69370506D01*
X125000000Y-69444335D01*
X124960537Y-69370506D01*
X124881185Y-69273815D01*
X124784494Y-69194463D01*
X124674180Y-69135498D01*
X124554482Y-69099188D01*
X124430000Y-69086928D01*
X123370000Y-69086928D01*
X123245518Y-69099188D01*
X123125820Y-69135498D01*
X123070627Y-69165000D01*
X122036376Y-69165000D01*
X121976958Y-69053836D01*
X121867292Y-68920208D01*
X121733664Y-68810542D01*
X121581209Y-68729053D01*
X121415785Y-68678872D01*
X121243750Y-68661928D01*
X120756250Y-68661928D01*
X120584215Y-68678872D01*
X120418791Y-68729053D01*
X120266336Y-68810542D01*
X120132708Y-68920208D01*
X120062500Y-69005756D01*
X119992292Y-68920208D01*
X119858664Y-68810542D01*
X119706209Y-68729053D01*
X119540785Y-68678872D01*
X119368750Y-68661928D01*
X118881250Y-68661928D01*
X118709215Y-68678872D01*
X118543791Y-68729053D01*
X118391336Y-68810542D01*
X118257708Y-68920208D01*
X118148042Y-69053836D01*
X118066553Y-69206291D01*
X118016372Y-69371715D01*
X117999428Y-69543750D01*
X117999428Y-69870392D01*
X117982944Y-69890478D01*
X117982941Y-69890481D01*
X117900063Y-69991468D01*
X117817885Y-70145214D01*
X117767278Y-70312037D01*
X117750192Y-70485527D01*
X117754474Y-70529006D01*
X117754473Y-72557949D01*
X117767278Y-72687962D01*
X117817884Y-72854785D01*
X117879473Y-72970012D01*
X117879474Y-74102141D01*
X117875797Y-74139473D01*
X117879474Y-74176806D01*
X117886068Y-74243750D01*
X117890471Y-74288458D01*
X117933927Y-74431719D01*
X118004499Y-74563749D01*
X118026521Y-74590582D01*
X118099473Y-74679474D01*
X118128471Y-74703272D01*
X118175199Y-74750000D01*
X116032492Y-76892706D01*
X115980537Y-76795506D01*
X115947725Y-76755525D01*
X116085000Y-76618250D01*
X116072675Y-76510674D01*
X116033529Y-76391873D01*
X115971959Y-76282992D01*
X115890330Y-76188215D01*
X115791780Y-76111184D01*
X115680095Y-76054859D01*
X115559567Y-76021406D01*
X115434829Y-76012108D01*
X115400000Y-76014160D01*
X115400000Y-75855448D01*
X115363108Y-75669978D01*
X115290741Y-75495269D01*
X115185681Y-75338036D01*
X115051964Y-75204319D01*
X114894731Y-75099259D01*
X114720022Y-75026892D01*
X114534552Y-74990000D01*
X114434792Y-74990000D01*
X114421128Y-74950582D01*
X114311658Y-74777948D01*
X114170612Y-74629987D01*
X114003410Y-74512386D01*
X113816478Y-74429664D01*
X113617000Y-74385000D01*
X113317000Y-74385000D01*
X113317000Y-75293000D01*
X113337000Y-75293000D01*
X113337000Y-75547000D01*
X113317000Y-75547000D01*
X113317000Y-75567000D01*
X113063000Y-75567000D01*
X113063000Y-75547000D01*
X112023002Y-75547000D01*
X111895334Y-75706123D01*
X111958872Y-75889418D01*
X112068342Y-76062052D01*
X112209388Y-76210013D01*
X112376590Y-76327614D01*
X112506678Y-76385181D01*
X112478036Y-76404319D01*
X112344319Y-76538036D01*
X112239259Y-76695269D01*
X112166892Y-76869978D01*
X112130000Y-77055448D01*
X112130000Y-77244552D01*
X112166892Y-77430022D01*
X112216589Y-77550000D01*
X112166892Y-77669978D01*
X112130000Y-77855448D01*
X112130000Y-78044552D01*
X112166892Y-78230022D01*
X112216589Y-78350000D01*
X112166892Y-78469978D01*
X112130000Y-78655448D01*
X112130000Y-78844552D01*
X112166892Y-79030022D01*
X112239259Y-79204731D01*
X112344319Y-79361964D01*
X112478036Y-79495681D01*
X112559330Y-79550000D01*
X112478036Y-79604319D01*
X112344319Y-79738036D01*
X112239259Y-79895269D01*
X112190703Y-80012493D01*
X111653988Y-80549209D01*
X111624990Y-80573007D01*
X111601192Y-80602005D01*
X111601191Y-80602006D01*
X111530016Y-80688732D01*
X111459444Y-80820762D01*
X111435053Y-80901171D01*
X111415988Y-80964022D01*
X111407448Y-81050725D01*
X111401314Y-81113008D01*
X111404991Y-81150340D01*
X111404990Y-83942985D01*
X111401314Y-83980308D01*
X111404990Y-84017630D01*
X111404990Y-84017640D01*
X111415987Y-84129293D01*
X111454430Y-84256024D01*
X111459444Y-84272554D01*
X111530016Y-84404584D01*
X111550825Y-84429939D01*
X111624989Y-84520309D01*
X111653993Y-84544112D01*
X112025888Y-84916007D01*
X112049691Y-84945011D01*
X112165416Y-85039984D01*
X112297445Y-85110556D01*
X112440706Y-85154013D01*
X112552359Y-85165010D01*
X112552368Y-85165010D01*
X112589691Y-85168686D01*
X112627014Y-85165010D01*
X116807684Y-85165010D01*
X116818791Y-85170947D01*
X116984215Y-85221128D01*
X117156250Y-85238072D01*
X117643750Y-85238072D01*
X117815785Y-85221128D01*
X117981209Y-85170947D01*
X118133664Y-85089458D01*
X118267292Y-84979792D01*
X118272508Y-84973436D01*
X118336315Y-85051185D01*
X118433006Y-85130537D01*
X118543320Y-85189502D01*
X118663018Y-85225812D01*
X118787500Y-85238072D01*
X118989250Y-85235000D01*
X119148000Y-85076250D01*
X119148000Y-84027000D01*
X119402000Y-84027000D01*
X119402000Y-85076250D01*
X119560750Y-85235000D01*
X119762500Y-85238072D01*
X119886982Y-85225812D01*
X120006680Y-85189502D01*
X120116994Y-85130537D01*
X120213685Y-85051185D01*
X120293037Y-84954494D01*
X120352002Y-84844180D01*
X120388312Y-84724482D01*
X120400572Y-84600000D01*
X120397500Y-84185750D01*
X120238750Y-84027000D01*
X119402000Y-84027000D01*
X119148000Y-84027000D01*
X119128000Y-84027000D01*
X119128000Y-83773000D01*
X119148000Y-83773000D01*
X119148000Y-82723750D01*
X118989250Y-82565000D01*
X118787500Y-82561928D01*
X118782898Y-82562381D01*
X118865000Y-82495002D01*
X118888801Y-82466001D01*
X118911002Y-82443800D01*
X118940001Y-82420001D01*
X119034974Y-82304276D01*
X119054326Y-82268072D01*
X119462870Y-82268072D01*
X119756812Y-82562015D01*
X119560750Y-82565000D01*
X119402000Y-82723750D01*
X119402000Y-83773000D01*
X120238750Y-83773000D01*
X120397500Y-83614250D01*
X120400572Y-83200000D01*
X120392344Y-83116453D01*
X120509206Y-83151903D01*
X120611827Y-83162010D01*
X120611837Y-83162010D01*
X120646135Y-83165388D01*
X120680433Y-83162010D01*
X121977192Y-83162010D01*
X122011490Y-83165388D01*
X122045788Y-83162010D01*
X122045799Y-83162010D01*
X122148420Y-83151903D01*
X122280087Y-83111962D01*
X122401433Y-83047101D01*
X122507793Y-82959813D01*
X122529665Y-82933162D01*
X122634304Y-82828524D01*
X122731250Y-82838072D01*
X123218750Y-82838072D01*
X123390785Y-82821128D01*
X123556209Y-82770947D01*
X123708664Y-82689458D01*
X123842292Y-82579792D01*
X123951958Y-82446164D01*
X124033447Y-82293709D01*
X124083628Y-82128285D01*
X124100572Y-81956250D01*
X124100572Y-81413875D01*
X124242452Y-81271995D01*
X124245682Y-81288234D01*
X124323703Y-81476592D01*
X124436971Y-81646110D01*
X124581134Y-81790273D01*
X124750652Y-81903541D01*
X124939010Y-81981562D01*
X124986928Y-81991093D01*
X124986928Y-83475000D01*
X124999188Y-83599482D01*
X125035498Y-83719180D01*
X125094463Y-83829494D01*
X125166401Y-83917151D01*
X125014250Y-83765000D01*
X124812500Y-83761928D01*
X124688018Y-83774188D01*
X124568320Y-83810498D01*
X124458006Y-83869463D01*
X124361315Y-83948815D01*
X124281963Y-84045506D01*
X124222998Y-84155820D01*
X124186688Y-84275518D01*
X124174428Y-84400000D01*
X124177500Y-84814250D01*
X124336250Y-84973000D01*
X125173000Y-84973000D01*
X125173000Y-84953000D01*
X125427000Y-84953000D01*
X125427000Y-84973000D01*
X125447000Y-84973000D01*
X125447000Y-85227000D01*
X125427000Y-85227000D01*
X125427000Y-85247000D01*
X125173000Y-85247000D01*
X125173000Y-85227000D01*
X124336250Y-85227000D01*
X124177500Y-85385750D01*
X124174428Y-85800000D01*
X124186688Y-85924482D01*
X124222998Y-86044180D01*
X124281963Y-86154494D01*
X124361315Y-86251185D01*
X124458006Y-86330537D01*
X124475710Y-86340000D01*
X105660000Y-86340000D01*
X105660000Y-84326123D01*
X105945334Y-84326123D01*
X106008872Y-84509418D01*
X106118342Y-84682052D01*
X106259388Y-84830013D01*
X106426590Y-84947614D01*
X106613522Y-85030336D01*
X106813000Y-85075000D01*
X107113000Y-85075000D01*
X107113000Y-84167000D01*
X107367000Y-84167000D01*
X107367000Y-85075000D01*
X107667000Y-85075000D01*
X107866478Y-85030336D01*
X108053410Y-84947614D01*
X108220612Y-84830013D01*
X108361658Y-84682052D01*
X108471128Y-84509418D01*
X108534666Y-84326123D01*
X108406998Y-84167000D01*
X107367000Y-84167000D01*
X107113000Y-84167000D01*
X106073002Y-84167000D01*
X105945334Y-84326123D01*
X105660000Y-84326123D01*
X105660000Y-83753877D01*
X105945334Y-83753877D01*
X106073002Y-83913000D01*
X107113000Y-83913000D01*
X107113000Y-83005000D01*
X107367000Y-83005000D01*
X107367000Y-83913000D01*
X108406998Y-83913000D01*
X108534666Y-83753877D01*
X108471128Y-83570582D01*
X108361658Y-83397948D01*
X108220612Y-83249987D01*
X108053410Y-83132386D01*
X107866478Y-83049664D01*
X107667000Y-83005000D01*
X107367000Y-83005000D01*
X107113000Y-83005000D01*
X106813000Y-83005000D01*
X106613522Y-83049664D01*
X106426590Y-83132386D01*
X106259388Y-83249987D01*
X106118342Y-83397948D01*
X106008872Y-83570582D01*
X105945334Y-83753877D01*
X105660000Y-83753877D01*
X105660000Y-75346123D01*
X105945334Y-75346123D01*
X106008872Y-75529418D01*
X106118342Y-75702052D01*
X106259388Y-75850013D01*
X106426590Y-75967614D01*
X106613522Y-76050336D01*
X106813000Y-76095000D01*
X107113000Y-76095000D01*
X107113000Y-75187000D01*
X107367000Y-75187000D01*
X107367000Y-76095000D01*
X107667000Y-76095000D01*
X107866478Y-76050336D01*
X108053410Y-75967614D01*
X108220612Y-75850013D01*
X108361658Y-75702052D01*
X108471128Y-75529418D01*
X108534666Y-75346123D01*
X108406998Y-75187000D01*
X107367000Y-75187000D01*
X107113000Y-75187000D01*
X106073002Y-75187000D01*
X105945334Y-75346123D01*
X105660000Y-75346123D01*
X105660000Y-75133877D01*
X111895334Y-75133877D01*
X112023002Y-75293000D01*
X113063000Y-75293000D01*
X113063000Y-74385000D01*
X112763000Y-74385000D01*
X112563522Y-74429664D01*
X112376590Y-74512386D01*
X112209388Y-74629987D01*
X112068342Y-74777948D01*
X111958872Y-74950582D01*
X111895334Y-75133877D01*
X105660000Y-75133877D01*
X105660000Y-74773877D01*
X105945334Y-74773877D01*
X106073002Y-74933000D01*
X107113000Y-74933000D01*
X107113000Y-74025000D01*
X107367000Y-74025000D01*
X107367000Y-74933000D01*
X108406998Y-74933000D01*
X108534666Y-74773877D01*
X108471128Y-74590582D01*
X108361658Y-74417948D01*
X108220612Y-74269987D01*
X108053410Y-74152386D01*
X107866478Y-74069664D01*
X107667000Y-74025000D01*
X107367000Y-74025000D01*
X107113000Y-74025000D01*
X106813000Y-74025000D01*
X106613522Y-74069664D01*
X106426590Y-74152386D01*
X106259388Y-74269987D01*
X106118342Y-74417948D01*
X106008872Y-74590582D01*
X105945334Y-74773877D01*
X105660000Y-74773877D01*
X105660000Y-67660000D01*
X128641299Y-67660000D01*
X128593460Y-67685570D01*
G36*
X116276204Y-82466004D02*
G01*
X116300002Y-82495002D01*
X116329000Y-82518800D01*
X116415726Y-82589975D01*
X116516195Y-82643677D01*
X116547756Y-82660547D01*
X116683075Y-82701595D01*
X116666336Y-82710542D01*
X116532708Y-82820208D01*
X116423042Y-82953836D01*
X116341553Y-83106291D01*
X116291372Y-83271715D01*
X116274428Y-83443750D01*
X116274428Y-83645010D01*
X115338540Y-83645010D01*
X115386110Y-83488193D01*
X115400000Y-83347162D01*
X115400000Y-83085840D01*
X115434829Y-83087892D01*
X115559567Y-83078594D01*
X115680095Y-83045141D01*
X115791780Y-82988816D01*
X115890330Y-82911785D01*
X115971959Y-82817008D01*
X116033529Y-82708127D01*
X116072675Y-82589326D01*
X116085000Y-82481750D01*
X115947725Y-82344475D01*
X115980537Y-82304494D01*
X116027268Y-82217068D01*
X116276204Y-82466004D01*
G37*
X116276204Y-82466004D02*
X116300002Y-82495002D01*
X116329000Y-82518800D01*
X116415726Y-82589975D01*
X116516195Y-82643677D01*
X116547756Y-82660547D01*
X116683075Y-82701595D01*
X116666336Y-82710542D01*
X116532708Y-82820208D01*
X116423042Y-82953836D01*
X116341553Y-83106291D01*
X116291372Y-83271715D01*
X116274428Y-83443750D01*
X116274428Y-83645010D01*
X115338540Y-83645010D01*
X115386110Y-83488193D01*
X115400000Y-83347162D01*
X115400000Y-83085840D01*
X115434829Y-83087892D01*
X115559567Y-83078594D01*
X115680095Y-83045141D01*
X115791780Y-82988816D01*
X115890330Y-82911785D01*
X115971959Y-82817008D01*
X116033529Y-82708127D01*
X116072675Y-82589326D01*
X116085000Y-82481750D01*
X115947725Y-82344475D01*
X115980537Y-82304494D01*
X116027268Y-82217068D01*
X116276204Y-82466004D01*
G36*
X126452227Y-79902028D02*
G01*
X126389010Y-79914603D01*
X126325835Y-79940771D01*
X126283375Y-79905926D01*
X126240834Y-79883187D01*
X125825958Y-79468312D01*
X125802938Y-79440262D01*
X125691020Y-79348413D01*
X125563333Y-79280163D01*
X125424785Y-79238135D01*
X125316805Y-79227500D01*
X125280700Y-79223944D01*
X125244595Y-79227500D01*
X124366947Y-79227500D01*
X124125572Y-78986125D01*
X124125572Y-78443750D01*
X124108628Y-78271715D01*
X124058447Y-78106291D01*
X123976958Y-77953836D01*
X123867292Y-77820208D01*
X123848436Y-77804733D01*
X123913685Y-77751185D01*
X123993037Y-77654494D01*
X124052002Y-77544180D01*
X124061865Y-77511666D01*
X126452227Y-79902028D01*
G37*
X126452227Y-79902028D02*
X126389010Y-79914603D01*
X126325835Y-79940771D01*
X126283375Y-79905926D01*
X126240834Y-79883187D01*
X125825958Y-79468312D01*
X125802938Y-79440262D01*
X125691020Y-79348413D01*
X125563333Y-79280163D01*
X125424785Y-79238135D01*
X125316805Y-79227500D01*
X125280700Y-79223944D01*
X125244595Y-79227500D01*
X124366947Y-79227500D01*
X124125572Y-78986125D01*
X124125572Y-78443750D01*
X124108628Y-78271715D01*
X124058447Y-78106291D01*
X123976958Y-77953836D01*
X123867292Y-77820208D01*
X123848436Y-77804733D01*
X123913685Y-77751185D01*
X123993037Y-77654494D01*
X124052002Y-77544180D01*
X124061865Y-77511666D01*
X126452227Y-79902028D01*
G36*
X120041553Y-77393709D02*
G01*
X120105832Y-77513966D01*
X119857892Y-77761906D01*
X119799482Y-77744188D01*
X119675000Y-77731928D01*
X119025000Y-77731928D01*
X118900518Y-77744188D01*
X118875000Y-77751929D01*
X118849482Y-77744188D01*
X118725000Y-77731928D01*
X118685750Y-77735000D01*
X118527000Y-77893750D01*
X118527000Y-77975859D01*
X118494463Y-78015506D01*
X118435498Y-78125820D01*
X118400000Y-78242841D01*
X118364502Y-78125820D01*
X118305537Y-78015506D01*
X118273000Y-77975859D01*
X118273000Y-77893750D01*
X118182025Y-77802775D01*
X118624800Y-77360000D01*
X120031327Y-77360000D01*
X120041553Y-77393709D01*
G37*
X120041553Y-77393709D02*
X120105832Y-77513966D01*
X119857892Y-77761906D01*
X119799482Y-77744188D01*
X119675000Y-77731928D01*
X119025000Y-77731928D01*
X118900518Y-77744188D01*
X118875000Y-77751929D01*
X118849482Y-77744188D01*
X118725000Y-77731928D01*
X118685750Y-77735000D01*
X118527000Y-77893750D01*
X118527000Y-77975859D01*
X118494463Y-78015506D01*
X118435498Y-78125820D01*
X118400000Y-78242841D01*
X118364502Y-78125820D01*
X118305537Y-78015506D01*
X118273000Y-77975859D01*
X118273000Y-77893750D01*
X118182025Y-77802775D01*
X118624800Y-77360000D01*
X120031327Y-77360000D01*
X120041553Y-77393709D01*
G36*
X120127000Y-71873000D02*
G01*
X120147000Y-71873000D01*
X120147000Y-72127000D01*
X120127000Y-72127000D01*
X120127000Y-73176250D01*
X120285750Y-73335000D01*
X120487500Y-73338072D01*
X120611982Y-73325812D01*
X120731680Y-73289502D01*
X120841994Y-73230537D01*
X120938685Y-73151185D01*
X121002492Y-73073436D01*
X121007708Y-73079792D01*
X121141336Y-73189458D01*
X121293791Y-73270947D01*
X121459215Y-73321128D01*
X121631250Y-73338072D01*
X122118750Y-73338072D01*
X122290785Y-73321128D01*
X122456209Y-73270947D01*
X122608664Y-73189458D01*
X122742292Y-73079792D01*
X122851958Y-72946164D01*
X122911376Y-72835000D01*
X123070627Y-72835000D01*
X123125820Y-72864502D01*
X123140001Y-72868804D01*
X123140001Y-73485749D01*
X123102000Y-73523750D01*
X123102000Y-74573000D01*
X123122000Y-74573000D01*
X123122000Y-74827000D01*
X123102000Y-74827000D01*
X123102000Y-76473000D01*
X123122000Y-76473000D01*
X123122000Y-76727000D01*
X123102000Y-76727000D01*
X123102000Y-76747000D01*
X122848000Y-76747000D01*
X122848000Y-76727000D01*
X122828000Y-76727000D01*
X122828000Y-76473000D01*
X122848000Y-76473000D01*
X122848000Y-74827000D01*
X122828000Y-74827000D01*
X122828000Y-74573000D01*
X122848000Y-74573000D01*
X122848000Y-73523750D01*
X122689250Y-73365000D01*
X122487500Y-73361928D01*
X122363018Y-73374188D01*
X122243320Y-73410498D01*
X122133006Y-73469463D01*
X122036315Y-73548815D01*
X121972508Y-73626564D01*
X121967292Y-73620208D01*
X121833664Y-73510542D01*
X121681209Y-73429053D01*
X121515785Y-73378872D01*
X121343750Y-73361928D01*
X120856250Y-73361928D01*
X120684215Y-73378872D01*
X120518791Y-73429053D01*
X120366336Y-73510542D01*
X120232708Y-73620208D01*
X120123042Y-73753836D01*
X120041553Y-73906291D01*
X120031327Y-73940000D01*
X119514802Y-73940000D01*
X119399473Y-73824672D01*
X119399473Y-73326940D01*
X119512500Y-73338072D01*
X119714250Y-73335000D01*
X119873000Y-73176250D01*
X119873000Y-72127000D01*
X119853000Y-72127000D01*
X119853000Y-71873000D01*
X119873000Y-71873000D01*
X119873000Y-71853000D01*
X120127000Y-71853000D01*
X120127000Y-71873000D01*
G37*
X120127000Y-71873000D02*
X120147000Y-71873000D01*
X120147000Y-72127000D01*
X120127000Y-72127000D01*
X120127000Y-73176250D01*
X120285750Y-73335000D01*
X120487500Y-73338072D01*
X120611982Y-73325812D01*
X120731680Y-73289502D01*
X120841994Y-73230537D01*
X120938685Y-73151185D01*
X121002492Y-73073436D01*
X121007708Y-73079792D01*
X121141336Y-73189458D01*
X121293791Y-73270947D01*
X121459215Y-73321128D01*
X121631250Y-73338072D01*
X122118750Y-73338072D01*
X122290785Y-73321128D01*
X122456209Y-73270947D01*
X122608664Y-73189458D01*
X122742292Y-73079792D01*
X122851958Y-72946164D01*
X122911376Y-72835000D01*
X123070627Y-72835000D01*
X123125820Y-72864502D01*
X123140001Y-72868804D01*
X123140001Y-73485749D01*
X123102000Y-73523750D01*
X123102000Y-74573000D01*
X123122000Y-74573000D01*
X123122000Y-74827000D01*
X123102000Y-74827000D01*
X123102000Y-76473000D01*
X123122000Y-76473000D01*
X123122000Y-76727000D01*
X123102000Y-76727000D01*
X123102000Y-76747000D01*
X122848000Y-76747000D01*
X122848000Y-76727000D01*
X122828000Y-76727000D01*
X122828000Y-76473000D01*
X122848000Y-76473000D01*
X122848000Y-74827000D01*
X122828000Y-74827000D01*
X122828000Y-74573000D01*
X122848000Y-74573000D01*
X122848000Y-73523750D01*
X122689250Y-73365000D01*
X122487500Y-73361928D01*
X122363018Y-73374188D01*
X122243320Y-73410498D01*
X122133006Y-73469463D01*
X122036315Y-73548815D01*
X121972508Y-73626564D01*
X121967292Y-73620208D01*
X121833664Y-73510542D01*
X121681209Y-73429053D01*
X121515785Y-73378872D01*
X121343750Y-73361928D01*
X120856250Y-73361928D01*
X120684215Y-73378872D01*
X120518791Y-73429053D01*
X120366336Y-73510542D01*
X120232708Y-73620208D01*
X120123042Y-73753836D01*
X120041553Y-73906291D01*
X120031327Y-73940000D01*
X119514802Y-73940000D01*
X119399473Y-73824672D01*
X119399473Y-73326940D01*
X119512500Y-73338072D01*
X119714250Y-73335000D01*
X119873000Y-73176250D01*
X119873000Y-72127000D01*
X119853000Y-72127000D01*
X119853000Y-71873000D01*
X119873000Y-71873000D01*
X119873000Y-71853000D01*
X120127000Y-71853000D01*
X120127000Y-71873000D01*
G36*
X128127000Y-71748000D02*
G01*
X128147000Y-71748000D01*
X128147000Y-72002000D01*
X128127000Y-72002000D01*
X128127000Y-72838750D01*
X128285750Y-72997500D01*
X128700000Y-73000572D01*
X128824482Y-72988312D01*
X128944180Y-72952002D01*
X129054494Y-72893037D01*
X129151185Y-72813685D01*
X129230537Y-72716994D01*
X129266085Y-72650490D01*
X129310542Y-72733664D01*
X129420208Y-72867292D01*
X129553836Y-72976958D01*
X129706291Y-73058447D01*
X129871715Y-73108628D01*
X130043750Y-73125572D01*
X130956250Y-73125572D01*
X131128285Y-73108628D01*
X131293709Y-73058447D01*
X131446164Y-72976958D01*
X131579792Y-72867292D01*
X131667845Y-72760000D01*
X131740001Y-72760000D01*
X131740000Y-73737677D01*
X131736324Y-73775000D01*
X131740000Y-73812322D01*
X131740000Y-73812332D01*
X131747347Y-73886928D01*
X131475000Y-73886928D01*
X131375000Y-73896777D01*
X131275000Y-73886928D01*
X130825000Y-73886928D01*
X130722162Y-73897056D01*
X130656750Y-73890000D01*
X130624503Y-73922247D01*
X130580820Y-73935498D01*
X130470506Y-73994463D01*
X130400000Y-74052326D01*
X130329494Y-73994463D01*
X130219180Y-73935498D01*
X130175497Y-73922247D01*
X130143250Y-73890000D01*
X130077838Y-73897056D01*
X129975000Y-73886928D01*
X129525000Y-73886928D01*
X129425000Y-73896777D01*
X129325000Y-73886928D01*
X128875000Y-73886928D01*
X128775000Y-73896777D01*
X128675000Y-73886928D01*
X128225000Y-73886928D01*
X128125000Y-73896777D01*
X128025000Y-73886928D01*
X127575000Y-73886928D01*
X127475000Y-73896777D01*
X127375000Y-73886928D01*
X126925000Y-73886928D01*
X126825000Y-73896777D01*
X126725000Y-73886928D01*
X126275000Y-73886928D01*
X126175000Y-73896777D01*
X126075000Y-73886928D01*
X125625000Y-73886928D01*
X125500518Y-73899188D01*
X125380820Y-73935498D01*
X125270506Y-73994463D01*
X125173815Y-74073815D01*
X125094463Y-74170506D01*
X125035498Y-74280820D01*
X124999188Y-74400518D01*
X124986928Y-74525000D01*
X124986928Y-76275000D01*
X124988253Y-76288452D01*
X124660000Y-75960199D01*
X124660000Y-72868803D01*
X124674180Y-72864502D01*
X124784494Y-72805537D01*
X124881185Y-72726185D01*
X124960537Y-72629494D01*
X125000000Y-72555665D01*
X125039463Y-72629494D01*
X125118815Y-72726185D01*
X125215506Y-72805537D01*
X125325820Y-72864502D01*
X125445518Y-72900812D01*
X125570000Y-72913072D01*
X126630000Y-72913072D01*
X126754482Y-72900812D01*
X126874180Y-72864502D01*
X126896317Y-72852669D01*
X126945506Y-72893037D01*
X127055820Y-72952002D01*
X127175518Y-72988312D01*
X127300000Y-73000572D01*
X127714250Y-72997500D01*
X127873000Y-72838750D01*
X127873000Y-72002000D01*
X127853000Y-72002000D01*
X127853000Y-71748000D01*
X127873000Y-71748000D01*
X127873000Y-71728000D01*
X128127000Y-71728000D01*
X128127000Y-71748000D01*
G37*
X128127000Y-71748000D02*
X128147000Y-71748000D01*
X128147000Y-72002000D01*
X128127000Y-72002000D01*
X128127000Y-72838750D01*
X128285750Y-72997500D01*
X128700000Y-73000572D01*
X128824482Y-72988312D01*
X128944180Y-72952002D01*
X129054494Y-72893037D01*
X129151185Y-72813685D01*
X129230537Y-72716994D01*
X129266085Y-72650490D01*
X129310542Y-72733664D01*
X129420208Y-72867292D01*
X129553836Y-72976958D01*
X129706291Y-73058447D01*
X129871715Y-73108628D01*
X130043750Y-73125572D01*
X130956250Y-73125572D01*
X131128285Y-73108628D01*
X131293709Y-73058447D01*
X131446164Y-72976958D01*
X131579792Y-72867292D01*
X131667845Y-72760000D01*
X131740001Y-72760000D01*
X131740000Y-73737677D01*
X131736324Y-73775000D01*
X131740000Y-73812322D01*
X131740000Y-73812332D01*
X131747347Y-73886928D01*
X131475000Y-73886928D01*
X131375000Y-73896777D01*
X131275000Y-73886928D01*
X130825000Y-73886928D01*
X130722162Y-73897056D01*
X130656750Y-73890000D01*
X130624503Y-73922247D01*
X130580820Y-73935498D01*
X130470506Y-73994463D01*
X130400000Y-74052326D01*
X130329494Y-73994463D01*
X130219180Y-73935498D01*
X130175497Y-73922247D01*
X130143250Y-73890000D01*
X130077838Y-73897056D01*
X129975000Y-73886928D01*
X129525000Y-73886928D01*
X129425000Y-73896777D01*
X129325000Y-73886928D01*
X128875000Y-73886928D01*
X128775000Y-73896777D01*
X128675000Y-73886928D01*
X128225000Y-73886928D01*
X128125000Y-73896777D01*
X128025000Y-73886928D01*
X127575000Y-73886928D01*
X127475000Y-73896777D01*
X127375000Y-73886928D01*
X126925000Y-73886928D01*
X126825000Y-73896777D01*
X126725000Y-73886928D01*
X126275000Y-73886928D01*
X126175000Y-73896777D01*
X126075000Y-73886928D01*
X125625000Y-73886928D01*
X125500518Y-73899188D01*
X125380820Y-73935498D01*
X125270506Y-73994463D01*
X125173815Y-74073815D01*
X125094463Y-74170506D01*
X125035498Y-74280820D01*
X124999188Y-74400518D01*
X124986928Y-74525000D01*
X124986928Y-76275000D01*
X124988253Y-76288452D01*
X124660000Y-75960199D01*
X124660000Y-72868803D01*
X124674180Y-72864502D01*
X124784494Y-72805537D01*
X124881185Y-72726185D01*
X124960537Y-72629494D01*
X125000000Y-72555665D01*
X125039463Y-72629494D01*
X125118815Y-72726185D01*
X125215506Y-72805537D01*
X125325820Y-72864502D01*
X125445518Y-72900812D01*
X125570000Y-72913072D01*
X126630000Y-72913072D01*
X126754482Y-72900812D01*
X126874180Y-72864502D01*
X126896317Y-72852669D01*
X126945506Y-72893037D01*
X127055820Y-72952002D01*
X127175518Y-72988312D01*
X127300000Y-73000572D01*
X127714250Y-72997500D01*
X127873000Y-72838750D01*
X127873000Y-72002000D01*
X127853000Y-72002000D01*
X127853000Y-71748000D01*
X127873000Y-71748000D01*
X127873000Y-71728000D01*
X128127000Y-71728000D01*
X128127000Y-71748000D01*
G36*
X125118815Y-70826185D02*
G01*
X125215506Y-70905537D01*
X125325820Y-70964502D01*
X125442841Y-71000000D01*
X125325820Y-71035498D01*
X125215506Y-71094463D01*
X125118815Y-71173815D01*
X125044103Y-71264853D01*
X124906250Y-71127000D01*
X124824141Y-71127000D01*
X124784494Y-71094463D01*
X124674180Y-71035498D01*
X124557159Y-71000000D01*
X124674180Y-70964502D01*
X124784494Y-70905537D01*
X124824141Y-70873000D01*
X124906250Y-70873000D01*
X125044103Y-70735147D01*
X125118815Y-70826185D01*
G37*
X125118815Y-70826185D02*
X125215506Y-70905537D01*
X125325820Y-70964502D01*
X125442841Y-71000000D01*
X125325820Y-71035498D01*
X125215506Y-71094463D01*
X125118815Y-71173815D01*
X125044103Y-71264853D01*
X124906250Y-71127000D01*
X124824141Y-71127000D01*
X124784494Y-71094463D01*
X124674180Y-71035498D01*
X124557159Y-71000000D01*
X124674180Y-70964502D01*
X124784494Y-70905537D01*
X124824141Y-70873000D01*
X124906250Y-70873000D01*
X125044103Y-70735147D01*
X125118815Y-70826185D01*
M02*
