G04 #@! TF.GenerationSoftware,KiCad,Pcbnew,(5.1.6)-1*
G04 #@! TF.CreationDate,2020-08-17T23:15:29+02:00*
G04 #@! TF.ProjectId,Programmer,50726f67-7261-46d6-9d65-722e6b696361,rev?*
G04 #@! TF.SameCoordinates,Original*
G04 #@! TF.FileFunction,Copper,L1,Top*
G04 #@! TF.FilePolarity,Positive*
%FSLAX46Y46*%
G04 Gerber Fmt 4.6, Leading zero omitted, Abs format (unit mm)*
G04 Created by KiCad (PCBNEW (5.1.6)-1) date 2020-08-17 23:15:29*
%MOMM*%
%LPD*%
G01*
G04 APERTURE LIST*
G04 #@! TA.AperFunction,SMDPad,CuDef*
%ADD10R,1.150000X0.600000*%
G04 #@! TD*
G04 #@! TA.AperFunction,SMDPad,CuDef*
%ADD11R,2.500000X0.500000*%
G04 #@! TD*
G04 #@! TA.AperFunction,SMDPad,CuDef*
%ADD12R,2.500000X2.000000*%
G04 #@! TD*
G04 #@! TA.AperFunction,SMDPad,CuDef*
%ADD13R,0.450000X1.750000*%
G04 #@! TD*
G04 #@! TA.AperFunction,SMDPad,CuDef*
%ADD14R,1.060000X0.650000*%
G04 #@! TD*
G04 #@! TA.AperFunction,SMDPad,CuDef*
%ADD15R,0.400000X0.650000*%
G04 #@! TD*
G04 #@! TA.AperFunction,SMDPad,CuDef*
%ADD16R,2.400000X0.740000*%
G04 #@! TD*
G04 #@! TA.AperFunction,ViaPad*
%ADD17C,0.800000*%
G04 #@! TD*
G04 #@! TA.AperFunction,Conductor*
%ADD18C,0.250000*%
G04 #@! TD*
G04 #@! TA.AperFunction,Conductor*
%ADD19C,0.500000*%
G04 #@! TD*
G04 #@! TA.AperFunction,Conductor*
%ADD20C,0.127000*%
G04 #@! TD*
G04 #@! TA.AperFunction,Conductor*
%ADD21C,0.200000*%
G04 #@! TD*
G04 #@! TA.AperFunction,Conductor*
%ADD22C,0.254000*%
G04 #@! TD*
G04 APERTURE END LIST*
D10*
X121700000Y-78800000D03*
X121700000Y-79750000D03*
X121700000Y-80700000D03*
X119200000Y-80700000D03*
X119200000Y-79750000D03*
X119200000Y-78800000D03*
D11*
X114000000Y-80900000D03*
X114000000Y-80100000D03*
X114000000Y-79300000D03*
X114000000Y-78500000D03*
X114000000Y-77700000D03*
D12*
X114000000Y-83700000D03*
X114000000Y-74900000D03*
X108500000Y-83700000D03*
X108500000Y-74900000D03*
G04 #@! TA.AperFunction,SMDPad,CuDef*
G36*
G01*
X132487500Y-85656250D02*
X132487500Y-84743750D01*
G75*
G02*
X132731250Y-84500000I243750J0D01*
G01*
X133218750Y-84500000D01*
G75*
G02*
X133462500Y-84743750I0J-243750D01*
G01*
X133462500Y-85656250D01*
G75*
G02*
X133218750Y-85900000I-243750J0D01*
G01*
X132731250Y-85900000D01*
G75*
G02*
X132487500Y-85656250I0J243750D01*
G01*
G37*
G04 #@! TD.AperFunction*
G04 #@! TA.AperFunction,SMDPad,CuDef*
G36*
G01*
X130612500Y-85656250D02*
X130612500Y-84743750D01*
G75*
G02*
X130856250Y-84500000I243750J0D01*
G01*
X131343750Y-84500000D01*
G75*
G02*
X131587500Y-84743750I0J-243750D01*
G01*
X131587500Y-85656250D01*
G75*
G02*
X131343750Y-85900000I-243750J0D01*
G01*
X130856250Y-85900000D01*
G75*
G02*
X130612500Y-85656250I0J243750D01*
G01*
G37*
G04 #@! TD.AperFunction*
G04 #@! TA.AperFunction,SMDPad,CuDef*
G36*
G01*
X136087500Y-85656250D02*
X136087500Y-84743750D01*
G75*
G02*
X136331250Y-84500000I243750J0D01*
G01*
X136818750Y-84500000D01*
G75*
G02*
X137062500Y-84743750I0J-243750D01*
G01*
X137062500Y-85656250D01*
G75*
G02*
X136818750Y-85900000I-243750J0D01*
G01*
X136331250Y-85900000D01*
G75*
G02*
X136087500Y-85656250I0J243750D01*
G01*
G37*
G04 #@! TD.AperFunction*
G04 #@! TA.AperFunction,SMDPad,CuDef*
G36*
G01*
X134212500Y-85656250D02*
X134212500Y-84743750D01*
G75*
G02*
X134456250Y-84500000I243750J0D01*
G01*
X134943750Y-84500000D01*
G75*
G02*
X135187500Y-84743750I0J-243750D01*
G01*
X135187500Y-85656250D01*
G75*
G02*
X134943750Y-85900000I-243750J0D01*
G01*
X134456250Y-85900000D01*
G75*
G02*
X134212500Y-85656250I0J243750D01*
G01*
G37*
G04 #@! TD.AperFunction*
G04 #@! TA.AperFunction,SMDPad,CuDef*
G36*
G01*
X136087500Y-87756250D02*
X136087500Y-86843750D01*
G75*
G02*
X136331250Y-86600000I243750J0D01*
G01*
X136818750Y-86600000D01*
G75*
G02*
X137062500Y-86843750I0J-243750D01*
G01*
X137062500Y-87756250D01*
G75*
G02*
X136818750Y-88000000I-243750J0D01*
G01*
X136331250Y-88000000D01*
G75*
G02*
X136087500Y-87756250I0J243750D01*
G01*
G37*
G04 #@! TD.AperFunction*
G04 #@! TA.AperFunction,SMDPad,CuDef*
G36*
G01*
X134212500Y-87756250D02*
X134212500Y-86843750D01*
G75*
G02*
X134456250Y-86600000I243750J0D01*
G01*
X134943750Y-86600000D01*
G75*
G02*
X135187500Y-86843750I0J-243750D01*
G01*
X135187500Y-87756250D01*
G75*
G02*
X134943750Y-88000000I-243750J0D01*
G01*
X134456250Y-88000000D01*
G75*
G02*
X134212500Y-87756250I0J243750D01*
G01*
G37*
G04 #@! TD.AperFunction*
G04 #@! TA.AperFunction,SMDPad,CuDef*
G36*
G01*
X132487500Y-87756250D02*
X132487500Y-86843750D01*
G75*
G02*
X132731250Y-86600000I243750J0D01*
G01*
X133218750Y-86600000D01*
G75*
G02*
X133462500Y-86843750I0J-243750D01*
G01*
X133462500Y-87756250D01*
G75*
G02*
X133218750Y-88000000I-243750J0D01*
G01*
X132731250Y-88000000D01*
G75*
G02*
X132487500Y-87756250I0J243750D01*
G01*
G37*
G04 #@! TD.AperFunction*
G04 #@! TA.AperFunction,SMDPad,CuDef*
G36*
G01*
X130612500Y-87756250D02*
X130612500Y-86843750D01*
G75*
G02*
X130856250Y-86600000I243750J0D01*
G01*
X131343750Y-86600000D01*
G75*
G02*
X131587500Y-86843750I0J-243750D01*
G01*
X131587500Y-87756250D01*
G75*
G02*
X131343750Y-88000000I-243750J0D01*
G01*
X130856250Y-88000000D01*
G75*
G02*
X130612500Y-87756250I0J243750D01*
G01*
G37*
G04 #@! TD.AperFunction*
D13*
X134300000Y-82600000D03*
X133650000Y-82600000D03*
X133000000Y-82600000D03*
X132350000Y-82600000D03*
X131700000Y-82600000D03*
X131050000Y-82600000D03*
X130400000Y-82600000D03*
X129750000Y-82600000D03*
X129100000Y-82600000D03*
X128450000Y-82600000D03*
X127800000Y-82600000D03*
X127150000Y-82600000D03*
X126500000Y-82600000D03*
X125850000Y-82600000D03*
X125850000Y-75400000D03*
X126500000Y-75400000D03*
X127150000Y-75400000D03*
X127800000Y-75400000D03*
X128450000Y-75400000D03*
X129100000Y-75400000D03*
X129750000Y-75400000D03*
X130400000Y-75400000D03*
X131050000Y-75400000D03*
X131700000Y-75400000D03*
X132350000Y-75400000D03*
X133000000Y-75400000D03*
X133650000Y-75400000D03*
X134300000Y-75400000D03*
D14*
X126100000Y-70050000D03*
X126100000Y-71950000D03*
X123900000Y-71950000D03*
X123900000Y-71000000D03*
X123900000Y-70050000D03*
G04 #@! TA.AperFunction,SMDPad,CuDef*
G36*
G01*
X130043750Y-71512500D02*
X130956250Y-71512500D01*
G75*
G02*
X131200000Y-71756250I0J-243750D01*
G01*
X131200000Y-72243750D01*
G75*
G02*
X130956250Y-72487500I-243750J0D01*
G01*
X130043750Y-72487500D01*
G75*
G02*
X129800000Y-72243750I0J243750D01*
G01*
X129800000Y-71756250D01*
G75*
G02*
X130043750Y-71512500I243750J0D01*
G01*
G37*
G04 #@! TD.AperFunction*
G04 #@! TA.AperFunction,SMDPad,CuDef*
G36*
G01*
X130043750Y-69637500D02*
X130956250Y-69637500D01*
G75*
G02*
X131200000Y-69881250I0J-243750D01*
G01*
X131200000Y-70368750D01*
G75*
G02*
X130956250Y-70612500I-243750J0D01*
G01*
X130043750Y-70612500D01*
G75*
G02*
X129800000Y-70368750I0J243750D01*
G01*
X129800000Y-69881250D01*
G75*
G02*
X130043750Y-69637500I243750J0D01*
G01*
G37*
G04 #@! TD.AperFunction*
G04 #@! TA.AperFunction,SMDPad,CuDef*
G36*
G01*
X136256250Y-70587500D02*
X135343750Y-70587500D01*
G75*
G02*
X135100000Y-70343750I0J243750D01*
G01*
X135100000Y-69856250D01*
G75*
G02*
X135343750Y-69612500I243750J0D01*
G01*
X136256250Y-69612500D01*
G75*
G02*
X136500000Y-69856250I0J-243750D01*
G01*
X136500000Y-70343750D01*
G75*
G02*
X136256250Y-70587500I-243750J0D01*
G01*
G37*
G04 #@! TD.AperFunction*
G04 #@! TA.AperFunction,SMDPad,CuDef*
G36*
G01*
X136256250Y-72462500D02*
X135343750Y-72462500D01*
G75*
G02*
X135100000Y-72218750I0J243750D01*
G01*
X135100000Y-71731250D01*
G75*
G02*
X135343750Y-71487500I243750J0D01*
G01*
X136256250Y-71487500D01*
G75*
G02*
X136500000Y-71731250I0J-243750D01*
G01*
X136500000Y-72218750D01*
G75*
G02*
X136256250Y-72462500I-243750J0D01*
G01*
G37*
G04 #@! TD.AperFunction*
D15*
X132500000Y-70100000D03*
X133800000Y-70100000D03*
X133150000Y-72000000D03*
X133150000Y-70100000D03*
X133800000Y-72000000D03*
X132500000Y-72000000D03*
D16*
X143100000Y-79940000D03*
X139200000Y-79940000D03*
X143100000Y-78670000D03*
X139200000Y-78670000D03*
X143100000Y-77400000D03*
X139200000Y-77400000D03*
G04 #@! TA.AperFunction,SMDPad,CuDef*
G36*
G01*
X119612500Y-69543750D02*
X119612500Y-70456250D01*
G75*
G02*
X119368750Y-70700000I-243750J0D01*
G01*
X118881250Y-70700000D01*
G75*
G02*
X118637500Y-70456250I0J243750D01*
G01*
X118637500Y-69543750D01*
G75*
G02*
X118881250Y-69300000I243750J0D01*
G01*
X119368750Y-69300000D01*
G75*
G02*
X119612500Y-69543750I0J-243750D01*
G01*
G37*
G04 #@! TD.AperFunction*
G04 #@! TA.AperFunction,SMDPad,CuDef*
G36*
G01*
X121487500Y-69543750D02*
X121487500Y-70456250D01*
G75*
G02*
X121243750Y-70700000I-243750J0D01*
G01*
X120756250Y-70700000D01*
G75*
G02*
X120512500Y-70456250I0J243750D01*
G01*
X120512500Y-69543750D01*
G75*
G02*
X120756250Y-69300000I243750J0D01*
G01*
X121243750Y-69300000D01*
G75*
G02*
X121487500Y-69543750I0J-243750D01*
G01*
G37*
G04 #@! TD.AperFunction*
G04 #@! TA.AperFunction,SMDPad,CuDef*
G36*
G01*
X125787500Y-84643750D02*
X125787500Y-85556250D01*
G75*
G02*
X125543750Y-85800000I-243750J0D01*
G01*
X125056250Y-85800000D01*
G75*
G02*
X124812500Y-85556250I0J243750D01*
G01*
X124812500Y-84643750D01*
G75*
G02*
X125056250Y-84400000I243750J0D01*
G01*
X125543750Y-84400000D01*
G75*
G02*
X125787500Y-84643750I0J-243750D01*
G01*
G37*
G04 #@! TD.AperFunction*
G04 #@! TA.AperFunction,SMDPad,CuDef*
G36*
G01*
X127662500Y-84643750D02*
X127662500Y-85556250D01*
G75*
G02*
X127418750Y-85800000I-243750J0D01*
G01*
X126931250Y-85800000D01*
G75*
G02*
X126687500Y-85556250I0J243750D01*
G01*
X126687500Y-84643750D01*
G75*
G02*
X126931250Y-84400000I243750J0D01*
G01*
X127418750Y-84400000D01*
G75*
G02*
X127662500Y-84643750I0J-243750D01*
G01*
G37*
G04 #@! TD.AperFunction*
G04 #@! TA.AperFunction,SMDPad,CuDef*
G36*
G01*
X127543750Y-71387500D02*
X128456250Y-71387500D01*
G75*
G02*
X128700000Y-71631250I0J-243750D01*
G01*
X128700000Y-72118750D01*
G75*
G02*
X128456250Y-72362500I-243750J0D01*
G01*
X127543750Y-72362500D01*
G75*
G02*
X127300000Y-72118750I0J243750D01*
G01*
X127300000Y-71631250D01*
G75*
G02*
X127543750Y-71387500I243750J0D01*
G01*
G37*
G04 #@! TD.AperFunction*
G04 #@! TA.AperFunction,SMDPad,CuDef*
G36*
G01*
X127543750Y-69512500D02*
X128456250Y-69512500D01*
G75*
G02*
X128700000Y-69756250I0J-243750D01*
G01*
X128700000Y-70243750D01*
G75*
G02*
X128456250Y-70487500I-243750J0D01*
G01*
X127543750Y-70487500D01*
G75*
G02*
X127300000Y-70243750I0J243750D01*
G01*
X127300000Y-69756250D01*
G75*
G02*
X127543750Y-69512500I243750J0D01*
G01*
G37*
G04 #@! TD.AperFunction*
G04 #@! TA.AperFunction,SMDPad,CuDef*
G36*
G01*
X120487500Y-71543750D02*
X120487500Y-72456250D01*
G75*
G02*
X120243750Y-72700000I-243750J0D01*
G01*
X119756250Y-72700000D01*
G75*
G02*
X119512500Y-72456250I0J243750D01*
G01*
X119512500Y-71543750D01*
G75*
G02*
X119756250Y-71300000I243750J0D01*
G01*
X120243750Y-71300000D01*
G75*
G02*
X120487500Y-71543750I0J-243750D01*
G01*
G37*
G04 #@! TD.AperFunction*
G04 #@! TA.AperFunction,SMDPad,CuDef*
G36*
G01*
X122362500Y-71543750D02*
X122362500Y-72456250D01*
G75*
G02*
X122118750Y-72700000I-243750J0D01*
G01*
X121631250Y-72700000D01*
G75*
G02*
X121387500Y-72456250I0J243750D01*
G01*
X121387500Y-71543750D01*
G75*
G02*
X121631250Y-71300000I243750J0D01*
G01*
X122118750Y-71300000D01*
G75*
G02*
X122362500Y-71543750I0J-243750D01*
G01*
G37*
G04 #@! TD.AperFunction*
G04 #@! TA.AperFunction,SMDPad,CuDef*
G36*
G01*
X122487500Y-75156250D02*
X122487500Y-74243750D01*
G75*
G02*
X122731250Y-74000000I243750J0D01*
G01*
X123218750Y-74000000D01*
G75*
G02*
X123462500Y-74243750I0J-243750D01*
G01*
X123462500Y-75156250D01*
G75*
G02*
X123218750Y-75400000I-243750J0D01*
G01*
X122731250Y-75400000D01*
G75*
G02*
X122487500Y-75156250I0J243750D01*
G01*
G37*
G04 #@! TD.AperFunction*
G04 #@! TA.AperFunction,SMDPad,CuDef*
G36*
G01*
X120612500Y-75156250D02*
X120612500Y-74243750D01*
G75*
G02*
X120856250Y-74000000I243750J0D01*
G01*
X121343750Y-74000000D01*
G75*
G02*
X121587500Y-74243750I0J-243750D01*
G01*
X121587500Y-75156250D01*
G75*
G02*
X121343750Y-75400000I-243750J0D01*
G01*
X120856250Y-75400000D01*
G75*
G02*
X120612500Y-75156250I0J243750D01*
G01*
G37*
G04 #@! TD.AperFunction*
D17*
X143900000Y-70300000D03*
X112000000Y-68000000D03*
X112000000Y-86000000D03*
X145000000Y-86000000D03*
X123000000Y-73000000D03*
X125000000Y-73000000D03*
X126111000Y-79629000D03*
X137500000Y-75300000D03*
X136700000Y-79200000D03*
X134500000Y-77300000D03*
X139200000Y-75400000D03*
X133600000Y-73700000D03*
X134600000Y-70100000D03*
X132368416Y-76830084D03*
X128397000Y-84328000D03*
D18*
X129837499Y-74199999D02*
X128000000Y-72362500D01*
X130324999Y-74199999D02*
X129837499Y-74199999D01*
X128000000Y-72362500D02*
X128000000Y-71875000D01*
X130400000Y-74275000D02*
X130324999Y-74199999D01*
X130400000Y-75400000D02*
X130400000Y-74275000D01*
X125000000Y-72434315D02*
X125000000Y-73000000D01*
X125000000Y-71320000D02*
X125000000Y-72434315D01*
X124680000Y-71000000D02*
X125000000Y-71320000D01*
X123900000Y-71000000D02*
X124680000Y-71000000D01*
X122600001Y-73399999D02*
X123000000Y-73000000D01*
X121399999Y-73399999D02*
X122600001Y-73399999D01*
X120000000Y-72000000D02*
X121399999Y-73399999D01*
X126483081Y-79629000D02*
X126111000Y-79629000D01*
X127800000Y-82600000D02*
X127800000Y-80945919D01*
X127800000Y-80945919D02*
X126483081Y-79629000D01*
X129750000Y-82600000D02*
X129750000Y-80250000D01*
X132350000Y-82600000D02*
X132350000Y-81350000D01*
X132350000Y-81350000D02*
X132000000Y-81000000D01*
X133000000Y-82600000D02*
X133000000Y-81000000D01*
X114000000Y-80100000D02*
X114000000Y-80900000D01*
X120025000Y-79750000D02*
X120500000Y-80225000D01*
X119200000Y-79750000D02*
X120025000Y-79750000D01*
X120500000Y-80225000D02*
X120500000Y-81800000D01*
D19*
X118639473Y-70485527D02*
X119125000Y-70000000D01*
X118639473Y-72514473D02*
X118639473Y-70485527D01*
D18*
X120612500Y-74700000D02*
X121100000Y-74700000D01*
X118639473Y-72514473D02*
X118639473Y-74139473D01*
X118639473Y-74139473D02*
X119200000Y-74700000D01*
X119200000Y-74700000D02*
X120612500Y-74700000D01*
X120614473Y-75185527D02*
X121100000Y-74700000D01*
X121700000Y-79750000D02*
X120875000Y-79750000D01*
X120875000Y-79750000D02*
X120614473Y-79489473D01*
X120500000Y-77700000D02*
X120600000Y-77800000D01*
X114000000Y-77700000D02*
X120500000Y-77700000D01*
X120614473Y-79489473D02*
X120600000Y-77800000D01*
X120600000Y-77800000D02*
X120614473Y-75185527D01*
D19*
X121875000Y-70875000D02*
X121000000Y-70000000D01*
X121875000Y-72000000D02*
X121875000Y-70875000D01*
X121050000Y-70050000D02*
X121000000Y-70000000D01*
X123900000Y-70050000D02*
X121050000Y-70050000D01*
X121925000Y-71950000D02*
X121875000Y-72000000D01*
X123900000Y-71950000D02*
X121925000Y-71950000D01*
D18*
X123900000Y-76275000D02*
X123900000Y-72525000D01*
X129100000Y-81475000D02*
X123900000Y-76275000D01*
X123900000Y-72525000D02*
X123900000Y-71950000D01*
X129100000Y-82600000D02*
X129100000Y-81475000D01*
D19*
X127950000Y-70050000D02*
X128000000Y-70000000D01*
X126100000Y-70050000D02*
X127950000Y-70050000D01*
X143100000Y-75718874D02*
X143100000Y-76530000D01*
X129087519Y-68424981D02*
X135806107Y-68424981D01*
X128000000Y-69512500D02*
X129087519Y-68424981D01*
X143100000Y-76530000D02*
X143100000Y-77400000D01*
X135806107Y-68424981D02*
X143100000Y-75718874D01*
X128000000Y-70000000D02*
X128000000Y-69512500D01*
D20*
X137789199Y-78033501D02*
X137500000Y-77744302D01*
X140663501Y-78830501D02*
X140663501Y-78089199D01*
X143100000Y-79940000D02*
X141773000Y-79940000D01*
X141773000Y-79940000D02*
X140663501Y-78830501D01*
X140607803Y-78033501D02*
X137789199Y-78033501D01*
X140663501Y-78089199D02*
X140607803Y-78033501D01*
X137500000Y-75100000D02*
X135500000Y-73100000D01*
X135500000Y-73100000D02*
X134300000Y-73100000D01*
X133800000Y-72600000D02*
X133800000Y-72000000D01*
X134300000Y-73100000D02*
X133800000Y-72600000D01*
X137500000Y-75300000D02*
X137500000Y-75100000D01*
X137500000Y-77744302D02*
X137500000Y-75300000D01*
X139200000Y-79940000D02*
X137440000Y-79940000D01*
X137440000Y-79940000D02*
X136700000Y-79200000D01*
X134500000Y-75600000D02*
X134300000Y-75400000D01*
X134500000Y-77300000D02*
X134500000Y-75600000D01*
X137873000Y-78670000D02*
X137703000Y-78500000D01*
X139200000Y-78670000D02*
X137873000Y-78670000D01*
X137703000Y-78500000D02*
X133100000Y-78500000D01*
X131700000Y-77100000D02*
X131700000Y-75400000D01*
X133100000Y-78500000D02*
X131700000Y-77100000D01*
D18*
X132500000Y-70675000D02*
X132825000Y-71000000D01*
X132500000Y-70100000D02*
X132500000Y-70675000D01*
X132825000Y-71000000D02*
X136400000Y-71000000D01*
X136400000Y-71000000D02*
X139200000Y-73800000D01*
X139200000Y-73800000D02*
X139200000Y-75400000D01*
X139200000Y-75400000D02*
X139200000Y-77400000D01*
X133650000Y-75400000D02*
X133650000Y-73750000D01*
X133650000Y-73750000D02*
X133600000Y-73700000D01*
X135800000Y-70100000D02*
X134600000Y-70100000D01*
X134600000Y-70100000D02*
X133800000Y-70100000D01*
D20*
X133150000Y-71548000D02*
X133150000Y-72000000D01*
X133286501Y-71411499D02*
X133150000Y-71548000D01*
X135236499Y-71411499D02*
X133286501Y-71411499D01*
X135800000Y-71975000D02*
X135236499Y-71411499D01*
D18*
X132960001Y-69449999D02*
X131175001Y-69449999D01*
X133150000Y-69639998D02*
X132960001Y-69449999D01*
X130985527Y-69639473D02*
X130500000Y-70125000D01*
X131175001Y-69449999D02*
X130985527Y-69639473D01*
X133150000Y-70100000D02*
X133150000Y-69639998D01*
X132500000Y-72000000D02*
X130500000Y-72000000D01*
X132500000Y-73775000D02*
X132500000Y-72575000D01*
X133000000Y-74275000D02*
X132500000Y-73775000D01*
X132500000Y-72575000D02*
X132500000Y-72000000D01*
X133000000Y-75400000D02*
X133000000Y-74275000D01*
D21*
X122890002Y-79975000D02*
X123238603Y-79975000D01*
X122324999Y-80350001D02*
X122515001Y-80350001D01*
X122515001Y-80350001D02*
X122890002Y-79975000D01*
X121700000Y-80700000D02*
X121975000Y-80700000D01*
X121975000Y-80700000D02*
X122324999Y-80350001D01*
X123238603Y-79975000D02*
X125850000Y-82586397D01*
X125850000Y-82586397D02*
X125850000Y-82600000D01*
X126375001Y-82475001D02*
X126500000Y-82600000D01*
X126375001Y-81484999D02*
X126375001Y-82475001D01*
X126315001Y-81424999D02*
X126375001Y-81484999D01*
X125384999Y-81424999D02*
X126315001Y-81424999D01*
X125354999Y-81454999D02*
X125384999Y-81424999D01*
X123425000Y-79525000D02*
X125354999Y-81454999D01*
X122890002Y-79525000D02*
X123425000Y-79525000D01*
X121700000Y-78800000D02*
X121975000Y-78800000D01*
X122515001Y-79149999D02*
X122890002Y-79525000D01*
X122324999Y-79149999D02*
X122515001Y-79149999D01*
X121975000Y-78800000D02*
X122324999Y-79149999D01*
X118337499Y-78800000D02*
X119200000Y-78800000D01*
X114249999Y-78749999D02*
X115490001Y-78749999D01*
X115550001Y-79100008D02*
X118037491Y-79100008D01*
X114000000Y-78500000D02*
X114249999Y-78749999D01*
X115490001Y-78749999D02*
X115550001Y-78809999D01*
X115550001Y-78809999D02*
X115550001Y-79100008D01*
X118037491Y-79100008D02*
X118337499Y-78800000D01*
X117187498Y-79549999D02*
X118337499Y-80700000D01*
X118337499Y-80700000D02*
X119200000Y-80700000D01*
X114413602Y-79549999D02*
X117187498Y-79549999D01*
X114000000Y-79300000D02*
X114163603Y-79300000D01*
X114163603Y-79300000D02*
X114413602Y-79549999D01*
D18*
X136575000Y-87300000D02*
X136575000Y-85200000D01*
D20*
X127150000Y-85075000D02*
X127175000Y-85100000D01*
X127150000Y-82600000D02*
X127150000Y-85075000D01*
D18*
X128450000Y-82878000D02*
X128397000Y-82931000D01*
X128450000Y-82600000D02*
X128450000Y-82878000D01*
X128260000Y-85100000D02*
X127175000Y-85100000D01*
X128397000Y-84963000D02*
X128260000Y-85100000D01*
X132350000Y-75400000D02*
X132350000Y-76811668D01*
X132350000Y-76811668D02*
X132368416Y-76830084D01*
X128397000Y-82931000D02*
X128397000Y-84328000D01*
X128397000Y-84328000D02*
X128397000Y-84963000D01*
X128397000Y-84893685D02*
X128397000Y-84328000D01*
X128397000Y-86101350D02*
X128397000Y-84893685D01*
X135549990Y-88325010D02*
X130620660Y-88325010D01*
X130620660Y-88325010D02*
X128397000Y-86101350D01*
X136575000Y-87300000D02*
X135549990Y-88325010D01*
X134700000Y-87300000D02*
X132975000Y-87300000D01*
X130614473Y-86814473D02*
X131100000Y-87300000D01*
X130287490Y-86487490D02*
X130614473Y-86814473D01*
X130400000Y-83725000D02*
X130287490Y-83837510D01*
X130287490Y-83837510D02*
X130287490Y-86487490D01*
X130400000Y-82600000D02*
X130400000Y-83725000D01*
X134700000Y-85200000D02*
X132975000Y-85200000D01*
X131100000Y-82650000D02*
X131050000Y-82600000D01*
X131100000Y-85200000D02*
X131100000Y-82650000D01*
D22*
G36*
X145340001Y-86967572D02*
G01*
X145340000Y-86967582D01*
X145340001Y-88340000D01*
X137474949Y-88340000D01*
X137551958Y-88246164D01*
X137633447Y-88093709D01*
X137683628Y-87928285D01*
X137700572Y-87756250D01*
X137700572Y-86843750D01*
X137683628Y-86671715D01*
X137633447Y-86506291D01*
X137551958Y-86353836D01*
X137466742Y-86250000D01*
X137551958Y-86146164D01*
X137633447Y-85993709D01*
X137683628Y-85828285D01*
X137700572Y-85656250D01*
X137700572Y-84743750D01*
X137683628Y-84571715D01*
X137633447Y-84406291D01*
X137551958Y-84253836D01*
X137442292Y-84120208D01*
X137308664Y-84010542D01*
X137156209Y-83929053D01*
X136990785Y-83878872D01*
X136818750Y-83861928D01*
X136331250Y-83861928D01*
X136159215Y-83878872D01*
X135993791Y-83929053D01*
X135841336Y-84010542D01*
X135707708Y-84120208D01*
X135637500Y-84205756D01*
X135567292Y-84120208D01*
X135433664Y-84010542D01*
X135281209Y-83929053D01*
X135115785Y-83878872D01*
X135022550Y-83869689D01*
X135055537Y-83829494D01*
X135114502Y-83719180D01*
X135150812Y-83599482D01*
X135163072Y-83475000D01*
X135163072Y-81725000D01*
X135150812Y-81600518D01*
X135114502Y-81480820D01*
X135055537Y-81370506D01*
X134976185Y-81273815D01*
X134879494Y-81194463D01*
X134769180Y-81135498D01*
X134649482Y-81099188D01*
X134525000Y-81086928D01*
X134075000Y-81086928D01*
X133975000Y-81096777D01*
X133875000Y-81086928D01*
X133425000Y-81086928D01*
X133322162Y-81097056D01*
X133256750Y-81090000D01*
X133224503Y-81122247D01*
X133180820Y-81135498D01*
X133070506Y-81194463D01*
X132999744Y-81252536D01*
X132936524Y-81199228D01*
X132827005Y-81138801D01*
X132775757Y-81122507D01*
X132743250Y-81090000D01*
X132675000Y-81097363D01*
X132606750Y-81090000D01*
X132574243Y-81122507D01*
X132522995Y-81138801D01*
X132413476Y-81199228D01*
X132350256Y-81252536D01*
X132279494Y-81194463D01*
X132169180Y-81135498D01*
X132125497Y-81122247D01*
X132093250Y-81090000D01*
X132027838Y-81097056D01*
X131925000Y-81086928D01*
X131475000Y-81086928D01*
X131375000Y-81096777D01*
X131275000Y-81086928D01*
X130825000Y-81086928D01*
X130725000Y-81096777D01*
X130625000Y-81086928D01*
X130175000Y-81086928D01*
X130072162Y-81097056D01*
X130006750Y-81090000D01*
X129974503Y-81122247D01*
X129930820Y-81135498D01*
X129877002Y-81164265D01*
X129877002Y-81090000D01*
X129755968Y-81090000D01*
X129734974Y-81050724D01*
X129663799Y-80963997D01*
X129640001Y-80934999D01*
X129611003Y-80911201D01*
X125611548Y-76911747D01*
X125625000Y-76913072D01*
X126075000Y-76913072D01*
X126175000Y-76903223D01*
X126275000Y-76913072D01*
X126725000Y-76913072D01*
X126825000Y-76903223D01*
X126925000Y-76913072D01*
X127375000Y-76913072D01*
X127475000Y-76903223D01*
X127575000Y-76913072D01*
X128025000Y-76913072D01*
X128125000Y-76903223D01*
X128225000Y-76913072D01*
X128675000Y-76913072D01*
X128775000Y-76903223D01*
X128875000Y-76913072D01*
X129325000Y-76913072D01*
X129425000Y-76903223D01*
X129525000Y-76913072D01*
X129975000Y-76913072D01*
X130077838Y-76902944D01*
X130143250Y-76910000D01*
X130175497Y-76877753D01*
X130219180Y-76864502D01*
X130329494Y-76805537D01*
X130400000Y-76747674D01*
X130470506Y-76805537D01*
X130580820Y-76864502D01*
X130624503Y-76877753D01*
X130656750Y-76910000D01*
X130722162Y-76902944D01*
X130825000Y-76913072D01*
X131001500Y-76913072D01*
X131001500Y-77065701D01*
X130998122Y-77100000D01*
X131001500Y-77134298D01*
X131001500Y-77134308D01*
X131011607Y-77236929D01*
X131051548Y-77368596D01*
X131051549Y-77368598D01*
X131116409Y-77489943D01*
X131181826Y-77569653D01*
X131181829Y-77569656D01*
X131203697Y-77596302D01*
X131230344Y-77618171D01*
X132581829Y-78969657D01*
X132603697Y-78996303D01*
X132630343Y-79018171D01*
X132630346Y-79018174D01*
X132710056Y-79083591D01*
X132808318Y-79136113D01*
X132831403Y-79148452D01*
X132963070Y-79188393D01*
X133065691Y-79198500D01*
X133065702Y-79198500D01*
X133100000Y-79201878D01*
X133134298Y-79198500D01*
X135665000Y-79198500D01*
X135665000Y-79301939D01*
X135704774Y-79501898D01*
X135782795Y-79690256D01*
X135896063Y-79859774D01*
X136040226Y-80003937D01*
X136209744Y-80117205D01*
X136398102Y-80195226D01*
X136598061Y-80235000D01*
X136747172Y-80235000D01*
X136921829Y-80409657D01*
X136943697Y-80436303D01*
X136970343Y-80458171D01*
X136970346Y-80458174D01*
X137050056Y-80523591D01*
X137156595Y-80580537D01*
X137171403Y-80588452D01*
X137303070Y-80628393D01*
X137405691Y-80638500D01*
X137405701Y-80638500D01*
X137439999Y-80641878D01*
X137456505Y-80640252D01*
X137469463Y-80664494D01*
X137548815Y-80761185D01*
X137645506Y-80840537D01*
X137755820Y-80899502D01*
X137875518Y-80935812D01*
X138000000Y-80948072D01*
X140400000Y-80948072D01*
X140524482Y-80935812D01*
X140644180Y-80899502D01*
X140754494Y-80840537D01*
X140851185Y-80761185D01*
X140930537Y-80664494D01*
X140989502Y-80554180D01*
X141025812Y-80434482D01*
X141038072Y-80310000D01*
X141038072Y-80192900D01*
X141254829Y-80409657D01*
X141274050Y-80433077D01*
X141274188Y-80434482D01*
X141310498Y-80554180D01*
X141369463Y-80664494D01*
X141448815Y-80761185D01*
X141545506Y-80840537D01*
X141655820Y-80899502D01*
X141775518Y-80935812D01*
X141900000Y-80948072D01*
X144300000Y-80948072D01*
X144424482Y-80935812D01*
X144544180Y-80899502D01*
X144654494Y-80840537D01*
X144751185Y-80761185D01*
X144830537Y-80664494D01*
X144889502Y-80554180D01*
X144925812Y-80434482D01*
X144938072Y-80310000D01*
X144938072Y-79570000D01*
X144925812Y-79445518D01*
X144889502Y-79325820D01*
X144878373Y-79305000D01*
X144889502Y-79284180D01*
X144925812Y-79164482D01*
X144938072Y-79040000D01*
X144935000Y-78955750D01*
X144776250Y-78797000D01*
X143227000Y-78797000D01*
X143227000Y-78817000D01*
X142973000Y-78817000D01*
X142973000Y-78797000D01*
X142953000Y-78797000D01*
X142953000Y-78543000D01*
X142973000Y-78543000D01*
X142973000Y-78523000D01*
X143227000Y-78523000D01*
X143227000Y-78543000D01*
X144776250Y-78543000D01*
X144935000Y-78384250D01*
X144938072Y-78300000D01*
X144925812Y-78175518D01*
X144889502Y-78055820D01*
X144878373Y-78035000D01*
X144889502Y-78014180D01*
X144925812Y-77894482D01*
X144938072Y-77770000D01*
X144938072Y-77030000D01*
X144925812Y-76905518D01*
X144889502Y-76785820D01*
X144830537Y-76675506D01*
X144751185Y-76578815D01*
X144654494Y-76499463D01*
X144544180Y-76440498D01*
X144424482Y-76404188D01*
X144300000Y-76391928D01*
X143985000Y-76391928D01*
X143985000Y-75762339D01*
X143989281Y-75718873D01*
X143985000Y-75675407D01*
X143985000Y-75675397D01*
X143972195Y-75545384D01*
X143921589Y-75378561D01*
X143839411Y-75224815D01*
X143779983Y-75152402D01*
X143756532Y-75123827D01*
X143756530Y-75123825D01*
X143728817Y-75090057D01*
X143695051Y-75062346D01*
X136462641Y-67829937D01*
X136434924Y-67796164D01*
X136300166Y-67685570D01*
X136252327Y-67660000D01*
X145340000Y-67660000D01*
X145340001Y-86967572D01*
G37*
X145340001Y-86967572D02*
X145340000Y-86967582D01*
X145340001Y-88340000D01*
X137474949Y-88340000D01*
X137551958Y-88246164D01*
X137633447Y-88093709D01*
X137683628Y-87928285D01*
X137700572Y-87756250D01*
X137700572Y-86843750D01*
X137683628Y-86671715D01*
X137633447Y-86506291D01*
X137551958Y-86353836D01*
X137466742Y-86250000D01*
X137551958Y-86146164D01*
X137633447Y-85993709D01*
X137683628Y-85828285D01*
X137700572Y-85656250D01*
X137700572Y-84743750D01*
X137683628Y-84571715D01*
X137633447Y-84406291D01*
X137551958Y-84253836D01*
X137442292Y-84120208D01*
X137308664Y-84010542D01*
X137156209Y-83929053D01*
X136990785Y-83878872D01*
X136818750Y-83861928D01*
X136331250Y-83861928D01*
X136159215Y-83878872D01*
X135993791Y-83929053D01*
X135841336Y-84010542D01*
X135707708Y-84120208D01*
X135637500Y-84205756D01*
X135567292Y-84120208D01*
X135433664Y-84010542D01*
X135281209Y-83929053D01*
X135115785Y-83878872D01*
X135022550Y-83869689D01*
X135055537Y-83829494D01*
X135114502Y-83719180D01*
X135150812Y-83599482D01*
X135163072Y-83475000D01*
X135163072Y-81725000D01*
X135150812Y-81600518D01*
X135114502Y-81480820D01*
X135055537Y-81370506D01*
X134976185Y-81273815D01*
X134879494Y-81194463D01*
X134769180Y-81135498D01*
X134649482Y-81099188D01*
X134525000Y-81086928D01*
X134075000Y-81086928D01*
X133975000Y-81096777D01*
X133875000Y-81086928D01*
X133425000Y-81086928D01*
X133322162Y-81097056D01*
X133256750Y-81090000D01*
X133224503Y-81122247D01*
X133180820Y-81135498D01*
X133070506Y-81194463D01*
X132999744Y-81252536D01*
X132936524Y-81199228D01*
X132827005Y-81138801D01*
X132775757Y-81122507D01*
X132743250Y-81090000D01*
X132675000Y-81097363D01*
X132606750Y-81090000D01*
X132574243Y-81122507D01*
X132522995Y-81138801D01*
X132413476Y-81199228D01*
X132350256Y-81252536D01*
X132279494Y-81194463D01*
X132169180Y-81135498D01*
X132125497Y-81122247D01*
X132093250Y-81090000D01*
X132027838Y-81097056D01*
X131925000Y-81086928D01*
X131475000Y-81086928D01*
X131375000Y-81096777D01*
X131275000Y-81086928D01*
X130825000Y-81086928D01*
X130725000Y-81096777D01*
X130625000Y-81086928D01*
X130175000Y-81086928D01*
X130072162Y-81097056D01*
X130006750Y-81090000D01*
X129974503Y-81122247D01*
X129930820Y-81135498D01*
X129877002Y-81164265D01*
X129877002Y-81090000D01*
X129755968Y-81090000D01*
X129734974Y-81050724D01*
X129663799Y-80963997D01*
X129640001Y-80934999D01*
X129611003Y-80911201D01*
X125611548Y-76911747D01*
X125625000Y-76913072D01*
X126075000Y-76913072D01*
X126175000Y-76903223D01*
X126275000Y-76913072D01*
X126725000Y-76913072D01*
X126825000Y-76903223D01*
X126925000Y-76913072D01*
X127375000Y-76913072D01*
X127475000Y-76903223D01*
X127575000Y-76913072D01*
X128025000Y-76913072D01*
X128125000Y-76903223D01*
X128225000Y-76913072D01*
X128675000Y-76913072D01*
X128775000Y-76903223D01*
X128875000Y-76913072D01*
X129325000Y-76913072D01*
X129425000Y-76903223D01*
X129525000Y-76913072D01*
X129975000Y-76913072D01*
X130077838Y-76902944D01*
X130143250Y-76910000D01*
X130175497Y-76877753D01*
X130219180Y-76864502D01*
X130329494Y-76805537D01*
X130400000Y-76747674D01*
X130470506Y-76805537D01*
X130580820Y-76864502D01*
X130624503Y-76877753D01*
X130656750Y-76910000D01*
X130722162Y-76902944D01*
X130825000Y-76913072D01*
X131001500Y-76913072D01*
X131001500Y-77065701D01*
X130998122Y-77100000D01*
X131001500Y-77134298D01*
X131001500Y-77134308D01*
X131011607Y-77236929D01*
X131051548Y-77368596D01*
X131051549Y-77368598D01*
X131116409Y-77489943D01*
X131181826Y-77569653D01*
X131181829Y-77569656D01*
X131203697Y-77596302D01*
X131230344Y-77618171D01*
X132581829Y-78969657D01*
X132603697Y-78996303D01*
X132630343Y-79018171D01*
X132630346Y-79018174D01*
X132710056Y-79083591D01*
X132808318Y-79136113D01*
X132831403Y-79148452D01*
X132963070Y-79188393D01*
X133065691Y-79198500D01*
X133065702Y-79198500D01*
X133100000Y-79201878D01*
X133134298Y-79198500D01*
X135665000Y-79198500D01*
X135665000Y-79301939D01*
X135704774Y-79501898D01*
X135782795Y-79690256D01*
X135896063Y-79859774D01*
X136040226Y-80003937D01*
X136209744Y-80117205D01*
X136398102Y-80195226D01*
X136598061Y-80235000D01*
X136747172Y-80235000D01*
X136921829Y-80409657D01*
X136943697Y-80436303D01*
X136970343Y-80458171D01*
X136970346Y-80458174D01*
X137050056Y-80523591D01*
X137156595Y-80580537D01*
X137171403Y-80588452D01*
X137303070Y-80628393D01*
X137405691Y-80638500D01*
X137405701Y-80638500D01*
X137439999Y-80641878D01*
X137456505Y-80640252D01*
X137469463Y-80664494D01*
X137548815Y-80761185D01*
X137645506Y-80840537D01*
X137755820Y-80899502D01*
X137875518Y-80935812D01*
X138000000Y-80948072D01*
X140400000Y-80948072D01*
X140524482Y-80935812D01*
X140644180Y-80899502D01*
X140754494Y-80840537D01*
X140851185Y-80761185D01*
X140930537Y-80664494D01*
X140989502Y-80554180D01*
X141025812Y-80434482D01*
X141038072Y-80310000D01*
X141038072Y-80192900D01*
X141254829Y-80409657D01*
X141274050Y-80433077D01*
X141274188Y-80434482D01*
X141310498Y-80554180D01*
X141369463Y-80664494D01*
X141448815Y-80761185D01*
X141545506Y-80840537D01*
X141655820Y-80899502D01*
X141775518Y-80935812D01*
X141900000Y-80948072D01*
X144300000Y-80948072D01*
X144424482Y-80935812D01*
X144544180Y-80899502D01*
X144654494Y-80840537D01*
X144751185Y-80761185D01*
X144830537Y-80664494D01*
X144889502Y-80554180D01*
X144925812Y-80434482D01*
X144938072Y-80310000D01*
X144938072Y-79570000D01*
X144925812Y-79445518D01*
X144889502Y-79325820D01*
X144878373Y-79305000D01*
X144889502Y-79284180D01*
X144925812Y-79164482D01*
X144938072Y-79040000D01*
X144935000Y-78955750D01*
X144776250Y-78797000D01*
X143227000Y-78797000D01*
X143227000Y-78817000D01*
X142973000Y-78817000D01*
X142973000Y-78797000D01*
X142953000Y-78797000D01*
X142953000Y-78543000D01*
X142973000Y-78543000D01*
X142973000Y-78523000D01*
X143227000Y-78523000D01*
X143227000Y-78543000D01*
X144776250Y-78543000D01*
X144935000Y-78384250D01*
X144938072Y-78300000D01*
X144925812Y-78175518D01*
X144889502Y-78055820D01*
X144878373Y-78035000D01*
X144889502Y-78014180D01*
X144925812Y-77894482D01*
X144938072Y-77770000D01*
X144938072Y-77030000D01*
X144925812Y-76905518D01*
X144889502Y-76785820D01*
X144830537Y-76675506D01*
X144751185Y-76578815D01*
X144654494Y-76499463D01*
X144544180Y-76440498D01*
X144424482Y-76404188D01*
X144300000Y-76391928D01*
X143985000Y-76391928D01*
X143985000Y-75762339D01*
X143989281Y-75718873D01*
X143985000Y-75675407D01*
X143985000Y-75675397D01*
X143972195Y-75545384D01*
X143921589Y-75378561D01*
X143839411Y-75224815D01*
X143779983Y-75152402D01*
X143756532Y-75123827D01*
X143756530Y-75123825D01*
X143728817Y-75090057D01*
X143695051Y-75062346D01*
X136462641Y-67829937D01*
X136434924Y-67796164D01*
X136300166Y-67685570D01*
X136252327Y-67660000D01*
X145340000Y-67660000D01*
X145340001Y-86967572D01*
G36*
X128593460Y-67685570D02*
G01*
X128593458Y-67685571D01*
X128593459Y-67685571D01*
X128492472Y-67768449D01*
X128492470Y-67768451D01*
X128458702Y-67796164D01*
X128430989Y-67829932D01*
X127404951Y-68855971D01*
X127371184Y-68883683D01*
X127362606Y-68894135D01*
X127206291Y-68941553D01*
X127053836Y-69023042D01*
X126920208Y-69132708D01*
X126904582Y-69151748D01*
X126874180Y-69135498D01*
X126754482Y-69099188D01*
X126630000Y-69086928D01*
X125570000Y-69086928D01*
X125445518Y-69099188D01*
X125325820Y-69135498D01*
X125215506Y-69194463D01*
X125118815Y-69273815D01*
X125039463Y-69370506D01*
X125000000Y-69444335D01*
X124960537Y-69370506D01*
X124881185Y-69273815D01*
X124784494Y-69194463D01*
X124674180Y-69135498D01*
X124554482Y-69099188D01*
X124430000Y-69086928D01*
X123370000Y-69086928D01*
X123245518Y-69099188D01*
X123125820Y-69135498D01*
X123070627Y-69165000D01*
X122036376Y-69165000D01*
X121976958Y-69053836D01*
X121867292Y-68920208D01*
X121733664Y-68810542D01*
X121581209Y-68729053D01*
X121415785Y-68678872D01*
X121243750Y-68661928D01*
X120756250Y-68661928D01*
X120584215Y-68678872D01*
X120418791Y-68729053D01*
X120266336Y-68810542D01*
X120132708Y-68920208D01*
X120062500Y-69005756D01*
X119992292Y-68920208D01*
X119858664Y-68810542D01*
X119706209Y-68729053D01*
X119540785Y-68678872D01*
X119368750Y-68661928D01*
X118881250Y-68661928D01*
X118709215Y-68678872D01*
X118543791Y-68729053D01*
X118391336Y-68810542D01*
X118257708Y-68920208D01*
X118148042Y-69053836D01*
X118066553Y-69206291D01*
X118016372Y-69371715D01*
X117999428Y-69543750D01*
X117999428Y-69870392D01*
X117982944Y-69890478D01*
X117982941Y-69890481D01*
X117900063Y-69991468D01*
X117817885Y-70145214D01*
X117767278Y-70312037D01*
X117750192Y-70485527D01*
X117754474Y-70529006D01*
X117754473Y-72557949D01*
X117767278Y-72687962D01*
X117817884Y-72854785D01*
X117879473Y-72970012D01*
X117879474Y-74102141D01*
X117875797Y-74139473D01*
X117879474Y-74176806D01*
X117888161Y-74265000D01*
X117890471Y-74288458D01*
X117933927Y-74431719D01*
X118004499Y-74563749D01*
X118048370Y-74617205D01*
X118099473Y-74679474D01*
X118128471Y-74703272D01*
X118636200Y-75211002D01*
X118659999Y-75240001D01*
X118688997Y-75263799D01*
X118775723Y-75334974D01*
X118838627Y-75368597D01*
X118907753Y-75405546D01*
X119051014Y-75449003D01*
X119162667Y-75460000D01*
X119162677Y-75460000D01*
X119200000Y-75463676D01*
X119237323Y-75460000D01*
X119852943Y-75460000D01*
X119844749Y-76940000D01*
X115629518Y-76940000D01*
X115604494Y-76919463D01*
X115494180Y-76860498D01*
X115374482Y-76824188D01*
X115250000Y-76811928D01*
X112750000Y-76811928D01*
X112625518Y-76824188D01*
X112505820Y-76860498D01*
X112463153Y-76883304D01*
X112443304Y-76783517D01*
X112361515Y-76586060D01*
X112242775Y-76408353D01*
X112091647Y-76257225D01*
X111913940Y-76138485D01*
X111716483Y-76056696D01*
X111506863Y-76015000D01*
X111293137Y-76015000D01*
X111083517Y-76056696D01*
X110886060Y-76138485D01*
X110708353Y-76257225D01*
X110557225Y-76408353D01*
X110438485Y-76586060D01*
X110356696Y-76783517D01*
X110315000Y-76993137D01*
X110315000Y-77206863D01*
X110356696Y-77416483D01*
X110438485Y-77613940D01*
X110557225Y-77791647D01*
X110708353Y-77942775D01*
X110886060Y-78061515D01*
X111083517Y-78143304D01*
X111293137Y-78185000D01*
X111506863Y-78185000D01*
X111716483Y-78143304D01*
X111913940Y-78061515D01*
X112091647Y-77942775D01*
X112111928Y-77922494D01*
X112111928Y-77950000D01*
X112124188Y-78074482D01*
X112131929Y-78100000D01*
X112124188Y-78125518D01*
X112111928Y-78250000D01*
X112111928Y-78750000D01*
X112124188Y-78874482D01*
X112131929Y-78900000D01*
X112124188Y-78925518D01*
X112111928Y-79050000D01*
X112111928Y-79550000D01*
X112124188Y-79674482D01*
X112131725Y-79699329D01*
X112125481Y-79719187D01*
X112115000Y-79818250D01*
X112273750Y-79977000D01*
X112278967Y-79977000D01*
X112298815Y-80001185D01*
X112395506Y-80080537D01*
X112431654Y-80099859D01*
X112400897Y-80115900D01*
X112303407Y-80194269D01*
X112279337Y-80223000D01*
X112273750Y-80223000D01*
X112115000Y-80381750D01*
X112125481Y-80480813D01*
X112131514Y-80500000D01*
X112125481Y-80519187D01*
X112115000Y-80618250D01*
X112269748Y-80772998D01*
X112207420Y-80772998D01*
X112091647Y-80657225D01*
X111913940Y-80538485D01*
X111716483Y-80456696D01*
X111506863Y-80415000D01*
X111293137Y-80415000D01*
X111083517Y-80456696D01*
X110886060Y-80538485D01*
X110708353Y-80657225D01*
X110557225Y-80808353D01*
X110438485Y-80986060D01*
X110356696Y-81183517D01*
X110315000Y-81393137D01*
X110315000Y-81606863D01*
X110356696Y-81816483D01*
X110438485Y-82013940D01*
X110557225Y-82191647D01*
X110708353Y-82342775D01*
X110886060Y-82461515D01*
X111083517Y-82543304D01*
X111293137Y-82585000D01*
X111506863Y-82585000D01*
X111716483Y-82543304D01*
X111913940Y-82461515D01*
X112091647Y-82342775D01*
X112242775Y-82191647D01*
X112361515Y-82013940D01*
X112443304Y-81816483D01*
X112463176Y-81716582D01*
X112511803Y-81741944D01*
X112631862Y-81777040D01*
X112756462Y-81788039D01*
X113714250Y-81785000D01*
X113873000Y-81626250D01*
X113873000Y-81023000D01*
X114127000Y-81023000D01*
X114127000Y-81626250D01*
X114285750Y-81785000D01*
X115243538Y-81788039D01*
X115368138Y-81777040D01*
X115488197Y-81741944D01*
X115599103Y-81684100D01*
X115696593Y-81605731D01*
X115776920Y-81509848D01*
X115836999Y-81400137D01*
X115874519Y-81280813D01*
X115885000Y-81181750D01*
X115726250Y-81023000D01*
X114127000Y-81023000D01*
X113873000Y-81023000D01*
X113853000Y-81023000D01*
X113853000Y-80846250D01*
X113873000Y-80826250D01*
X113873000Y-80753000D01*
X114127000Y-80753000D01*
X114127000Y-80826250D01*
X114285750Y-80985000D01*
X115243538Y-80988039D01*
X115368138Y-80977040D01*
X115488197Y-80941944D01*
X115599103Y-80884100D01*
X115696593Y-80805731D01*
X115720663Y-80777000D01*
X115726250Y-80777000D01*
X115885000Y-80618250D01*
X115874519Y-80519187D01*
X115868486Y-80500000D01*
X115874519Y-80480813D01*
X115885000Y-80381750D01*
X115788249Y-80284999D01*
X116883052Y-80284999D01*
X117792245Y-81194193D01*
X117815261Y-81222238D01*
X117927179Y-81314087D01*
X118054866Y-81382337D01*
X118138012Y-81407559D01*
X118173815Y-81451185D01*
X118270506Y-81530537D01*
X118380820Y-81589502D01*
X118500518Y-81625812D01*
X118625000Y-81638072D01*
X119775000Y-81638072D01*
X119899482Y-81625812D01*
X120019180Y-81589502D01*
X120129494Y-81530537D01*
X120226185Y-81451185D01*
X120305537Y-81354494D01*
X120364502Y-81244180D01*
X120400812Y-81124482D01*
X120413072Y-81000000D01*
X120413072Y-80400000D01*
X120408151Y-80350035D01*
X120450724Y-80384974D01*
X120486928Y-80404326D01*
X120486928Y-81000000D01*
X120499188Y-81124482D01*
X120535498Y-81244180D01*
X120594463Y-81354494D01*
X120673815Y-81451185D01*
X120770506Y-81530537D01*
X120880820Y-81589502D01*
X121000518Y-81625812D01*
X121125000Y-81638072D01*
X122275000Y-81638072D01*
X122399482Y-81625812D01*
X122519180Y-81589502D01*
X122629494Y-81530537D01*
X122726185Y-81451185D01*
X122805537Y-81354494D01*
X122864502Y-81244180D01*
X122900812Y-81124482D01*
X122913072Y-81000000D01*
X122913072Y-80970635D01*
X122925321Y-80964088D01*
X123037239Y-80872239D01*
X123060260Y-80844188D01*
X123064302Y-80840146D01*
X124986928Y-82762772D01*
X124986928Y-83475000D01*
X124999188Y-83599482D01*
X125035498Y-83719180D01*
X125094463Y-83829494D01*
X125166401Y-83917151D01*
X125014250Y-83765000D01*
X124812500Y-83761928D01*
X124688018Y-83774188D01*
X124568320Y-83810498D01*
X124458006Y-83869463D01*
X124361315Y-83948815D01*
X124281963Y-84045506D01*
X124222998Y-84155820D01*
X124186688Y-84275518D01*
X124174428Y-84400000D01*
X124177500Y-84814250D01*
X124336250Y-84973000D01*
X125173000Y-84973000D01*
X125173000Y-84953000D01*
X125427000Y-84953000D01*
X125427000Y-84973000D01*
X125447000Y-84973000D01*
X125447000Y-85227000D01*
X125427000Y-85227000D01*
X125427000Y-86276250D01*
X125585750Y-86435000D01*
X125787500Y-86438072D01*
X125911982Y-86425812D01*
X126031680Y-86389502D01*
X126141994Y-86330537D01*
X126238685Y-86251185D01*
X126302492Y-86173436D01*
X126307708Y-86179792D01*
X126441336Y-86289458D01*
X126593791Y-86370947D01*
X126759215Y-86421128D01*
X126931250Y-86438072D01*
X127418750Y-86438072D01*
X127590785Y-86421128D01*
X127690619Y-86390844D01*
X127691454Y-86393596D01*
X127762026Y-86525626D01*
X127801871Y-86574176D01*
X127856999Y-86641351D01*
X127886003Y-86665154D01*
X129560848Y-88340000D01*
X105660000Y-88340000D01*
X105660000Y-85800000D01*
X124174428Y-85800000D01*
X124186688Y-85924482D01*
X124222998Y-86044180D01*
X124281963Y-86154494D01*
X124361315Y-86251185D01*
X124458006Y-86330537D01*
X124568320Y-86389502D01*
X124688018Y-86425812D01*
X124812500Y-86438072D01*
X125014250Y-86435000D01*
X125173000Y-86276250D01*
X125173000Y-85227000D01*
X124336250Y-85227000D01*
X124177500Y-85385750D01*
X124174428Y-85800000D01*
X105660000Y-85800000D01*
X105660000Y-82700000D01*
X106611928Y-82700000D01*
X106611928Y-84700000D01*
X106624188Y-84824482D01*
X106660498Y-84944180D01*
X106719463Y-85054494D01*
X106798815Y-85151185D01*
X106895506Y-85230537D01*
X107005820Y-85289502D01*
X107125518Y-85325812D01*
X107250000Y-85338072D01*
X109750000Y-85338072D01*
X109874482Y-85325812D01*
X109994180Y-85289502D01*
X110104494Y-85230537D01*
X110201185Y-85151185D01*
X110280537Y-85054494D01*
X110339502Y-84944180D01*
X110375812Y-84824482D01*
X110388072Y-84700000D01*
X110388072Y-82700000D01*
X112111928Y-82700000D01*
X112111928Y-84700000D01*
X112124188Y-84824482D01*
X112160498Y-84944180D01*
X112219463Y-85054494D01*
X112298815Y-85151185D01*
X112395506Y-85230537D01*
X112505820Y-85289502D01*
X112625518Y-85325812D01*
X112750000Y-85338072D01*
X115250000Y-85338072D01*
X115374482Y-85325812D01*
X115494180Y-85289502D01*
X115604494Y-85230537D01*
X115701185Y-85151185D01*
X115780537Y-85054494D01*
X115839502Y-84944180D01*
X115875812Y-84824482D01*
X115888072Y-84700000D01*
X115888072Y-82700000D01*
X115875812Y-82575518D01*
X115839502Y-82455820D01*
X115780537Y-82345506D01*
X115701185Y-82248815D01*
X115604494Y-82169463D01*
X115494180Y-82110498D01*
X115374482Y-82074188D01*
X115250000Y-82061928D01*
X112750000Y-82061928D01*
X112625518Y-82074188D01*
X112505820Y-82110498D01*
X112395506Y-82169463D01*
X112298815Y-82248815D01*
X112219463Y-82345506D01*
X112160498Y-82455820D01*
X112124188Y-82575518D01*
X112111928Y-82700000D01*
X110388072Y-82700000D01*
X110375812Y-82575518D01*
X110339502Y-82455820D01*
X110280537Y-82345506D01*
X110201185Y-82248815D01*
X110104494Y-82169463D01*
X109994180Y-82110498D01*
X109874482Y-82074188D01*
X109750000Y-82061928D01*
X107250000Y-82061928D01*
X107125518Y-82074188D01*
X107005820Y-82110498D01*
X106895506Y-82169463D01*
X106798815Y-82248815D01*
X106719463Y-82345506D01*
X106660498Y-82455820D01*
X106624188Y-82575518D01*
X106611928Y-82700000D01*
X105660000Y-82700000D01*
X105660000Y-73900000D01*
X106611928Y-73900000D01*
X106611928Y-75900000D01*
X106624188Y-76024482D01*
X106660498Y-76144180D01*
X106719463Y-76254494D01*
X106798815Y-76351185D01*
X106895506Y-76430537D01*
X107005820Y-76489502D01*
X107125518Y-76525812D01*
X107250000Y-76538072D01*
X109750000Y-76538072D01*
X109874482Y-76525812D01*
X109994180Y-76489502D01*
X110104494Y-76430537D01*
X110201185Y-76351185D01*
X110280537Y-76254494D01*
X110339502Y-76144180D01*
X110375812Y-76024482D01*
X110388072Y-75900000D01*
X110388072Y-73900000D01*
X112111928Y-73900000D01*
X112111928Y-75900000D01*
X112124188Y-76024482D01*
X112160498Y-76144180D01*
X112219463Y-76254494D01*
X112298815Y-76351185D01*
X112395506Y-76430537D01*
X112505820Y-76489502D01*
X112625518Y-76525812D01*
X112750000Y-76538072D01*
X115250000Y-76538072D01*
X115374482Y-76525812D01*
X115494180Y-76489502D01*
X115604494Y-76430537D01*
X115701185Y-76351185D01*
X115780537Y-76254494D01*
X115839502Y-76144180D01*
X115875812Y-76024482D01*
X115888072Y-75900000D01*
X115888072Y-73900000D01*
X115875812Y-73775518D01*
X115839502Y-73655820D01*
X115780537Y-73545506D01*
X115701185Y-73448815D01*
X115604494Y-73369463D01*
X115494180Y-73310498D01*
X115374482Y-73274188D01*
X115250000Y-73261928D01*
X112750000Y-73261928D01*
X112625518Y-73274188D01*
X112505820Y-73310498D01*
X112395506Y-73369463D01*
X112298815Y-73448815D01*
X112219463Y-73545506D01*
X112160498Y-73655820D01*
X112124188Y-73775518D01*
X112111928Y-73900000D01*
X110388072Y-73900000D01*
X110375812Y-73775518D01*
X110339502Y-73655820D01*
X110280537Y-73545506D01*
X110201185Y-73448815D01*
X110104494Y-73369463D01*
X109994180Y-73310498D01*
X109874482Y-73274188D01*
X109750000Y-73261928D01*
X107250000Y-73261928D01*
X107125518Y-73274188D01*
X107005820Y-73310498D01*
X106895506Y-73369463D01*
X106798815Y-73448815D01*
X106719463Y-73545506D01*
X106660498Y-73655820D01*
X106624188Y-73775518D01*
X106611928Y-73900000D01*
X105660000Y-73900000D01*
X105660000Y-67660000D01*
X128641299Y-67660000D01*
X128593460Y-67685570D01*
G37*
X128593460Y-67685570D02*
X128593458Y-67685571D01*
X128593459Y-67685571D01*
X128492472Y-67768449D01*
X128492470Y-67768451D01*
X128458702Y-67796164D01*
X128430989Y-67829932D01*
X127404951Y-68855971D01*
X127371184Y-68883683D01*
X127362606Y-68894135D01*
X127206291Y-68941553D01*
X127053836Y-69023042D01*
X126920208Y-69132708D01*
X126904582Y-69151748D01*
X126874180Y-69135498D01*
X126754482Y-69099188D01*
X126630000Y-69086928D01*
X125570000Y-69086928D01*
X125445518Y-69099188D01*
X125325820Y-69135498D01*
X125215506Y-69194463D01*
X125118815Y-69273815D01*
X125039463Y-69370506D01*
X125000000Y-69444335D01*
X124960537Y-69370506D01*
X124881185Y-69273815D01*
X124784494Y-69194463D01*
X124674180Y-69135498D01*
X124554482Y-69099188D01*
X124430000Y-69086928D01*
X123370000Y-69086928D01*
X123245518Y-69099188D01*
X123125820Y-69135498D01*
X123070627Y-69165000D01*
X122036376Y-69165000D01*
X121976958Y-69053836D01*
X121867292Y-68920208D01*
X121733664Y-68810542D01*
X121581209Y-68729053D01*
X121415785Y-68678872D01*
X121243750Y-68661928D01*
X120756250Y-68661928D01*
X120584215Y-68678872D01*
X120418791Y-68729053D01*
X120266336Y-68810542D01*
X120132708Y-68920208D01*
X120062500Y-69005756D01*
X119992292Y-68920208D01*
X119858664Y-68810542D01*
X119706209Y-68729053D01*
X119540785Y-68678872D01*
X119368750Y-68661928D01*
X118881250Y-68661928D01*
X118709215Y-68678872D01*
X118543791Y-68729053D01*
X118391336Y-68810542D01*
X118257708Y-68920208D01*
X118148042Y-69053836D01*
X118066553Y-69206291D01*
X118016372Y-69371715D01*
X117999428Y-69543750D01*
X117999428Y-69870392D01*
X117982944Y-69890478D01*
X117982941Y-69890481D01*
X117900063Y-69991468D01*
X117817885Y-70145214D01*
X117767278Y-70312037D01*
X117750192Y-70485527D01*
X117754474Y-70529006D01*
X117754473Y-72557949D01*
X117767278Y-72687962D01*
X117817884Y-72854785D01*
X117879473Y-72970012D01*
X117879474Y-74102141D01*
X117875797Y-74139473D01*
X117879474Y-74176806D01*
X117888161Y-74265000D01*
X117890471Y-74288458D01*
X117933927Y-74431719D01*
X118004499Y-74563749D01*
X118048370Y-74617205D01*
X118099473Y-74679474D01*
X118128471Y-74703272D01*
X118636200Y-75211002D01*
X118659999Y-75240001D01*
X118688997Y-75263799D01*
X118775723Y-75334974D01*
X118838627Y-75368597D01*
X118907753Y-75405546D01*
X119051014Y-75449003D01*
X119162667Y-75460000D01*
X119162677Y-75460000D01*
X119200000Y-75463676D01*
X119237323Y-75460000D01*
X119852943Y-75460000D01*
X119844749Y-76940000D01*
X115629518Y-76940000D01*
X115604494Y-76919463D01*
X115494180Y-76860498D01*
X115374482Y-76824188D01*
X115250000Y-76811928D01*
X112750000Y-76811928D01*
X112625518Y-76824188D01*
X112505820Y-76860498D01*
X112463153Y-76883304D01*
X112443304Y-76783517D01*
X112361515Y-76586060D01*
X112242775Y-76408353D01*
X112091647Y-76257225D01*
X111913940Y-76138485D01*
X111716483Y-76056696D01*
X111506863Y-76015000D01*
X111293137Y-76015000D01*
X111083517Y-76056696D01*
X110886060Y-76138485D01*
X110708353Y-76257225D01*
X110557225Y-76408353D01*
X110438485Y-76586060D01*
X110356696Y-76783517D01*
X110315000Y-76993137D01*
X110315000Y-77206863D01*
X110356696Y-77416483D01*
X110438485Y-77613940D01*
X110557225Y-77791647D01*
X110708353Y-77942775D01*
X110886060Y-78061515D01*
X111083517Y-78143304D01*
X111293137Y-78185000D01*
X111506863Y-78185000D01*
X111716483Y-78143304D01*
X111913940Y-78061515D01*
X112091647Y-77942775D01*
X112111928Y-77922494D01*
X112111928Y-77950000D01*
X112124188Y-78074482D01*
X112131929Y-78100000D01*
X112124188Y-78125518D01*
X112111928Y-78250000D01*
X112111928Y-78750000D01*
X112124188Y-78874482D01*
X112131929Y-78900000D01*
X112124188Y-78925518D01*
X112111928Y-79050000D01*
X112111928Y-79550000D01*
X112124188Y-79674482D01*
X112131725Y-79699329D01*
X112125481Y-79719187D01*
X112115000Y-79818250D01*
X112273750Y-79977000D01*
X112278967Y-79977000D01*
X112298815Y-80001185D01*
X112395506Y-80080537D01*
X112431654Y-80099859D01*
X112400897Y-80115900D01*
X112303407Y-80194269D01*
X112279337Y-80223000D01*
X112273750Y-80223000D01*
X112115000Y-80381750D01*
X112125481Y-80480813D01*
X112131514Y-80500000D01*
X112125481Y-80519187D01*
X112115000Y-80618250D01*
X112269748Y-80772998D01*
X112207420Y-80772998D01*
X112091647Y-80657225D01*
X111913940Y-80538485D01*
X111716483Y-80456696D01*
X111506863Y-80415000D01*
X111293137Y-80415000D01*
X111083517Y-80456696D01*
X110886060Y-80538485D01*
X110708353Y-80657225D01*
X110557225Y-80808353D01*
X110438485Y-80986060D01*
X110356696Y-81183517D01*
X110315000Y-81393137D01*
X110315000Y-81606863D01*
X110356696Y-81816483D01*
X110438485Y-82013940D01*
X110557225Y-82191647D01*
X110708353Y-82342775D01*
X110886060Y-82461515D01*
X111083517Y-82543304D01*
X111293137Y-82585000D01*
X111506863Y-82585000D01*
X111716483Y-82543304D01*
X111913940Y-82461515D01*
X112091647Y-82342775D01*
X112242775Y-82191647D01*
X112361515Y-82013940D01*
X112443304Y-81816483D01*
X112463176Y-81716582D01*
X112511803Y-81741944D01*
X112631862Y-81777040D01*
X112756462Y-81788039D01*
X113714250Y-81785000D01*
X113873000Y-81626250D01*
X113873000Y-81023000D01*
X114127000Y-81023000D01*
X114127000Y-81626250D01*
X114285750Y-81785000D01*
X115243538Y-81788039D01*
X115368138Y-81777040D01*
X115488197Y-81741944D01*
X115599103Y-81684100D01*
X115696593Y-81605731D01*
X115776920Y-81509848D01*
X115836999Y-81400137D01*
X115874519Y-81280813D01*
X115885000Y-81181750D01*
X115726250Y-81023000D01*
X114127000Y-81023000D01*
X113873000Y-81023000D01*
X113853000Y-81023000D01*
X113853000Y-80846250D01*
X113873000Y-80826250D01*
X113873000Y-80753000D01*
X114127000Y-80753000D01*
X114127000Y-80826250D01*
X114285750Y-80985000D01*
X115243538Y-80988039D01*
X115368138Y-80977040D01*
X115488197Y-80941944D01*
X115599103Y-80884100D01*
X115696593Y-80805731D01*
X115720663Y-80777000D01*
X115726250Y-80777000D01*
X115885000Y-80618250D01*
X115874519Y-80519187D01*
X115868486Y-80500000D01*
X115874519Y-80480813D01*
X115885000Y-80381750D01*
X115788249Y-80284999D01*
X116883052Y-80284999D01*
X117792245Y-81194193D01*
X117815261Y-81222238D01*
X117927179Y-81314087D01*
X118054866Y-81382337D01*
X118138012Y-81407559D01*
X118173815Y-81451185D01*
X118270506Y-81530537D01*
X118380820Y-81589502D01*
X118500518Y-81625812D01*
X118625000Y-81638072D01*
X119775000Y-81638072D01*
X119899482Y-81625812D01*
X120019180Y-81589502D01*
X120129494Y-81530537D01*
X120226185Y-81451185D01*
X120305537Y-81354494D01*
X120364502Y-81244180D01*
X120400812Y-81124482D01*
X120413072Y-81000000D01*
X120413072Y-80400000D01*
X120408151Y-80350035D01*
X120450724Y-80384974D01*
X120486928Y-80404326D01*
X120486928Y-81000000D01*
X120499188Y-81124482D01*
X120535498Y-81244180D01*
X120594463Y-81354494D01*
X120673815Y-81451185D01*
X120770506Y-81530537D01*
X120880820Y-81589502D01*
X121000518Y-81625812D01*
X121125000Y-81638072D01*
X122275000Y-81638072D01*
X122399482Y-81625812D01*
X122519180Y-81589502D01*
X122629494Y-81530537D01*
X122726185Y-81451185D01*
X122805537Y-81354494D01*
X122864502Y-81244180D01*
X122900812Y-81124482D01*
X122913072Y-81000000D01*
X122913072Y-80970635D01*
X122925321Y-80964088D01*
X123037239Y-80872239D01*
X123060260Y-80844188D01*
X123064302Y-80840146D01*
X124986928Y-82762772D01*
X124986928Y-83475000D01*
X124999188Y-83599482D01*
X125035498Y-83719180D01*
X125094463Y-83829494D01*
X125166401Y-83917151D01*
X125014250Y-83765000D01*
X124812500Y-83761928D01*
X124688018Y-83774188D01*
X124568320Y-83810498D01*
X124458006Y-83869463D01*
X124361315Y-83948815D01*
X124281963Y-84045506D01*
X124222998Y-84155820D01*
X124186688Y-84275518D01*
X124174428Y-84400000D01*
X124177500Y-84814250D01*
X124336250Y-84973000D01*
X125173000Y-84973000D01*
X125173000Y-84953000D01*
X125427000Y-84953000D01*
X125427000Y-84973000D01*
X125447000Y-84973000D01*
X125447000Y-85227000D01*
X125427000Y-85227000D01*
X125427000Y-86276250D01*
X125585750Y-86435000D01*
X125787500Y-86438072D01*
X125911982Y-86425812D01*
X126031680Y-86389502D01*
X126141994Y-86330537D01*
X126238685Y-86251185D01*
X126302492Y-86173436D01*
X126307708Y-86179792D01*
X126441336Y-86289458D01*
X126593791Y-86370947D01*
X126759215Y-86421128D01*
X126931250Y-86438072D01*
X127418750Y-86438072D01*
X127590785Y-86421128D01*
X127690619Y-86390844D01*
X127691454Y-86393596D01*
X127762026Y-86525626D01*
X127801871Y-86574176D01*
X127856999Y-86641351D01*
X127886003Y-86665154D01*
X129560848Y-88340000D01*
X105660000Y-88340000D01*
X105660000Y-85800000D01*
X124174428Y-85800000D01*
X124186688Y-85924482D01*
X124222998Y-86044180D01*
X124281963Y-86154494D01*
X124361315Y-86251185D01*
X124458006Y-86330537D01*
X124568320Y-86389502D01*
X124688018Y-86425812D01*
X124812500Y-86438072D01*
X125014250Y-86435000D01*
X125173000Y-86276250D01*
X125173000Y-85227000D01*
X124336250Y-85227000D01*
X124177500Y-85385750D01*
X124174428Y-85800000D01*
X105660000Y-85800000D01*
X105660000Y-82700000D01*
X106611928Y-82700000D01*
X106611928Y-84700000D01*
X106624188Y-84824482D01*
X106660498Y-84944180D01*
X106719463Y-85054494D01*
X106798815Y-85151185D01*
X106895506Y-85230537D01*
X107005820Y-85289502D01*
X107125518Y-85325812D01*
X107250000Y-85338072D01*
X109750000Y-85338072D01*
X109874482Y-85325812D01*
X109994180Y-85289502D01*
X110104494Y-85230537D01*
X110201185Y-85151185D01*
X110280537Y-85054494D01*
X110339502Y-84944180D01*
X110375812Y-84824482D01*
X110388072Y-84700000D01*
X110388072Y-82700000D01*
X112111928Y-82700000D01*
X112111928Y-84700000D01*
X112124188Y-84824482D01*
X112160498Y-84944180D01*
X112219463Y-85054494D01*
X112298815Y-85151185D01*
X112395506Y-85230537D01*
X112505820Y-85289502D01*
X112625518Y-85325812D01*
X112750000Y-85338072D01*
X115250000Y-85338072D01*
X115374482Y-85325812D01*
X115494180Y-85289502D01*
X115604494Y-85230537D01*
X115701185Y-85151185D01*
X115780537Y-85054494D01*
X115839502Y-84944180D01*
X115875812Y-84824482D01*
X115888072Y-84700000D01*
X115888072Y-82700000D01*
X115875812Y-82575518D01*
X115839502Y-82455820D01*
X115780537Y-82345506D01*
X115701185Y-82248815D01*
X115604494Y-82169463D01*
X115494180Y-82110498D01*
X115374482Y-82074188D01*
X115250000Y-82061928D01*
X112750000Y-82061928D01*
X112625518Y-82074188D01*
X112505820Y-82110498D01*
X112395506Y-82169463D01*
X112298815Y-82248815D01*
X112219463Y-82345506D01*
X112160498Y-82455820D01*
X112124188Y-82575518D01*
X112111928Y-82700000D01*
X110388072Y-82700000D01*
X110375812Y-82575518D01*
X110339502Y-82455820D01*
X110280537Y-82345506D01*
X110201185Y-82248815D01*
X110104494Y-82169463D01*
X109994180Y-82110498D01*
X109874482Y-82074188D01*
X109750000Y-82061928D01*
X107250000Y-82061928D01*
X107125518Y-82074188D01*
X107005820Y-82110498D01*
X106895506Y-82169463D01*
X106798815Y-82248815D01*
X106719463Y-82345506D01*
X106660498Y-82455820D01*
X106624188Y-82575518D01*
X106611928Y-82700000D01*
X105660000Y-82700000D01*
X105660000Y-73900000D01*
X106611928Y-73900000D01*
X106611928Y-75900000D01*
X106624188Y-76024482D01*
X106660498Y-76144180D01*
X106719463Y-76254494D01*
X106798815Y-76351185D01*
X106895506Y-76430537D01*
X107005820Y-76489502D01*
X107125518Y-76525812D01*
X107250000Y-76538072D01*
X109750000Y-76538072D01*
X109874482Y-76525812D01*
X109994180Y-76489502D01*
X110104494Y-76430537D01*
X110201185Y-76351185D01*
X110280537Y-76254494D01*
X110339502Y-76144180D01*
X110375812Y-76024482D01*
X110388072Y-75900000D01*
X110388072Y-73900000D01*
X112111928Y-73900000D01*
X112111928Y-75900000D01*
X112124188Y-76024482D01*
X112160498Y-76144180D01*
X112219463Y-76254494D01*
X112298815Y-76351185D01*
X112395506Y-76430537D01*
X112505820Y-76489502D01*
X112625518Y-76525812D01*
X112750000Y-76538072D01*
X115250000Y-76538072D01*
X115374482Y-76525812D01*
X115494180Y-76489502D01*
X115604494Y-76430537D01*
X115701185Y-76351185D01*
X115780537Y-76254494D01*
X115839502Y-76144180D01*
X115875812Y-76024482D01*
X115888072Y-75900000D01*
X115888072Y-73900000D01*
X115875812Y-73775518D01*
X115839502Y-73655820D01*
X115780537Y-73545506D01*
X115701185Y-73448815D01*
X115604494Y-73369463D01*
X115494180Y-73310498D01*
X115374482Y-73274188D01*
X115250000Y-73261928D01*
X112750000Y-73261928D01*
X112625518Y-73274188D01*
X112505820Y-73310498D01*
X112395506Y-73369463D01*
X112298815Y-73448815D01*
X112219463Y-73545506D01*
X112160498Y-73655820D01*
X112124188Y-73775518D01*
X112111928Y-73900000D01*
X110388072Y-73900000D01*
X110375812Y-73775518D01*
X110339502Y-73655820D01*
X110280537Y-73545506D01*
X110201185Y-73448815D01*
X110104494Y-73369463D01*
X109994180Y-73310498D01*
X109874482Y-73274188D01*
X109750000Y-73261928D01*
X107250000Y-73261928D01*
X107125518Y-73274188D01*
X107005820Y-73310498D01*
X106895506Y-73369463D01*
X106798815Y-73448815D01*
X106719463Y-73545506D01*
X106660498Y-73655820D01*
X106624188Y-73775518D01*
X106611928Y-73900000D01*
X105660000Y-73900000D01*
X105660000Y-67660000D01*
X128641299Y-67660000D01*
X128593460Y-67685570D01*
G36*
X120127000Y-71873000D02*
G01*
X120147000Y-71873000D01*
X120147000Y-72127000D01*
X120127000Y-72127000D01*
X120127000Y-73176250D01*
X120285750Y-73335000D01*
X120487500Y-73338072D01*
X120611982Y-73325812D01*
X120731680Y-73289502D01*
X120841994Y-73230537D01*
X120938685Y-73151185D01*
X121002492Y-73073436D01*
X121007708Y-73079792D01*
X121141336Y-73189458D01*
X121293791Y-73270947D01*
X121459215Y-73321128D01*
X121631250Y-73338072D01*
X122118750Y-73338072D01*
X122290785Y-73321128D01*
X122456209Y-73270947D01*
X122608664Y-73189458D01*
X122742292Y-73079792D01*
X122851958Y-72946164D01*
X122911376Y-72835000D01*
X123070627Y-72835000D01*
X123125820Y-72864502D01*
X123140001Y-72868804D01*
X123140001Y-73485749D01*
X123102000Y-73523750D01*
X123102000Y-74573000D01*
X123122000Y-74573000D01*
X123122000Y-74827000D01*
X123102000Y-74827000D01*
X123102000Y-75876250D01*
X123140000Y-75914250D01*
X123140000Y-76237677D01*
X123136324Y-76275000D01*
X123140000Y-76312322D01*
X123140000Y-76312332D01*
X123150997Y-76423985D01*
X123186329Y-76540462D01*
X123194454Y-76567246D01*
X123265026Y-76699276D01*
X123304871Y-76747826D01*
X123359999Y-76815001D01*
X123389003Y-76838804D01*
X127672998Y-81122800D01*
X127672998Y-81164265D01*
X127619180Y-81135498D01*
X127575497Y-81122247D01*
X127543250Y-81090000D01*
X127477838Y-81097056D01*
X127375000Y-81086928D01*
X126995635Y-81086928D01*
X126989088Y-81074679D01*
X126897238Y-80962761D01*
X126869193Y-80939745D01*
X126860260Y-80930812D01*
X126837239Y-80902761D01*
X126725321Y-80810912D01*
X126597634Y-80742662D01*
X126459086Y-80700634D01*
X126351106Y-80689999D01*
X126315001Y-80686443D01*
X126278896Y-80689999D01*
X125629446Y-80689999D01*
X123970258Y-79030812D01*
X123947238Y-79002762D01*
X123835320Y-78910913D01*
X123707633Y-78842663D01*
X123569085Y-78800635D01*
X123461105Y-78790000D01*
X123425000Y-78786444D01*
X123388895Y-78790000D01*
X123194448Y-78790000D01*
X123060260Y-78655812D01*
X123037239Y-78627761D01*
X122925321Y-78535912D01*
X122913072Y-78529365D01*
X122913072Y-78500000D01*
X122900812Y-78375518D01*
X122864502Y-78255820D01*
X122805537Y-78145506D01*
X122726185Y-78048815D01*
X122629494Y-77969463D01*
X122519180Y-77910498D01*
X122399482Y-77874188D01*
X122275000Y-77861928D01*
X121360558Y-77861928D01*
X121360319Y-77834078D01*
X121363676Y-77799999D01*
X121360206Y-77764768D01*
X121369779Y-76035508D01*
X121515785Y-76021128D01*
X121681209Y-75970947D01*
X121833664Y-75889458D01*
X121967292Y-75779792D01*
X121972508Y-75773436D01*
X122036315Y-75851185D01*
X122133006Y-75930537D01*
X122243320Y-75989502D01*
X122363018Y-76025812D01*
X122487500Y-76038072D01*
X122689250Y-76035000D01*
X122848000Y-75876250D01*
X122848000Y-74827000D01*
X122828000Y-74827000D01*
X122828000Y-74573000D01*
X122848000Y-74573000D01*
X122848000Y-73523750D01*
X122689250Y-73365000D01*
X122487500Y-73361928D01*
X122363018Y-73374188D01*
X122243320Y-73410498D01*
X122133006Y-73469463D01*
X122036315Y-73548815D01*
X121972508Y-73626564D01*
X121967292Y-73620208D01*
X121833664Y-73510542D01*
X121681209Y-73429053D01*
X121515785Y-73378872D01*
X121343750Y-73361928D01*
X120856250Y-73361928D01*
X120684215Y-73378872D01*
X120518791Y-73429053D01*
X120366336Y-73510542D01*
X120232708Y-73620208D01*
X120123042Y-73753836D01*
X120041553Y-73906291D01*
X120031327Y-73940000D01*
X119514802Y-73940000D01*
X119399473Y-73824672D01*
X119399473Y-73326940D01*
X119512500Y-73338072D01*
X119714250Y-73335000D01*
X119873000Y-73176250D01*
X119873000Y-72127000D01*
X119853000Y-72127000D01*
X119853000Y-71873000D01*
X119873000Y-71873000D01*
X119873000Y-71853000D01*
X120127000Y-71853000D01*
X120127000Y-71873000D01*
G37*
X120127000Y-71873000D02*
X120147000Y-71873000D01*
X120147000Y-72127000D01*
X120127000Y-72127000D01*
X120127000Y-73176250D01*
X120285750Y-73335000D01*
X120487500Y-73338072D01*
X120611982Y-73325812D01*
X120731680Y-73289502D01*
X120841994Y-73230537D01*
X120938685Y-73151185D01*
X121002492Y-73073436D01*
X121007708Y-73079792D01*
X121141336Y-73189458D01*
X121293791Y-73270947D01*
X121459215Y-73321128D01*
X121631250Y-73338072D01*
X122118750Y-73338072D01*
X122290785Y-73321128D01*
X122456209Y-73270947D01*
X122608664Y-73189458D01*
X122742292Y-73079792D01*
X122851958Y-72946164D01*
X122911376Y-72835000D01*
X123070627Y-72835000D01*
X123125820Y-72864502D01*
X123140001Y-72868804D01*
X123140001Y-73485749D01*
X123102000Y-73523750D01*
X123102000Y-74573000D01*
X123122000Y-74573000D01*
X123122000Y-74827000D01*
X123102000Y-74827000D01*
X123102000Y-75876250D01*
X123140000Y-75914250D01*
X123140000Y-76237677D01*
X123136324Y-76275000D01*
X123140000Y-76312322D01*
X123140000Y-76312332D01*
X123150997Y-76423985D01*
X123186329Y-76540462D01*
X123194454Y-76567246D01*
X123265026Y-76699276D01*
X123304871Y-76747826D01*
X123359999Y-76815001D01*
X123389003Y-76838804D01*
X127672998Y-81122800D01*
X127672998Y-81164265D01*
X127619180Y-81135498D01*
X127575497Y-81122247D01*
X127543250Y-81090000D01*
X127477838Y-81097056D01*
X127375000Y-81086928D01*
X126995635Y-81086928D01*
X126989088Y-81074679D01*
X126897238Y-80962761D01*
X126869193Y-80939745D01*
X126860260Y-80930812D01*
X126837239Y-80902761D01*
X126725321Y-80810912D01*
X126597634Y-80742662D01*
X126459086Y-80700634D01*
X126351106Y-80689999D01*
X126315001Y-80686443D01*
X126278896Y-80689999D01*
X125629446Y-80689999D01*
X123970258Y-79030812D01*
X123947238Y-79002762D01*
X123835320Y-78910913D01*
X123707633Y-78842663D01*
X123569085Y-78800635D01*
X123461105Y-78790000D01*
X123425000Y-78786444D01*
X123388895Y-78790000D01*
X123194448Y-78790000D01*
X123060260Y-78655812D01*
X123037239Y-78627761D01*
X122925321Y-78535912D01*
X122913072Y-78529365D01*
X122913072Y-78500000D01*
X122900812Y-78375518D01*
X122864502Y-78255820D01*
X122805537Y-78145506D01*
X122726185Y-78048815D01*
X122629494Y-77969463D01*
X122519180Y-77910498D01*
X122399482Y-77874188D01*
X122275000Y-77861928D01*
X121360558Y-77861928D01*
X121360319Y-77834078D01*
X121363676Y-77799999D01*
X121360206Y-77764768D01*
X121369779Y-76035508D01*
X121515785Y-76021128D01*
X121681209Y-75970947D01*
X121833664Y-75889458D01*
X121967292Y-75779792D01*
X121972508Y-75773436D01*
X122036315Y-75851185D01*
X122133006Y-75930537D01*
X122243320Y-75989502D01*
X122363018Y-76025812D01*
X122487500Y-76038072D01*
X122689250Y-76035000D01*
X122848000Y-75876250D01*
X122848000Y-74827000D01*
X122828000Y-74827000D01*
X122828000Y-74573000D01*
X122848000Y-74573000D01*
X122848000Y-73523750D01*
X122689250Y-73365000D01*
X122487500Y-73361928D01*
X122363018Y-73374188D01*
X122243320Y-73410498D01*
X122133006Y-73469463D01*
X122036315Y-73548815D01*
X121972508Y-73626564D01*
X121967292Y-73620208D01*
X121833664Y-73510542D01*
X121681209Y-73429053D01*
X121515785Y-73378872D01*
X121343750Y-73361928D01*
X120856250Y-73361928D01*
X120684215Y-73378872D01*
X120518791Y-73429053D01*
X120366336Y-73510542D01*
X120232708Y-73620208D01*
X120123042Y-73753836D01*
X120041553Y-73906291D01*
X120031327Y-73940000D01*
X119514802Y-73940000D01*
X119399473Y-73824672D01*
X119399473Y-73326940D01*
X119512500Y-73338072D01*
X119714250Y-73335000D01*
X119873000Y-73176250D01*
X119873000Y-72127000D01*
X119853000Y-72127000D01*
X119853000Y-71873000D01*
X119873000Y-71873000D01*
X119873000Y-71853000D01*
X120127000Y-71853000D01*
X120127000Y-71873000D01*
G36*
X119347000Y-79761928D02*
G01*
X119053000Y-79761928D01*
X119053000Y-79738072D01*
X119347000Y-79738072D01*
X119347000Y-79761928D01*
G37*
X119347000Y-79761928D02*
X119053000Y-79761928D01*
X119053000Y-79738072D01*
X119347000Y-79738072D01*
X119347000Y-79761928D01*
G36*
X128127000Y-71748000D02*
G01*
X128147000Y-71748000D01*
X128147000Y-72002000D01*
X128127000Y-72002000D01*
X128127000Y-72838750D01*
X128285750Y-72997500D01*
X128700000Y-73000572D01*
X128824482Y-72988312D01*
X128944180Y-72952002D01*
X129054494Y-72893037D01*
X129151185Y-72813685D01*
X129230537Y-72716994D01*
X129266085Y-72650490D01*
X129310542Y-72733664D01*
X129420208Y-72867292D01*
X129553836Y-72976958D01*
X129706291Y-73058447D01*
X129871715Y-73108628D01*
X130043750Y-73125572D01*
X130956250Y-73125572D01*
X131128285Y-73108628D01*
X131293709Y-73058447D01*
X131446164Y-72976958D01*
X131579792Y-72867292D01*
X131667845Y-72760000D01*
X131740001Y-72760000D01*
X131740000Y-73737677D01*
X131736324Y-73775000D01*
X131740000Y-73812322D01*
X131740000Y-73812332D01*
X131747347Y-73886928D01*
X131475000Y-73886928D01*
X131375000Y-73896777D01*
X131275000Y-73886928D01*
X130825000Y-73886928D01*
X130722162Y-73897056D01*
X130656750Y-73890000D01*
X130624503Y-73922247D01*
X130580820Y-73935498D01*
X130470506Y-73994463D01*
X130400000Y-74052326D01*
X130329494Y-73994463D01*
X130219180Y-73935498D01*
X130175497Y-73922247D01*
X130143250Y-73890000D01*
X130077838Y-73897056D01*
X129975000Y-73886928D01*
X129525000Y-73886928D01*
X129425000Y-73896777D01*
X129325000Y-73886928D01*
X128875000Y-73886928D01*
X128775000Y-73896777D01*
X128675000Y-73886928D01*
X128225000Y-73886928D01*
X128125000Y-73896777D01*
X128025000Y-73886928D01*
X127575000Y-73886928D01*
X127475000Y-73896777D01*
X127375000Y-73886928D01*
X126925000Y-73886928D01*
X126825000Y-73896777D01*
X126725000Y-73886928D01*
X126275000Y-73886928D01*
X126175000Y-73896777D01*
X126075000Y-73886928D01*
X125625000Y-73886928D01*
X125500518Y-73899188D01*
X125380820Y-73935498D01*
X125270506Y-73994463D01*
X125173815Y-74073815D01*
X125094463Y-74170506D01*
X125035498Y-74280820D01*
X124999188Y-74400518D01*
X124986928Y-74525000D01*
X124986928Y-76275000D01*
X124988253Y-76288452D01*
X124660000Y-75960199D01*
X124660000Y-72868803D01*
X124674180Y-72864502D01*
X124784494Y-72805537D01*
X124881185Y-72726185D01*
X124960537Y-72629494D01*
X125000000Y-72555665D01*
X125039463Y-72629494D01*
X125118815Y-72726185D01*
X125215506Y-72805537D01*
X125325820Y-72864502D01*
X125445518Y-72900812D01*
X125570000Y-72913072D01*
X126630000Y-72913072D01*
X126754482Y-72900812D01*
X126874180Y-72864502D01*
X126896317Y-72852669D01*
X126945506Y-72893037D01*
X127055820Y-72952002D01*
X127175518Y-72988312D01*
X127300000Y-73000572D01*
X127714250Y-72997500D01*
X127873000Y-72838750D01*
X127873000Y-72002000D01*
X127853000Y-72002000D01*
X127853000Y-71748000D01*
X127873000Y-71748000D01*
X127873000Y-71728000D01*
X128127000Y-71728000D01*
X128127000Y-71748000D01*
G37*
X128127000Y-71748000D02*
X128147000Y-71748000D01*
X128147000Y-72002000D01*
X128127000Y-72002000D01*
X128127000Y-72838750D01*
X128285750Y-72997500D01*
X128700000Y-73000572D01*
X128824482Y-72988312D01*
X128944180Y-72952002D01*
X129054494Y-72893037D01*
X129151185Y-72813685D01*
X129230537Y-72716994D01*
X129266085Y-72650490D01*
X129310542Y-72733664D01*
X129420208Y-72867292D01*
X129553836Y-72976958D01*
X129706291Y-73058447D01*
X129871715Y-73108628D01*
X130043750Y-73125572D01*
X130956250Y-73125572D01*
X131128285Y-73108628D01*
X131293709Y-73058447D01*
X131446164Y-72976958D01*
X131579792Y-72867292D01*
X131667845Y-72760000D01*
X131740001Y-72760000D01*
X131740000Y-73737677D01*
X131736324Y-73775000D01*
X131740000Y-73812322D01*
X131740000Y-73812332D01*
X131747347Y-73886928D01*
X131475000Y-73886928D01*
X131375000Y-73896777D01*
X131275000Y-73886928D01*
X130825000Y-73886928D01*
X130722162Y-73897056D01*
X130656750Y-73890000D01*
X130624503Y-73922247D01*
X130580820Y-73935498D01*
X130470506Y-73994463D01*
X130400000Y-74052326D01*
X130329494Y-73994463D01*
X130219180Y-73935498D01*
X130175497Y-73922247D01*
X130143250Y-73890000D01*
X130077838Y-73897056D01*
X129975000Y-73886928D01*
X129525000Y-73886928D01*
X129425000Y-73896777D01*
X129325000Y-73886928D01*
X128875000Y-73886928D01*
X128775000Y-73896777D01*
X128675000Y-73886928D01*
X128225000Y-73886928D01*
X128125000Y-73896777D01*
X128025000Y-73886928D01*
X127575000Y-73886928D01*
X127475000Y-73896777D01*
X127375000Y-73886928D01*
X126925000Y-73886928D01*
X126825000Y-73896777D01*
X126725000Y-73886928D01*
X126275000Y-73886928D01*
X126175000Y-73896777D01*
X126075000Y-73886928D01*
X125625000Y-73886928D01*
X125500518Y-73899188D01*
X125380820Y-73935498D01*
X125270506Y-73994463D01*
X125173815Y-74073815D01*
X125094463Y-74170506D01*
X125035498Y-74280820D01*
X124999188Y-74400518D01*
X124986928Y-74525000D01*
X124986928Y-76275000D01*
X124988253Y-76288452D01*
X124660000Y-75960199D01*
X124660000Y-72868803D01*
X124674180Y-72864502D01*
X124784494Y-72805537D01*
X124881185Y-72726185D01*
X124960537Y-72629494D01*
X125000000Y-72555665D01*
X125039463Y-72629494D01*
X125118815Y-72726185D01*
X125215506Y-72805537D01*
X125325820Y-72864502D01*
X125445518Y-72900812D01*
X125570000Y-72913072D01*
X126630000Y-72913072D01*
X126754482Y-72900812D01*
X126874180Y-72864502D01*
X126896317Y-72852669D01*
X126945506Y-72893037D01*
X127055820Y-72952002D01*
X127175518Y-72988312D01*
X127300000Y-73000572D01*
X127714250Y-72997500D01*
X127873000Y-72838750D01*
X127873000Y-72002000D01*
X127853000Y-72002000D01*
X127853000Y-71748000D01*
X127873000Y-71748000D01*
X127873000Y-71728000D01*
X128127000Y-71728000D01*
X128127000Y-71748000D01*
G36*
X125118815Y-70826185D02*
G01*
X125215506Y-70905537D01*
X125325820Y-70964502D01*
X125442841Y-71000000D01*
X125325820Y-71035498D01*
X125215506Y-71094463D01*
X125118815Y-71173815D01*
X125044103Y-71264853D01*
X124906250Y-71127000D01*
X124824141Y-71127000D01*
X124784494Y-71094463D01*
X124674180Y-71035498D01*
X124557159Y-71000000D01*
X124674180Y-70964502D01*
X124784494Y-70905537D01*
X124824141Y-70873000D01*
X124906250Y-70873000D01*
X125044103Y-70735147D01*
X125118815Y-70826185D01*
G37*
X125118815Y-70826185D02*
X125215506Y-70905537D01*
X125325820Y-70964502D01*
X125442841Y-71000000D01*
X125325820Y-71035498D01*
X125215506Y-71094463D01*
X125118815Y-71173815D01*
X125044103Y-71264853D01*
X124906250Y-71127000D01*
X124824141Y-71127000D01*
X124784494Y-71094463D01*
X124674180Y-71035498D01*
X124557159Y-71000000D01*
X124674180Y-70964502D01*
X124784494Y-70905537D01*
X124824141Y-70873000D01*
X124906250Y-70873000D01*
X125044103Y-70735147D01*
X125118815Y-70826185D01*
M02*
