G04 #@! TF.GenerationSoftware,KiCad,Pcbnew,(5.1.6)-1*
G04 #@! TF.CreationDate,2020-08-17T23:15:29+02:00*
G04 #@! TF.ProjectId,Programmer,50726f67-7261-46d6-9d65-722e6b696361,rev?*
G04 #@! TF.SameCoordinates,Original*
G04 #@! TF.FileFunction,Legend,Bot*
G04 #@! TF.FilePolarity,Positive*
%FSLAX46Y46*%
G04 Gerber Fmt 4.6, Leading zero omitted, Abs format (unit mm)*
G04 Created by KiCad (PCBNEW (5.1.6)-1) date 2020-08-17 23:15:29*
%MOMM*%
%LPD*%
G01*
G04 APERTURE LIST*
%ADD10C,0.120000*%
%ADD11C,0.150000*%
G04 APERTURE END LIST*
D10*
X143055000Y-74280000D02*
X143055000Y-74250000D01*
X143055000Y-67820000D02*
X143055000Y-67850000D01*
X136595000Y-67820000D02*
X136595000Y-67850000D01*
X136595000Y-74250000D02*
X136595000Y-74280000D01*
X143055000Y-72350000D02*
X143055000Y-69750000D01*
X136595000Y-74280000D02*
X143055000Y-74280000D01*
X136595000Y-72350000D02*
X136595000Y-69750000D01*
X136595000Y-67820000D02*
X143055000Y-67820000D01*
X136570000Y-81770000D02*
X136570000Y-81800000D01*
X136570000Y-88230000D02*
X136570000Y-88200000D01*
X143030000Y-88230000D02*
X143030000Y-88200000D01*
X143030000Y-81800000D02*
X143030000Y-81770000D01*
X136570000Y-83700000D02*
X136570000Y-86300000D01*
X143030000Y-81770000D02*
X136570000Y-81770000D01*
X143030000Y-83700000D02*
X143030000Y-86300000D01*
X143030000Y-88230000D02*
X136570000Y-88230000D01*
D11*
X141158333Y-75504761D02*
X141015476Y-75552380D01*
X140777380Y-75552380D01*
X140682142Y-75504761D01*
X140634523Y-75457142D01*
X140586904Y-75361904D01*
X140586904Y-75266666D01*
X140634523Y-75171428D01*
X140682142Y-75123809D01*
X140777380Y-75076190D01*
X140967857Y-75028571D01*
X141063095Y-74980952D01*
X141110714Y-74933333D01*
X141158333Y-74838095D01*
X141158333Y-74742857D01*
X141110714Y-74647619D01*
X141063095Y-74600000D01*
X140967857Y-74552380D01*
X140729761Y-74552380D01*
X140586904Y-74600000D01*
X140253571Y-74552380D02*
X140015476Y-75552380D01*
X139825000Y-74838095D01*
X139634523Y-75552380D01*
X139396428Y-74552380D01*
X139063095Y-74647619D02*
X139015476Y-74600000D01*
X138920238Y-74552380D01*
X138682142Y-74552380D01*
X138586904Y-74600000D01*
X138539285Y-74647619D01*
X138491666Y-74742857D01*
X138491666Y-74838095D01*
X138539285Y-74980952D01*
X139110714Y-75552380D01*
X138491666Y-75552380D01*
X141133333Y-81354761D02*
X140990476Y-81402380D01*
X140752380Y-81402380D01*
X140657142Y-81354761D01*
X140609523Y-81307142D01*
X140561904Y-81211904D01*
X140561904Y-81116666D01*
X140609523Y-81021428D01*
X140657142Y-80973809D01*
X140752380Y-80926190D01*
X140942857Y-80878571D01*
X141038095Y-80830952D01*
X141085714Y-80783333D01*
X141133333Y-80688095D01*
X141133333Y-80592857D01*
X141085714Y-80497619D01*
X141038095Y-80450000D01*
X140942857Y-80402380D01*
X140704761Y-80402380D01*
X140561904Y-80450000D01*
X140228571Y-80402380D02*
X139990476Y-81402380D01*
X139800000Y-80688095D01*
X139609523Y-81402380D01*
X139371428Y-80402380D01*
X138466666Y-81402380D02*
X139038095Y-81402380D01*
X138752380Y-81402380D02*
X138752380Y-80402380D01*
X138847619Y-80545238D01*
X138942857Y-80640476D01*
X139038095Y-80688095D01*
M02*
