G04 #@! TF.GenerationSoftware,KiCad,Pcbnew,(5.1.6)-1*
G04 #@! TF.CreationDate,2020-08-17T23:15:29+02:00*
G04 #@! TF.ProjectId,Programmer,50726f67-7261-46d6-9d65-722e6b696361,rev?*
G04 #@! TF.SameCoordinates,Original*
G04 #@! TF.FileFunction,Paste,Bot*
G04 #@! TF.FilePolarity,Positive*
%FSLAX46Y46*%
G04 Gerber Fmt 4.6, Leading zero omitted, Abs format (unit mm)*
G04 Created by KiCad (PCBNEW (5.1.6)-1) date 2020-08-17 23:15:29*
%MOMM*%
%LPD*%
G01*
G04 APERTURE LIST*
%ADD10C,0.150000*%
%ADD11R,1.550000X1.300000*%
G04 APERTURE END LIST*
D10*
X133261904Y-87128571D02*
X132928571Y-87128571D01*
X132785714Y-87652380D02*
X133261904Y-87652380D01*
X133261904Y-86652380D01*
X132785714Y-86652380D01*
X132357142Y-86985714D02*
X132357142Y-87652380D01*
X132357142Y-87080952D02*
X132309523Y-87033333D01*
X132214285Y-86985714D01*
X132071428Y-86985714D01*
X131976190Y-87033333D01*
X131928571Y-87128571D01*
X131928571Y-87652380D01*
X131023809Y-87652380D02*
X131023809Y-87128571D01*
X131071428Y-87033333D01*
X131166666Y-86985714D01*
X131357142Y-86985714D01*
X131452380Y-87033333D01*
X131023809Y-87604761D02*
X131119047Y-87652380D01*
X131357142Y-87652380D01*
X131452380Y-87604761D01*
X131500000Y-87509523D01*
X131500000Y-87414285D01*
X131452380Y-87319047D01*
X131357142Y-87271428D01*
X131119047Y-87271428D01*
X131023809Y-87223809D01*
X130547619Y-87652380D02*
X130547619Y-86652380D01*
X130547619Y-87033333D02*
X130452380Y-86985714D01*
X130261904Y-86985714D01*
X130166666Y-87033333D01*
X130119047Y-87080952D01*
X130071428Y-87176190D01*
X130071428Y-87461904D01*
X130119047Y-87557142D01*
X130166666Y-87604761D01*
X130261904Y-87652380D01*
X130452380Y-87652380D01*
X130547619Y-87604761D01*
X129500000Y-87652380D02*
X129595238Y-87604761D01*
X129642857Y-87509523D01*
X129642857Y-86652380D01*
X128738095Y-87604761D02*
X128833333Y-87652380D01*
X129023809Y-87652380D01*
X129119047Y-87604761D01*
X129166666Y-87509523D01*
X129166666Y-87128571D01*
X129119047Y-87033333D01*
X129023809Y-86985714D01*
X128833333Y-86985714D01*
X128738095Y-87033333D01*
X128690476Y-87128571D01*
X128690476Y-87223809D01*
X129166666Y-87319047D01*
X130861904Y-70347619D02*
X130861904Y-71347619D01*
X131100000Y-71347619D01*
X131242857Y-71300000D01*
X131338095Y-71204761D01*
X131385714Y-71109523D01*
X131433333Y-70919047D01*
X131433333Y-70776190D01*
X131385714Y-70585714D01*
X131338095Y-70490476D01*
X131242857Y-70395238D01*
X131100000Y-70347619D01*
X130861904Y-70347619D01*
X132052380Y-71347619D02*
X132147619Y-71347619D01*
X132242857Y-71300000D01*
X132290476Y-71252380D01*
X132338095Y-71157142D01*
X132385714Y-70966666D01*
X132385714Y-70728571D01*
X132338095Y-70538095D01*
X132290476Y-70442857D01*
X132242857Y-70395238D01*
X132147619Y-70347619D01*
X132052380Y-70347619D01*
X131957142Y-70395238D01*
X131909523Y-70442857D01*
X131861904Y-70538095D01*
X131814285Y-70728571D01*
X131814285Y-70966666D01*
X131861904Y-71157142D01*
X131909523Y-71252380D01*
X131957142Y-71300000D01*
X132052380Y-71347619D01*
D11*
X143800000Y-68800000D03*
X143800000Y-73300000D03*
X135850000Y-73300000D03*
X135850000Y-68800000D03*
X135825000Y-87250000D03*
X135825000Y-82750000D03*
X143775000Y-82750000D03*
X143775000Y-87250000D03*
M02*
