G04 #@! TF.GenerationSoftware,KiCad,Pcbnew,(5.1.5)-3*
G04 #@! TF.CreationDate,2020-08-04T09:15:57+02:00*
G04 #@! TF.ProjectId,Programmer,50726f67-7261-46d6-9d65-722e6b696361,rev?*
G04 #@! TF.SameCoordinates,Original*
G04 #@! TF.FileFunction,Copper,L1,Top*
G04 #@! TF.FilePolarity,Positive*
%FSLAX46Y46*%
G04 Gerber Fmt 4.6, Leading zero omitted, Abs format (unit mm)*
G04 Created by KiCad (PCBNEW (5.1.5)-3) date 2020-08-04 09:15:57*
%MOMM*%
%LPD*%
G04 APERTURE LIST*
%ADD10C,0.100000*%
%ADD11R,0.650000X1.060000*%
%ADD12C,0.650000*%
%ADD13O,1.400000X0.800000*%
%ADD14R,0.700000X0.300000*%
%ADD15R,0.450000X1.750000*%
%ADD16R,1.060000X0.650000*%
%ADD17R,0.400000X0.650000*%
%ADD18R,2.400000X0.740000*%
%ADD19C,0.800000*%
%ADD20C,0.250000*%
%ADD21C,0.500000*%
%ADD22C,0.127000*%
%ADD23C,0.200000*%
%ADD24C,0.254000*%
G04 APERTURE END LIST*
G04 #@! TA.AperFunction,SMDPad,CuDef*
D10*
G36*
X133242642Y-84501174D02*
G01*
X133266303Y-84504684D01*
X133289507Y-84510496D01*
X133312029Y-84518554D01*
X133333653Y-84528782D01*
X133354170Y-84541079D01*
X133373383Y-84555329D01*
X133391107Y-84571393D01*
X133407171Y-84589117D01*
X133421421Y-84608330D01*
X133433718Y-84628847D01*
X133443946Y-84650471D01*
X133452004Y-84672993D01*
X133457816Y-84696197D01*
X133461326Y-84719858D01*
X133462500Y-84743750D01*
X133462500Y-85656250D01*
X133461326Y-85680142D01*
X133457816Y-85703803D01*
X133452004Y-85727007D01*
X133443946Y-85749529D01*
X133433718Y-85771153D01*
X133421421Y-85791670D01*
X133407171Y-85810883D01*
X133391107Y-85828607D01*
X133373383Y-85844671D01*
X133354170Y-85858921D01*
X133333653Y-85871218D01*
X133312029Y-85881446D01*
X133289507Y-85889504D01*
X133266303Y-85895316D01*
X133242642Y-85898826D01*
X133218750Y-85900000D01*
X132731250Y-85900000D01*
X132707358Y-85898826D01*
X132683697Y-85895316D01*
X132660493Y-85889504D01*
X132637971Y-85881446D01*
X132616347Y-85871218D01*
X132595830Y-85858921D01*
X132576617Y-85844671D01*
X132558893Y-85828607D01*
X132542829Y-85810883D01*
X132528579Y-85791670D01*
X132516282Y-85771153D01*
X132506054Y-85749529D01*
X132497996Y-85727007D01*
X132492184Y-85703803D01*
X132488674Y-85680142D01*
X132487500Y-85656250D01*
X132487500Y-84743750D01*
X132488674Y-84719858D01*
X132492184Y-84696197D01*
X132497996Y-84672993D01*
X132506054Y-84650471D01*
X132516282Y-84628847D01*
X132528579Y-84608330D01*
X132542829Y-84589117D01*
X132558893Y-84571393D01*
X132576617Y-84555329D01*
X132595830Y-84541079D01*
X132616347Y-84528782D01*
X132637971Y-84518554D01*
X132660493Y-84510496D01*
X132683697Y-84504684D01*
X132707358Y-84501174D01*
X132731250Y-84500000D01*
X133218750Y-84500000D01*
X133242642Y-84501174D01*
G37*
G04 #@! TD.AperFunction*
G04 #@! TA.AperFunction,SMDPad,CuDef*
G36*
X131367642Y-84501174D02*
G01*
X131391303Y-84504684D01*
X131414507Y-84510496D01*
X131437029Y-84518554D01*
X131458653Y-84528782D01*
X131479170Y-84541079D01*
X131498383Y-84555329D01*
X131516107Y-84571393D01*
X131532171Y-84589117D01*
X131546421Y-84608330D01*
X131558718Y-84628847D01*
X131568946Y-84650471D01*
X131577004Y-84672993D01*
X131582816Y-84696197D01*
X131586326Y-84719858D01*
X131587500Y-84743750D01*
X131587500Y-85656250D01*
X131586326Y-85680142D01*
X131582816Y-85703803D01*
X131577004Y-85727007D01*
X131568946Y-85749529D01*
X131558718Y-85771153D01*
X131546421Y-85791670D01*
X131532171Y-85810883D01*
X131516107Y-85828607D01*
X131498383Y-85844671D01*
X131479170Y-85858921D01*
X131458653Y-85871218D01*
X131437029Y-85881446D01*
X131414507Y-85889504D01*
X131391303Y-85895316D01*
X131367642Y-85898826D01*
X131343750Y-85900000D01*
X130856250Y-85900000D01*
X130832358Y-85898826D01*
X130808697Y-85895316D01*
X130785493Y-85889504D01*
X130762971Y-85881446D01*
X130741347Y-85871218D01*
X130720830Y-85858921D01*
X130701617Y-85844671D01*
X130683893Y-85828607D01*
X130667829Y-85810883D01*
X130653579Y-85791670D01*
X130641282Y-85771153D01*
X130631054Y-85749529D01*
X130622996Y-85727007D01*
X130617184Y-85703803D01*
X130613674Y-85680142D01*
X130612500Y-85656250D01*
X130612500Y-84743750D01*
X130613674Y-84719858D01*
X130617184Y-84696197D01*
X130622996Y-84672993D01*
X130631054Y-84650471D01*
X130641282Y-84628847D01*
X130653579Y-84608330D01*
X130667829Y-84589117D01*
X130683893Y-84571393D01*
X130701617Y-84555329D01*
X130720830Y-84541079D01*
X130741347Y-84528782D01*
X130762971Y-84518554D01*
X130785493Y-84510496D01*
X130808697Y-84504684D01*
X130832358Y-84501174D01*
X130856250Y-84500000D01*
X131343750Y-84500000D01*
X131367642Y-84501174D01*
G37*
G04 #@! TD.AperFunction*
G04 #@! TA.AperFunction,SMDPad,CuDef*
G36*
X136842642Y-84501174D02*
G01*
X136866303Y-84504684D01*
X136889507Y-84510496D01*
X136912029Y-84518554D01*
X136933653Y-84528782D01*
X136954170Y-84541079D01*
X136973383Y-84555329D01*
X136991107Y-84571393D01*
X137007171Y-84589117D01*
X137021421Y-84608330D01*
X137033718Y-84628847D01*
X137043946Y-84650471D01*
X137052004Y-84672993D01*
X137057816Y-84696197D01*
X137061326Y-84719858D01*
X137062500Y-84743750D01*
X137062500Y-85656250D01*
X137061326Y-85680142D01*
X137057816Y-85703803D01*
X137052004Y-85727007D01*
X137043946Y-85749529D01*
X137033718Y-85771153D01*
X137021421Y-85791670D01*
X137007171Y-85810883D01*
X136991107Y-85828607D01*
X136973383Y-85844671D01*
X136954170Y-85858921D01*
X136933653Y-85871218D01*
X136912029Y-85881446D01*
X136889507Y-85889504D01*
X136866303Y-85895316D01*
X136842642Y-85898826D01*
X136818750Y-85900000D01*
X136331250Y-85900000D01*
X136307358Y-85898826D01*
X136283697Y-85895316D01*
X136260493Y-85889504D01*
X136237971Y-85881446D01*
X136216347Y-85871218D01*
X136195830Y-85858921D01*
X136176617Y-85844671D01*
X136158893Y-85828607D01*
X136142829Y-85810883D01*
X136128579Y-85791670D01*
X136116282Y-85771153D01*
X136106054Y-85749529D01*
X136097996Y-85727007D01*
X136092184Y-85703803D01*
X136088674Y-85680142D01*
X136087500Y-85656250D01*
X136087500Y-84743750D01*
X136088674Y-84719858D01*
X136092184Y-84696197D01*
X136097996Y-84672993D01*
X136106054Y-84650471D01*
X136116282Y-84628847D01*
X136128579Y-84608330D01*
X136142829Y-84589117D01*
X136158893Y-84571393D01*
X136176617Y-84555329D01*
X136195830Y-84541079D01*
X136216347Y-84528782D01*
X136237971Y-84518554D01*
X136260493Y-84510496D01*
X136283697Y-84504684D01*
X136307358Y-84501174D01*
X136331250Y-84500000D01*
X136818750Y-84500000D01*
X136842642Y-84501174D01*
G37*
G04 #@! TD.AperFunction*
G04 #@! TA.AperFunction,SMDPad,CuDef*
G36*
X134967642Y-84501174D02*
G01*
X134991303Y-84504684D01*
X135014507Y-84510496D01*
X135037029Y-84518554D01*
X135058653Y-84528782D01*
X135079170Y-84541079D01*
X135098383Y-84555329D01*
X135116107Y-84571393D01*
X135132171Y-84589117D01*
X135146421Y-84608330D01*
X135158718Y-84628847D01*
X135168946Y-84650471D01*
X135177004Y-84672993D01*
X135182816Y-84696197D01*
X135186326Y-84719858D01*
X135187500Y-84743750D01*
X135187500Y-85656250D01*
X135186326Y-85680142D01*
X135182816Y-85703803D01*
X135177004Y-85727007D01*
X135168946Y-85749529D01*
X135158718Y-85771153D01*
X135146421Y-85791670D01*
X135132171Y-85810883D01*
X135116107Y-85828607D01*
X135098383Y-85844671D01*
X135079170Y-85858921D01*
X135058653Y-85871218D01*
X135037029Y-85881446D01*
X135014507Y-85889504D01*
X134991303Y-85895316D01*
X134967642Y-85898826D01*
X134943750Y-85900000D01*
X134456250Y-85900000D01*
X134432358Y-85898826D01*
X134408697Y-85895316D01*
X134385493Y-85889504D01*
X134362971Y-85881446D01*
X134341347Y-85871218D01*
X134320830Y-85858921D01*
X134301617Y-85844671D01*
X134283893Y-85828607D01*
X134267829Y-85810883D01*
X134253579Y-85791670D01*
X134241282Y-85771153D01*
X134231054Y-85749529D01*
X134222996Y-85727007D01*
X134217184Y-85703803D01*
X134213674Y-85680142D01*
X134212500Y-85656250D01*
X134212500Y-84743750D01*
X134213674Y-84719858D01*
X134217184Y-84696197D01*
X134222996Y-84672993D01*
X134231054Y-84650471D01*
X134241282Y-84628847D01*
X134253579Y-84608330D01*
X134267829Y-84589117D01*
X134283893Y-84571393D01*
X134301617Y-84555329D01*
X134320830Y-84541079D01*
X134341347Y-84528782D01*
X134362971Y-84518554D01*
X134385493Y-84510496D01*
X134408697Y-84504684D01*
X134432358Y-84501174D01*
X134456250Y-84500000D01*
X134943750Y-84500000D01*
X134967642Y-84501174D01*
G37*
G04 #@! TD.AperFunction*
G04 #@! TA.AperFunction,SMDPad,CuDef*
G36*
X136842642Y-86601174D02*
G01*
X136866303Y-86604684D01*
X136889507Y-86610496D01*
X136912029Y-86618554D01*
X136933653Y-86628782D01*
X136954170Y-86641079D01*
X136973383Y-86655329D01*
X136991107Y-86671393D01*
X137007171Y-86689117D01*
X137021421Y-86708330D01*
X137033718Y-86728847D01*
X137043946Y-86750471D01*
X137052004Y-86772993D01*
X137057816Y-86796197D01*
X137061326Y-86819858D01*
X137062500Y-86843750D01*
X137062500Y-87756250D01*
X137061326Y-87780142D01*
X137057816Y-87803803D01*
X137052004Y-87827007D01*
X137043946Y-87849529D01*
X137033718Y-87871153D01*
X137021421Y-87891670D01*
X137007171Y-87910883D01*
X136991107Y-87928607D01*
X136973383Y-87944671D01*
X136954170Y-87958921D01*
X136933653Y-87971218D01*
X136912029Y-87981446D01*
X136889507Y-87989504D01*
X136866303Y-87995316D01*
X136842642Y-87998826D01*
X136818750Y-88000000D01*
X136331250Y-88000000D01*
X136307358Y-87998826D01*
X136283697Y-87995316D01*
X136260493Y-87989504D01*
X136237971Y-87981446D01*
X136216347Y-87971218D01*
X136195830Y-87958921D01*
X136176617Y-87944671D01*
X136158893Y-87928607D01*
X136142829Y-87910883D01*
X136128579Y-87891670D01*
X136116282Y-87871153D01*
X136106054Y-87849529D01*
X136097996Y-87827007D01*
X136092184Y-87803803D01*
X136088674Y-87780142D01*
X136087500Y-87756250D01*
X136087500Y-86843750D01*
X136088674Y-86819858D01*
X136092184Y-86796197D01*
X136097996Y-86772993D01*
X136106054Y-86750471D01*
X136116282Y-86728847D01*
X136128579Y-86708330D01*
X136142829Y-86689117D01*
X136158893Y-86671393D01*
X136176617Y-86655329D01*
X136195830Y-86641079D01*
X136216347Y-86628782D01*
X136237971Y-86618554D01*
X136260493Y-86610496D01*
X136283697Y-86604684D01*
X136307358Y-86601174D01*
X136331250Y-86600000D01*
X136818750Y-86600000D01*
X136842642Y-86601174D01*
G37*
G04 #@! TD.AperFunction*
G04 #@! TA.AperFunction,SMDPad,CuDef*
G36*
X134967642Y-86601174D02*
G01*
X134991303Y-86604684D01*
X135014507Y-86610496D01*
X135037029Y-86618554D01*
X135058653Y-86628782D01*
X135079170Y-86641079D01*
X135098383Y-86655329D01*
X135116107Y-86671393D01*
X135132171Y-86689117D01*
X135146421Y-86708330D01*
X135158718Y-86728847D01*
X135168946Y-86750471D01*
X135177004Y-86772993D01*
X135182816Y-86796197D01*
X135186326Y-86819858D01*
X135187500Y-86843750D01*
X135187500Y-87756250D01*
X135186326Y-87780142D01*
X135182816Y-87803803D01*
X135177004Y-87827007D01*
X135168946Y-87849529D01*
X135158718Y-87871153D01*
X135146421Y-87891670D01*
X135132171Y-87910883D01*
X135116107Y-87928607D01*
X135098383Y-87944671D01*
X135079170Y-87958921D01*
X135058653Y-87971218D01*
X135037029Y-87981446D01*
X135014507Y-87989504D01*
X134991303Y-87995316D01*
X134967642Y-87998826D01*
X134943750Y-88000000D01*
X134456250Y-88000000D01*
X134432358Y-87998826D01*
X134408697Y-87995316D01*
X134385493Y-87989504D01*
X134362971Y-87981446D01*
X134341347Y-87971218D01*
X134320830Y-87958921D01*
X134301617Y-87944671D01*
X134283893Y-87928607D01*
X134267829Y-87910883D01*
X134253579Y-87891670D01*
X134241282Y-87871153D01*
X134231054Y-87849529D01*
X134222996Y-87827007D01*
X134217184Y-87803803D01*
X134213674Y-87780142D01*
X134212500Y-87756250D01*
X134212500Y-86843750D01*
X134213674Y-86819858D01*
X134217184Y-86796197D01*
X134222996Y-86772993D01*
X134231054Y-86750471D01*
X134241282Y-86728847D01*
X134253579Y-86708330D01*
X134267829Y-86689117D01*
X134283893Y-86671393D01*
X134301617Y-86655329D01*
X134320830Y-86641079D01*
X134341347Y-86628782D01*
X134362971Y-86618554D01*
X134385493Y-86610496D01*
X134408697Y-86604684D01*
X134432358Y-86601174D01*
X134456250Y-86600000D01*
X134943750Y-86600000D01*
X134967642Y-86601174D01*
G37*
G04 #@! TD.AperFunction*
G04 #@! TA.AperFunction,SMDPad,CuDef*
G36*
X133242642Y-86601174D02*
G01*
X133266303Y-86604684D01*
X133289507Y-86610496D01*
X133312029Y-86618554D01*
X133333653Y-86628782D01*
X133354170Y-86641079D01*
X133373383Y-86655329D01*
X133391107Y-86671393D01*
X133407171Y-86689117D01*
X133421421Y-86708330D01*
X133433718Y-86728847D01*
X133443946Y-86750471D01*
X133452004Y-86772993D01*
X133457816Y-86796197D01*
X133461326Y-86819858D01*
X133462500Y-86843750D01*
X133462500Y-87756250D01*
X133461326Y-87780142D01*
X133457816Y-87803803D01*
X133452004Y-87827007D01*
X133443946Y-87849529D01*
X133433718Y-87871153D01*
X133421421Y-87891670D01*
X133407171Y-87910883D01*
X133391107Y-87928607D01*
X133373383Y-87944671D01*
X133354170Y-87958921D01*
X133333653Y-87971218D01*
X133312029Y-87981446D01*
X133289507Y-87989504D01*
X133266303Y-87995316D01*
X133242642Y-87998826D01*
X133218750Y-88000000D01*
X132731250Y-88000000D01*
X132707358Y-87998826D01*
X132683697Y-87995316D01*
X132660493Y-87989504D01*
X132637971Y-87981446D01*
X132616347Y-87971218D01*
X132595830Y-87958921D01*
X132576617Y-87944671D01*
X132558893Y-87928607D01*
X132542829Y-87910883D01*
X132528579Y-87891670D01*
X132516282Y-87871153D01*
X132506054Y-87849529D01*
X132497996Y-87827007D01*
X132492184Y-87803803D01*
X132488674Y-87780142D01*
X132487500Y-87756250D01*
X132487500Y-86843750D01*
X132488674Y-86819858D01*
X132492184Y-86796197D01*
X132497996Y-86772993D01*
X132506054Y-86750471D01*
X132516282Y-86728847D01*
X132528579Y-86708330D01*
X132542829Y-86689117D01*
X132558893Y-86671393D01*
X132576617Y-86655329D01*
X132595830Y-86641079D01*
X132616347Y-86628782D01*
X132637971Y-86618554D01*
X132660493Y-86610496D01*
X132683697Y-86604684D01*
X132707358Y-86601174D01*
X132731250Y-86600000D01*
X133218750Y-86600000D01*
X133242642Y-86601174D01*
G37*
G04 #@! TD.AperFunction*
G04 #@! TA.AperFunction,SMDPad,CuDef*
G36*
X131367642Y-86601174D02*
G01*
X131391303Y-86604684D01*
X131414507Y-86610496D01*
X131437029Y-86618554D01*
X131458653Y-86628782D01*
X131479170Y-86641079D01*
X131498383Y-86655329D01*
X131516107Y-86671393D01*
X131532171Y-86689117D01*
X131546421Y-86708330D01*
X131558718Y-86728847D01*
X131568946Y-86750471D01*
X131577004Y-86772993D01*
X131582816Y-86796197D01*
X131586326Y-86819858D01*
X131587500Y-86843750D01*
X131587500Y-87756250D01*
X131586326Y-87780142D01*
X131582816Y-87803803D01*
X131577004Y-87827007D01*
X131568946Y-87849529D01*
X131558718Y-87871153D01*
X131546421Y-87891670D01*
X131532171Y-87910883D01*
X131516107Y-87928607D01*
X131498383Y-87944671D01*
X131479170Y-87958921D01*
X131458653Y-87971218D01*
X131437029Y-87981446D01*
X131414507Y-87989504D01*
X131391303Y-87995316D01*
X131367642Y-87998826D01*
X131343750Y-88000000D01*
X130856250Y-88000000D01*
X130832358Y-87998826D01*
X130808697Y-87995316D01*
X130785493Y-87989504D01*
X130762971Y-87981446D01*
X130741347Y-87971218D01*
X130720830Y-87958921D01*
X130701617Y-87944671D01*
X130683893Y-87928607D01*
X130667829Y-87910883D01*
X130653579Y-87891670D01*
X130641282Y-87871153D01*
X130631054Y-87849529D01*
X130622996Y-87827007D01*
X130617184Y-87803803D01*
X130613674Y-87780142D01*
X130612500Y-87756250D01*
X130612500Y-86843750D01*
X130613674Y-86819858D01*
X130617184Y-86796197D01*
X130622996Y-86772993D01*
X130631054Y-86750471D01*
X130641282Y-86728847D01*
X130653579Y-86708330D01*
X130667829Y-86689117D01*
X130683893Y-86671393D01*
X130701617Y-86655329D01*
X130720830Y-86641079D01*
X130741347Y-86628782D01*
X130762971Y-86618554D01*
X130785493Y-86610496D01*
X130808697Y-86604684D01*
X130832358Y-86601174D01*
X130856250Y-86600000D01*
X131343750Y-86600000D01*
X131367642Y-86601174D01*
G37*
G04 #@! TD.AperFunction*
D11*
X118400000Y-81100000D03*
X119350000Y-81100000D03*
X117450000Y-81100000D03*
X117450000Y-78900000D03*
X118400000Y-78900000D03*
X119350000Y-78900000D03*
D12*
X113090000Y-77150000D03*
X113090000Y-77950000D03*
X113090000Y-78750000D03*
X113090000Y-80350000D03*
X113090000Y-81150000D03*
X113090000Y-81950000D03*
X113790000Y-76750000D03*
X113790000Y-78350000D03*
X113790000Y-79150000D03*
X113790000Y-79950000D03*
X113790000Y-80750000D03*
X113790000Y-82350000D03*
D13*
X107240000Y-75060000D03*
X107240000Y-84040000D03*
X113190000Y-83680000D03*
D14*
X115100000Y-81800000D03*
X115100000Y-80300000D03*
X115100000Y-80800000D03*
X115100000Y-81300000D03*
X115100000Y-82300000D03*
X115100000Y-79800000D03*
X115100000Y-79300000D03*
X115100000Y-78800000D03*
X115100000Y-78300000D03*
X115100000Y-77800000D03*
X115100000Y-77300000D03*
X115100000Y-76800000D03*
D13*
X113190000Y-75420000D03*
D15*
X134300000Y-82600000D03*
X133650000Y-82600000D03*
X133000000Y-82600000D03*
X132350000Y-82600000D03*
X131700000Y-82600000D03*
X131050000Y-82600000D03*
X130400000Y-82600000D03*
X129750000Y-82600000D03*
X129100000Y-82600000D03*
X128450000Y-82600000D03*
X127800000Y-82600000D03*
X127150000Y-82600000D03*
X126500000Y-82600000D03*
X125850000Y-82600000D03*
X125850000Y-75400000D03*
X126500000Y-75400000D03*
X127150000Y-75400000D03*
X127800000Y-75400000D03*
X128450000Y-75400000D03*
X129100000Y-75400000D03*
X129750000Y-75400000D03*
X130400000Y-75400000D03*
X131050000Y-75400000D03*
X131700000Y-75400000D03*
X132350000Y-75400000D03*
X133000000Y-75400000D03*
X133650000Y-75400000D03*
X134300000Y-75400000D03*
D16*
X126100000Y-70050000D03*
X126100000Y-71950000D03*
X123900000Y-71950000D03*
X123900000Y-71000000D03*
X123900000Y-70050000D03*
G04 #@! TA.AperFunction,SMDPad,CuDef*
D10*
G36*
X130980142Y-71513674D02*
G01*
X131003803Y-71517184D01*
X131027007Y-71522996D01*
X131049529Y-71531054D01*
X131071153Y-71541282D01*
X131091670Y-71553579D01*
X131110883Y-71567829D01*
X131128607Y-71583893D01*
X131144671Y-71601617D01*
X131158921Y-71620830D01*
X131171218Y-71641347D01*
X131181446Y-71662971D01*
X131189504Y-71685493D01*
X131195316Y-71708697D01*
X131198826Y-71732358D01*
X131200000Y-71756250D01*
X131200000Y-72243750D01*
X131198826Y-72267642D01*
X131195316Y-72291303D01*
X131189504Y-72314507D01*
X131181446Y-72337029D01*
X131171218Y-72358653D01*
X131158921Y-72379170D01*
X131144671Y-72398383D01*
X131128607Y-72416107D01*
X131110883Y-72432171D01*
X131091670Y-72446421D01*
X131071153Y-72458718D01*
X131049529Y-72468946D01*
X131027007Y-72477004D01*
X131003803Y-72482816D01*
X130980142Y-72486326D01*
X130956250Y-72487500D01*
X130043750Y-72487500D01*
X130019858Y-72486326D01*
X129996197Y-72482816D01*
X129972993Y-72477004D01*
X129950471Y-72468946D01*
X129928847Y-72458718D01*
X129908330Y-72446421D01*
X129889117Y-72432171D01*
X129871393Y-72416107D01*
X129855329Y-72398383D01*
X129841079Y-72379170D01*
X129828782Y-72358653D01*
X129818554Y-72337029D01*
X129810496Y-72314507D01*
X129804684Y-72291303D01*
X129801174Y-72267642D01*
X129800000Y-72243750D01*
X129800000Y-71756250D01*
X129801174Y-71732358D01*
X129804684Y-71708697D01*
X129810496Y-71685493D01*
X129818554Y-71662971D01*
X129828782Y-71641347D01*
X129841079Y-71620830D01*
X129855329Y-71601617D01*
X129871393Y-71583893D01*
X129889117Y-71567829D01*
X129908330Y-71553579D01*
X129928847Y-71541282D01*
X129950471Y-71531054D01*
X129972993Y-71522996D01*
X129996197Y-71517184D01*
X130019858Y-71513674D01*
X130043750Y-71512500D01*
X130956250Y-71512500D01*
X130980142Y-71513674D01*
G37*
G04 #@! TD.AperFunction*
G04 #@! TA.AperFunction,SMDPad,CuDef*
G36*
X130980142Y-69638674D02*
G01*
X131003803Y-69642184D01*
X131027007Y-69647996D01*
X131049529Y-69656054D01*
X131071153Y-69666282D01*
X131091670Y-69678579D01*
X131110883Y-69692829D01*
X131128607Y-69708893D01*
X131144671Y-69726617D01*
X131158921Y-69745830D01*
X131171218Y-69766347D01*
X131181446Y-69787971D01*
X131189504Y-69810493D01*
X131195316Y-69833697D01*
X131198826Y-69857358D01*
X131200000Y-69881250D01*
X131200000Y-70368750D01*
X131198826Y-70392642D01*
X131195316Y-70416303D01*
X131189504Y-70439507D01*
X131181446Y-70462029D01*
X131171218Y-70483653D01*
X131158921Y-70504170D01*
X131144671Y-70523383D01*
X131128607Y-70541107D01*
X131110883Y-70557171D01*
X131091670Y-70571421D01*
X131071153Y-70583718D01*
X131049529Y-70593946D01*
X131027007Y-70602004D01*
X131003803Y-70607816D01*
X130980142Y-70611326D01*
X130956250Y-70612500D01*
X130043750Y-70612500D01*
X130019858Y-70611326D01*
X129996197Y-70607816D01*
X129972993Y-70602004D01*
X129950471Y-70593946D01*
X129928847Y-70583718D01*
X129908330Y-70571421D01*
X129889117Y-70557171D01*
X129871393Y-70541107D01*
X129855329Y-70523383D01*
X129841079Y-70504170D01*
X129828782Y-70483653D01*
X129818554Y-70462029D01*
X129810496Y-70439507D01*
X129804684Y-70416303D01*
X129801174Y-70392642D01*
X129800000Y-70368750D01*
X129800000Y-69881250D01*
X129801174Y-69857358D01*
X129804684Y-69833697D01*
X129810496Y-69810493D01*
X129818554Y-69787971D01*
X129828782Y-69766347D01*
X129841079Y-69745830D01*
X129855329Y-69726617D01*
X129871393Y-69708893D01*
X129889117Y-69692829D01*
X129908330Y-69678579D01*
X129928847Y-69666282D01*
X129950471Y-69656054D01*
X129972993Y-69647996D01*
X129996197Y-69642184D01*
X130019858Y-69638674D01*
X130043750Y-69637500D01*
X130956250Y-69637500D01*
X130980142Y-69638674D01*
G37*
G04 #@! TD.AperFunction*
G04 #@! TA.AperFunction,SMDPad,CuDef*
G36*
X136280142Y-69613674D02*
G01*
X136303803Y-69617184D01*
X136327007Y-69622996D01*
X136349529Y-69631054D01*
X136371153Y-69641282D01*
X136391670Y-69653579D01*
X136410883Y-69667829D01*
X136428607Y-69683893D01*
X136444671Y-69701617D01*
X136458921Y-69720830D01*
X136471218Y-69741347D01*
X136481446Y-69762971D01*
X136489504Y-69785493D01*
X136495316Y-69808697D01*
X136498826Y-69832358D01*
X136500000Y-69856250D01*
X136500000Y-70343750D01*
X136498826Y-70367642D01*
X136495316Y-70391303D01*
X136489504Y-70414507D01*
X136481446Y-70437029D01*
X136471218Y-70458653D01*
X136458921Y-70479170D01*
X136444671Y-70498383D01*
X136428607Y-70516107D01*
X136410883Y-70532171D01*
X136391670Y-70546421D01*
X136371153Y-70558718D01*
X136349529Y-70568946D01*
X136327007Y-70577004D01*
X136303803Y-70582816D01*
X136280142Y-70586326D01*
X136256250Y-70587500D01*
X135343750Y-70587500D01*
X135319858Y-70586326D01*
X135296197Y-70582816D01*
X135272993Y-70577004D01*
X135250471Y-70568946D01*
X135228847Y-70558718D01*
X135208330Y-70546421D01*
X135189117Y-70532171D01*
X135171393Y-70516107D01*
X135155329Y-70498383D01*
X135141079Y-70479170D01*
X135128782Y-70458653D01*
X135118554Y-70437029D01*
X135110496Y-70414507D01*
X135104684Y-70391303D01*
X135101174Y-70367642D01*
X135100000Y-70343750D01*
X135100000Y-69856250D01*
X135101174Y-69832358D01*
X135104684Y-69808697D01*
X135110496Y-69785493D01*
X135118554Y-69762971D01*
X135128782Y-69741347D01*
X135141079Y-69720830D01*
X135155329Y-69701617D01*
X135171393Y-69683893D01*
X135189117Y-69667829D01*
X135208330Y-69653579D01*
X135228847Y-69641282D01*
X135250471Y-69631054D01*
X135272993Y-69622996D01*
X135296197Y-69617184D01*
X135319858Y-69613674D01*
X135343750Y-69612500D01*
X136256250Y-69612500D01*
X136280142Y-69613674D01*
G37*
G04 #@! TD.AperFunction*
G04 #@! TA.AperFunction,SMDPad,CuDef*
G36*
X136280142Y-71488674D02*
G01*
X136303803Y-71492184D01*
X136327007Y-71497996D01*
X136349529Y-71506054D01*
X136371153Y-71516282D01*
X136391670Y-71528579D01*
X136410883Y-71542829D01*
X136428607Y-71558893D01*
X136444671Y-71576617D01*
X136458921Y-71595830D01*
X136471218Y-71616347D01*
X136481446Y-71637971D01*
X136489504Y-71660493D01*
X136495316Y-71683697D01*
X136498826Y-71707358D01*
X136500000Y-71731250D01*
X136500000Y-72218750D01*
X136498826Y-72242642D01*
X136495316Y-72266303D01*
X136489504Y-72289507D01*
X136481446Y-72312029D01*
X136471218Y-72333653D01*
X136458921Y-72354170D01*
X136444671Y-72373383D01*
X136428607Y-72391107D01*
X136410883Y-72407171D01*
X136391670Y-72421421D01*
X136371153Y-72433718D01*
X136349529Y-72443946D01*
X136327007Y-72452004D01*
X136303803Y-72457816D01*
X136280142Y-72461326D01*
X136256250Y-72462500D01*
X135343750Y-72462500D01*
X135319858Y-72461326D01*
X135296197Y-72457816D01*
X135272993Y-72452004D01*
X135250471Y-72443946D01*
X135228847Y-72433718D01*
X135208330Y-72421421D01*
X135189117Y-72407171D01*
X135171393Y-72391107D01*
X135155329Y-72373383D01*
X135141079Y-72354170D01*
X135128782Y-72333653D01*
X135118554Y-72312029D01*
X135110496Y-72289507D01*
X135104684Y-72266303D01*
X135101174Y-72242642D01*
X135100000Y-72218750D01*
X135100000Y-71731250D01*
X135101174Y-71707358D01*
X135104684Y-71683697D01*
X135110496Y-71660493D01*
X135118554Y-71637971D01*
X135128782Y-71616347D01*
X135141079Y-71595830D01*
X135155329Y-71576617D01*
X135171393Y-71558893D01*
X135189117Y-71542829D01*
X135208330Y-71528579D01*
X135228847Y-71516282D01*
X135250471Y-71506054D01*
X135272993Y-71497996D01*
X135296197Y-71492184D01*
X135319858Y-71488674D01*
X135343750Y-71487500D01*
X136256250Y-71487500D01*
X136280142Y-71488674D01*
G37*
G04 #@! TD.AperFunction*
G04 #@! TA.AperFunction,SMDPad,CuDef*
G36*
X123242642Y-80801174D02*
G01*
X123266303Y-80804684D01*
X123289507Y-80810496D01*
X123312029Y-80818554D01*
X123333653Y-80828782D01*
X123354170Y-80841079D01*
X123373383Y-80855329D01*
X123391107Y-80871393D01*
X123407171Y-80889117D01*
X123421421Y-80908330D01*
X123433718Y-80928847D01*
X123443946Y-80950471D01*
X123452004Y-80972993D01*
X123457816Y-80996197D01*
X123461326Y-81019858D01*
X123462500Y-81043750D01*
X123462500Y-81956250D01*
X123461326Y-81980142D01*
X123457816Y-82003803D01*
X123452004Y-82027007D01*
X123443946Y-82049529D01*
X123433718Y-82071153D01*
X123421421Y-82091670D01*
X123407171Y-82110883D01*
X123391107Y-82128607D01*
X123373383Y-82144671D01*
X123354170Y-82158921D01*
X123333653Y-82171218D01*
X123312029Y-82181446D01*
X123289507Y-82189504D01*
X123266303Y-82195316D01*
X123242642Y-82198826D01*
X123218750Y-82200000D01*
X122731250Y-82200000D01*
X122707358Y-82198826D01*
X122683697Y-82195316D01*
X122660493Y-82189504D01*
X122637971Y-82181446D01*
X122616347Y-82171218D01*
X122595830Y-82158921D01*
X122576617Y-82144671D01*
X122558893Y-82128607D01*
X122542829Y-82110883D01*
X122528579Y-82091670D01*
X122516282Y-82071153D01*
X122506054Y-82049529D01*
X122497996Y-82027007D01*
X122492184Y-82003803D01*
X122488674Y-81980142D01*
X122487500Y-81956250D01*
X122487500Y-81043750D01*
X122488674Y-81019858D01*
X122492184Y-80996197D01*
X122497996Y-80972993D01*
X122506054Y-80950471D01*
X122516282Y-80928847D01*
X122528579Y-80908330D01*
X122542829Y-80889117D01*
X122558893Y-80871393D01*
X122576617Y-80855329D01*
X122595830Y-80841079D01*
X122616347Y-80828782D01*
X122637971Y-80818554D01*
X122660493Y-80810496D01*
X122683697Y-80804684D01*
X122707358Y-80801174D01*
X122731250Y-80800000D01*
X123218750Y-80800000D01*
X123242642Y-80801174D01*
G37*
G04 #@! TD.AperFunction*
G04 #@! TA.AperFunction,SMDPad,CuDef*
G36*
X121367642Y-80801174D02*
G01*
X121391303Y-80804684D01*
X121414507Y-80810496D01*
X121437029Y-80818554D01*
X121458653Y-80828782D01*
X121479170Y-80841079D01*
X121498383Y-80855329D01*
X121516107Y-80871393D01*
X121532171Y-80889117D01*
X121546421Y-80908330D01*
X121558718Y-80928847D01*
X121568946Y-80950471D01*
X121577004Y-80972993D01*
X121582816Y-80996197D01*
X121586326Y-81019858D01*
X121587500Y-81043750D01*
X121587500Y-81956250D01*
X121586326Y-81980142D01*
X121582816Y-82003803D01*
X121577004Y-82027007D01*
X121568946Y-82049529D01*
X121558718Y-82071153D01*
X121546421Y-82091670D01*
X121532171Y-82110883D01*
X121516107Y-82128607D01*
X121498383Y-82144671D01*
X121479170Y-82158921D01*
X121458653Y-82171218D01*
X121437029Y-82181446D01*
X121414507Y-82189504D01*
X121391303Y-82195316D01*
X121367642Y-82198826D01*
X121343750Y-82200000D01*
X120856250Y-82200000D01*
X120832358Y-82198826D01*
X120808697Y-82195316D01*
X120785493Y-82189504D01*
X120762971Y-82181446D01*
X120741347Y-82171218D01*
X120720830Y-82158921D01*
X120701617Y-82144671D01*
X120683893Y-82128607D01*
X120667829Y-82110883D01*
X120653579Y-82091670D01*
X120641282Y-82071153D01*
X120631054Y-82049529D01*
X120622996Y-82027007D01*
X120617184Y-82003803D01*
X120613674Y-81980142D01*
X120612500Y-81956250D01*
X120612500Y-81043750D01*
X120613674Y-81019858D01*
X120617184Y-80996197D01*
X120622996Y-80972993D01*
X120631054Y-80950471D01*
X120641282Y-80928847D01*
X120653579Y-80908330D01*
X120667829Y-80889117D01*
X120683893Y-80871393D01*
X120701617Y-80855329D01*
X120720830Y-80841079D01*
X120741347Y-80828782D01*
X120762971Y-80818554D01*
X120785493Y-80810496D01*
X120808697Y-80804684D01*
X120832358Y-80801174D01*
X120856250Y-80800000D01*
X121343750Y-80800000D01*
X121367642Y-80801174D01*
G37*
G04 #@! TD.AperFunction*
G04 #@! TA.AperFunction,SMDPad,CuDef*
G36*
X123267642Y-78201174D02*
G01*
X123291303Y-78204684D01*
X123314507Y-78210496D01*
X123337029Y-78218554D01*
X123358653Y-78228782D01*
X123379170Y-78241079D01*
X123398383Y-78255329D01*
X123416107Y-78271393D01*
X123432171Y-78289117D01*
X123446421Y-78308330D01*
X123458718Y-78328847D01*
X123468946Y-78350471D01*
X123477004Y-78372993D01*
X123482816Y-78396197D01*
X123486326Y-78419858D01*
X123487500Y-78443750D01*
X123487500Y-79356250D01*
X123486326Y-79380142D01*
X123482816Y-79403803D01*
X123477004Y-79427007D01*
X123468946Y-79449529D01*
X123458718Y-79471153D01*
X123446421Y-79491670D01*
X123432171Y-79510883D01*
X123416107Y-79528607D01*
X123398383Y-79544671D01*
X123379170Y-79558921D01*
X123358653Y-79571218D01*
X123337029Y-79581446D01*
X123314507Y-79589504D01*
X123291303Y-79595316D01*
X123267642Y-79598826D01*
X123243750Y-79600000D01*
X122756250Y-79600000D01*
X122732358Y-79598826D01*
X122708697Y-79595316D01*
X122685493Y-79589504D01*
X122662971Y-79581446D01*
X122641347Y-79571218D01*
X122620830Y-79558921D01*
X122601617Y-79544671D01*
X122583893Y-79528607D01*
X122567829Y-79510883D01*
X122553579Y-79491670D01*
X122541282Y-79471153D01*
X122531054Y-79449529D01*
X122522996Y-79427007D01*
X122517184Y-79403803D01*
X122513674Y-79380142D01*
X122512500Y-79356250D01*
X122512500Y-78443750D01*
X122513674Y-78419858D01*
X122517184Y-78396197D01*
X122522996Y-78372993D01*
X122531054Y-78350471D01*
X122541282Y-78328847D01*
X122553579Y-78308330D01*
X122567829Y-78289117D01*
X122583893Y-78271393D01*
X122601617Y-78255329D01*
X122620830Y-78241079D01*
X122641347Y-78228782D01*
X122662971Y-78218554D01*
X122685493Y-78210496D01*
X122708697Y-78204684D01*
X122732358Y-78201174D01*
X122756250Y-78200000D01*
X123243750Y-78200000D01*
X123267642Y-78201174D01*
G37*
G04 #@! TD.AperFunction*
G04 #@! TA.AperFunction,SMDPad,CuDef*
G36*
X121392642Y-78201174D02*
G01*
X121416303Y-78204684D01*
X121439507Y-78210496D01*
X121462029Y-78218554D01*
X121483653Y-78228782D01*
X121504170Y-78241079D01*
X121523383Y-78255329D01*
X121541107Y-78271393D01*
X121557171Y-78289117D01*
X121571421Y-78308330D01*
X121583718Y-78328847D01*
X121593946Y-78350471D01*
X121602004Y-78372993D01*
X121607816Y-78396197D01*
X121611326Y-78419858D01*
X121612500Y-78443750D01*
X121612500Y-79356250D01*
X121611326Y-79380142D01*
X121607816Y-79403803D01*
X121602004Y-79427007D01*
X121593946Y-79449529D01*
X121583718Y-79471153D01*
X121571421Y-79491670D01*
X121557171Y-79510883D01*
X121541107Y-79528607D01*
X121523383Y-79544671D01*
X121504170Y-79558921D01*
X121483653Y-79571218D01*
X121462029Y-79581446D01*
X121439507Y-79589504D01*
X121416303Y-79595316D01*
X121392642Y-79598826D01*
X121368750Y-79600000D01*
X120881250Y-79600000D01*
X120857358Y-79598826D01*
X120833697Y-79595316D01*
X120810493Y-79589504D01*
X120787971Y-79581446D01*
X120766347Y-79571218D01*
X120745830Y-79558921D01*
X120726617Y-79544671D01*
X120708893Y-79528607D01*
X120692829Y-79510883D01*
X120678579Y-79491670D01*
X120666282Y-79471153D01*
X120656054Y-79449529D01*
X120647996Y-79427007D01*
X120642184Y-79403803D01*
X120638674Y-79380142D01*
X120637500Y-79356250D01*
X120637500Y-78443750D01*
X120638674Y-78419858D01*
X120642184Y-78396197D01*
X120647996Y-78372993D01*
X120656054Y-78350471D01*
X120666282Y-78328847D01*
X120678579Y-78308330D01*
X120692829Y-78289117D01*
X120708893Y-78271393D01*
X120726617Y-78255329D01*
X120745830Y-78241079D01*
X120766347Y-78228782D01*
X120787971Y-78218554D01*
X120810493Y-78210496D01*
X120833697Y-78204684D01*
X120857358Y-78201174D01*
X120881250Y-78200000D01*
X121368750Y-78200000D01*
X121392642Y-78201174D01*
G37*
G04 #@! TD.AperFunction*
G04 #@! TA.AperFunction,SMDPad,CuDef*
G36*
X117667642Y-83201174D02*
G01*
X117691303Y-83204684D01*
X117714507Y-83210496D01*
X117737029Y-83218554D01*
X117758653Y-83228782D01*
X117779170Y-83241079D01*
X117798383Y-83255329D01*
X117816107Y-83271393D01*
X117832171Y-83289117D01*
X117846421Y-83308330D01*
X117858718Y-83328847D01*
X117868946Y-83350471D01*
X117877004Y-83372993D01*
X117882816Y-83396197D01*
X117886326Y-83419858D01*
X117887500Y-83443750D01*
X117887500Y-84356250D01*
X117886326Y-84380142D01*
X117882816Y-84403803D01*
X117877004Y-84427007D01*
X117868946Y-84449529D01*
X117858718Y-84471153D01*
X117846421Y-84491670D01*
X117832171Y-84510883D01*
X117816107Y-84528607D01*
X117798383Y-84544671D01*
X117779170Y-84558921D01*
X117758653Y-84571218D01*
X117737029Y-84581446D01*
X117714507Y-84589504D01*
X117691303Y-84595316D01*
X117667642Y-84598826D01*
X117643750Y-84600000D01*
X117156250Y-84600000D01*
X117132358Y-84598826D01*
X117108697Y-84595316D01*
X117085493Y-84589504D01*
X117062971Y-84581446D01*
X117041347Y-84571218D01*
X117020830Y-84558921D01*
X117001617Y-84544671D01*
X116983893Y-84528607D01*
X116967829Y-84510883D01*
X116953579Y-84491670D01*
X116941282Y-84471153D01*
X116931054Y-84449529D01*
X116922996Y-84427007D01*
X116917184Y-84403803D01*
X116913674Y-84380142D01*
X116912500Y-84356250D01*
X116912500Y-83443750D01*
X116913674Y-83419858D01*
X116917184Y-83396197D01*
X116922996Y-83372993D01*
X116931054Y-83350471D01*
X116941282Y-83328847D01*
X116953579Y-83308330D01*
X116967829Y-83289117D01*
X116983893Y-83271393D01*
X117001617Y-83255329D01*
X117020830Y-83241079D01*
X117041347Y-83228782D01*
X117062971Y-83218554D01*
X117085493Y-83210496D01*
X117108697Y-83204684D01*
X117132358Y-83201174D01*
X117156250Y-83200000D01*
X117643750Y-83200000D01*
X117667642Y-83201174D01*
G37*
G04 #@! TD.AperFunction*
G04 #@! TA.AperFunction,SMDPad,CuDef*
G36*
X119542642Y-83201174D02*
G01*
X119566303Y-83204684D01*
X119589507Y-83210496D01*
X119612029Y-83218554D01*
X119633653Y-83228782D01*
X119654170Y-83241079D01*
X119673383Y-83255329D01*
X119691107Y-83271393D01*
X119707171Y-83289117D01*
X119721421Y-83308330D01*
X119733718Y-83328847D01*
X119743946Y-83350471D01*
X119752004Y-83372993D01*
X119757816Y-83396197D01*
X119761326Y-83419858D01*
X119762500Y-83443750D01*
X119762500Y-84356250D01*
X119761326Y-84380142D01*
X119757816Y-84403803D01*
X119752004Y-84427007D01*
X119743946Y-84449529D01*
X119733718Y-84471153D01*
X119721421Y-84491670D01*
X119707171Y-84510883D01*
X119691107Y-84528607D01*
X119673383Y-84544671D01*
X119654170Y-84558921D01*
X119633653Y-84571218D01*
X119612029Y-84581446D01*
X119589507Y-84589504D01*
X119566303Y-84595316D01*
X119542642Y-84598826D01*
X119518750Y-84600000D01*
X119031250Y-84600000D01*
X119007358Y-84598826D01*
X118983697Y-84595316D01*
X118960493Y-84589504D01*
X118937971Y-84581446D01*
X118916347Y-84571218D01*
X118895830Y-84558921D01*
X118876617Y-84544671D01*
X118858893Y-84528607D01*
X118842829Y-84510883D01*
X118828579Y-84491670D01*
X118816282Y-84471153D01*
X118806054Y-84449529D01*
X118797996Y-84427007D01*
X118792184Y-84403803D01*
X118788674Y-84380142D01*
X118787500Y-84356250D01*
X118787500Y-83443750D01*
X118788674Y-83419858D01*
X118792184Y-83396197D01*
X118797996Y-83372993D01*
X118806054Y-83350471D01*
X118816282Y-83328847D01*
X118828579Y-83308330D01*
X118842829Y-83289117D01*
X118858893Y-83271393D01*
X118876617Y-83255329D01*
X118895830Y-83241079D01*
X118916347Y-83228782D01*
X118937971Y-83218554D01*
X118960493Y-83210496D01*
X118983697Y-83204684D01*
X119007358Y-83201174D01*
X119031250Y-83200000D01*
X119518750Y-83200000D01*
X119542642Y-83201174D01*
G37*
G04 #@! TD.AperFunction*
G04 #@! TA.AperFunction,SMDPad,CuDef*
G36*
X121367642Y-75901174D02*
G01*
X121391303Y-75904684D01*
X121414507Y-75910496D01*
X121437029Y-75918554D01*
X121458653Y-75928782D01*
X121479170Y-75941079D01*
X121498383Y-75955329D01*
X121516107Y-75971393D01*
X121532171Y-75989117D01*
X121546421Y-76008330D01*
X121558718Y-76028847D01*
X121568946Y-76050471D01*
X121577004Y-76072993D01*
X121582816Y-76096197D01*
X121586326Y-76119858D01*
X121587500Y-76143750D01*
X121587500Y-77056250D01*
X121586326Y-77080142D01*
X121582816Y-77103803D01*
X121577004Y-77127007D01*
X121568946Y-77149529D01*
X121558718Y-77171153D01*
X121546421Y-77191670D01*
X121532171Y-77210883D01*
X121516107Y-77228607D01*
X121498383Y-77244671D01*
X121479170Y-77258921D01*
X121458653Y-77271218D01*
X121437029Y-77281446D01*
X121414507Y-77289504D01*
X121391303Y-77295316D01*
X121367642Y-77298826D01*
X121343750Y-77300000D01*
X120856250Y-77300000D01*
X120832358Y-77298826D01*
X120808697Y-77295316D01*
X120785493Y-77289504D01*
X120762971Y-77281446D01*
X120741347Y-77271218D01*
X120720830Y-77258921D01*
X120701617Y-77244671D01*
X120683893Y-77228607D01*
X120667829Y-77210883D01*
X120653579Y-77191670D01*
X120641282Y-77171153D01*
X120631054Y-77149529D01*
X120622996Y-77127007D01*
X120617184Y-77103803D01*
X120613674Y-77080142D01*
X120612500Y-77056250D01*
X120612500Y-76143750D01*
X120613674Y-76119858D01*
X120617184Y-76096197D01*
X120622996Y-76072993D01*
X120631054Y-76050471D01*
X120641282Y-76028847D01*
X120653579Y-76008330D01*
X120667829Y-75989117D01*
X120683893Y-75971393D01*
X120701617Y-75955329D01*
X120720830Y-75941079D01*
X120741347Y-75928782D01*
X120762971Y-75918554D01*
X120785493Y-75910496D01*
X120808697Y-75904684D01*
X120832358Y-75901174D01*
X120856250Y-75900000D01*
X121343750Y-75900000D01*
X121367642Y-75901174D01*
G37*
G04 #@! TD.AperFunction*
G04 #@! TA.AperFunction,SMDPad,CuDef*
G36*
X123242642Y-75901174D02*
G01*
X123266303Y-75904684D01*
X123289507Y-75910496D01*
X123312029Y-75918554D01*
X123333653Y-75928782D01*
X123354170Y-75941079D01*
X123373383Y-75955329D01*
X123391107Y-75971393D01*
X123407171Y-75989117D01*
X123421421Y-76008330D01*
X123433718Y-76028847D01*
X123443946Y-76050471D01*
X123452004Y-76072993D01*
X123457816Y-76096197D01*
X123461326Y-76119858D01*
X123462500Y-76143750D01*
X123462500Y-77056250D01*
X123461326Y-77080142D01*
X123457816Y-77103803D01*
X123452004Y-77127007D01*
X123443946Y-77149529D01*
X123433718Y-77171153D01*
X123421421Y-77191670D01*
X123407171Y-77210883D01*
X123391107Y-77228607D01*
X123373383Y-77244671D01*
X123354170Y-77258921D01*
X123333653Y-77271218D01*
X123312029Y-77281446D01*
X123289507Y-77289504D01*
X123266303Y-77295316D01*
X123242642Y-77298826D01*
X123218750Y-77300000D01*
X122731250Y-77300000D01*
X122707358Y-77298826D01*
X122683697Y-77295316D01*
X122660493Y-77289504D01*
X122637971Y-77281446D01*
X122616347Y-77271218D01*
X122595830Y-77258921D01*
X122576617Y-77244671D01*
X122558893Y-77228607D01*
X122542829Y-77210883D01*
X122528579Y-77191670D01*
X122516282Y-77171153D01*
X122506054Y-77149529D01*
X122497996Y-77127007D01*
X122492184Y-77103803D01*
X122488674Y-77080142D01*
X122487500Y-77056250D01*
X122487500Y-76143750D01*
X122488674Y-76119858D01*
X122492184Y-76096197D01*
X122497996Y-76072993D01*
X122506054Y-76050471D01*
X122516282Y-76028847D01*
X122528579Y-76008330D01*
X122542829Y-75989117D01*
X122558893Y-75971393D01*
X122576617Y-75955329D01*
X122595830Y-75941079D01*
X122616347Y-75928782D01*
X122637971Y-75918554D01*
X122660493Y-75910496D01*
X122683697Y-75904684D01*
X122707358Y-75901174D01*
X122731250Y-75900000D01*
X123218750Y-75900000D01*
X123242642Y-75901174D01*
G37*
G04 #@! TD.AperFunction*
D17*
X132500000Y-70100000D03*
X133800000Y-70100000D03*
X133150000Y-72000000D03*
X133150000Y-70100000D03*
X133800000Y-72000000D03*
X132500000Y-72000000D03*
D18*
X143100000Y-79940000D03*
X139200000Y-79940000D03*
X143100000Y-78670000D03*
X139200000Y-78670000D03*
X143100000Y-77400000D03*
X139200000Y-77400000D03*
G04 #@! TA.AperFunction,SMDPad,CuDef*
D10*
G36*
X119392642Y-69301174D02*
G01*
X119416303Y-69304684D01*
X119439507Y-69310496D01*
X119462029Y-69318554D01*
X119483653Y-69328782D01*
X119504170Y-69341079D01*
X119523383Y-69355329D01*
X119541107Y-69371393D01*
X119557171Y-69389117D01*
X119571421Y-69408330D01*
X119583718Y-69428847D01*
X119593946Y-69450471D01*
X119602004Y-69472993D01*
X119607816Y-69496197D01*
X119611326Y-69519858D01*
X119612500Y-69543750D01*
X119612500Y-70456250D01*
X119611326Y-70480142D01*
X119607816Y-70503803D01*
X119602004Y-70527007D01*
X119593946Y-70549529D01*
X119583718Y-70571153D01*
X119571421Y-70591670D01*
X119557171Y-70610883D01*
X119541107Y-70628607D01*
X119523383Y-70644671D01*
X119504170Y-70658921D01*
X119483653Y-70671218D01*
X119462029Y-70681446D01*
X119439507Y-70689504D01*
X119416303Y-70695316D01*
X119392642Y-70698826D01*
X119368750Y-70700000D01*
X118881250Y-70700000D01*
X118857358Y-70698826D01*
X118833697Y-70695316D01*
X118810493Y-70689504D01*
X118787971Y-70681446D01*
X118766347Y-70671218D01*
X118745830Y-70658921D01*
X118726617Y-70644671D01*
X118708893Y-70628607D01*
X118692829Y-70610883D01*
X118678579Y-70591670D01*
X118666282Y-70571153D01*
X118656054Y-70549529D01*
X118647996Y-70527007D01*
X118642184Y-70503803D01*
X118638674Y-70480142D01*
X118637500Y-70456250D01*
X118637500Y-69543750D01*
X118638674Y-69519858D01*
X118642184Y-69496197D01*
X118647996Y-69472993D01*
X118656054Y-69450471D01*
X118666282Y-69428847D01*
X118678579Y-69408330D01*
X118692829Y-69389117D01*
X118708893Y-69371393D01*
X118726617Y-69355329D01*
X118745830Y-69341079D01*
X118766347Y-69328782D01*
X118787971Y-69318554D01*
X118810493Y-69310496D01*
X118833697Y-69304684D01*
X118857358Y-69301174D01*
X118881250Y-69300000D01*
X119368750Y-69300000D01*
X119392642Y-69301174D01*
G37*
G04 #@! TD.AperFunction*
G04 #@! TA.AperFunction,SMDPad,CuDef*
G36*
X121267642Y-69301174D02*
G01*
X121291303Y-69304684D01*
X121314507Y-69310496D01*
X121337029Y-69318554D01*
X121358653Y-69328782D01*
X121379170Y-69341079D01*
X121398383Y-69355329D01*
X121416107Y-69371393D01*
X121432171Y-69389117D01*
X121446421Y-69408330D01*
X121458718Y-69428847D01*
X121468946Y-69450471D01*
X121477004Y-69472993D01*
X121482816Y-69496197D01*
X121486326Y-69519858D01*
X121487500Y-69543750D01*
X121487500Y-70456250D01*
X121486326Y-70480142D01*
X121482816Y-70503803D01*
X121477004Y-70527007D01*
X121468946Y-70549529D01*
X121458718Y-70571153D01*
X121446421Y-70591670D01*
X121432171Y-70610883D01*
X121416107Y-70628607D01*
X121398383Y-70644671D01*
X121379170Y-70658921D01*
X121358653Y-70671218D01*
X121337029Y-70681446D01*
X121314507Y-70689504D01*
X121291303Y-70695316D01*
X121267642Y-70698826D01*
X121243750Y-70700000D01*
X120756250Y-70700000D01*
X120732358Y-70698826D01*
X120708697Y-70695316D01*
X120685493Y-70689504D01*
X120662971Y-70681446D01*
X120641347Y-70671218D01*
X120620830Y-70658921D01*
X120601617Y-70644671D01*
X120583893Y-70628607D01*
X120567829Y-70610883D01*
X120553579Y-70591670D01*
X120541282Y-70571153D01*
X120531054Y-70549529D01*
X120522996Y-70527007D01*
X120517184Y-70503803D01*
X120513674Y-70480142D01*
X120512500Y-70456250D01*
X120512500Y-69543750D01*
X120513674Y-69519858D01*
X120517184Y-69496197D01*
X120522996Y-69472993D01*
X120531054Y-69450471D01*
X120541282Y-69428847D01*
X120553579Y-69408330D01*
X120567829Y-69389117D01*
X120583893Y-69371393D01*
X120601617Y-69355329D01*
X120620830Y-69341079D01*
X120641347Y-69328782D01*
X120662971Y-69318554D01*
X120685493Y-69310496D01*
X120708697Y-69304684D01*
X120732358Y-69301174D01*
X120756250Y-69300000D01*
X121243750Y-69300000D01*
X121267642Y-69301174D01*
G37*
G04 #@! TD.AperFunction*
G04 #@! TA.AperFunction,SMDPad,CuDef*
G36*
X125567642Y-84401174D02*
G01*
X125591303Y-84404684D01*
X125614507Y-84410496D01*
X125637029Y-84418554D01*
X125658653Y-84428782D01*
X125679170Y-84441079D01*
X125698383Y-84455329D01*
X125716107Y-84471393D01*
X125732171Y-84489117D01*
X125746421Y-84508330D01*
X125758718Y-84528847D01*
X125768946Y-84550471D01*
X125777004Y-84572993D01*
X125782816Y-84596197D01*
X125786326Y-84619858D01*
X125787500Y-84643750D01*
X125787500Y-85556250D01*
X125786326Y-85580142D01*
X125782816Y-85603803D01*
X125777004Y-85627007D01*
X125768946Y-85649529D01*
X125758718Y-85671153D01*
X125746421Y-85691670D01*
X125732171Y-85710883D01*
X125716107Y-85728607D01*
X125698383Y-85744671D01*
X125679170Y-85758921D01*
X125658653Y-85771218D01*
X125637029Y-85781446D01*
X125614507Y-85789504D01*
X125591303Y-85795316D01*
X125567642Y-85798826D01*
X125543750Y-85800000D01*
X125056250Y-85800000D01*
X125032358Y-85798826D01*
X125008697Y-85795316D01*
X124985493Y-85789504D01*
X124962971Y-85781446D01*
X124941347Y-85771218D01*
X124920830Y-85758921D01*
X124901617Y-85744671D01*
X124883893Y-85728607D01*
X124867829Y-85710883D01*
X124853579Y-85691670D01*
X124841282Y-85671153D01*
X124831054Y-85649529D01*
X124822996Y-85627007D01*
X124817184Y-85603803D01*
X124813674Y-85580142D01*
X124812500Y-85556250D01*
X124812500Y-84643750D01*
X124813674Y-84619858D01*
X124817184Y-84596197D01*
X124822996Y-84572993D01*
X124831054Y-84550471D01*
X124841282Y-84528847D01*
X124853579Y-84508330D01*
X124867829Y-84489117D01*
X124883893Y-84471393D01*
X124901617Y-84455329D01*
X124920830Y-84441079D01*
X124941347Y-84428782D01*
X124962971Y-84418554D01*
X124985493Y-84410496D01*
X125008697Y-84404684D01*
X125032358Y-84401174D01*
X125056250Y-84400000D01*
X125543750Y-84400000D01*
X125567642Y-84401174D01*
G37*
G04 #@! TD.AperFunction*
G04 #@! TA.AperFunction,SMDPad,CuDef*
G36*
X127442642Y-84401174D02*
G01*
X127466303Y-84404684D01*
X127489507Y-84410496D01*
X127512029Y-84418554D01*
X127533653Y-84428782D01*
X127554170Y-84441079D01*
X127573383Y-84455329D01*
X127591107Y-84471393D01*
X127607171Y-84489117D01*
X127621421Y-84508330D01*
X127633718Y-84528847D01*
X127643946Y-84550471D01*
X127652004Y-84572993D01*
X127657816Y-84596197D01*
X127661326Y-84619858D01*
X127662500Y-84643750D01*
X127662500Y-85556250D01*
X127661326Y-85580142D01*
X127657816Y-85603803D01*
X127652004Y-85627007D01*
X127643946Y-85649529D01*
X127633718Y-85671153D01*
X127621421Y-85691670D01*
X127607171Y-85710883D01*
X127591107Y-85728607D01*
X127573383Y-85744671D01*
X127554170Y-85758921D01*
X127533653Y-85771218D01*
X127512029Y-85781446D01*
X127489507Y-85789504D01*
X127466303Y-85795316D01*
X127442642Y-85798826D01*
X127418750Y-85800000D01*
X126931250Y-85800000D01*
X126907358Y-85798826D01*
X126883697Y-85795316D01*
X126860493Y-85789504D01*
X126837971Y-85781446D01*
X126816347Y-85771218D01*
X126795830Y-85758921D01*
X126776617Y-85744671D01*
X126758893Y-85728607D01*
X126742829Y-85710883D01*
X126728579Y-85691670D01*
X126716282Y-85671153D01*
X126706054Y-85649529D01*
X126697996Y-85627007D01*
X126692184Y-85603803D01*
X126688674Y-85580142D01*
X126687500Y-85556250D01*
X126687500Y-84643750D01*
X126688674Y-84619858D01*
X126692184Y-84596197D01*
X126697996Y-84572993D01*
X126706054Y-84550471D01*
X126716282Y-84528847D01*
X126728579Y-84508330D01*
X126742829Y-84489117D01*
X126758893Y-84471393D01*
X126776617Y-84455329D01*
X126795830Y-84441079D01*
X126816347Y-84428782D01*
X126837971Y-84418554D01*
X126860493Y-84410496D01*
X126883697Y-84404684D01*
X126907358Y-84401174D01*
X126931250Y-84400000D01*
X127418750Y-84400000D01*
X127442642Y-84401174D01*
G37*
G04 #@! TD.AperFunction*
G04 #@! TA.AperFunction,SMDPad,CuDef*
G36*
X128480142Y-71388674D02*
G01*
X128503803Y-71392184D01*
X128527007Y-71397996D01*
X128549529Y-71406054D01*
X128571153Y-71416282D01*
X128591670Y-71428579D01*
X128610883Y-71442829D01*
X128628607Y-71458893D01*
X128644671Y-71476617D01*
X128658921Y-71495830D01*
X128671218Y-71516347D01*
X128681446Y-71537971D01*
X128689504Y-71560493D01*
X128695316Y-71583697D01*
X128698826Y-71607358D01*
X128700000Y-71631250D01*
X128700000Y-72118750D01*
X128698826Y-72142642D01*
X128695316Y-72166303D01*
X128689504Y-72189507D01*
X128681446Y-72212029D01*
X128671218Y-72233653D01*
X128658921Y-72254170D01*
X128644671Y-72273383D01*
X128628607Y-72291107D01*
X128610883Y-72307171D01*
X128591670Y-72321421D01*
X128571153Y-72333718D01*
X128549529Y-72343946D01*
X128527007Y-72352004D01*
X128503803Y-72357816D01*
X128480142Y-72361326D01*
X128456250Y-72362500D01*
X127543750Y-72362500D01*
X127519858Y-72361326D01*
X127496197Y-72357816D01*
X127472993Y-72352004D01*
X127450471Y-72343946D01*
X127428847Y-72333718D01*
X127408330Y-72321421D01*
X127389117Y-72307171D01*
X127371393Y-72291107D01*
X127355329Y-72273383D01*
X127341079Y-72254170D01*
X127328782Y-72233653D01*
X127318554Y-72212029D01*
X127310496Y-72189507D01*
X127304684Y-72166303D01*
X127301174Y-72142642D01*
X127300000Y-72118750D01*
X127300000Y-71631250D01*
X127301174Y-71607358D01*
X127304684Y-71583697D01*
X127310496Y-71560493D01*
X127318554Y-71537971D01*
X127328782Y-71516347D01*
X127341079Y-71495830D01*
X127355329Y-71476617D01*
X127371393Y-71458893D01*
X127389117Y-71442829D01*
X127408330Y-71428579D01*
X127428847Y-71416282D01*
X127450471Y-71406054D01*
X127472993Y-71397996D01*
X127496197Y-71392184D01*
X127519858Y-71388674D01*
X127543750Y-71387500D01*
X128456250Y-71387500D01*
X128480142Y-71388674D01*
G37*
G04 #@! TD.AperFunction*
G04 #@! TA.AperFunction,SMDPad,CuDef*
G36*
X128480142Y-69513674D02*
G01*
X128503803Y-69517184D01*
X128527007Y-69522996D01*
X128549529Y-69531054D01*
X128571153Y-69541282D01*
X128591670Y-69553579D01*
X128610883Y-69567829D01*
X128628607Y-69583893D01*
X128644671Y-69601617D01*
X128658921Y-69620830D01*
X128671218Y-69641347D01*
X128681446Y-69662971D01*
X128689504Y-69685493D01*
X128695316Y-69708697D01*
X128698826Y-69732358D01*
X128700000Y-69756250D01*
X128700000Y-70243750D01*
X128698826Y-70267642D01*
X128695316Y-70291303D01*
X128689504Y-70314507D01*
X128681446Y-70337029D01*
X128671218Y-70358653D01*
X128658921Y-70379170D01*
X128644671Y-70398383D01*
X128628607Y-70416107D01*
X128610883Y-70432171D01*
X128591670Y-70446421D01*
X128571153Y-70458718D01*
X128549529Y-70468946D01*
X128527007Y-70477004D01*
X128503803Y-70482816D01*
X128480142Y-70486326D01*
X128456250Y-70487500D01*
X127543750Y-70487500D01*
X127519858Y-70486326D01*
X127496197Y-70482816D01*
X127472993Y-70477004D01*
X127450471Y-70468946D01*
X127428847Y-70458718D01*
X127408330Y-70446421D01*
X127389117Y-70432171D01*
X127371393Y-70416107D01*
X127355329Y-70398383D01*
X127341079Y-70379170D01*
X127328782Y-70358653D01*
X127318554Y-70337029D01*
X127310496Y-70314507D01*
X127304684Y-70291303D01*
X127301174Y-70267642D01*
X127300000Y-70243750D01*
X127300000Y-69756250D01*
X127301174Y-69732358D01*
X127304684Y-69708697D01*
X127310496Y-69685493D01*
X127318554Y-69662971D01*
X127328782Y-69641347D01*
X127341079Y-69620830D01*
X127355329Y-69601617D01*
X127371393Y-69583893D01*
X127389117Y-69567829D01*
X127408330Y-69553579D01*
X127428847Y-69541282D01*
X127450471Y-69531054D01*
X127472993Y-69522996D01*
X127496197Y-69517184D01*
X127519858Y-69513674D01*
X127543750Y-69512500D01*
X128456250Y-69512500D01*
X128480142Y-69513674D01*
G37*
G04 #@! TD.AperFunction*
G04 #@! TA.AperFunction,SMDPad,CuDef*
G36*
X120267642Y-71301174D02*
G01*
X120291303Y-71304684D01*
X120314507Y-71310496D01*
X120337029Y-71318554D01*
X120358653Y-71328782D01*
X120379170Y-71341079D01*
X120398383Y-71355329D01*
X120416107Y-71371393D01*
X120432171Y-71389117D01*
X120446421Y-71408330D01*
X120458718Y-71428847D01*
X120468946Y-71450471D01*
X120477004Y-71472993D01*
X120482816Y-71496197D01*
X120486326Y-71519858D01*
X120487500Y-71543750D01*
X120487500Y-72456250D01*
X120486326Y-72480142D01*
X120482816Y-72503803D01*
X120477004Y-72527007D01*
X120468946Y-72549529D01*
X120458718Y-72571153D01*
X120446421Y-72591670D01*
X120432171Y-72610883D01*
X120416107Y-72628607D01*
X120398383Y-72644671D01*
X120379170Y-72658921D01*
X120358653Y-72671218D01*
X120337029Y-72681446D01*
X120314507Y-72689504D01*
X120291303Y-72695316D01*
X120267642Y-72698826D01*
X120243750Y-72700000D01*
X119756250Y-72700000D01*
X119732358Y-72698826D01*
X119708697Y-72695316D01*
X119685493Y-72689504D01*
X119662971Y-72681446D01*
X119641347Y-72671218D01*
X119620830Y-72658921D01*
X119601617Y-72644671D01*
X119583893Y-72628607D01*
X119567829Y-72610883D01*
X119553579Y-72591670D01*
X119541282Y-72571153D01*
X119531054Y-72549529D01*
X119522996Y-72527007D01*
X119517184Y-72503803D01*
X119513674Y-72480142D01*
X119512500Y-72456250D01*
X119512500Y-71543750D01*
X119513674Y-71519858D01*
X119517184Y-71496197D01*
X119522996Y-71472993D01*
X119531054Y-71450471D01*
X119541282Y-71428847D01*
X119553579Y-71408330D01*
X119567829Y-71389117D01*
X119583893Y-71371393D01*
X119601617Y-71355329D01*
X119620830Y-71341079D01*
X119641347Y-71328782D01*
X119662971Y-71318554D01*
X119685493Y-71310496D01*
X119708697Y-71304684D01*
X119732358Y-71301174D01*
X119756250Y-71300000D01*
X120243750Y-71300000D01*
X120267642Y-71301174D01*
G37*
G04 #@! TD.AperFunction*
G04 #@! TA.AperFunction,SMDPad,CuDef*
G36*
X122142642Y-71301174D02*
G01*
X122166303Y-71304684D01*
X122189507Y-71310496D01*
X122212029Y-71318554D01*
X122233653Y-71328782D01*
X122254170Y-71341079D01*
X122273383Y-71355329D01*
X122291107Y-71371393D01*
X122307171Y-71389117D01*
X122321421Y-71408330D01*
X122333718Y-71428847D01*
X122343946Y-71450471D01*
X122352004Y-71472993D01*
X122357816Y-71496197D01*
X122361326Y-71519858D01*
X122362500Y-71543750D01*
X122362500Y-72456250D01*
X122361326Y-72480142D01*
X122357816Y-72503803D01*
X122352004Y-72527007D01*
X122343946Y-72549529D01*
X122333718Y-72571153D01*
X122321421Y-72591670D01*
X122307171Y-72610883D01*
X122291107Y-72628607D01*
X122273383Y-72644671D01*
X122254170Y-72658921D01*
X122233653Y-72671218D01*
X122212029Y-72681446D01*
X122189507Y-72689504D01*
X122166303Y-72695316D01*
X122142642Y-72698826D01*
X122118750Y-72700000D01*
X121631250Y-72700000D01*
X121607358Y-72698826D01*
X121583697Y-72695316D01*
X121560493Y-72689504D01*
X121537971Y-72681446D01*
X121516347Y-72671218D01*
X121495830Y-72658921D01*
X121476617Y-72644671D01*
X121458893Y-72628607D01*
X121442829Y-72610883D01*
X121428579Y-72591670D01*
X121416282Y-72571153D01*
X121406054Y-72549529D01*
X121397996Y-72527007D01*
X121392184Y-72503803D01*
X121388674Y-72480142D01*
X121387500Y-72456250D01*
X121387500Y-71543750D01*
X121388674Y-71519858D01*
X121392184Y-71496197D01*
X121397996Y-71472993D01*
X121406054Y-71450471D01*
X121416282Y-71428847D01*
X121428579Y-71408330D01*
X121442829Y-71389117D01*
X121458893Y-71371393D01*
X121476617Y-71355329D01*
X121495830Y-71341079D01*
X121516347Y-71328782D01*
X121537971Y-71318554D01*
X121560493Y-71310496D01*
X121583697Y-71304684D01*
X121607358Y-71301174D01*
X121631250Y-71300000D01*
X122118750Y-71300000D01*
X122142642Y-71301174D01*
G37*
G04 #@! TD.AperFunction*
G04 #@! TA.AperFunction,SMDPad,CuDef*
G36*
X123242642Y-74001174D02*
G01*
X123266303Y-74004684D01*
X123289507Y-74010496D01*
X123312029Y-74018554D01*
X123333653Y-74028782D01*
X123354170Y-74041079D01*
X123373383Y-74055329D01*
X123391107Y-74071393D01*
X123407171Y-74089117D01*
X123421421Y-74108330D01*
X123433718Y-74128847D01*
X123443946Y-74150471D01*
X123452004Y-74172993D01*
X123457816Y-74196197D01*
X123461326Y-74219858D01*
X123462500Y-74243750D01*
X123462500Y-75156250D01*
X123461326Y-75180142D01*
X123457816Y-75203803D01*
X123452004Y-75227007D01*
X123443946Y-75249529D01*
X123433718Y-75271153D01*
X123421421Y-75291670D01*
X123407171Y-75310883D01*
X123391107Y-75328607D01*
X123373383Y-75344671D01*
X123354170Y-75358921D01*
X123333653Y-75371218D01*
X123312029Y-75381446D01*
X123289507Y-75389504D01*
X123266303Y-75395316D01*
X123242642Y-75398826D01*
X123218750Y-75400000D01*
X122731250Y-75400000D01*
X122707358Y-75398826D01*
X122683697Y-75395316D01*
X122660493Y-75389504D01*
X122637971Y-75381446D01*
X122616347Y-75371218D01*
X122595830Y-75358921D01*
X122576617Y-75344671D01*
X122558893Y-75328607D01*
X122542829Y-75310883D01*
X122528579Y-75291670D01*
X122516282Y-75271153D01*
X122506054Y-75249529D01*
X122497996Y-75227007D01*
X122492184Y-75203803D01*
X122488674Y-75180142D01*
X122487500Y-75156250D01*
X122487500Y-74243750D01*
X122488674Y-74219858D01*
X122492184Y-74196197D01*
X122497996Y-74172993D01*
X122506054Y-74150471D01*
X122516282Y-74128847D01*
X122528579Y-74108330D01*
X122542829Y-74089117D01*
X122558893Y-74071393D01*
X122576617Y-74055329D01*
X122595830Y-74041079D01*
X122616347Y-74028782D01*
X122637971Y-74018554D01*
X122660493Y-74010496D01*
X122683697Y-74004684D01*
X122707358Y-74001174D01*
X122731250Y-74000000D01*
X123218750Y-74000000D01*
X123242642Y-74001174D01*
G37*
G04 #@! TD.AperFunction*
G04 #@! TA.AperFunction,SMDPad,CuDef*
G36*
X121367642Y-74001174D02*
G01*
X121391303Y-74004684D01*
X121414507Y-74010496D01*
X121437029Y-74018554D01*
X121458653Y-74028782D01*
X121479170Y-74041079D01*
X121498383Y-74055329D01*
X121516107Y-74071393D01*
X121532171Y-74089117D01*
X121546421Y-74108330D01*
X121558718Y-74128847D01*
X121568946Y-74150471D01*
X121577004Y-74172993D01*
X121582816Y-74196197D01*
X121586326Y-74219858D01*
X121587500Y-74243750D01*
X121587500Y-75156250D01*
X121586326Y-75180142D01*
X121582816Y-75203803D01*
X121577004Y-75227007D01*
X121568946Y-75249529D01*
X121558718Y-75271153D01*
X121546421Y-75291670D01*
X121532171Y-75310883D01*
X121516107Y-75328607D01*
X121498383Y-75344671D01*
X121479170Y-75358921D01*
X121458653Y-75371218D01*
X121437029Y-75381446D01*
X121414507Y-75389504D01*
X121391303Y-75395316D01*
X121367642Y-75398826D01*
X121343750Y-75400000D01*
X120856250Y-75400000D01*
X120832358Y-75398826D01*
X120808697Y-75395316D01*
X120785493Y-75389504D01*
X120762971Y-75381446D01*
X120741347Y-75371218D01*
X120720830Y-75358921D01*
X120701617Y-75344671D01*
X120683893Y-75328607D01*
X120667829Y-75310883D01*
X120653579Y-75291670D01*
X120641282Y-75271153D01*
X120631054Y-75249529D01*
X120622996Y-75227007D01*
X120617184Y-75203803D01*
X120613674Y-75180142D01*
X120612500Y-75156250D01*
X120612500Y-74243750D01*
X120613674Y-74219858D01*
X120617184Y-74196197D01*
X120622996Y-74172993D01*
X120631054Y-74150471D01*
X120641282Y-74128847D01*
X120653579Y-74108330D01*
X120667829Y-74089117D01*
X120683893Y-74071393D01*
X120701617Y-74055329D01*
X120720830Y-74041079D01*
X120741347Y-74028782D01*
X120762971Y-74018554D01*
X120785493Y-74010496D01*
X120808697Y-74004684D01*
X120832358Y-74001174D01*
X120856250Y-74000000D01*
X121343750Y-74000000D01*
X121367642Y-74001174D01*
G37*
G04 #@! TD.AperFunction*
D19*
X144000000Y-68000000D03*
X112000000Y-68000000D03*
X112000000Y-86000000D03*
X145000000Y-86000000D03*
X123000000Y-73000000D03*
X125000000Y-73000000D03*
X118400000Y-77900000D03*
X116100000Y-76600000D03*
X116100000Y-82500000D03*
X126111000Y-79629000D03*
X136700000Y-79200000D03*
X134500000Y-77300000D03*
X133600000Y-73700000D03*
X134600000Y-70100000D03*
X126690908Y-80909829D03*
X125240908Y-80986336D03*
X132368416Y-76830084D03*
X128397000Y-84328000D03*
D20*
X129837499Y-74199999D02*
X128000000Y-72362500D01*
X130324999Y-74199999D02*
X129837499Y-74199999D01*
X128000000Y-72362500D02*
X128000000Y-71875000D01*
X130400000Y-74275000D02*
X130324999Y-74199999D01*
X130400000Y-75400000D02*
X130400000Y-74275000D01*
X125000000Y-72434315D02*
X125000000Y-73000000D01*
X125000000Y-71320000D02*
X125000000Y-72434315D01*
X124680000Y-71000000D02*
X125000000Y-71320000D01*
X123900000Y-71000000D02*
X124680000Y-71000000D01*
X122600001Y-73399999D02*
X123000000Y-73000000D01*
X121399999Y-73399999D02*
X122600001Y-73399999D01*
X120000000Y-72000000D02*
X121399999Y-73399999D01*
X115050000Y-82350000D02*
X115100000Y-82300000D01*
X113790000Y-82350000D02*
X115050000Y-82350000D01*
X115050000Y-76750000D02*
X115100000Y-76800000D01*
X113790000Y-76750000D02*
X115050000Y-76750000D01*
X118400000Y-78900000D02*
X118400000Y-77900000D01*
X115100000Y-76800000D02*
X115900000Y-76800000D01*
X115900000Y-76800000D02*
X116100000Y-76600000D01*
X115100000Y-82300000D02*
X115900000Y-82300000D01*
X115900000Y-82300000D02*
X116100000Y-82500000D01*
X126483081Y-79629000D02*
X126111000Y-79629000D01*
X127800000Y-82600000D02*
X127800000Y-80945919D01*
X127800000Y-80945919D02*
X126483081Y-79629000D01*
X129750000Y-82600000D02*
X129750000Y-80250000D01*
X132350000Y-82600000D02*
X132350000Y-81350000D01*
X132350000Y-81350000D02*
X132000000Y-81000000D01*
X133000000Y-82600000D02*
X133000000Y-81000000D01*
D21*
X118639473Y-70485527D02*
X119125000Y-70000000D01*
X118639473Y-72514473D02*
X118639473Y-70485527D01*
D20*
X113840000Y-80800000D02*
X115100000Y-80800000D01*
X113790000Y-80750000D02*
X113840000Y-80800000D01*
X113840000Y-78300000D02*
X115100000Y-78300000D01*
X113790000Y-78350000D02*
X113840000Y-78300000D01*
X118324999Y-81955001D02*
X118400000Y-81880000D01*
X116840003Y-81955001D02*
X118324999Y-81955001D01*
X115685002Y-80800000D02*
X116840003Y-81955001D01*
X118400000Y-81880000D02*
X118400000Y-81100000D01*
X115100000Y-80800000D02*
X115685002Y-80800000D01*
X120612500Y-74700000D02*
X121100000Y-74700000D01*
X115700000Y-78300000D02*
X119300000Y-74700000D01*
X115100000Y-78300000D02*
X115700000Y-78300000D01*
X118639473Y-72514473D02*
X118639473Y-74139473D01*
X118639473Y-74139473D02*
X119200000Y-74700000D01*
X119300000Y-74700000D02*
X119200000Y-74700000D01*
X119200000Y-74700000D02*
X120612500Y-74700000D01*
D21*
X121875000Y-70875000D02*
X121000000Y-70000000D01*
X121875000Y-72000000D02*
X121875000Y-70875000D01*
X121050000Y-70050000D02*
X121000000Y-70000000D01*
X123900000Y-70050000D02*
X121050000Y-70050000D01*
X121925000Y-71950000D02*
X121875000Y-72000000D01*
X123900000Y-71950000D02*
X121925000Y-71950000D01*
D20*
X123900000Y-76275000D02*
X123900000Y-72525000D01*
X129100000Y-81475000D02*
X123900000Y-76275000D01*
X123900000Y-72525000D02*
X123900000Y-71950000D01*
X129100000Y-82600000D02*
X129100000Y-81475000D01*
X136575000Y-87300000D02*
X136575000Y-85200000D01*
D21*
X127950000Y-70050000D02*
X128000000Y-70000000D01*
X126100000Y-70050000D02*
X127950000Y-70050000D01*
X143100000Y-75718874D02*
X143100000Y-76530000D01*
X129087519Y-68424981D02*
X135806107Y-68424981D01*
X128000000Y-69512500D02*
X129087519Y-68424981D01*
X143100000Y-76530000D02*
X143100000Y-77400000D01*
X135806107Y-68424981D02*
X143100000Y-75718874D01*
X128000000Y-70000000D02*
X128000000Y-69512500D01*
D20*
X120612500Y-76600000D02*
X121100000Y-76600000D01*
X118309998Y-76600000D02*
X120612500Y-76600000D01*
X116109998Y-78800000D02*
X118309998Y-76600000D01*
X115100000Y-78800000D02*
X116109998Y-78800000D01*
X112940001Y-80499999D02*
X113090000Y-80350000D01*
X112777999Y-80499999D02*
X112940001Y-80499999D01*
X117400000Y-83900000D02*
X116894990Y-84405010D01*
X112164990Y-81113008D02*
X112777999Y-80499999D01*
X112589692Y-84405010D02*
X112164990Y-83980308D01*
X116894990Y-84405010D02*
X112589692Y-84405010D01*
X112164990Y-83980308D02*
X112164990Y-81113008D01*
D22*
X137789199Y-78033501D02*
X137500000Y-77744302D01*
X140663501Y-78830501D02*
X140663501Y-78089199D01*
X143100000Y-79940000D02*
X141773000Y-79940000D01*
X141773000Y-79940000D02*
X140663501Y-78830501D01*
X140607803Y-78033501D02*
X137789199Y-78033501D01*
X140663501Y-78089199D02*
X140607803Y-78033501D01*
X137500000Y-77744302D02*
X137500000Y-75100000D01*
X137500000Y-75100000D02*
X135500000Y-73100000D01*
X135500000Y-73100000D02*
X134300000Y-73100000D01*
X133800000Y-72600000D02*
X133800000Y-72000000D01*
X134300000Y-73100000D02*
X133800000Y-72600000D01*
X139200000Y-79940000D02*
X137440000Y-79940000D01*
X137440000Y-79940000D02*
X136700000Y-79200000D01*
X134500000Y-75600000D02*
X134300000Y-75400000D01*
X134500000Y-77300000D02*
X134500000Y-75600000D01*
X137873000Y-78670000D02*
X137703000Y-78500000D01*
X139200000Y-78670000D02*
X137873000Y-78670000D01*
X137703000Y-78500000D02*
X133100000Y-78500000D01*
X131700000Y-77100000D02*
X131700000Y-75400000D01*
X133100000Y-78500000D02*
X131700000Y-77100000D01*
D20*
X132500000Y-70675000D02*
X132825000Y-71000000D01*
X132500000Y-70100000D02*
X132500000Y-70675000D01*
X132825000Y-71000000D02*
X136400000Y-71000000D01*
X139200000Y-73800000D02*
X139200000Y-77400000D01*
X136400000Y-71000000D02*
X139200000Y-73800000D01*
X133650000Y-75400000D02*
X133650000Y-73750000D01*
X133650000Y-73750000D02*
X133600000Y-73700000D01*
X135800000Y-70100000D02*
X134600000Y-70100000D01*
X134600000Y-70100000D02*
X133800000Y-70100000D01*
D22*
X133150000Y-71548000D02*
X133150000Y-72000000D01*
X133286501Y-71411499D02*
X133150000Y-71548000D01*
X135236499Y-71411499D02*
X133286501Y-71411499D01*
X135800000Y-71975000D02*
X135236499Y-71411499D01*
D20*
X132960001Y-69449999D02*
X131175001Y-69449999D01*
X133150000Y-69639998D02*
X132960001Y-69449999D01*
X130985527Y-69639473D02*
X130500000Y-70125000D01*
X131175001Y-69449999D02*
X130985527Y-69639473D01*
X133150000Y-70100000D02*
X133150000Y-69639998D01*
X132500000Y-72000000D02*
X130500000Y-72000000D01*
X132500000Y-73775000D02*
X132500000Y-72575000D01*
X133000000Y-74275000D02*
X132500000Y-73775000D01*
X132500000Y-72575000D02*
X132500000Y-72000000D01*
X133000000Y-75400000D02*
X133000000Y-74275000D01*
D22*
X122036490Y-77936490D02*
X122514473Y-78414473D01*
X120671136Y-77936490D02*
X122036490Y-77936490D01*
X119707626Y-78900000D02*
X120671136Y-77936490D01*
X122514473Y-78414473D02*
X123000000Y-78900000D01*
X119350000Y-78900000D02*
X119707626Y-78900000D01*
D23*
X123000000Y-78900000D02*
X124062500Y-79962500D01*
X124062500Y-79962500D02*
X125280700Y-79962500D01*
X125280700Y-79962500D02*
X125859100Y-80540900D01*
D20*
X125850000Y-81475000D02*
X125850000Y-82600000D01*
X125965908Y-81359092D02*
X125850000Y-81475000D01*
X125965908Y-80683054D02*
X125965908Y-81359092D01*
X125859100Y-80576246D02*
X125965908Y-80683054D01*
X125859100Y-80540900D02*
X125859100Y-80576246D01*
D22*
X122011490Y-82463510D02*
X122489473Y-81985527D01*
X120646136Y-82463510D02*
X122011490Y-82463510D01*
X119350000Y-81167374D02*
X120646136Y-82463510D01*
X122489473Y-81985527D02*
X122975000Y-81500000D01*
X119350000Y-81100000D02*
X119350000Y-81167374D01*
D23*
X124062500Y-80412500D02*
X125094300Y-80412500D01*
X122975000Y-81500000D02*
X124062500Y-80412500D01*
X125094300Y-80412500D02*
X125540900Y-80859100D01*
D20*
X126500000Y-82600000D02*
X126500000Y-81100737D01*
X126500000Y-81100737D02*
X126690908Y-80909829D01*
X125240908Y-80986336D02*
X125413664Y-80986336D01*
X125515898Y-80884102D02*
X125515898Y-80869454D01*
X125413664Y-80986336D02*
X125515898Y-80884102D01*
D23*
X116698607Y-80179992D02*
X119761792Y-80179992D01*
X115625001Y-79800000D02*
X115650001Y-79775000D01*
X115650001Y-79775000D02*
X116293615Y-79775000D01*
X115100000Y-79800000D02*
X115625001Y-79800000D01*
X116293615Y-79775000D02*
X116698607Y-80179992D01*
X119761792Y-80179992D02*
X119881312Y-80179992D01*
D22*
X120279992Y-80179992D02*
X120300000Y-80200000D01*
D20*
X120279992Y-80179992D02*
X120579992Y-80179992D01*
X121100000Y-80700000D02*
X121100000Y-81500000D01*
X120579992Y-80179992D02*
X121100000Y-80700000D01*
X119820008Y-80179992D02*
X119800000Y-80200000D01*
X120279992Y-80179992D02*
X119820008Y-80179992D01*
D22*
X119881312Y-80179992D02*
X119800000Y-80200000D01*
D23*
X119915001Y-79730001D02*
X119931601Y-79713401D01*
X116479998Y-79325000D02*
X116884999Y-79730001D01*
X115100000Y-79300000D02*
X115625001Y-79300000D01*
X115650001Y-79325000D02*
X116479998Y-79325000D01*
X115625001Y-79300000D02*
X115650001Y-79325000D01*
X116884999Y-79730001D02*
X119915001Y-79730001D01*
X119931601Y-79713401D02*
X120051121Y-79713401D01*
D20*
X120311599Y-79713401D02*
X121125000Y-78900000D01*
X119931601Y-79713401D02*
X120311599Y-79713401D01*
D22*
X127150000Y-85075000D02*
X127175000Y-85100000D01*
X127150000Y-82600000D02*
X127150000Y-85075000D01*
D20*
X128450000Y-82878000D02*
X128397000Y-82931000D01*
X128450000Y-82600000D02*
X128450000Y-82878000D01*
X128260000Y-85100000D02*
X127175000Y-85100000D01*
X128397000Y-84963000D02*
X128260000Y-85100000D01*
X132350000Y-75400000D02*
X132350000Y-76811668D01*
X132350000Y-76811668D02*
X132368416Y-76830084D01*
X128397000Y-82931000D02*
X128397000Y-84328000D01*
X128397000Y-84328000D02*
X128397000Y-84963000D01*
X128397000Y-84893685D02*
X128397000Y-84328000D01*
X128397000Y-86101350D02*
X128397000Y-84893685D01*
X135549990Y-88325010D02*
X130620660Y-88325010D01*
X130620660Y-88325010D02*
X128397000Y-86101350D01*
X136575000Y-87300000D02*
X135549990Y-88325010D01*
X134700000Y-87300000D02*
X132975000Y-87300000D01*
X130614473Y-86814473D02*
X131100000Y-87300000D01*
X130287490Y-86487490D02*
X130614473Y-86814473D01*
X130400000Y-83725000D02*
X130287490Y-83837510D01*
X130287490Y-83837510D02*
X130287490Y-86487490D01*
X130400000Y-82600000D02*
X130400000Y-83725000D01*
X134700000Y-85200000D02*
X132975000Y-85200000D01*
X131100000Y-82650000D02*
X131050000Y-82600000D01*
X131100000Y-85200000D02*
X131100000Y-82650000D01*
D24*
G36*
X145340001Y-86967572D02*
G01*
X145340000Y-86967582D01*
X145340001Y-88340000D01*
X137474949Y-88340000D01*
X137551958Y-88246164D01*
X137633447Y-88093709D01*
X137683628Y-87928285D01*
X137700572Y-87756250D01*
X137700572Y-86843750D01*
X137683628Y-86671715D01*
X137633447Y-86506291D01*
X137551958Y-86353836D01*
X137466742Y-86250000D01*
X137551958Y-86146164D01*
X137633447Y-85993709D01*
X137683628Y-85828285D01*
X137700572Y-85656250D01*
X137700572Y-84743750D01*
X137683628Y-84571715D01*
X137633447Y-84406291D01*
X137551958Y-84253836D01*
X137442292Y-84120208D01*
X137308664Y-84010542D01*
X137156209Y-83929053D01*
X136990785Y-83878872D01*
X136818750Y-83861928D01*
X136331250Y-83861928D01*
X136159215Y-83878872D01*
X135993791Y-83929053D01*
X135841336Y-84010542D01*
X135707708Y-84120208D01*
X135637500Y-84205756D01*
X135567292Y-84120208D01*
X135433664Y-84010542D01*
X135281209Y-83929053D01*
X135115785Y-83878872D01*
X135022550Y-83869689D01*
X135055537Y-83829494D01*
X135114502Y-83719180D01*
X135150812Y-83599482D01*
X135163072Y-83475000D01*
X135163072Y-81725000D01*
X135150812Y-81600518D01*
X135114502Y-81480820D01*
X135055537Y-81370506D01*
X134976185Y-81273815D01*
X134879494Y-81194463D01*
X134769180Y-81135498D01*
X134649482Y-81099188D01*
X134525000Y-81086928D01*
X134075000Y-81086928D01*
X133975000Y-81096777D01*
X133875000Y-81086928D01*
X133425000Y-81086928D01*
X133322162Y-81097056D01*
X133256750Y-81090000D01*
X133224503Y-81122247D01*
X133180820Y-81135498D01*
X133070506Y-81194463D01*
X132999744Y-81252536D01*
X132936524Y-81199228D01*
X132827005Y-81138801D01*
X132775757Y-81122507D01*
X132743250Y-81090000D01*
X132675000Y-81097363D01*
X132606750Y-81090000D01*
X132574243Y-81122507D01*
X132522995Y-81138801D01*
X132413476Y-81199228D01*
X132350256Y-81252536D01*
X132279494Y-81194463D01*
X132169180Y-81135498D01*
X132125497Y-81122247D01*
X132093250Y-81090000D01*
X132027838Y-81097056D01*
X131925000Y-81086928D01*
X131475000Y-81086928D01*
X131375000Y-81096777D01*
X131275000Y-81086928D01*
X130825000Y-81086928D01*
X130725000Y-81096777D01*
X130625000Y-81086928D01*
X130175000Y-81086928D01*
X130072162Y-81097056D01*
X130006750Y-81090000D01*
X129974503Y-81122247D01*
X129930820Y-81135498D01*
X129877002Y-81164265D01*
X129877002Y-81090000D01*
X129755968Y-81090000D01*
X129734974Y-81050724D01*
X129663799Y-80963997D01*
X129640001Y-80934999D01*
X129611003Y-80911201D01*
X125611548Y-76911747D01*
X125625000Y-76913072D01*
X126075000Y-76913072D01*
X126175000Y-76903223D01*
X126275000Y-76913072D01*
X126725000Y-76913072D01*
X126825000Y-76903223D01*
X126925000Y-76913072D01*
X127375000Y-76913072D01*
X127475000Y-76903223D01*
X127575000Y-76913072D01*
X128025000Y-76913072D01*
X128125000Y-76903223D01*
X128225000Y-76913072D01*
X128675000Y-76913072D01*
X128775000Y-76903223D01*
X128875000Y-76913072D01*
X129325000Y-76913072D01*
X129425000Y-76903223D01*
X129525000Y-76913072D01*
X129975000Y-76913072D01*
X130077838Y-76902944D01*
X130143250Y-76910000D01*
X130175497Y-76877753D01*
X130219180Y-76864502D01*
X130329494Y-76805537D01*
X130400000Y-76747674D01*
X130470506Y-76805537D01*
X130580820Y-76864502D01*
X130624503Y-76877753D01*
X130656750Y-76910000D01*
X130722162Y-76902944D01*
X130825000Y-76913072D01*
X131001500Y-76913072D01*
X131001500Y-77065701D01*
X130998122Y-77100000D01*
X131001500Y-77134298D01*
X131001500Y-77134308D01*
X131011607Y-77236929D01*
X131051548Y-77368596D01*
X131051549Y-77368598D01*
X131116409Y-77489943D01*
X131181826Y-77569653D01*
X131181829Y-77569656D01*
X131203697Y-77596302D01*
X131230344Y-77618171D01*
X132581829Y-78969657D01*
X132603697Y-78996303D01*
X132630343Y-79018171D01*
X132630346Y-79018174D01*
X132710056Y-79083591D01*
X132831401Y-79148451D01*
X132831403Y-79148452D01*
X132963070Y-79188393D01*
X133065691Y-79198500D01*
X133065702Y-79198500D01*
X133100000Y-79201878D01*
X133134298Y-79198500D01*
X135665000Y-79198500D01*
X135665000Y-79301939D01*
X135704774Y-79501898D01*
X135782795Y-79690256D01*
X135896063Y-79859774D01*
X136040226Y-80003937D01*
X136209744Y-80117205D01*
X136398102Y-80195226D01*
X136598061Y-80235000D01*
X136747172Y-80235000D01*
X136921829Y-80409657D01*
X136943697Y-80436303D01*
X136970343Y-80458171D01*
X136970346Y-80458174D01*
X137050056Y-80523591D01*
X137145267Y-80574482D01*
X137171403Y-80588452D01*
X137303070Y-80628393D01*
X137405691Y-80638500D01*
X137405701Y-80638500D01*
X137439999Y-80641878D01*
X137456505Y-80640252D01*
X137469463Y-80664494D01*
X137548815Y-80761185D01*
X137645506Y-80840537D01*
X137755820Y-80899502D01*
X137875518Y-80935812D01*
X138000000Y-80948072D01*
X140400000Y-80948072D01*
X140524482Y-80935812D01*
X140644180Y-80899502D01*
X140754494Y-80840537D01*
X140851185Y-80761185D01*
X140930537Y-80664494D01*
X140989502Y-80554180D01*
X141025812Y-80434482D01*
X141038072Y-80310000D01*
X141038072Y-80192900D01*
X141254829Y-80409657D01*
X141274050Y-80433077D01*
X141274188Y-80434482D01*
X141310498Y-80554180D01*
X141369463Y-80664494D01*
X141448815Y-80761185D01*
X141545506Y-80840537D01*
X141655820Y-80899502D01*
X141775518Y-80935812D01*
X141900000Y-80948072D01*
X144300000Y-80948072D01*
X144424482Y-80935812D01*
X144544180Y-80899502D01*
X144654494Y-80840537D01*
X144751185Y-80761185D01*
X144830537Y-80664494D01*
X144889502Y-80554180D01*
X144925812Y-80434482D01*
X144938072Y-80310000D01*
X144938072Y-79570000D01*
X144925812Y-79445518D01*
X144889502Y-79325820D01*
X144878373Y-79305000D01*
X144889502Y-79284180D01*
X144925812Y-79164482D01*
X144938072Y-79040000D01*
X144935000Y-78955750D01*
X144776250Y-78797000D01*
X143227000Y-78797000D01*
X143227000Y-78817000D01*
X142973000Y-78817000D01*
X142973000Y-78797000D01*
X142953000Y-78797000D01*
X142953000Y-78543000D01*
X142973000Y-78543000D01*
X142973000Y-78523000D01*
X143227000Y-78523000D01*
X143227000Y-78543000D01*
X144776250Y-78543000D01*
X144935000Y-78384250D01*
X144938072Y-78300000D01*
X144925812Y-78175518D01*
X144889502Y-78055820D01*
X144878373Y-78035000D01*
X144889502Y-78014180D01*
X144925812Y-77894482D01*
X144938072Y-77770000D01*
X144938072Y-77030000D01*
X144925812Y-76905518D01*
X144889502Y-76785820D01*
X144830537Y-76675506D01*
X144751185Y-76578815D01*
X144654494Y-76499463D01*
X144544180Y-76440498D01*
X144424482Y-76404188D01*
X144300000Y-76391928D01*
X143985000Y-76391928D01*
X143985000Y-75762339D01*
X143989281Y-75718873D01*
X143985000Y-75675407D01*
X143985000Y-75675397D01*
X143972195Y-75545384D01*
X143921589Y-75378561D01*
X143839411Y-75224815D01*
X143783141Y-75156250D01*
X143756532Y-75123827D01*
X143756530Y-75123825D01*
X143728817Y-75090057D01*
X143695051Y-75062346D01*
X136462641Y-67829937D01*
X136434924Y-67796164D01*
X136300166Y-67685570D01*
X136252327Y-67660000D01*
X145340000Y-67660000D01*
X145340001Y-86967572D01*
G37*
X145340001Y-86967572D02*
X145340000Y-86967582D01*
X145340001Y-88340000D01*
X137474949Y-88340000D01*
X137551958Y-88246164D01*
X137633447Y-88093709D01*
X137683628Y-87928285D01*
X137700572Y-87756250D01*
X137700572Y-86843750D01*
X137683628Y-86671715D01*
X137633447Y-86506291D01*
X137551958Y-86353836D01*
X137466742Y-86250000D01*
X137551958Y-86146164D01*
X137633447Y-85993709D01*
X137683628Y-85828285D01*
X137700572Y-85656250D01*
X137700572Y-84743750D01*
X137683628Y-84571715D01*
X137633447Y-84406291D01*
X137551958Y-84253836D01*
X137442292Y-84120208D01*
X137308664Y-84010542D01*
X137156209Y-83929053D01*
X136990785Y-83878872D01*
X136818750Y-83861928D01*
X136331250Y-83861928D01*
X136159215Y-83878872D01*
X135993791Y-83929053D01*
X135841336Y-84010542D01*
X135707708Y-84120208D01*
X135637500Y-84205756D01*
X135567292Y-84120208D01*
X135433664Y-84010542D01*
X135281209Y-83929053D01*
X135115785Y-83878872D01*
X135022550Y-83869689D01*
X135055537Y-83829494D01*
X135114502Y-83719180D01*
X135150812Y-83599482D01*
X135163072Y-83475000D01*
X135163072Y-81725000D01*
X135150812Y-81600518D01*
X135114502Y-81480820D01*
X135055537Y-81370506D01*
X134976185Y-81273815D01*
X134879494Y-81194463D01*
X134769180Y-81135498D01*
X134649482Y-81099188D01*
X134525000Y-81086928D01*
X134075000Y-81086928D01*
X133975000Y-81096777D01*
X133875000Y-81086928D01*
X133425000Y-81086928D01*
X133322162Y-81097056D01*
X133256750Y-81090000D01*
X133224503Y-81122247D01*
X133180820Y-81135498D01*
X133070506Y-81194463D01*
X132999744Y-81252536D01*
X132936524Y-81199228D01*
X132827005Y-81138801D01*
X132775757Y-81122507D01*
X132743250Y-81090000D01*
X132675000Y-81097363D01*
X132606750Y-81090000D01*
X132574243Y-81122507D01*
X132522995Y-81138801D01*
X132413476Y-81199228D01*
X132350256Y-81252536D01*
X132279494Y-81194463D01*
X132169180Y-81135498D01*
X132125497Y-81122247D01*
X132093250Y-81090000D01*
X132027838Y-81097056D01*
X131925000Y-81086928D01*
X131475000Y-81086928D01*
X131375000Y-81096777D01*
X131275000Y-81086928D01*
X130825000Y-81086928D01*
X130725000Y-81096777D01*
X130625000Y-81086928D01*
X130175000Y-81086928D01*
X130072162Y-81097056D01*
X130006750Y-81090000D01*
X129974503Y-81122247D01*
X129930820Y-81135498D01*
X129877002Y-81164265D01*
X129877002Y-81090000D01*
X129755968Y-81090000D01*
X129734974Y-81050724D01*
X129663799Y-80963997D01*
X129640001Y-80934999D01*
X129611003Y-80911201D01*
X125611548Y-76911747D01*
X125625000Y-76913072D01*
X126075000Y-76913072D01*
X126175000Y-76903223D01*
X126275000Y-76913072D01*
X126725000Y-76913072D01*
X126825000Y-76903223D01*
X126925000Y-76913072D01*
X127375000Y-76913072D01*
X127475000Y-76903223D01*
X127575000Y-76913072D01*
X128025000Y-76913072D01*
X128125000Y-76903223D01*
X128225000Y-76913072D01*
X128675000Y-76913072D01*
X128775000Y-76903223D01*
X128875000Y-76913072D01*
X129325000Y-76913072D01*
X129425000Y-76903223D01*
X129525000Y-76913072D01*
X129975000Y-76913072D01*
X130077838Y-76902944D01*
X130143250Y-76910000D01*
X130175497Y-76877753D01*
X130219180Y-76864502D01*
X130329494Y-76805537D01*
X130400000Y-76747674D01*
X130470506Y-76805537D01*
X130580820Y-76864502D01*
X130624503Y-76877753D01*
X130656750Y-76910000D01*
X130722162Y-76902944D01*
X130825000Y-76913072D01*
X131001500Y-76913072D01*
X131001500Y-77065701D01*
X130998122Y-77100000D01*
X131001500Y-77134298D01*
X131001500Y-77134308D01*
X131011607Y-77236929D01*
X131051548Y-77368596D01*
X131051549Y-77368598D01*
X131116409Y-77489943D01*
X131181826Y-77569653D01*
X131181829Y-77569656D01*
X131203697Y-77596302D01*
X131230344Y-77618171D01*
X132581829Y-78969657D01*
X132603697Y-78996303D01*
X132630343Y-79018171D01*
X132630346Y-79018174D01*
X132710056Y-79083591D01*
X132831401Y-79148451D01*
X132831403Y-79148452D01*
X132963070Y-79188393D01*
X133065691Y-79198500D01*
X133065702Y-79198500D01*
X133100000Y-79201878D01*
X133134298Y-79198500D01*
X135665000Y-79198500D01*
X135665000Y-79301939D01*
X135704774Y-79501898D01*
X135782795Y-79690256D01*
X135896063Y-79859774D01*
X136040226Y-80003937D01*
X136209744Y-80117205D01*
X136398102Y-80195226D01*
X136598061Y-80235000D01*
X136747172Y-80235000D01*
X136921829Y-80409657D01*
X136943697Y-80436303D01*
X136970343Y-80458171D01*
X136970346Y-80458174D01*
X137050056Y-80523591D01*
X137145267Y-80574482D01*
X137171403Y-80588452D01*
X137303070Y-80628393D01*
X137405691Y-80638500D01*
X137405701Y-80638500D01*
X137439999Y-80641878D01*
X137456505Y-80640252D01*
X137469463Y-80664494D01*
X137548815Y-80761185D01*
X137645506Y-80840537D01*
X137755820Y-80899502D01*
X137875518Y-80935812D01*
X138000000Y-80948072D01*
X140400000Y-80948072D01*
X140524482Y-80935812D01*
X140644180Y-80899502D01*
X140754494Y-80840537D01*
X140851185Y-80761185D01*
X140930537Y-80664494D01*
X140989502Y-80554180D01*
X141025812Y-80434482D01*
X141038072Y-80310000D01*
X141038072Y-80192900D01*
X141254829Y-80409657D01*
X141274050Y-80433077D01*
X141274188Y-80434482D01*
X141310498Y-80554180D01*
X141369463Y-80664494D01*
X141448815Y-80761185D01*
X141545506Y-80840537D01*
X141655820Y-80899502D01*
X141775518Y-80935812D01*
X141900000Y-80948072D01*
X144300000Y-80948072D01*
X144424482Y-80935812D01*
X144544180Y-80899502D01*
X144654494Y-80840537D01*
X144751185Y-80761185D01*
X144830537Y-80664494D01*
X144889502Y-80554180D01*
X144925812Y-80434482D01*
X144938072Y-80310000D01*
X144938072Y-79570000D01*
X144925812Y-79445518D01*
X144889502Y-79325820D01*
X144878373Y-79305000D01*
X144889502Y-79284180D01*
X144925812Y-79164482D01*
X144938072Y-79040000D01*
X144935000Y-78955750D01*
X144776250Y-78797000D01*
X143227000Y-78797000D01*
X143227000Y-78817000D01*
X142973000Y-78817000D01*
X142973000Y-78797000D01*
X142953000Y-78797000D01*
X142953000Y-78543000D01*
X142973000Y-78543000D01*
X142973000Y-78523000D01*
X143227000Y-78523000D01*
X143227000Y-78543000D01*
X144776250Y-78543000D01*
X144935000Y-78384250D01*
X144938072Y-78300000D01*
X144925812Y-78175518D01*
X144889502Y-78055820D01*
X144878373Y-78035000D01*
X144889502Y-78014180D01*
X144925812Y-77894482D01*
X144938072Y-77770000D01*
X144938072Y-77030000D01*
X144925812Y-76905518D01*
X144889502Y-76785820D01*
X144830537Y-76675506D01*
X144751185Y-76578815D01*
X144654494Y-76499463D01*
X144544180Y-76440498D01*
X144424482Y-76404188D01*
X144300000Y-76391928D01*
X143985000Y-76391928D01*
X143985000Y-75762339D01*
X143989281Y-75718873D01*
X143985000Y-75675407D01*
X143985000Y-75675397D01*
X143972195Y-75545384D01*
X143921589Y-75378561D01*
X143839411Y-75224815D01*
X143783141Y-75156250D01*
X143756532Y-75123827D01*
X143756530Y-75123825D01*
X143728817Y-75090057D01*
X143695051Y-75062346D01*
X136462641Y-67829937D01*
X136434924Y-67796164D01*
X136300166Y-67685570D01*
X136252327Y-67660000D01*
X145340000Y-67660000D01*
X145340001Y-86967572D01*
G36*
X128593460Y-67685570D02*
G01*
X128593458Y-67685571D01*
X128593459Y-67685571D01*
X128492472Y-67768449D01*
X128492470Y-67768451D01*
X128458702Y-67796164D01*
X128430989Y-67829932D01*
X127404951Y-68855971D01*
X127371184Y-68883683D01*
X127362606Y-68894135D01*
X127206291Y-68941553D01*
X127053836Y-69023042D01*
X126920208Y-69132708D01*
X126904582Y-69151748D01*
X126874180Y-69135498D01*
X126754482Y-69099188D01*
X126630000Y-69086928D01*
X125570000Y-69086928D01*
X125445518Y-69099188D01*
X125325820Y-69135498D01*
X125215506Y-69194463D01*
X125118815Y-69273815D01*
X125039463Y-69370506D01*
X125000000Y-69444335D01*
X124960537Y-69370506D01*
X124881185Y-69273815D01*
X124784494Y-69194463D01*
X124674180Y-69135498D01*
X124554482Y-69099188D01*
X124430000Y-69086928D01*
X123370000Y-69086928D01*
X123245518Y-69099188D01*
X123125820Y-69135498D01*
X123070627Y-69165000D01*
X122036376Y-69165000D01*
X121976958Y-69053836D01*
X121867292Y-68920208D01*
X121733664Y-68810542D01*
X121581209Y-68729053D01*
X121415785Y-68678872D01*
X121243750Y-68661928D01*
X120756250Y-68661928D01*
X120584215Y-68678872D01*
X120418791Y-68729053D01*
X120266336Y-68810542D01*
X120132708Y-68920208D01*
X120062500Y-69005756D01*
X119992292Y-68920208D01*
X119858664Y-68810542D01*
X119706209Y-68729053D01*
X119540785Y-68678872D01*
X119368750Y-68661928D01*
X118881250Y-68661928D01*
X118709215Y-68678872D01*
X118543791Y-68729053D01*
X118391336Y-68810542D01*
X118257708Y-68920208D01*
X118148042Y-69053836D01*
X118066553Y-69206291D01*
X118016372Y-69371715D01*
X117999428Y-69543750D01*
X117999428Y-69870392D01*
X117982944Y-69890478D01*
X117982941Y-69890481D01*
X117900063Y-69991468D01*
X117817885Y-70145214D01*
X117767278Y-70312037D01*
X117750192Y-70485527D01*
X117754474Y-70529006D01*
X117754473Y-72557949D01*
X117767278Y-72687962D01*
X117817884Y-72854785D01*
X117879473Y-72970012D01*
X117879474Y-74102141D01*
X117875797Y-74139473D01*
X117879474Y-74176806D01*
X117886068Y-74243750D01*
X117890471Y-74288458D01*
X117933927Y-74431719D01*
X118004499Y-74563749D01*
X118026521Y-74590582D01*
X118099473Y-74679474D01*
X118128471Y-74703272D01*
X118175199Y-74750000D01*
X116032492Y-76892706D01*
X115980537Y-76795506D01*
X115947725Y-76755525D01*
X116085000Y-76618250D01*
X116072675Y-76510674D01*
X116033529Y-76391873D01*
X115971959Y-76282992D01*
X115890330Y-76188215D01*
X115791780Y-76111184D01*
X115680095Y-76054859D01*
X115559567Y-76021406D01*
X115434829Y-76012108D01*
X115400000Y-76014160D01*
X115400000Y-75855448D01*
X115363108Y-75669978D01*
X115290741Y-75495269D01*
X115185681Y-75338036D01*
X115051964Y-75204319D01*
X114894731Y-75099259D01*
X114720022Y-75026892D01*
X114534552Y-74990000D01*
X114434792Y-74990000D01*
X114421128Y-74950582D01*
X114311658Y-74777948D01*
X114170612Y-74629987D01*
X114003410Y-74512386D01*
X113816478Y-74429664D01*
X113617000Y-74385000D01*
X113317000Y-74385000D01*
X113317000Y-75293000D01*
X113337000Y-75293000D01*
X113337000Y-75547000D01*
X113317000Y-75547000D01*
X113317000Y-75567000D01*
X113063000Y-75567000D01*
X113063000Y-75547000D01*
X112023002Y-75547000D01*
X111895334Y-75706123D01*
X111958872Y-75889418D01*
X112068342Y-76062052D01*
X112209388Y-76210013D01*
X112376590Y-76327614D01*
X112506678Y-76385181D01*
X112478036Y-76404319D01*
X112344319Y-76538036D01*
X112239259Y-76695269D01*
X112166892Y-76869978D01*
X112130000Y-77055448D01*
X112130000Y-77244552D01*
X112166892Y-77430022D01*
X112216589Y-77550000D01*
X112166892Y-77669978D01*
X112130000Y-77855448D01*
X112130000Y-78044552D01*
X112166892Y-78230022D01*
X112216589Y-78350000D01*
X112166892Y-78469978D01*
X112130000Y-78655448D01*
X112130000Y-78844552D01*
X112166892Y-79030022D01*
X112239259Y-79204731D01*
X112344319Y-79361964D01*
X112478036Y-79495681D01*
X112559330Y-79550000D01*
X112478036Y-79604319D01*
X112344319Y-79738036D01*
X112239259Y-79895269D01*
X112190703Y-80012493D01*
X111653988Y-80549209D01*
X111624990Y-80573007D01*
X111601192Y-80602005D01*
X111601191Y-80602006D01*
X111530016Y-80688732D01*
X111459444Y-80820762D01*
X111435053Y-80901171D01*
X111415988Y-80964022D01*
X111407448Y-81050725D01*
X111401314Y-81113008D01*
X111404991Y-81150340D01*
X111404990Y-83942985D01*
X111401314Y-83980308D01*
X111404990Y-84017630D01*
X111404990Y-84017640D01*
X111415987Y-84129293D01*
X111454430Y-84256024D01*
X111459444Y-84272554D01*
X111530016Y-84404584D01*
X111568107Y-84450997D01*
X111624989Y-84520309D01*
X111653993Y-84544112D01*
X112025888Y-84916007D01*
X112049691Y-84945011D01*
X112165416Y-85039984D01*
X112297445Y-85110556D01*
X112440706Y-85154013D01*
X112552359Y-85165010D01*
X112552368Y-85165010D01*
X112589691Y-85168686D01*
X112627014Y-85165010D01*
X116807684Y-85165010D01*
X116818791Y-85170947D01*
X116984215Y-85221128D01*
X117156250Y-85238072D01*
X117643750Y-85238072D01*
X117815785Y-85221128D01*
X117981209Y-85170947D01*
X118133664Y-85089458D01*
X118267292Y-84979792D01*
X118272508Y-84973436D01*
X118336315Y-85051185D01*
X118433006Y-85130537D01*
X118543320Y-85189502D01*
X118663018Y-85225812D01*
X118787500Y-85238072D01*
X118989250Y-85235000D01*
X119148000Y-85076250D01*
X119148000Y-84027000D01*
X119402000Y-84027000D01*
X119402000Y-85076250D01*
X119560750Y-85235000D01*
X119762500Y-85238072D01*
X119886982Y-85225812D01*
X120006680Y-85189502D01*
X120116994Y-85130537D01*
X120213685Y-85051185D01*
X120293037Y-84954494D01*
X120352002Y-84844180D01*
X120388312Y-84724482D01*
X120400572Y-84600000D01*
X120397500Y-84185750D01*
X120238750Y-84027000D01*
X119402000Y-84027000D01*
X119148000Y-84027000D01*
X119128000Y-84027000D01*
X119128000Y-83773000D01*
X119148000Y-83773000D01*
X119148000Y-82723750D01*
X118989250Y-82565000D01*
X118787500Y-82561928D01*
X118782898Y-82562381D01*
X118865000Y-82495002D01*
X118888801Y-82466001D01*
X118911002Y-82443800D01*
X118940001Y-82420001D01*
X119034974Y-82304276D01*
X119054326Y-82268072D01*
X119462870Y-82268072D01*
X119756812Y-82562015D01*
X119560750Y-82565000D01*
X119402000Y-82723750D01*
X119402000Y-83773000D01*
X120238750Y-83773000D01*
X120397500Y-83614250D01*
X120400572Y-83200000D01*
X120392344Y-83116453D01*
X120509206Y-83151903D01*
X120611827Y-83162010D01*
X120611837Y-83162010D01*
X120646135Y-83165388D01*
X120680433Y-83162010D01*
X121977192Y-83162010D01*
X122011490Y-83165388D01*
X122045788Y-83162010D01*
X122045799Y-83162010D01*
X122148420Y-83151903D01*
X122280087Y-83111962D01*
X122401433Y-83047101D01*
X122507793Y-82959813D01*
X122529665Y-82933162D01*
X122634304Y-82828524D01*
X122731250Y-82838072D01*
X123218750Y-82838072D01*
X123390785Y-82821128D01*
X123556209Y-82770947D01*
X123708664Y-82689458D01*
X123842292Y-82579792D01*
X123951958Y-82446164D01*
X124033447Y-82293709D01*
X124083628Y-82128285D01*
X124100572Y-81956250D01*
X124100572Y-81413875D01*
X124242452Y-81271995D01*
X124245682Y-81288234D01*
X124323703Y-81476592D01*
X124436971Y-81646110D01*
X124581134Y-81790273D01*
X124750652Y-81903541D01*
X124939010Y-81981562D01*
X124986928Y-81991093D01*
X124986928Y-83475000D01*
X124999188Y-83599482D01*
X125035498Y-83719180D01*
X125094463Y-83829494D01*
X125166401Y-83917151D01*
X125014250Y-83765000D01*
X124812500Y-83761928D01*
X124688018Y-83774188D01*
X124568320Y-83810498D01*
X124458006Y-83869463D01*
X124361315Y-83948815D01*
X124281963Y-84045506D01*
X124222998Y-84155820D01*
X124186688Y-84275518D01*
X124174428Y-84400000D01*
X124177500Y-84814250D01*
X124336250Y-84973000D01*
X125173000Y-84973000D01*
X125173000Y-84953000D01*
X125427000Y-84953000D01*
X125427000Y-84973000D01*
X125447000Y-84973000D01*
X125447000Y-85227000D01*
X125427000Y-85227000D01*
X125427000Y-86276250D01*
X125585750Y-86435000D01*
X125787500Y-86438072D01*
X125911982Y-86425812D01*
X126031680Y-86389502D01*
X126141994Y-86330537D01*
X126238685Y-86251185D01*
X126302492Y-86173436D01*
X126307708Y-86179792D01*
X126441336Y-86289458D01*
X126593791Y-86370947D01*
X126759215Y-86421128D01*
X126931250Y-86438072D01*
X127418750Y-86438072D01*
X127590785Y-86421128D01*
X127690619Y-86390844D01*
X127691454Y-86393596D01*
X127762026Y-86525626D01*
X127801871Y-86574176D01*
X127856999Y-86641351D01*
X127886003Y-86665154D01*
X129560848Y-88340000D01*
X105660000Y-88340000D01*
X105660000Y-85800000D01*
X124174428Y-85800000D01*
X124186688Y-85924482D01*
X124222998Y-86044180D01*
X124281963Y-86154494D01*
X124361315Y-86251185D01*
X124458006Y-86330537D01*
X124568320Y-86389502D01*
X124688018Y-86425812D01*
X124812500Y-86438072D01*
X125014250Y-86435000D01*
X125173000Y-86276250D01*
X125173000Y-85227000D01*
X124336250Y-85227000D01*
X124177500Y-85385750D01*
X124174428Y-85800000D01*
X105660000Y-85800000D01*
X105660000Y-84326123D01*
X105945334Y-84326123D01*
X106008872Y-84509418D01*
X106118342Y-84682052D01*
X106259388Y-84830013D01*
X106426590Y-84947614D01*
X106613522Y-85030336D01*
X106813000Y-85075000D01*
X107113000Y-85075000D01*
X107113000Y-84167000D01*
X107367000Y-84167000D01*
X107367000Y-85075000D01*
X107667000Y-85075000D01*
X107866478Y-85030336D01*
X108053410Y-84947614D01*
X108220612Y-84830013D01*
X108361658Y-84682052D01*
X108471128Y-84509418D01*
X108534666Y-84326123D01*
X108406998Y-84167000D01*
X107367000Y-84167000D01*
X107113000Y-84167000D01*
X106073002Y-84167000D01*
X105945334Y-84326123D01*
X105660000Y-84326123D01*
X105660000Y-83753877D01*
X105945334Y-83753877D01*
X106073002Y-83913000D01*
X107113000Y-83913000D01*
X107113000Y-83005000D01*
X107367000Y-83005000D01*
X107367000Y-83913000D01*
X108406998Y-83913000D01*
X108534666Y-83753877D01*
X108471128Y-83570582D01*
X108361658Y-83397948D01*
X108220612Y-83249987D01*
X108053410Y-83132386D01*
X107866478Y-83049664D01*
X107667000Y-83005000D01*
X107367000Y-83005000D01*
X107113000Y-83005000D01*
X106813000Y-83005000D01*
X106613522Y-83049664D01*
X106426590Y-83132386D01*
X106259388Y-83249987D01*
X106118342Y-83397948D01*
X106008872Y-83570582D01*
X105945334Y-83753877D01*
X105660000Y-83753877D01*
X105660000Y-75346123D01*
X105945334Y-75346123D01*
X106008872Y-75529418D01*
X106118342Y-75702052D01*
X106259388Y-75850013D01*
X106426590Y-75967614D01*
X106613522Y-76050336D01*
X106813000Y-76095000D01*
X107113000Y-76095000D01*
X107113000Y-75187000D01*
X107367000Y-75187000D01*
X107367000Y-76095000D01*
X107667000Y-76095000D01*
X107866478Y-76050336D01*
X108053410Y-75967614D01*
X108220612Y-75850013D01*
X108361658Y-75702052D01*
X108471128Y-75529418D01*
X108534666Y-75346123D01*
X108406998Y-75187000D01*
X107367000Y-75187000D01*
X107113000Y-75187000D01*
X106073002Y-75187000D01*
X105945334Y-75346123D01*
X105660000Y-75346123D01*
X105660000Y-75133877D01*
X111895334Y-75133877D01*
X112023002Y-75293000D01*
X113063000Y-75293000D01*
X113063000Y-74385000D01*
X112763000Y-74385000D01*
X112563522Y-74429664D01*
X112376590Y-74512386D01*
X112209388Y-74629987D01*
X112068342Y-74777948D01*
X111958872Y-74950582D01*
X111895334Y-75133877D01*
X105660000Y-75133877D01*
X105660000Y-74773877D01*
X105945334Y-74773877D01*
X106073002Y-74933000D01*
X107113000Y-74933000D01*
X107113000Y-74025000D01*
X107367000Y-74025000D01*
X107367000Y-74933000D01*
X108406998Y-74933000D01*
X108534666Y-74773877D01*
X108471128Y-74590582D01*
X108361658Y-74417948D01*
X108220612Y-74269987D01*
X108053410Y-74152386D01*
X107866478Y-74069664D01*
X107667000Y-74025000D01*
X107367000Y-74025000D01*
X107113000Y-74025000D01*
X106813000Y-74025000D01*
X106613522Y-74069664D01*
X106426590Y-74152386D01*
X106259388Y-74269987D01*
X106118342Y-74417948D01*
X106008872Y-74590582D01*
X105945334Y-74773877D01*
X105660000Y-74773877D01*
X105660000Y-67660000D01*
X128641299Y-67660000D01*
X128593460Y-67685570D01*
G37*
X128593460Y-67685570D02*
X128593458Y-67685571D01*
X128593459Y-67685571D01*
X128492472Y-67768449D01*
X128492470Y-67768451D01*
X128458702Y-67796164D01*
X128430989Y-67829932D01*
X127404951Y-68855971D01*
X127371184Y-68883683D01*
X127362606Y-68894135D01*
X127206291Y-68941553D01*
X127053836Y-69023042D01*
X126920208Y-69132708D01*
X126904582Y-69151748D01*
X126874180Y-69135498D01*
X126754482Y-69099188D01*
X126630000Y-69086928D01*
X125570000Y-69086928D01*
X125445518Y-69099188D01*
X125325820Y-69135498D01*
X125215506Y-69194463D01*
X125118815Y-69273815D01*
X125039463Y-69370506D01*
X125000000Y-69444335D01*
X124960537Y-69370506D01*
X124881185Y-69273815D01*
X124784494Y-69194463D01*
X124674180Y-69135498D01*
X124554482Y-69099188D01*
X124430000Y-69086928D01*
X123370000Y-69086928D01*
X123245518Y-69099188D01*
X123125820Y-69135498D01*
X123070627Y-69165000D01*
X122036376Y-69165000D01*
X121976958Y-69053836D01*
X121867292Y-68920208D01*
X121733664Y-68810542D01*
X121581209Y-68729053D01*
X121415785Y-68678872D01*
X121243750Y-68661928D01*
X120756250Y-68661928D01*
X120584215Y-68678872D01*
X120418791Y-68729053D01*
X120266336Y-68810542D01*
X120132708Y-68920208D01*
X120062500Y-69005756D01*
X119992292Y-68920208D01*
X119858664Y-68810542D01*
X119706209Y-68729053D01*
X119540785Y-68678872D01*
X119368750Y-68661928D01*
X118881250Y-68661928D01*
X118709215Y-68678872D01*
X118543791Y-68729053D01*
X118391336Y-68810542D01*
X118257708Y-68920208D01*
X118148042Y-69053836D01*
X118066553Y-69206291D01*
X118016372Y-69371715D01*
X117999428Y-69543750D01*
X117999428Y-69870392D01*
X117982944Y-69890478D01*
X117982941Y-69890481D01*
X117900063Y-69991468D01*
X117817885Y-70145214D01*
X117767278Y-70312037D01*
X117750192Y-70485527D01*
X117754474Y-70529006D01*
X117754473Y-72557949D01*
X117767278Y-72687962D01*
X117817884Y-72854785D01*
X117879473Y-72970012D01*
X117879474Y-74102141D01*
X117875797Y-74139473D01*
X117879474Y-74176806D01*
X117886068Y-74243750D01*
X117890471Y-74288458D01*
X117933927Y-74431719D01*
X118004499Y-74563749D01*
X118026521Y-74590582D01*
X118099473Y-74679474D01*
X118128471Y-74703272D01*
X118175199Y-74750000D01*
X116032492Y-76892706D01*
X115980537Y-76795506D01*
X115947725Y-76755525D01*
X116085000Y-76618250D01*
X116072675Y-76510674D01*
X116033529Y-76391873D01*
X115971959Y-76282992D01*
X115890330Y-76188215D01*
X115791780Y-76111184D01*
X115680095Y-76054859D01*
X115559567Y-76021406D01*
X115434829Y-76012108D01*
X115400000Y-76014160D01*
X115400000Y-75855448D01*
X115363108Y-75669978D01*
X115290741Y-75495269D01*
X115185681Y-75338036D01*
X115051964Y-75204319D01*
X114894731Y-75099259D01*
X114720022Y-75026892D01*
X114534552Y-74990000D01*
X114434792Y-74990000D01*
X114421128Y-74950582D01*
X114311658Y-74777948D01*
X114170612Y-74629987D01*
X114003410Y-74512386D01*
X113816478Y-74429664D01*
X113617000Y-74385000D01*
X113317000Y-74385000D01*
X113317000Y-75293000D01*
X113337000Y-75293000D01*
X113337000Y-75547000D01*
X113317000Y-75547000D01*
X113317000Y-75567000D01*
X113063000Y-75567000D01*
X113063000Y-75547000D01*
X112023002Y-75547000D01*
X111895334Y-75706123D01*
X111958872Y-75889418D01*
X112068342Y-76062052D01*
X112209388Y-76210013D01*
X112376590Y-76327614D01*
X112506678Y-76385181D01*
X112478036Y-76404319D01*
X112344319Y-76538036D01*
X112239259Y-76695269D01*
X112166892Y-76869978D01*
X112130000Y-77055448D01*
X112130000Y-77244552D01*
X112166892Y-77430022D01*
X112216589Y-77550000D01*
X112166892Y-77669978D01*
X112130000Y-77855448D01*
X112130000Y-78044552D01*
X112166892Y-78230022D01*
X112216589Y-78350000D01*
X112166892Y-78469978D01*
X112130000Y-78655448D01*
X112130000Y-78844552D01*
X112166892Y-79030022D01*
X112239259Y-79204731D01*
X112344319Y-79361964D01*
X112478036Y-79495681D01*
X112559330Y-79550000D01*
X112478036Y-79604319D01*
X112344319Y-79738036D01*
X112239259Y-79895269D01*
X112190703Y-80012493D01*
X111653988Y-80549209D01*
X111624990Y-80573007D01*
X111601192Y-80602005D01*
X111601191Y-80602006D01*
X111530016Y-80688732D01*
X111459444Y-80820762D01*
X111435053Y-80901171D01*
X111415988Y-80964022D01*
X111407448Y-81050725D01*
X111401314Y-81113008D01*
X111404991Y-81150340D01*
X111404990Y-83942985D01*
X111401314Y-83980308D01*
X111404990Y-84017630D01*
X111404990Y-84017640D01*
X111415987Y-84129293D01*
X111454430Y-84256024D01*
X111459444Y-84272554D01*
X111530016Y-84404584D01*
X111568107Y-84450997D01*
X111624989Y-84520309D01*
X111653993Y-84544112D01*
X112025888Y-84916007D01*
X112049691Y-84945011D01*
X112165416Y-85039984D01*
X112297445Y-85110556D01*
X112440706Y-85154013D01*
X112552359Y-85165010D01*
X112552368Y-85165010D01*
X112589691Y-85168686D01*
X112627014Y-85165010D01*
X116807684Y-85165010D01*
X116818791Y-85170947D01*
X116984215Y-85221128D01*
X117156250Y-85238072D01*
X117643750Y-85238072D01*
X117815785Y-85221128D01*
X117981209Y-85170947D01*
X118133664Y-85089458D01*
X118267292Y-84979792D01*
X118272508Y-84973436D01*
X118336315Y-85051185D01*
X118433006Y-85130537D01*
X118543320Y-85189502D01*
X118663018Y-85225812D01*
X118787500Y-85238072D01*
X118989250Y-85235000D01*
X119148000Y-85076250D01*
X119148000Y-84027000D01*
X119402000Y-84027000D01*
X119402000Y-85076250D01*
X119560750Y-85235000D01*
X119762500Y-85238072D01*
X119886982Y-85225812D01*
X120006680Y-85189502D01*
X120116994Y-85130537D01*
X120213685Y-85051185D01*
X120293037Y-84954494D01*
X120352002Y-84844180D01*
X120388312Y-84724482D01*
X120400572Y-84600000D01*
X120397500Y-84185750D01*
X120238750Y-84027000D01*
X119402000Y-84027000D01*
X119148000Y-84027000D01*
X119128000Y-84027000D01*
X119128000Y-83773000D01*
X119148000Y-83773000D01*
X119148000Y-82723750D01*
X118989250Y-82565000D01*
X118787500Y-82561928D01*
X118782898Y-82562381D01*
X118865000Y-82495002D01*
X118888801Y-82466001D01*
X118911002Y-82443800D01*
X118940001Y-82420001D01*
X119034974Y-82304276D01*
X119054326Y-82268072D01*
X119462870Y-82268072D01*
X119756812Y-82562015D01*
X119560750Y-82565000D01*
X119402000Y-82723750D01*
X119402000Y-83773000D01*
X120238750Y-83773000D01*
X120397500Y-83614250D01*
X120400572Y-83200000D01*
X120392344Y-83116453D01*
X120509206Y-83151903D01*
X120611827Y-83162010D01*
X120611837Y-83162010D01*
X120646135Y-83165388D01*
X120680433Y-83162010D01*
X121977192Y-83162010D01*
X122011490Y-83165388D01*
X122045788Y-83162010D01*
X122045799Y-83162010D01*
X122148420Y-83151903D01*
X122280087Y-83111962D01*
X122401433Y-83047101D01*
X122507793Y-82959813D01*
X122529665Y-82933162D01*
X122634304Y-82828524D01*
X122731250Y-82838072D01*
X123218750Y-82838072D01*
X123390785Y-82821128D01*
X123556209Y-82770947D01*
X123708664Y-82689458D01*
X123842292Y-82579792D01*
X123951958Y-82446164D01*
X124033447Y-82293709D01*
X124083628Y-82128285D01*
X124100572Y-81956250D01*
X124100572Y-81413875D01*
X124242452Y-81271995D01*
X124245682Y-81288234D01*
X124323703Y-81476592D01*
X124436971Y-81646110D01*
X124581134Y-81790273D01*
X124750652Y-81903541D01*
X124939010Y-81981562D01*
X124986928Y-81991093D01*
X124986928Y-83475000D01*
X124999188Y-83599482D01*
X125035498Y-83719180D01*
X125094463Y-83829494D01*
X125166401Y-83917151D01*
X125014250Y-83765000D01*
X124812500Y-83761928D01*
X124688018Y-83774188D01*
X124568320Y-83810498D01*
X124458006Y-83869463D01*
X124361315Y-83948815D01*
X124281963Y-84045506D01*
X124222998Y-84155820D01*
X124186688Y-84275518D01*
X124174428Y-84400000D01*
X124177500Y-84814250D01*
X124336250Y-84973000D01*
X125173000Y-84973000D01*
X125173000Y-84953000D01*
X125427000Y-84953000D01*
X125427000Y-84973000D01*
X125447000Y-84973000D01*
X125447000Y-85227000D01*
X125427000Y-85227000D01*
X125427000Y-86276250D01*
X125585750Y-86435000D01*
X125787500Y-86438072D01*
X125911982Y-86425812D01*
X126031680Y-86389502D01*
X126141994Y-86330537D01*
X126238685Y-86251185D01*
X126302492Y-86173436D01*
X126307708Y-86179792D01*
X126441336Y-86289458D01*
X126593791Y-86370947D01*
X126759215Y-86421128D01*
X126931250Y-86438072D01*
X127418750Y-86438072D01*
X127590785Y-86421128D01*
X127690619Y-86390844D01*
X127691454Y-86393596D01*
X127762026Y-86525626D01*
X127801871Y-86574176D01*
X127856999Y-86641351D01*
X127886003Y-86665154D01*
X129560848Y-88340000D01*
X105660000Y-88340000D01*
X105660000Y-85800000D01*
X124174428Y-85800000D01*
X124186688Y-85924482D01*
X124222998Y-86044180D01*
X124281963Y-86154494D01*
X124361315Y-86251185D01*
X124458006Y-86330537D01*
X124568320Y-86389502D01*
X124688018Y-86425812D01*
X124812500Y-86438072D01*
X125014250Y-86435000D01*
X125173000Y-86276250D01*
X125173000Y-85227000D01*
X124336250Y-85227000D01*
X124177500Y-85385750D01*
X124174428Y-85800000D01*
X105660000Y-85800000D01*
X105660000Y-84326123D01*
X105945334Y-84326123D01*
X106008872Y-84509418D01*
X106118342Y-84682052D01*
X106259388Y-84830013D01*
X106426590Y-84947614D01*
X106613522Y-85030336D01*
X106813000Y-85075000D01*
X107113000Y-85075000D01*
X107113000Y-84167000D01*
X107367000Y-84167000D01*
X107367000Y-85075000D01*
X107667000Y-85075000D01*
X107866478Y-85030336D01*
X108053410Y-84947614D01*
X108220612Y-84830013D01*
X108361658Y-84682052D01*
X108471128Y-84509418D01*
X108534666Y-84326123D01*
X108406998Y-84167000D01*
X107367000Y-84167000D01*
X107113000Y-84167000D01*
X106073002Y-84167000D01*
X105945334Y-84326123D01*
X105660000Y-84326123D01*
X105660000Y-83753877D01*
X105945334Y-83753877D01*
X106073002Y-83913000D01*
X107113000Y-83913000D01*
X107113000Y-83005000D01*
X107367000Y-83005000D01*
X107367000Y-83913000D01*
X108406998Y-83913000D01*
X108534666Y-83753877D01*
X108471128Y-83570582D01*
X108361658Y-83397948D01*
X108220612Y-83249987D01*
X108053410Y-83132386D01*
X107866478Y-83049664D01*
X107667000Y-83005000D01*
X107367000Y-83005000D01*
X107113000Y-83005000D01*
X106813000Y-83005000D01*
X106613522Y-83049664D01*
X106426590Y-83132386D01*
X106259388Y-83249987D01*
X106118342Y-83397948D01*
X106008872Y-83570582D01*
X105945334Y-83753877D01*
X105660000Y-83753877D01*
X105660000Y-75346123D01*
X105945334Y-75346123D01*
X106008872Y-75529418D01*
X106118342Y-75702052D01*
X106259388Y-75850013D01*
X106426590Y-75967614D01*
X106613522Y-76050336D01*
X106813000Y-76095000D01*
X107113000Y-76095000D01*
X107113000Y-75187000D01*
X107367000Y-75187000D01*
X107367000Y-76095000D01*
X107667000Y-76095000D01*
X107866478Y-76050336D01*
X108053410Y-75967614D01*
X108220612Y-75850013D01*
X108361658Y-75702052D01*
X108471128Y-75529418D01*
X108534666Y-75346123D01*
X108406998Y-75187000D01*
X107367000Y-75187000D01*
X107113000Y-75187000D01*
X106073002Y-75187000D01*
X105945334Y-75346123D01*
X105660000Y-75346123D01*
X105660000Y-75133877D01*
X111895334Y-75133877D01*
X112023002Y-75293000D01*
X113063000Y-75293000D01*
X113063000Y-74385000D01*
X112763000Y-74385000D01*
X112563522Y-74429664D01*
X112376590Y-74512386D01*
X112209388Y-74629987D01*
X112068342Y-74777948D01*
X111958872Y-74950582D01*
X111895334Y-75133877D01*
X105660000Y-75133877D01*
X105660000Y-74773877D01*
X105945334Y-74773877D01*
X106073002Y-74933000D01*
X107113000Y-74933000D01*
X107113000Y-74025000D01*
X107367000Y-74025000D01*
X107367000Y-74933000D01*
X108406998Y-74933000D01*
X108534666Y-74773877D01*
X108471128Y-74590582D01*
X108361658Y-74417948D01*
X108220612Y-74269987D01*
X108053410Y-74152386D01*
X107866478Y-74069664D01*
X107667000Y-74025000D01*
X107367000Y-74025000D01*
X107113000Y-74025000D01*
X106813000Y-74025000D01*
X106613522Y-74069664D01*
X106426590Y-74152386D01*
X106259388Y-74269987D01*
X106118342Y-74417948D01*
X106008872Y-74590582D01*
X105945334Y-74773877D01*
X105660000Y-74773877D01*
X105660000Y-67660000D01*
X128641299Y-67660000D01*
X128593460Y-67685570D01*
G36*
X116276204Y-82466004D02*
G01*
X116300002Y-82495002D01*
X116329000Y-82518800D01*
X116415726Y-82589975D01*
X116516195Y-82643677D01*
X116547756Y-82660547D01*
X116683075Y-82701595D01*
X116666336Y-82710542D01*
X116532708Y-82820208D01*
X116423042Y-82953836D01*
X116341553Y-83106291D01*
X116291372Y-83271715D01*
X116274428Y-83443750D01*
X116274428Y-83645010D01*
X115338540Y-83645010D01*
X115386110Y-83488193D01*
X115400000Y-83347162D01*
X115400000Y-83085840D01*
X115434829Y-83087892D01*
X115559567Y-83078594D01*
X115680095Y-83045141D01*
X115791780Y-82988816D01*
X115890330Y-82911785D01*
X115971959Y-82817008D01*
X116033529Y-82708127D01*
X116072675Y-82589326D01*
X116085000Y-82481750D01*
X115947725Y-82344475D01*
X115980537Y-82304494D01*
X116027268Y-82217068D01*
X116276204Y-82466004D01*
G37*
X116276204Y-82466004D02*
X116300002Y-82495002D01*
X116329000Y-82518800D01*
X116415726Y-82589975D01*
X116516195Y-82643677D01*
X116547756Y-82660547D01*
X116683075Y-82701595D01*
X116666336Y-82710542D01*
X116532708Y-82820208D01*
X116423042Y-82953836D01*
X116341553Y-83106291D01*
X116291372Y-83271715D01*
X116274428Y-83443750D01*
X116274428Y-83645010D01*
X115338540Y-83645010D01*
X115386110Y-83488193D01*
X115400000Y-83347162D01*
X115400000Y-83085840D01*
X115434829Y-83087892D01*
X115559567Y-83078594D01*
X115680095Y-83045141D01*
X115791780Y-82988816D01*
X115890330Y-82911785D01*
X115971959Y-82817008D01*
X116033529Y-82708127D01*
X116072675Y-82589326D01*
X116085000Y-82481750D01*
X115947725Y-82344475D01*
X115980537Y-82304494D01*
X116027268Y-82217068D01*
X116276204Y-82466004D01*
G36*
X126452227Y-79902028D02*
G01*
X126389010Y-79914603D01*
X126325835Y-79940771D01*
X126283375Y-79905926D01*
X126240834Y-79883187D01*
X125825958Y-79468312D01*
X125802938Y-79440262D01*
X125691020Y-79348413D01*
X125563333Y-79280163D01*
X125424785Y-79238135D01*
X125316805Y-79227500D01*
X125280700Y-79223944D01*
X125244595Y-79227500D01*
X124366947Y-79227500D01*
X124125572Y-78986125D01*
X124125572Y-78443750D01*
X124108628Y-78271715D01*
X124058447Y-78106291D01*
X123976958Y-77953836D01*
X123867292Y-77820208D01*
X123848436Y-77804733D01*
X123913685Y-77751185D01*
X123993037Y-77654494D01*
X124052002Y-77544180D01*
X124061865Y-77511666D01*
X126452227Y-79902028D01*
G37*
X126452227Y-79902028D02*
X126389010Y-79914603D01*
X126325835Y-79940771D01*
X126283375Y-79905926D01*
X126240834Y-79883187D01*
X125825958Y-79468312D01*
X125802938Y-79440262D01*
X125691020Y-79348413D01*
X125563333Y-79280163D01*
X125424785Y-79238135D01*
X125316805Y-79227500D01*
X125280700Y-79223944D01*
X125244595Y-79227500D01*
X124366947Y-79227500D01*
X124125572Y-78986125D01*
X124125572Y-78443750D01*
X124108628Y-78271715D01*
X124058447Y-78106291D01*
X123976958Y-77953836D01*
X123867292Y-77820208D01*
X123848436Y-77804733D01*
X123913685Y-77751185D01*
X123993037Y-77654494D01*
X124052002Y-77544180D01*
X124061865Y-77511666D01*
X126452227Y-79902028D01*
G36*
X120041553Y-77393709D02*
G01*
X120105832Y-77513966D01*
X119857892Y-77761906D01*
X119799482Y-77744188D01*
X119675000Y-77731928D01*
X119025000Y-77731928D01*
X118900518Y-77744188D01*
X118875000Y-77751929D01*
X118849482Y-77744188D01*
X118725000Y-77731928D01*
X118685750Y-77735000D01*
X118527000Y-77893750D01*
X118527000Y-77975859D01*
X118494463Y-78015506D01*
X118435498Y-78125820D01*
X118400000Y-78242841D01*
X118364502Y-78125820D01*
X118305537Y-78015506D01*
X118273000Y-77975859D01*
X118273000Y-77893750D01*
X118182025Y-77802775D01*
X118624800Y-77360000D01*
X120031327Y-77360000D01*
X120041553Y-77393709D01*
G37*
X120041553Y-77393709D02*
X120105832Y-77513966D01*
X119857892Y-77761906D01*
X119799482Y-77744188D01*
X119675000Y-77731928D01*
X119025000Y-77731928D01*
X118900518Y-77744188D01*
X118875000Y-77751929D01*
X118849482Y-77744188D01*
X118725000Y-77731928D01*
X118685750Y-77735000D01*
X118527000Y-77893750D01*
X118527000Y-77975859D01*
X118494463Y-78015506D01*
X118435498Y-78125820D01*
X118400000Y-78242841D01*
X118364502Y-78125820D01*
X118305537Y-78015506D01*
X118273000Y-77975859D01*
X118273000Y-77893750D01*
X118182025Y-77802775D01*
X118624800Y-77360000D01*
X120031327Y-77360000D01*
X120041553Y-77393709D01*
G36*
X120127000Y-71873000D02*
G01*
X120147000Y-71873000D01*
X120147000Y-72127000D01*
X120127000Y-72127000D01*
X120127000Y-73176250D01*
X120285750Y-73335000D01*
X120487500Y-73338072D01*
X120611982Y-73325812D01*
X120731680Y-73289502D01*
X120841994Y-73230537D01*
X120938685Y-73151185D01*
X121002492Y-73073436D01*
X121007708Y-73079792D01*
X121141336Y-73189458D01*
X121293791Y-73270947D01*
X121459215Y-73321128D01*
X121631250Y-73338072D01*
X122118750Y-73338072D01*
X122290785Y-73321128D01*
X122456209Y-73270947D01*
X122608664Y-73189458D01*
X122742292Y-73079792D01*
X122851958Y-72946164D01*
X122911376Y-72835000D01*
X123070627Y-72835000D01*
X123125820Y-72864502D01*
X123140001Y-72868804D01*
X123140001Y-73485749D01*
X123102000Y-73523750D01*
X123102000Y-74573000D01*
X123122000Y-74573000D01*
X123122000Y-74827000D01*
X123102000Y-74827000D01*
X123102000Y-76473000D01*
X123122000Y-76473000D01*
X123122000Y-76727000D01*
X123102000Y-76727000D01*
X123102000Y-76747000D01*
X122848000Y-76747000D01*
X122848000Y-76727000D01*
X122828000Y-76727000D01*
X122828000Y-76473000D01*
X122848000Y-76473000D01*
X122848000Y-74827000D01*
X122828000Y-74827000D01*
X122828000Y-74573000D01*
X122848000Y-74573000D01*
X122848000Y-73523750D01*
X122689250Y-73365000D01*
X122487500Y-73361928D01*
X122363018Y-73374188D01*
X122243320Y-73410498D01*
X122133006Y-73469463D01*
X122036315Y-73548815D01*
X121972508Y-73626564D01*
X121967292Y-73620208D01*
X121833664Y-73510542D01*
X121681209Y-73429053D01*
X121515785Y-73378872D01*
X121343750Y-73361928D01*
X120856250Y-73361928D01*
X120684215Y-73378872D01*
X120518791Y-73429053D01*
X120366336Y-73510542D01*
X120232708Y-73620208D01*
X120123042Y-73753836D01*
X120041553Y-73906291D01*
X120031327Y-73940000D01*
X119514802Y-73940000D01*
X119399473Y-73824672D01*
X119399473Y-73326940D01*
X119512500Y-73338072D01*
X119714250Y-73335000D01*
X119873000Y-73176250D01*
X119873000Y-72127000D01*
X119853000Y-72127000D01*
X119853000Y-71873000D01*
X119873000Y-71873000D01*
X119873000Y-71853000D01*
X120127000Y-71853000D01*
X120127000Y-71873000D01*
G37*
X120127000Y-71873000D02*
X120147000Y-71873000D01*
X120147000Y-72127000D01*
X120127000Y-72127000D01*
X120127000Y-73176250D01*
X120285750Y-73335000D01*
X120487500Y-73338072D01*
X120611982Y-73325812D01*
X120731680Y-73289502D01*
X120841994Y-73230537D01*
X120938685Y-73151185D01*
X121002492Y-73073436D01*
X121007708Y-73079792D01*
X121141336Y-73189458D01*
X121293791Y-73270947D01*
X121459215Y-73321128D01*
X121631250Y-73338072D01*
X122118750Y-73338072D01*
X122290785Y-73321128D01*
X122456209Y-73270947D01*
X122608664Y-73189458D01*
X122742292Y-73079792D01*
X122851958Y-72946164D01*
X122911376Y-72835000D01*
X123070627Y-72835000D01*
X123125820Y-72864502D01*
X123140001Y-72868804D01*
X123140001Y-73485749D01*
X123102000Y-73523750D01*
X123102000Y-74573000D01*
X123122000Y-74573000D01*
X123122000Y-74827000D01*
X123102000Y-74827000D01*
X123102000Y-76473000D01*
X123122000Y-76473000D01*
X123122000Y-76727000D01*
X123102000Y-76727000D01*
X123102000Y-76747000D01*
X122848000Y-76747000D01*
X122848000Y-76727000D01*
X122828000Y-76727000D01*
X122828000Y-76473000D01*
X122848000Y-76473000D01*
X122848000Y-74827000D01*
X122828000Y-74827000D01*
X122828000Y-74573000D01*
X122848000Y-74573000D01*
X122848000Y-73523750D01*
X122689250Y-73365000D01*
X122487500Y-73361928D01*
X122363018Y-73374188D01*
X122243320Y-73410498D01*
X122133006Y-73469463D01*
X122036315Y-73548815D01*
X121972508Y-73626564D01*
X121967292Y-73620208D01*
X121833664Y-73510542D01*
X121681209Y-73429053D01*
X121515785Y-73378872D01*
X121343750Y-73361928D01*
X120856250Y-73361928D01*
X120684215Y-73378872D01*
X120518791Y-73429053D01*
X120366336Y-73510542D01*
X120232708Y-73620208D01*
X120123042Y-73753836D01*
X120041553Y-73906291D01*
X120031327Y-73940000D01*
X119514802Y-73940000D01*
X119399473Y-73824672D01*
X119399473Y-73326940D01*
X119512500Y-73338072D01*
X119714250Y-73335000D01*
X119873000Y-73176250D01*
X119873000Y-72127000D01*
X119853000Y-72127000D01*
X119853000Y-71873000D01*
X119873000Y-71873000D01*
X119873000Y-71853000D01*
X120127000Y-71853000D01*
X120127000Y-71873000D01*
G36*
X128127000Y-71748000D02*
G01*
X128147000Y-71748000D01*
X128147000Y-72002000D01*
X128127000Y-72002000D01*
X128127000Y-72838750D01*
X128285750Y-72997500D01*
X128700000Y-73000572D01*
X128824482Y-72988312D01*
X128944180Y-72952002D01*
X129054494Y-72893037D01*
X129151185Y-72813685D01*
X129230537Y-72716994D01*
X129266085Y-72650490D01*
X129310542Y-72733664D01*
X129420208Y-72867292D01*
X129553836Y-72976958D01*
X129706291Y-73058447D01*
X129871715Y-73108628D01*
X130043750Y-73125572D01*
X130956250Y-73125572D01*
X131128285Y-73108628D01*
X131293709Y-73058447D01*
X131446164Y-72976958D01*
X131579792Y-72867292D01*
X131667845Y-72760000D01*
X131740001Y-72760000D01*
X131740000Y-73737677D01*
X131736324Y-73775000D01*
X131740000Y-73812322D01*
X131740000Y-73812332D01*
X131747347Y-73886928D01*
X131475000Y-73886928D01*
X131375000Y-73896777D01*
X131275000Y-73886928D01*
X130825000Y-73886928D01*
X130722162Y-73897056D01*
X130656750Y-73890000D01*
X130624503Y-73922247D01*
X130580820Y-73935498D01*
X130470506Y-73994463D01*
X130400000Y-74052326D01*
X130329494Y-73994463D01*
X130219180Y-73935498D01*
X130175497Y-73922247D01*
X130143250Y-73890000D01*
X130077838Y-73897056D01*
X129975000Y-73886928D01*
X129525000Y-73886928D01*
X129425000Y-73896777D01*
X129325000Y-73886928D01*
X128875000Y-73886928D01*
X128775000Y-73896777D01*
X128675000Y-73886928D01*
X128225000Y-73886928D01*
X128125000Y-73896777D01*
X128025000Y-73886928D01*
X127575000Y-73886928D01*
X127475000Y-73896777D01*
X127375000Y-73886928D01*
X126925000Y-73886928D01*
X126825000Y-73896777D01*
X126725000Y-73886928D01*
X126275000Y-73886928D01*
X126175000Y-73896777D01*
X126075000Y-73886928D01*
X125625000Y-73886928D01*
X125500518Y-73899188D01*
X125380820Y-73935498D01*
X125270506Y-73994463D01*
X125173815Y-74073815D01*
X125094463Y-74170506D01*
X125035498Y-74280820D01*
X124999188Y-74400518D01*
X124986928Y-74525000D01*
X124986928Y-76275000D01*
X124988253Y-76288452D01*
X124660000Y-75960199D01*
X124660000Y-72868803D01*
X124674180Y-72864502D01*
X124784494Y-72805537D01*
X124881185Y-72726185D01*
X124960537Y-72629494D01*
X125000000Y-72555665D01*
X125039463Y-72629494D01*
X125118815Y-72726185D01*
X125215506Y-72805537D01*
X125325820Y-72864502D01*
X125445518Y-72900812D01*
X125570000Y-72913072D01*
X126630000Y-72913072D01*
X126754482Y-72900812D01*
X126874180Y-72864502D01*
X126896317Y-72852669D01*
X126945506Y-72893037D01*
X127055820Y-72952002D01*
X127175518Y-72988312D01*
X127300000Y-73000572D01*
X127714250Y-72997500D01*
X127873000Y-72838750D01*
X127873000Y-72002000D01*
X127853000Y-72002000D01*
X127853000Y-71748000D01*
X127873000Y-71748000D01*
X127873000Y-71728000D01*
X128127000Y-71728000D01*
X128127000Y-71748000D01*
G37*
X128127000Y-71748000D02*
X128147000Y-71748000D01*
X128147000Y-72002000D01*
X128127000Y-72002000D01*
X128127000Y-72838750D01*
X128285750Y-72997500D01*
X128700000Y-73000572D01*
X128824482Y-72988312D01*
X128944180Y-72952002D01*
X129054494Y-72893037D01*
X129151185Y-72813685D01*
X129230537Y-72716994D01*
X129266085Y-72650490D01*
X129310542Y-72733664D01*
X129420208Y-72867292D01*
X129553836Y-72976958D01*
X129706291Y-73058447D01*
X129871715Y-73108628D01*
X130043750Y-73125572D01*
X130956250Y-73125572D01*
X131128285Y-73108628D01*
X131293709Y-73058447D01*
X131446164Y-72976958D01*
X131579792Y-72867292D01*
X131667845Y-72760000D01*
X131740001Y-72760000D01*
X131740000Y-73737677D01*
X131736324Y-73775000D01*
X131740000Y-73812322D01*
X131740000Y-73812332D01*
X131747347Y-73886928D01*
X131475000Y-73886928D01*
X131375000Y-73896777D01*
X131275000Y-73886928D01*
X130825000Y-73886928D01*
X130722162Y-73897056D01*
X130656750Y-73890000D01*
X130624503Y-73922247D01*
X130580820Y-73935498D01*
X130470506Y-73994463D01*
X130400000Y-74052326D01*
X130329494Y-73994463D01*
X130219180Y-73935498D01*
X130175497Y-73922247D01*
X130143250Y-73890000D01*
X130077838Y-73897056D01*
X129975000Y-73886928D01*
X129525000Y-73886928D01*
X129425000Y-73896777D01*
X129325000Y-73886928D01*
X128875000Y-73886928D01*
X128775000Y-73896777D01*
X128675000Y-73886928D01*
X128225000Y-73886928D01*
X128125000Y-73896777D01*
X128025000Y-73886928D01*
X127575000Y-73886928D01*
X127475000Y-73896777D01*
X127375000Y-73886928D01*
X126925000Y-73886928D01*
X126825000Y-73896777D01*
X126725000Y-73886928D01*
X126275000Y-73886928D01*
X126175000Y-73896777D01*
X126075000Y-73886928D01*
X125625000Y-73886928D01*
X125500518Y-73899188D01*
X125380820Y-73935498D01*
X125270506Y-73994463D01*
X125173815Y-74073815D01*
X125094463Y-74170506D01*
X125035498Y-74280820D01*
X124999188Y-74400518D01*
X124986928Y-74525000D01*
X124986928Y-76275000D01*
X124988253Y-76288452D01*
X124660000Y-75960199D01*
X124660000Y-72868803D01*
X124674180Y-72864502D01*
X124784494Y-72805537D01*
X124881185Y-72726185D01*
X124960537Y-72629494D01*
X125000000Y-72555665D01*
X125039463Y-72629494D01*
X125118815Y-72726185D01*
X125215506Y-72805537D01*
X125325820Y-72864502D01*
X125445518Y-72900812D01*
X125570000Y-72913072D01*
X126630000Y-72913072D01*
X126754482Y-72900812D01*
X126874180Y-72864502D01*
X126896317Y-72852669D01*
X126945506Y-72893037D01*
X127055820Y-72952002D01*
X127175518Y-72988312D01*
X127300000Y-73000572D01*
X127714250Y-72997500D01*
X127873000Y-72838750D01*
X127873000Y-72002000D01*
X127853000Y-72002000D01*
X127853000Y-71748000D01*
X127873000Y-71748000D01*
X127873000Y-71728000D01*
X128127000Y-71728000D01*
X128127000Y-71748000D01*
G36*
X125118815Y-70826185D02*
G01*
X125215506Y-70905537D01*
X125325820Y-70964502D01*
X125442841Y-71000000D01*
X125325820Y-71035498D01*
X125215506Y-71094463D01*
X125118815Y-71173815D01*
X125044103Y-71264853D01*
X124906250Y-71127000D01*
X124824141Y-71127000D01*
X124784494Y-71094463D01*
X124674180Y-71035498D01*
X124557159Y-71000000D01*
X124674180Y-70964502D01*
X124784494Y-70905537D01*
X124824141Y-70873000D01*
X124906250Y-70873000D01*
X125044103Y-70735147D01*
X125118815Y-70826185D01*
G37*
X125118815Y-70826185D02*
X125215506Y-70905537D01*
X125325820Y-70964502D01*
X125442841Y-71000000D01*
X125325820Y-71035498D01*
X125215506Y-71094463D01*
X125118815Y-71173815D01*
X125044103Y-71264853D01*
X124906250Y-71127000D01*
X124824141Y-71127000D01*
X124784494Y-71094463D01*
X124674180Y-71035498D01*
X124557159Y-71000000D01*
X124674180Y-70964502D01*
X124784494Y-70905537D01*
X124824141Y-70873000D01*
X124906250Y-70873000D01*
X125044103Y-70735147D01*
X125118815Y-70826185D01*
M02*
