M48
; DRILL file {KiCad (5.1.5)-3} date 08/04/20 09:13:03
; FORMAT={-:-/ absolute / inch / decimal}
; #@! TF.CreationDate,2020-08-04T09:13:03+02:00
; #@! TF.GenerationSoftware,Kicad,Pcbnew,(5.1.5)-3
; #@! TF.FileFunction,Plated,1,2,PTH
FMAT,2
INCH
T1C0.0157
T2C0.0197
%
G90
G05
T1
X4.4094Y-2.6772
X4.4094Y-3.3858
X4.5709Y-3.0157
X4.5709Y-3.248
X4.6614Y-3.0669
X4.8425Y-2.874
X4.9213Y-2.874
X4.9307Y-3.1884
X4.965Y-3.135
X4.9878Y-3.1854
X5.055Y-3.32
X5.2114Y-3.0248
X5.2598Y-2.9016
X5.2953Y-3.0433
X5.2992Y-2.7598
X5.3819Y-3.1181
X5.6693Y-2.6772
X5.7087Y-3.3858
X4.4524Y-3.0374
X4.4524Y-3.0689
X4.4524Y-3.1004
X4.4524Y-3.1634
X4.4524Y-3.1949
X4.4524Y-3.2264
X4.4799Y-3.0217
X4.4799Y-3.0846
X4.4799Y-3.1161
X4.4799Y-3.1476
X4.4799Y-3.1791
X4.4799Y-3.2421
T2
G00X4.2339Y-2.9551
M15
G01X4.2102Y-2.9551
M16
G05
G00X4.2339Y-3.3087
M15
G01X4.2102Y-3.3087
M16
G05
G00X4.4681Y-2.9693
M15
G01X4.4445Y-2.9693
M16
G05
G00X4.4681Y-3.2945
M15
G01X4.4445Y-3.2945
M16
G05
T0
M30
