G04 #@! TF.GenerationSoftware,KiCad,Pcbnew,(5.1.6)-1*
G04 #@! TF.CreationDate,2020-08-17T23:15:29+02:00*
G04 #@! TF.ProjectId,Programmer,50726f67-7261-46d6-9d65-722e6b696361,rev?*
G04 #@! TF.SameCoordinates,Original*
G04 #@! TF.FileFunction,Soldermask,Top*
G04 #@! TF.FilePolarity,Negative*
%FSLAX46Y46*%
G04 Gerber Fmt 4.6, Leading zero omitted, Abs format (unit mm)*
G04 Created by KiCad (PCBNEW (5.1.6)-1) date 2020-08-17 23:15:29*
%MOMM*%
%LPD*%
G01*
G04 APERTURE LIST*
%ADD10C,0.100000*%
G04 APERTURE END LIST*
D10*
G36*
X133346968Y-86553565D02*
G01*
X133385638Y-86565296D01*
X133421277Y-86584346D01*
X133452517Y-86609983D01*
X133478154Y-86641223D01*
X133497204Y-86676862D01*
X133508935Y-86715532D01*
X133513500Y-86761888D01*
X133513500Y-87838112D01*
X133508935Y-87884468D01*
X133497204Y-87923138D01*
X133478154Y-87958777D01*
X133452517Y-87990017D01*
X133421277Y-88015654D01*
X133385638Y-88034704D01*
X133346968Y-88046435D01*
X133300612Y-88051000D01*
X132649388Y-88051000D01*
X132603032Y-88046435D01*
X132564362Y-88034704D01*
X132528723Y-88015654D01*
X132497483Y-87990017D01*
X132471846Y-87958777D01*
X132452796Y-87923138D01*
X132441065Y-87884468D01*
X132436500Y-87838112D01*
X132436500Y-86761888D01*
X132441065Y-86715532D01*
X132452796Y-86676862D01*
X132471846Y-86641223D01*
X132497483Y-86609983D01*
X132528723Y-86584346D01*
X132564362Y-86565296D01*
X132603032Y-86553565D01*
X132649388Y-86549000D01*
X133300612Y-86549000D01*
X133346968Y-86553565D01*
G37*
G36*
X135071968Y-86553565D02*
G01*
X135110638Y-86565296D01*
X135146277Y-86584346D01*
X135177517Y-86609983D01*
X135203154Y-86641223D01*
X135222204Y-86676862D01*
X135233935Y-86715532D01*
X135238500Y-86761888D01*
X135238500Y-87838112D01*
X135233935Y-87884468D01*
X135222204Y-87923138D01*
X135203154Y-87958777D01*
X135177517Y-87990017D01*
X135146277Y-88015654D01*
X135110638Y-88034704D01*
X135071968Y-88046435D01*
X135025612Y-88051000D01*
X134374388Y-88051000D01*
X134328032Y-88046435D01*
X134289362Y-88034704D01*
X134253723Y-88015654D01*
X134222483Y-87990017D01*
X134196846Y-87958777D01*
X134177796Y-87923138D01*
X134166065Y-87884468D01*
X134161500Y-87838112D01*
X134161500Y-86761888D01*
X134166065Y-86715532D01*
X134177796Y-86676862D01*
X134196846Y-86641223D01*
X134222483Y-86609983D01*
X134253723Y-86584346D01*
X134289362Y-86565296D01*
X134328032Y-86553565D01*
X134374388Y-86549000D01*
X135025612Y-86549000D01*
X135071968Y-86553565D01*
G37*
G36*
X136946968Y-86553565D02*
G01*
X136985638Y-86565296D01*
X137021277Y-86584346D01*
X137052517Y-86609983D01*
X137078154Y-86641223D01*
X137097204Y-86676862D01*
X137108935Y-86715532D01*
X137113500Y-86761888D01*
X137113500Y-87838112D01*
X137108935Y-87884468D01*
X137097204Y-87923138D01*
X137078154Y-87958777D01*
X137052517Y-87990017D01*
X137021277Y-88015654D01*
X136985638Y-88034704D01*
X136946968Y-88046435D01*
X136900612Y-88051000D01*
X136249388Y-88051000D01*
X136203032Y-88046435D01*
X136164362Y-88034704D01*
X136128723Y-88015654D01*
X136097483Y-87990017D01*
X136071846Y-87958777D01*
X136052796Y-87923138D01*
X136041065Y-87884468D01*
X136036500Y-87838112D01*
X136036500Y-86761888D01*
X136041065Y-86715532D01*
X136052796Y-86676862D01*
X136071846Y-86641223D01*
X136097483Y-86609983D01*
X136128723Y-86584346D01*
X136164362Y-86565296D01*
X136203032Y-86553565D01*
X136249388Y-86549000D01*
X136900612Y-86549000D01*
X136946968Y-86553565D01*
G37*
G36*
X131471968Y-86553565D02*
G01*
X131510638Y-86565296D01*
X131546277Y-86584346D01*
X131577517Y-86609983D01*
X131603154Y-86641223D01*
X131622204Y-86676862D01*
X131633935Y-86715532D01*
X131638500Y-86761888D01*
X131638500Y-87838112D01*
X131633935Y-87884468D01*
X131622204Y-87923138D01*
X131603154Y-87958777D01*
X131577517Y-87990017D01*
X131546277Y-88015654D01*
X131510638Y-88034704D01*
X131471968Y-88046435D01*
X131425612Y-88051000D01*
X130774388Y-88051000D01*
X130728032Y-88046435D01*
X130689362Y-88034704D01*
X130653723Y-88015654D01*
X130622483Y-87990017D01*
X130596846Y-87958777D01*
X130577796Y-87923138D01*
X130566065Y-87884468D01*
X130561500Y-87838112D01*
X130561500Y-86761888D01*
X130566065Y-86715532D01*
X130577796Y-86676862D01*
X130596846Y-86641223D01*
X130622483Y-86609983D01*
X130653723Y-86584346D01*
X130689362Y-86565296D01*
X130728032Y-86553565D01*
X130774388Y-86549000D01*
X131425612Y-86549000D01*
X131471968Y-86553565D01*
G37*
G36*
X135071968Y-84453565D02*
G01*
X135110638Y-84465296D01*
X135146277Y-84484346D01*
X135177517Y-84509983D01*
X135203154Y-84541223D01*
X135222204Y-84576862D01*
X135233935Y-84615532D01*
X135238500Y-84661888D01*
X135238500Y-85738112D01*
X135233935Y-85784468D01*
X135222204Y-85823138D01*
X135203154Y-85858777D01*
X135177517Y-85890017D01*
X135146277Y-85915654D01*
X135110638Y-85934704D01*
X135071968Y-85946435D01*
X135025612Y-85951000D01*
X134374388Y-85951000D01*
X134328032Y-85946435D01*
X134289362Y-85934704D01*
X134253723Y-85915654D01*
X134222483Y-85890017D01*
X134196846Y-85858777D01*
X134177796Y-85823138D01*
X134166065Y-85784468D01*
X134161500Y-85738112D01*
X134161500Y-84661888D01*
X134166065Y-84615532D01*
X134177796Y-84576862D01*
X134196846Y-84541223D01*
X134222483Y-84509983D01*
X134253723Y-84484346D01*
X134289362Y-84465296D01*
X134328032Y-84453565D01*
X134374388Y-84449000D01*
X135025612Y-84449000D01*
X135071968Y-84453565D01*
G37*
G36*
X136946968Y-84453565D02*
G01*
X136985638Y-84465296D01*
X137021277Y-84484346D01*
X137052517Y-84509983D01*
X137078154Y-84541223D01*
X137097204Y-84576862D01*
X137108935Y-84615532D01*
X137113500Y-84661888D01*
X137113500Y-85738112D01*
X137108935Y-85784468D01*
X137097204Y-85823138D01*
X137078154Y-85858777D01*
X137052517Y-85890017D01*
X137021277Y-85915654D01*
X136985638Y-85934704D01*
X136946968Y-85946435D01*
X136900612Y-85951000D01*
X136249388Y-85951000D01*
X136203032Y-85946435D01*
X136164362Y-85934704D01*
X136128723Y-85915654D01*
X136097483Y-85890017D01*
X136071846Y-85858777D01*
X136052796Y-85823138D01*
X136041065Y-85784468D01*
X136036500Y-85738112D01*
X136036500Y-84661888D01*
X136041065Y-84615532D01*
X136052796Y-84576862D01*
X136071846Y-84541223D01*
X136097483Y-84509983D01*
X136128723Y-84484346D01*
X136164362Y-84465296D01*
X136203032Y-84453565D01*
X136249388Y-84449000D01*
X136900612Y-84449000D01*
X136946968Y-84453565D01*
G37*
G36*
X131471968Y-84453565D02*
G01*
X131510638Y-84465296D01*
X131546277Y-84484346D01*
X131577517Y-84509983D01*
X131603154Y-84541223D01*
X131622204Y-84576862D01*
X131633935Y-84615532D01*
X131638500Y-84661888D01*
X131638500Y-85738112D01*
X131633935Y-85784468D01*
X131622204Y-85823138D01*
X131603154Y-85858777D01*
X131577517Y-85890017D01*
X131546277Y-85915654D01*
X131510638Y-85934704D01*
X131471968Y-85946435D01*
X131425612Y-85951000D01*
X130774388Y-85951000D01*
X130728032Y-85946435D01*
X130689362Y-85934704D01*
X130653723Y-85915654D01*
X130622483Y-85890017D01*
X130596846Y-85858777D01*
X130577796Y-85823138D01*
X130566065Y-85784468D01*
X130561500Y-85738112D01*
X130561500Y-84661888D01*
X130566065Y-84615532D01*
X130577796Y-84576862D01*
X130596846Y-84541223D01*
X130622483Y-84509983D01*
X130653723Y-84484346D01*
X130689362Y-84465296D01*
X130728032Y-84453565D01*
X130774388Y-84449000D01*
X131425612Y-84449000D01*
X131471968Y-84453565D01*
G37*
G36*
X133346968Y-84453565D02*
G01*
X133385638Y-84465296D01*
X133421277Y-84484346D01*
X133452517Y-84509983D01*
X133478154Y-84541223D01*
X133497204Y-84576862D01*
X133508935Y-84615532D01*
X133513500Y-84661888D01*
X133513500Y-85738112D01*
X133508935Y-85784468D01*
X133497204Y-85823138D01*
X133478154Y-85858777D01*
X133452517Y-85890017D01*
X133421277Y-85915654D01*
X133385638Y-85934704D01*
X133346968Y-85946435D01*
X133300612Y-85951000D01*
X132649388Y-85951000D01*
X132603032Y-85946435D01*
X132564362Y-85934704D01*
X132528723Y-85915654D01*
X132497483Y-85890017D01*
X132471846Y-85858777D01*
X132452796Y-85823138D01*
X132441065Y-85784468D01*
X132436500Y-85738112D01*
X132436500Y-84661888D01*
X132441065Y-84615532D01*
X132452796Y-84576862D01*
X132471846Y-84541223D01*
X132497483Y-84509983D01*
X132528723Y-84484346D01*
X132564362Y-84465296D01*
X132603032Y-84453565D01*
X132649388Y-84449000D01*
X133300612Y-84449000D01*
X133346968Y-84453565D01*
G37*
G36*
X127546968Y-84353565D02*
G01*
X127585638Y-84365296D01*
X127621277Y-84384346D01*
X127652517Y-84409983D01*
X127678154Y-84441223D01*
X127697204Y-84476862D01*
X127708935Y-84515532D01*
X127713500Y-84561888D01*
X127713500Y-85638112D01*
X127708935Y-85684468D01*
X127697204Y-85723138D01*
X127678154Y-85758777D01*
X127652517Y-85790017D01*
X127621277Y-85815654D01*
X127585638Y-85834704D01*
X127546968Y-85846435D01*
X127500612Y-85851000D01*
X126849388Y-85851000D01*
X126803032Y-85846435D01*
X126764362Y-85834704D01*
X126728723Y-85815654D01*
X126697483Y-85790017D01*
X126671846Y-85758777D01*
X126652796Y-85723138D01*
X126641065Y-85684468D01*
X126636500Y-85638112D01*
X126636500Y-84561888D01*
X126641065Y-84515532D01*
X126652796Y-84476862D01*
X126671846Y-84441223D01*
X126697483Y-84409983D01*
X126728723Y-84384346D01*
X126764362Y-84365296D01*
X126803032Y-84353565D01*
X126849388Y-84349000D01*
X127500612Y-84349000D01*
X127546968Y-84353565D01*
G37*
G36*
X125671968Y-84353565D02*
G01*
X125710638Y-84365296D01*
X125746277Y-84384346D01*
X125777517Y-84409983D01*
X125803154Y-84441223D01*
X125822204Y-84476862D01*
X125833935Y-84515532D01*
X125838500Y-84561888D01*
X125838500Y-85638112D01*
X125833935Y-85684468D01*
X125822204Y-85723138D01*
X125803154Y-85758777D01*
X125777517Y-85790017D01*
X125746277Y-85815654D01*
X125710638Y-85834704D01*
X125671968Y-85846435D01*
X125625612Y-85851000D01*
X124974388Y-85851000D01*
X124928032Y-85846435D01*
X124889362Y-85834704D01*
X124853723Y-85815654D01*
X124822483Y-85790017D01*
X124796846Y-85758777D01*
X124777796Y-85723138D01*
X124766065Y-85684468D01*
X124761500Y-85638112D01*
X124761500Y-84561888D01*
X124766065Y-84515532D01*
X124777796Y-84476862D01*
X124796846Y-84441223D01*
X124822483Y-84409983D01*
X124853723Y-84384346D01*
X124889362Y-84365296D01*
X124928032Y-84353565D01*
X124974388Y-84349000D01*
X125625612Y-84349000D01*
X125671968Y-84353565D01*
G37*
G36*
X115301000Y-84751000D02*
G01*
X112699000Y-84751000D01*
X112699000Y-82649000D01*
X115301000Y-82649000D01*
X115301000Y-84751000D01*
G37*
G36*
X109801000Y-84751000D02*
G01*
X107199000Y-84751000D01*
X107199000Y-82649000D01*
X109801000Y-82649000D01*
X109801000Y-84751000D01*
G37*
G36*
X134576000Y-83526000D02*
G01*
X125574000Y-83526000D01*
X125574000Y-81674000D01*
X134576000Y-81674000D01*
X134576000Y-83526000D01*
G37*
G36*
X111497740Y-81008626D02*
G01*
X111546136Y-81018253D01*
X111583902Y-81033896D01*
X111637311Y-81056019D01*
X111637312Y-81056020D01*
X111719369Y-81110848D01*
X111789152Y-81180631D01*
X111789153Y-81180633D01*
X111843981Y-81262689D01*
X111881747Y-81353865D01*
X111901000Y-81450655D01*
X111901000Y-81549345D01*
X111881747Y-81646135D01*
X111843981Y-81737311D01*
X111843980Y-81737312D01*
X111789152Y-81819369D01*
X111719369Y-81889152D01*
X111678062Y-81916752D01*
X111637311Y-81943981D01*
X111583902Y-81966104D01*
X111546136Y-81981747D01*
X111497740Y-81991374D01*
X111449345Y-82001000D01*
X111350655Y-82001000D01*
X111302260Y-81991374D01*
X111253864Y-81981747D01*
X111216098Y-81966104D01*
X111162689Y-81943981D01*
X111121938Y-81916752D01*
X111080631Y-81889152D01*
X111010848Y-81819369D01*
X110956020Y-81737312D01*
X110956019Y-81737311D01*
X110918253Y-81646135D01*
X110899000Y-81549345D01*
X110899000Y-81450655D01*
X110918253Y-81353865D01*
X110956019Y-81262689D01*
X111010847Y-81180633D01*
X111010848Y-81180631D01*
X111080631Y-81110848D01*
X111162688Y-81056020D01*
X111162689Y-81056019D01*
X111216098Y-81033896D01*
X111253864Y-81018253D01*
X111302260Y-81008626D01*
X111350655Y-80999000D01*
X111449345Y-80999000D01*
X111497740Y-81008626D01*
G37*
G36*
X115301000Y-81201000D02*
G01*
X112699000Y-81201000D01*
X112699000Y-77399000D01*
X115301000Y-77399000D01*
X115301000Y-81201000D01*
G37*
G36*
X119826000Y-81051000D02*
G01*
X118574000Y-81051000D01*
X118574000Y-78449000D01*
X119826000Y-78449000D01*
X119826000Y-81051000D01*
G37*
G36*
X122326000Y-81051000D02*
G01*
X121074000Y-81051000D01*
X121074000Y-78449000D01*
X122326000Y-78449000D01*
X122326000Y-81051000D01*
G37*
G36*
X144351000Y-80361000D02*
G01*
X141849000Y-80361000D01*
X141849000Y-79519000D01*
X144351000Y-79519000D01*
X144351000Y-80361000D01*
G37*
G36*
X140451000Y-80361000D02*
G01*
X137949000Y-80361000D01*
X137949000Y-79519000D01*
X140451000Y-79519000D01*
X140451000Y-80361000D01*
G37*
G36*
X140451000Y-79091000D02*
G01*
X137949000Y-79091000D01*
X137949000Y-78249000D01*
X140451000Y-78249000D01*
X140451000Y-79091000D01*
G37*
G36*
X144351000Y-79091000D02*
G01*
X141849000Y-79091000D01*
X141849000Y-78249000D01*
X144351000Y-78249000D01*
X144351000Y-79091000D01*
G37*
G36*
X140451000Y-77821000D02*
G01*
X137949000Y-77821000D01*
X137949000Y-76979000D01*
X140451000Y-76979000D01*
X140451000Y-77821000D01*
G37*
G36*
X144351000Y-77821000D02*
G01*
X141849000Y-77821000D01*
X141849000Y-76979000D01*
X144351000Y-76979000D01*
X144351000Y-77821000D01*
G37*
G36*
X111497740Y-76608626D02*
G01*
X111546136Y-76618253D01*
X111583902Y-76633896D01*
X111637311Y-76656019D01*
X111637312Y-76656020D01*
X111719369Y-76710848D01*
X111789152Y-76780631D01*
X111789153Y-76780633D01*
X111843981Y-76862689D01*
X111881747Y-76953865D01*
X111901000Y-77050655D01*
X111901000Y-77149345D01*
X111881747Y-77246135D01*
X111843981Y-77337311D01*
X111843980Y-77337312D01*
X111789152Y-77419369D01*
X111719369Y-77489152D01*
X111678062Y-77516752D01*
X111637311Y-77543981D01*
X111583902Y-77566104D01*
X111546136Y-77581747D01*
X111497740Y-77591374D01*
X111449345Y-77601000D01*
X111350655Y-77601000D01*
X111302260Y-77591374D01*
X111253864Y-77581747D01*
X111216098Y-77566104D01*
X111162689Y-77543981D01*
X111121938Y-77516752D01*
X111080631Y-77489152D01*
X111010848Y-77419369D01*
X110956020Y-77337312D01*
X110956019Y-77337311D01*
X110918253Y-77246135D01*
X110899000Y-77149345D01*
X110899000Y-77050655D01*
X110918253Y-76953865D01*
X110956019Y-76862689D01*
X111010847Y-76780633D01*
X111010848Y-76780631D01*
X111080631Y-76710848D01*
X111162688Y-76656020D01*
X111162689Y-76656019D01*
X111216098Y-76633896D01*
X111253864Y-76618253D01*
X111302260Y-76608626D01*
X111350655Y-76599000D01*
X111449345Y-76599000D01*
X111497740Y-76608626D01*
G37*
G36*
X134576000Y-76326000D02*
G01*
X125574000Y-76326000D01*
X125574000Y-74474000D01*
X134576000Y-74474000D01*
X134576000Y-76326000D01*
G37*
G36*
X115301000Y-75951000D02*
G01*
X112699000Y-75951000D01*
X112699000Y-73849000D01*
X115301000Y-73849000D01*
X115301000Y-75951000D01*
G37*
G36*
X109801000Y-75951000D02*
G01*
X107199000Y-75951000D01*
X107199000Y-73849000D01*
X109801000Y-73849000D01*
X109801000Y-75951000D01*
G37*
G36*
X121471968Y-73953565D02*
G01*
X121510638Y-73965296D01*
X121546277Y-73984346D01*
X121577517Y-74009983D01*
X121603154Y-74041223D01*
X121622204Y-74076862D01*
X121633935Y-74115532D01*
X121638500Y-74161888D01*
X121638500Y-75238112D01*
X121633935Y-75284468D01*
X121622204Y-75323138D01*
X121603154Y-75358777D01*
X121577517Y-75390017D01*
X121546277Y-75415654D01*
X121510638Y-75434704D01*
X121471968Y-75446435D01*
X121425612Y-75451000D01*
X120774388Y-75451000D01*
X120728032Y-75446435D01*
X120689362Y-75434704D01*
X120653723Y-75415654D01*
X120622483Y-75390017D01*
X120596846Y-75358777D01*
X120577796Y-75323138D01*
X120566065Y-75284468D01*
X120561500Y-75238112D01*
X120561500Y-74161888D01*
X120566065Y-74115532D01*
X120577796Y-74076862D01*
X120596846Y-74041223D01*
X120622483Y-74009983D01*
X120653723Y-73984346D01*
X120689362Y-73965296D01*
X120728032Y-73953565D01*
X120774388Y-73949000D01*
X121425612Y-73949000D01*
X121471968Y-73953565D01*
G37*
G36*
X123346968Y-73953565D02*
G01*
X123385638Y-73965296D01*
X123421277Y-73984346D01*
X123452517Y-74009983D01*
X123478154Y-74041223D01*
X123497204Y-74076862D01*
X123508935Y-74115532D01*
X123513500Y-74161888D01*
X123513500Y-75238112D01*
X123508935Y-75284468D01*
X123497204Y-75323138D01*
X123478154Y-75358777D01*
X123452517Y-75390017D01*
X123421277Y-75415654D01*
X123385638Y-75434704D01*
X123346968Y-75446435D01*
X123300612Y-75451000D01*
X122649388Y-75451000D01*
X122603032Y-75446435D01*
X122564362Y-75434704D01*
X122528723Y-75415654D01*
X122497483Y-75390017D01*
X122471846Y-75358777D01*
X122452796Y-75323138D01*
X122441065Y-75284468D01*
X122436500Y-75238112D01*
X122436500Y-74161888D01*
X122441065Y-74115532D01*
X122452796Y-74076862D01*
X122471846Y-74041223D01*
X122497483Y-74009983D01*
X122528723Y-73984346D01*
X122564362Y-73965296D01*
X122603032Y-73953565D01*
X122649388Y-73949000D01*
X123300612Y-73949000D01*
X123346968Y-73953565D01*
G37*
G36*
X122246968Y-71253565D02*
G01*
X122285638Y-71265296D01*
X122321277Y-71284346D01*
X122352517Y-71309983D01*
X122378154Y-71341223D01*
X122397204Y-71376862D01*
X122408935Y-71415532D01*
X122413500Y-71461888D01*
X122413500Y-72538112D01*
X122408935Y-72584468D01*
X122397204Y-72623138D01*
X122378154Y-72658777D01*
X122352517Y-72690017D01*
X122321277Y-72715654D01*
X122285638Y-72734704D01*
X122246968Y-72746435D01*
X122200612Y-72751000D01*
X121549388Y-72751000D01*
X121503032Y-72746435D01*
X121464362Y-72734704D01*
X121428723Y-72715654D01*
X121397483Y-72690017D01*
X121371846Y-72658777D01*
X121352796Y-72623138D01*
X121341065Y-72584468D01*
X121336500Y-72538112D01*
X121336500Y-71461888D01*
X121341065Y-71415532D01*
X121352796Y-71376862D01*
X121371846Y-71341223D01*
X121397483Y-71309983D01*
X121428723Y-71284346D01*
X121464362Y-71265296D01*
X121503032Y-71253565D01*
X121549388Y-71249000D01*
X122200612Y-71249000D01*
X122246968Y-71253565D01*
G37*
G36*
X120371968Y-71253565D02*
G01*
X120410638Y-71265296D01*
X120446277Y-71284346D01*
X120477517Y-71309983D01*
X120503154Y-71341223D01*
X120522204Y-71376862D01*
X120533935Y-71415532D01*
X120538500Y-71461888D01*
X120538500Y-72538112D01*
X120533935Y-72584468D01*
X120522204Y-72623138D01*
X120503154Y-72658777D01*
X120477517Y-72690017D01*
X120446277Y-72715654D01*
X120410638Y-72734704D01*
X120371968Y-72746435D01*
X120325612Y-72751000D01*
X119674388Y-72751000D01*
X119628032Y-72746435D01*
X119589362Y-72734704D01*
X119553723Y-72715654D01*
X119522483Y-72690017D01*
X119496846Y-72658777D01*
X119477796Y-72623138D01*
X119466065Y-72584468D01*
X119461500Y-72538112D01*
X119461500Y-71461888D01*
X119466065Y-71415532D01*
X119477796Y-71376862D01*
X119496846Y-71341223D01*
X119522483Y-71309983D01*
X119553723Y-71284346D01*
X119589362Y-71265296D01*
X119628032Y-71253565D01*
X119674388Y-71249000D01*
X120325612Y-71249000D01*
X120371968Y-71253565D01*
G37*
G36*
X131084468Y-71466065D02*
G01*
X131123138Y-71477796D01*
X131158777Y-71496846D01*
X131190017Y-71522483D01*
X131215654Y-71553723D01*
X131234704Y-71589362D01*
X131246435Y-71628032D01*
X131251000Y-71674388D01*
X131251000Y-72325612D01*
X131246435Y-72371968D01*
X131234704Y-72410638D01*
X131215654Y-72446277D01*
X131190017Y-72477517D01*
X131158777Y-72503154D01*
X131123138Y-72522204D01*
X131084468Y-72533935D01*
X131038112Y-72538500D01*
X129961888Y-72538500D01*
X129915532Y-72533935D01*
X129876862Y-72522204D01*
X129841223Y-72503154D01*
X129809983Y-72477517D01*
X129784346Y-72446277D01*
X129765296Y-72410638D01*
X129753565Y-72371968D01*
X129749000Y-72325612D01*
X129749000Y-71674388D01*
X129753565Y-71628032D01*
X129765296Y-71589362D01*
X129784346Y-71553723D01*
X129809983Y-71522483D01*
X129841223Y-71496846D01*
X129876862Y-71477796D01*
X129915532Y-71466065D01*
X129961888Y-71461500D01*
X131038112Y-71461500D01*
X131084468Y-71466065D01*
G37*
G36*
X136384468Y-71441065D02*
G01*
X136423138Y-71452796D01*
X136458777Y-71471846D01*
X136490017Y-71497483D01*
X136515654Y-71528723D01*
X136534704Y-71564362D01*
X136546435Y-71603032D01*
X136551000Y-71649388D01*
X136551000Y-72300612D01*
X136546435Y-72346968D01*
X136534704Y-72385638D01*
X136515654Y-72421277D01*
X136490017Y-72452517D01*
X136458777Y-72478154D01*
X136423138Y-72497204D01*
X136384468Y-72508935D01*
X136338112Y-72513500D01*
X135261888Y-72513500D01*
X135215532Y-72508935D01*
X135176862Y-72497204D01*
X135141223Y-72478154D01*
X135109983Y-72452517D01*
X135084346Y-72421277D01*
X135065296Y-72385638D01*
X135053565Y-72346968D01*
X135049000Y-72300612D01*
X135049000Y-71649388D01*
X135053565Y-71603032D01*
X135065296Y-71564362D01*
X135084346Y-71528723D01*
X135109983Y-71497483D01*
X135141223Y-71471846D01*
X135176862Y-71452796D01*
X135215532Y-71441065D01*
X135261888Y-71436500D01*
X136338112Y-71436500D01*
X136384468Y-71441065D01*
G37*
G36*
X128584468Y-71341065D02*
G01*
X128623138Y-71352796D01*
X128658777Y-71371846D01*
X128690017Y-71397483D01*
X128715654Y-71428723D01*
X128734704Y-71464362D01*
X128746435Y-71503032D01*
X128751000Y-71549388D01*
X128751000Y-72200612D01*
X128746435Y-72246968D01*
X128734704Y-72285638D01*
X128715654Y-72321277D01*
X128690017Y-72352517D01*
X128658777Y-72378154D01*
X128623138Y-72397204D01*
X128584468Y-72408935D01*
X128538112Y-72413500D01*
X127461888Y-72413500D01*
X127415532Y-72408935D01*
X127376862Y-72397204D01*
X127341223Y-72378154D01*
X127309983Y-72352517D01*
X127284346Y-72321277D01*
X127265296Y-72285638D01*
X127253565Y-72246968D01*
X127249000Y-72200612D01*
X127249000Y-71549388D01*
X127253565Y-71503032D01*
X127265296Y-71464362D01*
X127284346Y-71428723D01*
X127309983Y-71397483D01*
X127341223Y-71371846D01*
X127376862Y-71352796D01*
X127415532Y-71341065D01*
X127461888Y-71336500D01*
X128538112Y-71336500D01*
X128584468Y-71341065D01*
G37*
G36*
X134051000Y-72376000D02*
G01*
X132249000Y-72376000D01*
X132249000Y-71624000D01*
X134051000Y-71624000D01*
X134051000Y-72376000D01*
G37*
G36*
X124481000Y-72326000D02*
G01*
X123319000Y-72326000D01*
X123319000Y-69674000D01*
X124481000Y-69674000D01*
X124481000Y-72326000D01*
G37*
G36*
X126681000Y-72326000D02*
G01*
X125519000Y-72326000D01*
X125519000Y-71574000D01*
X126681000Y-71574000D01*
X126681000Y-72326000D01*
G37*
G36*
X121371968Y-69253565D02*
G01*
X121410638Y-69265296D01*
X121446277Y-69284346D01*
X121477517Y-69309983D01*
X121503154Y-69341223D01*
X121522204Y-69376862D01*
X121533935Y-69415532D01*
X121538500Y-69461888D01*
X121538500Y-70538112D01*
X121533935Y-70584468D01*
X121522204Y-70623138D01*
X121503154Y-70658777D01*
X121477517Y-70690017D01*
X121446277Y-70715654D01*
X121410638Y-70734704D01*
X121371968Y-70746435D01*
X121325612Y-70751000D01*
X120674388Y-70751000D01*
X120628032Y-70746435D01*
X120589362Y-70734704D01*
X120553723Y-70715654D01*
X120522483Y-70690017D01*
X120496846Y-70658777D01*
X120477796Y-70623138D01*
X120466065Y-70584468D01*
X120461500Y-70538112D01*
X120461500Y-69461888D01*
X120466065Y-69415532D01*
X120477796Y-69376862D01*
X120496846Y-69341223D01*
X120522483Y-69309983D01*
X120553723Y-69284346D01*
X120589362Y-69265296D01*
X120628032Y-69253565D01*
X120674388Y-69249000D01*
X121325612Y-69249000D01*
X121371968Y-69253565D01*
G37*
G36*
X119496968Y-69253565D02*
G01*
X119535638Y-69265296D01*
X119571277Y-69284346D01*
X119602517Y-69309983D01*
X119628154Y-69341223D01*
X119647204Y-69376862D01*
X119658935Y-69415532D01*
X119663500Y-69461888D01*
X119663500Y-70538112D01*
X119658935Y-70584468D01*
X119647204Y-70623138D01*
X119628154Y-70658777D01*
X119602517Y-70690017D01*
X119571277Y-70715654D01*
X119535638Y-70734704D01*
X119496968Y-70746435D01*
X119450612Y-70751000D01*
X118799388Y-70751000D01*
X118753032Y-70746435D01*
X118714362Y-70734704D01*
X118678723Y-70715654D01*
X118647483Y-70690017D01*
X118621846Y-70658777D01*
X118602796Y-70623138D01*
X118591065Y-70584468D01*
X118586500Y-70538112D01*
X118586500Y-69461888D01*
X118591065Y-69415532D01*
X118602796Y-69376862D01*
X118621846Y-69341223D01*
X118647483Y-69309983D01*
X118678723Y-69284346D01*
X118714362Y-69265296D01*
X118753032Y-69253565D01*
X118799388Y-69249000D01*
X119450612Y-69249000D01*
X119496968Y-69253565D01*
G37*
G36*
X131084468Y-69591065D02*
G01*
X131123138Y-69602796D01*
X131158777Y-69621846D01*
X131190017Y-69647483D01*
X131215654Y-69678723D01*
X131234704Y-69714362D01*
X131246435Y-69753032D01*
X131251000Y-69799388D01*
X131251000Y-70450612D01*
X131246435Y-70496968D01*
X131234704Y-70535638D01*
X131215654Y-70571277D01*
X131190017Y-70602517D01*
X131158777Y-70628154D01*
X131123138Y-70647204D01*
X131084468Y-70658935D01*
X131038112Y-70663500D01*
X129961888Y-70663500D01*
X129915532Y-70658935D01*
X129876862Y-70647204D01*
X129841223Y-70628154D01*
X129809983Y-70602517D01*
X129784346Y-70571277D01*
X129765296Y-70535638D01*
X129753565Y-70496968D01*
X129749000Y-70450612D01*
X129749000Y-69799388D01*
X129753565Y-69753032D01*
X129765296Y-69714362D01*
X129784346Y-69678723D01*
X129809983Y-69647483D01*
X129841223Y-69621846D01*
X129876862Y-69602796D01*
X129915532Y-69591065D01*
X129961888Y-69586500D01*
X131038112Y-69586500D01*
X131084468Y-69591065D01*
G37*
G36*
X136384468Y-69566065D02*
G01*
X136423138Y-69577796D01*
X136458777Y-69596846D01*
X136490017Y-69622483D01*
X136515654Y-69653723D01*
X136534704Y-69689362D01*
X136546435Y-69728032D01*
X136551000Y-69774388D01*
X136551000Y-70425612D01*
X136546435Y-70471968D01*
X136534704Y-70510638D01*
X136515654Y-70546277D01*
X136490017Y-70577517D01*
X136458777Y-70603154D01*
X136423138Y-70622204D01*
X136384468Y-70633935D01*
X136338112Y-70638500D01*
X135261888Y-70638500D01*
X135215532Y-70633935D01*
X135176862Y-70622204D01*
X135141223Y-70603154D01*
X135109983Y-70577517D01*
X135084346Y-70546277D01*
X135065296Y-70510638D01*
X135053565Y-70471968D01*
X135049000Y-70425612D01*
X135049000Y-69774388D01*
X135053565Y-69728032D01*
X135065296Y-69689362D01*
X135084346Y-69653723D01*
X135109983Y-69622483D01*
X135141223Y-69596846D01*
X135176862Y-69577796D01*
X135215532Y-69566065D01*
X135261888Y-69561500D01*
X136338112Y-69561500D01*
X136384468Y-69566065D01*
G37*
G36*
X128584468Y-69466065D02*
G01*
X128623138Y-69477796D01*
X128658777Y-69496846D01*
X128690017Y-69522483D01*
X128715654Y-69553723D01*
X128734704Y-69589362D01*
X128746435Y-69628032D01*
X128751000Y-69674388D01*
X128751000Y-70325612D01*
X128746435Y-70371968D01*
X128734704Y-70410638D01*
X128715654Y-70446277D01*
X128690017Y-70477517D01*
X128658777Y-70503154D01*
X128623138Y-70522204D01*
X128584468Y-70533935D01*
X128538112Y-70538500D01*
X127461888Y-70538500D01*
X127415532Y-70533935D01*
X127376862Y-70522204D01*
X127341223Y-70503154D01*
X127309983Y-70477517D01*
X127284346Y-70446277D01*
X127265296Y-70410638D01*
X127253565Y-70371968D01*
X127249000Y-70325612D01*
X127249000Y-69674388D01*
X127253565Y-69628032D01*
X127265296Y-69589362D01*
X127284346Y-69553723D01*
X127309983Y-69522483D01*
X127341223Y-69496846D01*
X127376862Y-69477796D01*
X127415532Y-69466065D01*
X127461888Y-69461500D01*
X128538112Y-69461500D01*
X128584468Y-69466065D01*
G37*
G36*
X134051000Y-70476000D02*
G01*
X132249000Y-70476000D01*
X132249000Y-69724000D01*
X134051000Y-69724000D01*
X134051000Y-70476000D01*
G37*
G36*
X126681000Y-70426000D02*
G01*
X125519000Y-70426000D01*
X125519000Y-69674000D01*
X126681000Y-69674000D01*
X126681000Y-70426000D01*
G37*
M02*
