G04 #@! TF.GenerationSoftware,KiCad,Pcbnew,(5.1.5)-3*
G04 #@! TF.CreationDate,2020-08-04T09:16:07+02:00*
G04 #@! TF.ProjectId,Programmer,50726f67-7261-46d6-9d65-722e6b696361,rev?*
G04 #@! TF.SameCoordinates,Original*
G04 #@! TF.FileFunction,Soldermask,Top*
G04 #@! TF.FilePolarity,Negative*
%FSLAX46Y46*%
G04 Gerber Fmt 4.6, Leading zero omitted, Abs format (unit mm)*
G04 Created by KiCad (PCBNEW (5.1.5)-3) date 2020-08-04 09:16:07*
%MOMM*%
%LPD*%
G04 APERTURE LIST*
%ADD10C,0.100000*%
G04 APERTURE END LIST*
D10*
G36*
X133346968Y-86553565D02*
G01*
X133385638Y-86565296D01*
X133421277Y-86584346D01*
X133452517Y-86609983D01*
X133478154Y-86641223D01*
X133497204Y-86676862D01*
X133508935Y-86715532D01*
X133513500Y-86761888D01*
X133513500Y-87838112D01*
X133508935Y-87884468D01*
X133497204Y-87923138D01*
X133478154Y-87958777D01*
X133452517Y-87990017D01*
X133421277Y-88015654D01*
X133385638Y-88034704D01*
X133346968Y-88046435D01*
X133300612Y-88051000D01*
X132649388Y-88051000D01*
X132603032Y-88046435D01*
X132564362Y-88034704D01*
X132528723Y-88015654D01*
X132497483Y-87990017D01*
X132471846Y-87958777D01*
X132452796Y-87923138D01*
X132441065Y-87884468D01*
X132436500Y-87838112D01*
X132436500Y-86761888D01*
X132441065Y-86715532D01*
X132452796Y-86676862D01*
X132471846Y-86641223D01*
X132497483Y-86609983D01*
X132528723Y-86584346D01*
X132564362Y-86565296D01*
X132603032Y-86553565D01*
X132649388Y-86549000D01*
X133300612Y-86549000D01*
X133346968Y-86553565D01*
G37*
G36*
X131471968Y-86553565D02*
G01*
X131510638Y-86565296D01*
X131546277Y-86584346D01*
X131577517Y-86609983D01*
X131603154Y-86641223D01*
X131622204Y-86676862D01*
X131633935Y-86715532D01*
X131638500Y-86761888D01*
X131638500Y-87838112D01*
X131633935Y-87884468D01*
X131622204Y-87923138D01*
X131603154Y-87958777D01*
X131577517Y-87990017D01*
X131546277Y-88015654D01*
X131510638Y-88034704D01*
X131471968Y-88046435D01*
X131425612Y-88051000D01*
X130774388Y-88051000D01*
X130728032Y-88046435D01*
X130689362Y-88034704D01*
X130653723Y-88015654D01*
X130622483Y-87990017D01*
X130596846Y-87958777D01*
X130577796Y-87923138D01*
X130566065Y-87884468D01*
X130561500Y-87838112D01*
X130561500Y-86761888D01*
X130566065Y-86715532D01*
X130577796Y-86676862D01*
X130596846Y-86641223D01*
X130622483Y-86609983D01*
X130653723Y-86584346D01*
X130689362Y-86565296D01*
X130728032Y-86553565D01*
X130774388Y-86549000D01*
X131425612Y-86549000D01*
X131471968Y-86553565D01*
G37*
G36*
X135071968Y-86553565D02*
G01*
X135110638Y-86565296D01*
X135146277Y-86584346D01*
X135177517Y-86609983D01*
X135203154Y-86641223D01*
X135222204Y-86676862D01*
X135233935Y-86715532D01*
X135238500Y-86761888D01*
X135238500Y-87838112D01*
X135233935Y-87884468D01*
X135222204Y-87923138D01*
X135203154Y-87958777D01*
X135177517Y-87990017D01*
X135146277Y-88015654D01*
X135110638Y-88034704D01*
X135071968Y-88046435D01*
X135025612Y-88051000D01*
X134374388Y-88051000D01*
X134328032Y-88046435D01*
X134289362Y-88034704D01*
X134253723Y-88015654D01*
X134222483Y-87990017D01*
X134196846Y-87958777D01*
X134177796Y-87923138D01*
X134166065Y-87884468D01*
X134161500Y-87838112D01*
X134161500Y-86761888D01*
X134166065Y-86715532D01*
X134177796Y-86676862D01*
X134196846Y-86641223D01*
X134222483Y-86609983D01*
X134253723Y-86584346D01*
X134289362Y-86565296D01*
X134328032Y-86553565D01*
X134374388Y-86549000D01*
X135025612Y-86549000D01*
X135071968Y-86553565D01*
G37*
G36*
X136946968Y-86553565D02*
G01*
X136985638Y-86565296D01*
X137021277Y-86584346D01*
X137052517Y-86609983D01*
X137078154Y-86641223D01*
X137097204Y-86676862D01*
X137108935Y-86715532D01*
X137113500Y-86761888D01*
X137113500Y-87838112D01*
X137108935Y-87884468D01*
X137097204Y-87923138D01*
X137078154Y-87958777D01*
X137052517Y-87990017D01*
X137021277Y-88015654D01*
X136985638Y-88034704D01*
X136946968Y-88046435D01*
X136900612Y-88051000D01*
X136249388Y-88051000D01*
X136203032Y-88046435D01*
X136164362Y-88034704D01*
X136128723Y-88015654D01*
X136097483Y-87990017D01*
X136071846Y-87958777D01*
X136052796Y-87923138D01*
X136041065Y-87884468D01*
X136036500Y-87838112D01*
X136036500Y-86761888D01*
X136041065Y-86715532D01*
X136052796Y-86676862D01*
X136071846Y-86641223D01*
X136097483Y-86609983D01*
X136128723Y-86584346D01*
X136164362Y-86565296D01*
X136203032Y-86553565D01*
X136249388Y-86549000D01*
X136900612Y-86549000D01*
X136946968Y-86553565D01*
G37*
G36*
X135071968Y-84453565D02*
G01*
X135110638Y-84465296D01*
X135146277Y-84484346D01*
X135177517Y-84509983D01*
X135203154Y-84541223D01*
X135222204Y-84576862D01*
X135233935Y-84615532D01*
X135238500Y-84661888D01*
X135238500Y-85738112D01*
X135233935Y-85784468D01*
X135222204Y-85823138D01*
X135203154Y-85858777D01*
X135177517Y-85890017D01*
X135146277Y-85915654D01*
X135110638Y-85934704D01*
X135071968Y-85946435D01*
X135025612Y-85951000D01*
X134374388Y-85951000D01*
X134328032Y-85946435D01*
X134289362Y-85934704D01*
X134253723Y-85915654D01*
X134222483Y-85890017D01*
X134196846Y-85858777D01*
X134177796Y-85823138D01*
X134166065Y-85784468D01*
X134161500Y-85738112D01*
X134161500Y-84661888D01*
X134166065Y-84615532D01*
X134177796Y-84576862D01*
X134196846Y-84541223D01*
X134222483Y-84509983D01*
X134253723Y-84484346D01*
X134289362Y-84465296D01*
X134328032Y-84453565D01*
X134374388Y-84449000D01*
X135025612Y-84449000D01*
X135071968Y-84453565D01*
G37*
G36*
X133346968Y-84453565D02*
G01*
X133385638Y-84465296D01*
X133421277Y-84484346D01*
X133452517Y-84509983D01*
X133478154Y-84541223D01*
X133497204Y-84576862D01*
X133508935Y-84615532D01*
X133513500Y-84661888D01*
X133513500Y-85738112D01*
X133508935Y-85784468D01*
X133497204Y-85823138D01*
X133478154Y-85858777D01*
X133452517Y-85890017D01*
X133421277Y-85915654D01*
X133385638Y-85934704D01*
X133346968Y-85946435D01*
X133300612Y-85951000D01*
X132649388Y-85951000D01*
X132603032Y-85946435D01*
X132564362Y-85934704D01*
X132528723Y-85915654D01*
X132497483Y-85890017D01*
X132471846Y-85858777D01*
X132452796Y-85823138D01*
X132441065Y-85784468D01*
X132436500Y-85738112D01*
X132436500Y-84661888D01*
X132441065Y-84615532D01*
X132452796Y-84576862D01*
X132471846Y-84541223D01*
X132497483Y-84509983D01*
X132528723Y-84484346D01*
X132564362Y-84465296D01*
X132603032Y-84453565D01*
X132649388Y-84449000D01*
X133300612Y-84449000D01*
X133346968Y-84453565D01*
G37*
G36*
X131471968Y-84453565D02*
G01*
X131510638Y-84465296D01*
X131546277Y-84484346D01*
X131577517Y-84509983D01*
X131603154Y-84541223D01*
X131622204Y-84576862D01*
X131633935Y-84615532D01*
X131638500Y-84661888D01*
X131638500Y-85738112D01*
X131633935Y-85784468D01*
X131622204Y-85823138D01*
X131603154Y-85858777D01*
X131577517Y-85890017D01*
X131546277Y-85915654D01*
X131510638Y-85934704D01*
X131471968Y-85946435D01*
X131425612Y-85951000D01*
X130774388Y-85951000D01*
X130728032Y-85946435D01*
X130689362Y-85934704D01*
X130653723Y-85915654D01*
X130622483Y-85890017D01*
X130596846Y-85858777D01*
X130577796Y-85823138D01*
X130566065Y-85784468D01*
X130561500Y-85738112D01*
X130561500Y-84661888D01*
X130566065Y-84615532D01*
X130577796Y-84576862D01*
X130596846Y-84541223D01*
X130622483Y-84509983D01*
X130653723Y-84484346D01*
X130689362Y-84465296D01*
X130728032Y-84453565D01*
X130774388Y-84449000D01*
X131425612Y-84449000D01*
X131471968Y-84453565D01*
G37*
G36*
X136946968Y-84453565D02*
G01*
X136985638Y-84465296D01*
X137021277Y-84484346D01*
X137052517Y-84509983D01*
X137078154Y-84541223D01*
X137097204Y-84576862D01*
X137108935Y-84615532D01*
X137113500Y-84661888D01*
X137113500Y-85738112D01*
X137108935Y-85784468D01*
X137097204Y-85823138D01*
X137078154Y-85858777D01*
X137052517Y-85890017D01*
X137021277Y-85915654D01*
X136985638Y-85934704D01*
X136946968Y-85946435D01*
X136900612Y-85951000D01*
X136249388Y-85951000D01*
X136203032Y-85946435D01*
X136164362Y-85934704D01*
X136128723Y-85915654D01*
X136097483Y-85890017D01*
X136071846Y-85858777D01*
X136052796Y-85823138D01*
X136041065Y-85784468D01*
X136036500Y-85738112D01*
X136036500Y-84661888D01*
X136041065Y-84615532D01*
X136052796Y-84576862D01*
X136071846Y-84541223D01*
X136097483Y-84509983D01*
X136128723Y-84484346D01*
X136164362Y-84465296D01*
X136203032Y-84453565D01*
X136249388Y-84449000D01*
X136900612Y-84449000D01*
X136946968Y-84453565D01*
G37*
G36*
X125671968Y-84353565D02*
G01*
X125710638Y-84365296D01*
X125746277Y-84384346D01*
X125777517Y-84409983D01*
X125803154Y-84441223D01*
X125822204Y-84476862D01*
X125833935Y-84515532D01*
X125838500Y-84561888D01*
X125838500Y-85638112D01*
X125833935Y-85684468D01*
X125822204Y-85723138D01*
X125803154Y-85758777D01*
X125777517Y-85790017D01*
X125746277Y-85815654D01*
X125710638Y-85834704D01*
X125671968Y-85846435D01*
X125625612Y-85851000D01*
X124974388Y-85851000D01*
X124928032Y-85846435D01*
X124889362Y-85834704D01*
X124853723Y-85815654D01*
X124822483Y-85790017D01*
X124796846Y-85758777D01*
X124777796Y-85723138D01*
X124766065Y-85684468D01*
X124761500Y-85638112D01*
X124761500Y-84561888D01*
X124766065Y-84515532D01*
X124777796Y-84476862D01*
X124796846Y-84441223D01*
X124822483Y-84409983D01*
X124853723Y-84384346D01*
X124889362Y-84365296D01*
X124928032Y-84353565D01*
X124974388Y-84349000D01*
X125625612Y-84349000D01*
X125671968Y-84353565D01*
G37*
G36*
X127546968Y-84353565D02*
G01*
X127585638Y-84365296D01*
X127621277Y-84384346D01*
X127652517Y-84409983D01*
X127678154Y-84441223D01*
X127697204Y-84476862D01*
X127708935Y-84515532D01*
X127713500Y-84561888D01*
X127713500Y-85638112D01*
X127708935Y-85684468D01*
X127697204Y-85723138D01*
X127678154Y-85758777D01*
X127652517Y-85790017D01*
X127621277Y-85815654D01*
X127585638Y-85834704D01*
X127546968Y-85846435D01*
X127500612Y-85851000D01*
X126849388Y-85851000D01*
X126803032Y-85846435D01*
X126764362Y-85834704D01*
X126728723Y-85815654D01*
X126697483Y-85790017D01*
X126671846Y-85758777D01*
X126652796Y-85723138D01*
X126641065Y-85684468D01*
X126636500Y-85638112D01*
X126636500Y-84561888D01*
X126641065Y-84515532D01*
X126652796Y-84476862D01*
X126671846Y-84441223D01*
X126697483Y-84409983D01*
X126728723Y-84384346D01*
X126764362Y-84365296D01*
X126803032Y-84353565D01*
X126849388Y-84349000D01*
X127500612Y-84349000D01*
X127546968Y-84353565D01*
G37*
G36*
X117771968Y-83153565D02*
G01*
X117810638Y-83165296D01*
X117846277Y-83184346D01*
X117877517Y-83209983D01*
X117903154Y-83241223D01*
X117922204Y-83276862D01*
X117933935Y-83315532D01*
X117938500Y-83361888D01*
X117938500Y-84438112D01*
X117933935Y-84484468D01*
X117922204Y-84523138D01*
X117903154Y-84558777D01*
X117877517Y-84590017D01*
X117846277Y-84615654D01*
X117810638Y-84634704D01*
X117771968Y-84646435D01*
X117725612Y-84651000D01*
X117074388Y-84651000D01*
X117028032Y-84646435D01*
X116989362Y-84634704D01*
X116953723Y-84615654D01*
X116922483Y-84590017D01*
X116896846Y-84558777D01*
X116877796Y-84523138D01*
X116866065Y-84484468D01*
X116861500Y-84438112D01*
X116861500Y-83361888D01*
X116866065Y-83315532D01*
X116877796Y-83276862D01*
X116896846Y-83241223D01*
X116922483Y-83209983D01*
X116953723Y-83184346D01*
X116989362Y-83165296D01*
X117028032Y-83153565D01*
X117074388Y-83149000D01*
X117725612Y-83149000D01*
X117771968Y-83153565D01*
G37*
G36*
X119646968Y-83153565D02*
G01*
X119685638Y-83165296D01*
X119721277Y-83184346D01*
X119752517Y-83209983D01*
X119778154Y-83241223D01*
X119797204Y-83276862D01*
X119808935Y-83315532D01*
X119813500Y-83361888D01*
X119813500Y-84438112D01*
X119808935Y-84484468D01*
X119797204Y-84523138D01*
X119778154Y-84558777D01*
X119752517Y-84590017D01*
X119721277Y-84615654D01*
X119685638Y-84634704D01*
X119646968Y-84646435D01*
X119600612Y-84651000D01*
X118949388Y-84651000D01*
X118903032Y-84646435D01*
X118864362Y-84634704D01*
X118828723Y-84615654D01*
X118797483Y-84590017D01*
X118771846Y-84558777D01*
X118752796Y-84523138D01*
X118741065Y-84484468D01*
X118736500Y-84438112D01*
X118736500Y-83361888D01*
X118741065Y-83315532D01*
X118752796Y-83276862D01*
X118771846Y-83241223D01*
X118797483Y-83209983D01*
X118828723Y-83184346D01*
X118864362Y-83165296D01*
X118903032Y-83153565D01*
X118949388Y-83149000D01*
X119600612Y-83149000D01*
X119646968Y-83153565D01*
G37*
G36*
X107628410Y-83595525D02*
G01*
X107713426Y-83621314D01*
X107791775Y-83663193D01*
X107860449Y-83719551D01*
X107916807Y-83788225D01*
X107958686Y-83866574D01*
X107984475Y-83951590D01*
X107993182Y-84040000D01*
X107984475Y-84128410D01*
X107958686Y-84213426D01*
X107916807Y-84291775D01*
X107860449Y-84360449D01*
X107791775Y-84416807D01*
X107713426Y-84458686D01*
X107628410Y-84484475D01*
X107562158Y-84491000D01*
X106917842Y-84491000D01*
X106851590Y-84484475D01*
X106766574Y-84458686D01*
X106688225Y-84416807D01*
X106619551Y-84360449D01*
X106563193Y-84291775D01*
X106521314Y-84213426D01*
X106495525Y-84128410D01*
X106486818Y-84040000D01*
X106495525Y-83951590D01*
X106521314Y-83866574D01*
X106563193Y-83788225D01*
X106619551Y-83719551D01*
X106688225Y-83663193D01*
X106766574Y-83621314D01*
X106851590Y-83595525D01*
X106917842Y-83589000D01*
X107562158Y-83589000D01*
X107628410Y-83595525D01*
G37*
G36*
X113899672Y-76388449D02*
G01*
X113899674Y-76388450D01*
X113899675Y-76388450D01*
X113968103Y-76416793D01*
X114029686Y-76457942D01*
X114082058Y-76510314D01*
X114123207Y-76571897D01*
X114151550Y-76640325D01*
X114151551Y-76640328D01*
X114166000Y-76712966D01*
X114166000Y-76787034D01*
X114165719Y-76788449D01*
X114151550Y-76859675D01*
X114123207Y-76928103D01*
X114082058Y-76989686D01*
X114029686Y-77042058D01*
X113968103Y-77083207D01*
X113899675Y-77111550D01*
X113899674Y-77111550D01*
X113899672Y-77111551D01*
X113827034Y-77126000D01*
X113752966Y-77126000D01*
X113680326Y-77111551D01*
X113636904Y-77093565D01*
X113613455Y-77086452D01*
X113589069Y-77084050D01*
X113564683Y-77086452D01*
X113541234Y-77093565D01*
X113519624Y-77105116D01*
X113500682Y-77120661D01*
X113485136Y-77139603D01*
X113473585Y-77161214D01*
X113466472Y-77184662D01*
X113451551Y-77259673D01*
X113451550Y-77259675D01*
X113423207Y-77328103D01*
X113382058Y-77389686D01*
X113329686Y-77442058D01*
X113323679Y-77446072D01*
X113304744Y-77461612D01*
X113289199Y-77480553D01*
X113277647Y-77502164D01*
X113270534Y-77525613D01*
X113268132Y-77549999D01*
X113270534Y-77574385D01*
X113277647Y-77597834D01*
X113289197Y-77619445D01*
X113304743Y-77638387D01*
X113323679Y-77653928D01*
X113329686Y-77657942D01*
X113382058Y-77710314D01*
X113423207Y-77771897D01*
X113447399Y-77830304D01*
X113451551Y-77840327D01*
X113466472Y-77915338D01*
X113473585Y-77938786D01*
X113485136Y-77960397D01*
X113500682Y-77979339D01*
X113519624Y-77994884D01*
X113541234Y-78006435D01*
X113564683Y-78013548D01*
X113589069Y-78015950D01*
X113613456Y-78013548D01*
X113636904Y-78006435D01*
X113680326Y-77988449D01*
X113752966Y-77974000D01*
X113827034Y-77974000D01*
X113899672Y-77988449D01*
X113899674Y-77988450D01*
X113899675Y-77988450D01*
X113968103Y-78016793D01*
X114029686Y-78057942D01*
X114082058Y-78110314D01*
X114123207Y-78171897D01*
X114132518Y-78194377D01*
X114151551Y-78240328D01*
X114166000Y-78312966D01*
X114166000Y-78387034D01*
X114155785Y-78438388D01*
X114151550Y-78459675D01*
X114123207Y-78528103D01*
X114082058Y-78589686D01*
X114029686Y-78642058D01*
X114023679Y-78646072D01*
X114004744Y-78661612D01*
X113989199Y-78680553D01*
X113977647Y-78702164D01*
X113970534Y-78725613D01*
X113968132Y-78749999D01*
X113970534Y-78774385D01*
X113977647Y-78797834D01*
X113989197Y-78819445D01*
X114004743Y-78838387D01*
X114023679Y-78853928D01*
X114029686Y-78857942D01*
X114082058Y-78910314D01*
X114123207Y-78971897D01*
X114151550Y-79040325D01*
X114151551Y-79040328D01*
X114166000Y-79112966D01*
X114166000Y-79187034D01*
X114151551Y-79259672D01*
X114151550Y-79259674D01*
X114151550Y-79259675D01*
X114123207Y-79328103D01*
X114082058Y-79389686D01*
X114029686Y-79442058D01*
X114023679Y-79446072D01*
X114004744Y-79461612D01*
X113989199Y-79480553D01*
X113977647Y-79502164D01*
X113970534Y-79525613D01*
X113968132Y-79549999D01*
X113970534Y-79574385D01*
X113977647Y-79597834D01*
X113989197Y-79619445D01*
X114004743Y-79638387D01*
X114023679Y-79653928D01*
X114029686Y-79657942D01*
X114082058Y-79710314D01*
X114123207Y-79771897D01*
X114151550Y-79840325D01*
X114151551Y-79840328D01*
X114166000Y-79912966D01*
X114166000Y-79987034D01*
X114165719Y-79988449D01*
X114151550Y-80059675D01*
X114123207Y-80128103D01*
X114082058Y-80189686D01*
X114029686Y-80242058D01*
X114023679Y-80246072D01*
X114004744Y-80261612D01*
X113989199Y-80280553D01*
X113977647Y-80302164D01*
X113970534Y-80325613D01*
X113968132Y-80349999D01*
X113970534Y-80374385D01*
X113977647Y-80397834D01*
X113989197Y-80419445D01*
X114004743Y-80438387D01*
X114023679Y-80453928D01*
X114029686Y-80457942D01*
X114082058Y-80510314D01*
X114123207Y-80571897D01*
X114151550Y-80640325D01*
X114151551Y-80640328D01*
X114166000Y-80712966D01*
X114166000Y-80787034D01*
X114155221Y-80841223D01*
X114151550Y-80859675D01*
X114123207Y-80928103D01*
X114082058Y-80989686D01*
X114029686Y-81042058D01*
X113968103Y-81083207D01*
X113899675Y-81111550D01*
X113899674Y-81111550D01*
X113899672Y-81111551D01*
X113827034Y-81126000D01*
X113752966Y-81126000D01*
X113680326Y-81111551D01*
X113636904Y-81093565D01*
X113613455Y-81086452D01*
X113589069Y-81084050D01*
X113564683Y-81086452D01*
X113541234Y-81093565D01*
X113519624Y-81105116D01*
X113500682Y-81120661D01*
X113485136Y-81139603D01*
X113473585Y-81161214D01*
X113466472Y-81184662D01*
X113451551Y-81259673D01*
X113451550Y-81259675D01*
X113423207Y-81328103D01*
X113382058Y-81389686D01*
X113329686Y-81442058D01*
X113323679Y-81446072D01*
X113304744Y-81461612D01*
X113289199Y-81480553D01*
X113277647Y-81502164D01*
X113270534Y-81525613D01*
X113268132Y-81549999D01*
X113270534Y-81574385D01*
X113277647Y-81597834D01*
X113289197Y-81619445D01*
X113304743Y-81638387D01*
X113323679Y-81653928D01*
X113329686Y-81657942D01*
X113382058Y-81710314D01*
X113423207Y-81771897D01*
X113447399Y-81830304D01*
X113451551Y-81840327D01*
X113466472Y-81915338D01*
X113473585Y-81938786D01*
X113485136Y-81960397D01*
X113500682Y-81979339D01*
X113519624Y-81994884D01*
X113541234Y-82006435D01*
X113564683Y-82013548D01*
X113589069Y-82015950D01*
X113613456Y-82013548D01*
X113636904Y-82006435D01*
X113680326Y-81988449D01*
X113752966Y-81974000D01*
X113827034Y-81974000D01*
X113899672Y-81988449D01*
X113899674Y-81988450D01*
X113899675Y-81988450D01*
X113968103Y-82016793D01*
X114029686Y-82057942D01*
X114082058Y-82110314D01*
X114123207Y-82171897D01*
X114151550Y-82240325D01*
X114151551Y-82240328D01*
X114166000Y-82312966D01*
X114166000Y-82387034D01*
X114151551Y-82459674D01*
X114141405Y-82484169D01*
X114134292Y-82507618D01*
X114131890Y-82532004D01*
X114134292Y-82556390D01*
X114141405Y-82579839D01*
X114152956Y-82601450D01*
X114168501Y-82620392D01*
X114187443Y-82635937D01*
X114209054Y-82647488D01*
X114232503Y-82654601D01*
X114256889Y-82657003D01*
X114281275Y-82654601D01*
X114293175Y-82651621D01*
X114295415Y-82650941D01*
X114295416Y-82650941D01*
X114366292Y-82629441D01*
X114366293Y-82629441D01*
X114366296Y-82629440D01*
X114440000Y-82622181D01*
X114513707Y-82629440D01*
X114537716Y-82636723D01*
X114561750Y-82641503D01*
X114586254Y-82641503D01*
X114610287Y-82636722D01*
X114632926Y-82627345D01*
X114650000Y-82615936D01*
X114649009Y-82625999D01*
X114651411Y-82650385D01*
X114658524Y-82673834D01*
X114670075Y-82695445D01*
X114685620Y-82714387D01*
X114694710Y-82722625D01*
X114707159Y-82732841D01*
X114754146Y-82790096D01*
X114789058Y-82855411D01*
X114810560Y-82926294D01*
X114816000Y-82981529D01*
X114816000Y-83318472D01*
X114810560Y-83373710D01*
X114789060Y-83444585D01*
X114754146Y-83509904D01*
X114707159Y-83567159D01*
X114649906Y-83614145D01*
X114584583Y-83649060D01*
X114513709Y-83670560D01*
X114440000Y-83677819D01*
X114366290Y-83670560D01*
X114295415Y-83649060D01*
X114230096Y-83614146D01*
X114172842Y-83567159D01*
X114160645Y-83552297D01*
X114143318Y-83534970D01*
X114122944Y-83521356D01*
X114100305Y-83511979D01*
X114076272Y-83507198D01*
X114051768Y-83507198D01*
X114027735Y-83511978D01*
X114005096Y-83521355D01*
X113984721Y-83534969D01*
X113967394Y-83552296D01*
X113953780Y-83572670D01*
X113944403Y-83595309D01*
X113939622Y-83619342D01*
X113939622Y-83643846D01*
X113943182Y-83679999D01*
X113934475Y-83768410D01*
X113908686Y-83853426D01*
X113866807Y-83931775D01*
X113810449Y-84000449D01*
X113741775Y-84056807D01*
X113663426Y-84098686D01*
X113578410Y-84124475D01*
X113512158Y-84131000D01*
X112867842Y-84131000D01*
X112801590Y-84124475D01*
X112716574Y-84098686D01*
X112638225Y-84056807D01*
X112569551Y-84000449D01*
X112513193Y-83931775D01*
X112471314Y-83853426D01*
X112445525Y-83768410D01*
X112436818Y-83680000D01*
X112445525Y-83591590D01*
X112471314Y-83506574D01*
X112513193Y-83428225D01*
X112569551Y-83359551D01*
X112638225Y-83303193D01*
X112716574Y-83261314D01*
X112801590Y-83235525D01*
X112867842Y-83229000D01*
X113512158Y-83229000D01*
X113578410Y-83235525D01*
X113663426Y-83261314D01*
X113741775Y-83303193D01*
X113810449Y-83359552D01*
X113842375Y-83398454D01*
X113859702Y-83415781D01*
X113880077Y-83429395D01*
X113902715Y-83438772D01*
X113926749Y-83443553D01*
X113951253Y-83443553D01*
X113975286Y-83438773D01*
X113997925Y-83429395D01*
X114018299Y-83415782D01*
X114035626Y-83398455D01*
X114049240Y-83378080D01*
X114058617Y-83355442D01*
X114063398Y-83331408D01*
X114064000Y-83319156D01*
X114064000Y-82981528D01*
X114069440Y-82926292D01*
X114091621Y-82853175D01*
X114096402Y-82829142D01*
X114096402Y-82804638D01*
X114091622Y-82780604D01*
X114082245Y-82757965D01*
X114068632Y-82737591D01*
X114051305Y-82720263D01*
X114030931Y-82706649D01*
X114008292Y-82697272D01*
X113984259Y-82692491D01*
X113959755Y-82692491D01*
X113935721Y-82697271D01*
X113924168Y-82701405D01*
X113899674Y-82711551D01*
X113827034Y-82726000D01*
X113752966Y-82726000D01*
X113680328Y-82711551D01*
X113680326Y-82711550D01*
X113680325Y-82711550D01*
X113611897Y-82683207D01*
X113550314Y-82642058D01*
X113497942Y-82589686D01*
X113456793Y-82528103D01*
X113428450Y-82459675D01*
X113428449Y-82459673D01*
X113413528Y-82384662D01*
X113406415Y-82361214D01*
X113394864Y-82339603D01*
X113379318Y-82320661D01*
X113360376Y-82305116D01*
X113338766Y-82293565D01*
X113315317Y-82286452D01*
X113290931Y-82284050D01*
X113266544Y-82286452D01*
X113243096Y-82293565D01*
X113199674Y-82311551D01*
X113127034Y-82326000D01*
X113052966Y-82326000D01*
X112980328Y-82311551D01*
X112980326Y-82311550D01*
X112980325Y-82311550D01*
X112911897Y-82283207D01*
X112850314Y-82242058D01*
X112797942Y-82189686D01*
X112756793Y-82128103D01*
X112728450Y-82059675D01*
X112724161Y-82038112D01*
X112714000Y-81987034D01*
X112714000Y-81912966D01*
X112728449Y-81840328D01*
X112728450Y-81840325D01*
X112756793Y-81771897D01*
X112797942Y-81710314D01*
X112850314Y-81657942D01*
X112856321Y-81653928D01*
X112875256Y-81638388D01*
X112890801Y-81619447D01*
X112902353Y-81597836D01*
X112909466Y-81574387D01*
X112911868Y-81550001D01*
X112909466Y-81525615D01*
X112902353Y-81502166D01*
X112890803Y-81480555D01*
X112875257Y-81461613D01*
X112856321Y-81446072D01*
X112850314Y-81442058D01*
X112797942Y-81389686D01*
X112756793Y-81328103D01*
X112728450Y-81259675D01*
X112728450Y-81259674D01*
X112728449Y-81259672D01*
X112714000Y-81187034D01*
X112714000Y-81112966D01*
X112728449Y-81040328D01*
X112737594Y-81018250D01*
X112756793Y-80971897D01*
X112797942Y-80910314D01*
X112850314Y-80857942D01*
X112856321Y-80853928D01*
X112875256Y-80838388D01*
X112890801Y-80819447D01*
X112902353Y-80797836D01*
X112909466Y-80774387D01*
X112911868Y-80750001D01*
X112909466Y-80725615D01*
X112902353Y-80702166D01*
X112890803Y-80680555D01*
X112875257Y-80661613D01*
X112856321Y-80646072D01*
X112850314Y-80642058D01*
X112797942Y-80589686D01*
X112756793Y-80528103D01*
X112728450Y-80459675D01*
X112716149Y-80397834D01*
X112714000Y-80387034D01*
X112714000Y-80312966D01*
X112728449Y-80240328D01*
X112728450Y-80240325D01*
X112756793Y-80171897D01*
X112797942Y-80110314D01*
X112850314Y-80057942D01*
X112911897Y-80016793D01*
X112980325Y-79988450D01*
X112980326Y-79988450D01*
X112980328Y-79988449D01*
X113052966Y-79974000D01*
X113127034Y-79974000D01*
X113199674Y-79988449D01*
X113243096Y-80006435D01*
X113266545Y-80013548D01*
X113290931Y-80015950D01*
X113315317Y-80013548D01*
X113338766Y-80006435D01*
X113360376Y-79994884D01*
X113379318Y-79979339D01*
X113394864Y-79960397D01*
X113406415Y-79938786D01*
X113413528Y-79915338D01*
X113428449Y-79840327D01*
X113432601Y-79830304D01*
X113456793Y-79771897D01*
X113497942Y-79710314D01*
X113550314Y-79657942D01*
X113556321Y-79653928D01*
X113575256Y-79638388D01*
X113590801Y-79619447D01*
X113602353Y-79597836D01*
X113609466Y-79574387D01*
X113611868Y-79550001D01*
X113609466Y-79525615D01*
X113602353Y-79502166D01*
X113590803Y-79480555D01*
X113575257Y-79461613D01*
X113556321Y-79446072D01*
X113550314Y-79442058D01*
X113497942Y-79389686D01*
X113456793Y-79328103D01*
X113428450Y-79259675D01*
X113428449Y-79259673D01*
X113413528Y-79184662D01*
X113406415Y-79161214D01*
X113394864Y-79139603D01*
X113379318Y-79120661D01*
X113360376Y-79105116D01*
X113338766Y-79093565D01*
X113315317Y-79086452D01*
X113290931Y-79084050D01*
X113266544Y-79086452D01*
X113243096Y-79093565D01*
X113199674Y-79111551D01*
X113127034Y-79126000D01*
X113052966Y-79126000D01*
X112980328Y-79111551D01*
X112980326Y-79111550D01*
X112980325Y-79111550D01*
X112911897Y-79083207D01*
X112850314Y-79042058D01*
X112797942Y-78989686D01*
X112756793Y-78928103D01*
X112728450Y-78859675D01*
X112716149Y-78797834D01*
X112714000Y-78787034D01*
X112714000Y-78712966D01*
X112728449Y-78640328D01*
X112728450Y-78640325D01*
X112756793Y-78571897D01*
X112797942Y-78510314D01*
X112850314Y-78457942D01*
X112856321Y-78453928D01*
X112875256Y-78438388D01*
X112890801Y-78419447D01*
X112902353Y-78397836D01*
X112909466Y-78374387D01*
X112911868Y-78350001D01*
X112909466Y-78325615D01*
X112902353Y-78302166D01*
X112890803Y-78280555D01*
X112875257Y-78261613D01*
X112856321Y-78246072D01*
X112850314Y-78242058D01*
X112797942Y-78189686D01*
X112756793Y-78128103D01*
X112728450Y-78059675D01*
X112714282Y-77988449D01*
X112714000Y-77987034D01*
X112714000Y-77912966D01*
X112728449Y-77840328D01*
X112728450Y-77840325D01*
X112756793Y-77771897D01*
X112797942Y-77710314D01*
X112850314Y-77657942D01*
X112856321Y-77653928D01*
X112875256Y-77638388D01*
X112890801Y-77619447D01*
X112902353Y-77597836D01*
X112909466Y-77574387D01*
X112911868Y-77550001D01*
X112909466Y-77525615D01*
X112902353Y-77502166D01*
X112890803Y-77480555D01*
X112875257Y-77461613D01*
X112856321Y-77446072D01*
X112850314Y-77442058D01*
X112797942Y-77389686D01*
X112756793Y-77328103D01*
X112728450Y-77259675D01*
X112728450Y-77259674D01*
X112728449Y-77259672D01*
X112714000Y-77187034D01*
X112714000Y-77112966D01*
X112728449Y-77040328D01*
X112728450Y-77040325D01*
X112756793Y-76971897D01*
X112797942Y-76910314D01*
X112850314Y-76857942D01*
X112911897Y-76816793D01*
X112980325Y-76788450D01*
X112980326Y-76788450D01*
X112980328Y-76788449D01*
X113052966Y-76774000D01*
X113127034Y-76774000D01*
X113199674Y-76788449D01*
X113243096Y-76806435D01*
X113266545Y-76813548D01*
X113290931Y-76815950D01*
X113315317Y-76813548D01*
X113338766Y-76806435D01*
X113360376Y-76794884D01*
X113379318Y-76779339D01*
X113394864Y-76760397D01*
X113406415Y-76738786D01*
X113413528Y-76715338D01*
X113428449Y-76640327D01*
X113445567Y-76599000D01*
X113456793Y-76571897D01*
X113497942Y-76510314D01*
X113550314Y-76457942D01*
X113611897Y-76416793D01*
X113680325Y-76388450D01*
X113680326Y-76388450D01*
X113680328Y-76388449D01*
X113752966Y-76374000D01*
X113827034Y-76374000D01*
X113899672Y-76388449D01*
G37*
G36*
X134576000Y-83526000D02*
G01*
X125574000Y-83526000D01*
X125574000Y-81674000D01*
X134576000Y-81674000D01*
X134576000Y-83526000D01*
G37*
G36*
X115501000Y-82501000D02*
G01*
X114774008Y-82501000D01*
X114749622Y-82503402D01*
X114726173Y-82510515D01*
X114704562Y-82522066D01*
X114697391Y-82527951D01*
X114699000Y-82517106D01*
X114699000Y-76599000D01*
X115501000Y-76599000D01*
X115501000Y-82501000D01*
G37*
G36*
X121471968Y-80753565D02*
G01*
X121510638Y-80765296D01*
X121546277Y-80784346D01*
X121577517Y-80809983D01*
X121603154Y-80841223D01*
X121622204Y-80876862D01*
X121633935Y-80915532D01*
X121638500Y-80961888D01*
X121638500Y-82038112D01*
X121633935Y-82084468D01*
X121622204Y-82123138D01*
X121603154Y-82158777D01*
X121577517Y-82190017D01*
X121546277Y-82215654D01*
X121510638Y-82234704D01*
X121471968Y-82246435D01*
X121425612Y-82251000D01*
X120774388Y-82251000D01*
X120728032Y-82246435D01*
X120689362Y-82234704D01*
X120653723Y-82215654D01*
X120622483Y-82190017D01*
X120596846Y-82158777D01*
X120577796Y-82123138D01*
X120566065Y-82084468D01*
X120561500Y-82038112D01*
X120561500Y-80961888D01*
X120566065Y-80915532D01*
X120577796Y-80876862D01*
X120596846Y-80841223D01*
X120622483Y-80809983D01*
X120653723Y-80784346D01*
X120689362Y-80765296D01*
X120728032Y-80753565D01*
X120774388Y-80749000D01*
X121425612Y-80749000D01*
X121471968Y-80753565D01*
G37*
G36*
X123346968Y-80753565D02*
G01*
X123385638Y-80765296D01*
X123421277Y-80784346D01*
X123452517Y-80809983D01*
X123478154Y-80841223D01*
X123497204Y-80876862D01*
X123508935Y-80915532D01*
X123513500Y-80961888D01*
X123513500Y-82038112D01*
X123508935Y-82084468D01*
X123497204Y-82123138D01*
X123478154Y-82158777D01*
X123452517Y-82190017D01*
X123421277Y-82215654D01*
X123385638Y-82234704D01*
X123346968Y-82246435D01*
X123300612Y-82251000D01*
X122649388Y-82251000D01*
X122603032Y-82246435D01*
X122564362Y-82234704D01*
X122528723Y-82215654D01*
X122497483Y-82190017D01*
X122471846Y-82158777D01*
X122452796Y-82123138D01*
X122441065Y-82084468D01*
X122436500Y-82038112D01*
X122436500Y-80961888D01*
X122441065Y-80915532D01*
X122452796Y-80876862D01*
X122471846Y-80841223D01*
X122497483Y-80809983D01*
X122528723Y-80784346D01*
X122564362Y-80765296D01*
X122603032Y-80753565D01*
X122649388Y-80749000D01*
X123300612Y-80749000D01*
X123346968Y-80753565D01*
G37*
G36*
X119726000Y-81681000D02*
G01*
X117074000Y-81681000D01*
X117074000Y-80519000D01*
X119726000Y-80519000D01*
X119726000Y-81681000D01*
G37*
G36*
X144351000Y-80361000D02*
G01*
X141849000Y-80361000D01*
X141849000Y-79519000D01*
X144351000Y-79519000D01*
X144351000Y-80361000D01*
G37*
G36*
X140451000Y-80361000D02*
G01*
X137949000Y-80361000D01*
X137949000Y-79519000D01*
X140451000Y-79519000D01*
X140451000Y-80361000D01*
G37*
G36*
X121496968Y-78153565D02*
G01*
X121535638Y-78165296D01*
X121571277Y-78184346D01*
X121602517Y-78209983D01*
X121628154Y-78241223D01*
X121647204Y-78276862D01*
X121658935Y-78315532D01*
X121663500Y-78361888D01*
X121663500Y-79438112D01*
X121658935Y-79484468D01*
X121647204Y-79523138D01*
X121628154Y-79558777D01*
X121602517Y-79590017D01*
X121571277Y-79615654D01*
X121535638Y-79634704D01*
X121496968Y-79646435D01*
X121450612Y-79651000D01*
X120799388Y-79651000D01*
X120753032Y-79646435D01*
X120714362Y-79634704D01*
X120678723Y-79615654D01*
X120647483Y-79590017D01*
X120621846Y-79558777D01*
X120602796Y-79523138D01*
X120591065Y-79484468D01*
X120586500Y-79438112D01*
X120586500Y-78361888D01*
X120591065Y-78315532D01*
X120602796Y-78276862D01*
X120621846Y-78241223D01*
X120647483Y-78209983D01*
X120678723Y-78184346D01*
X120714362Y-78165296D01*
X120753032Y-78153565D01*
X120799388Y-78149000D01*
X121450612Y-78149000D01*
X121496968Y-78153565D01*
G37*
G36*
X123371968Y-78153565D02*
G01*
X123410638Y-78165296D01*
X123446277Y-78184346D01*
X123477517Y-78209983D01*
X123503154Y-78241223D01*
X123522204Y-78276862D01*
X123533935Y-78315532D01*
X123538500Y-78361888D01*
X123538500Y-79438112D01*
X123533935Y-79484468D01*
X123522204Y-79523138D01*
X123503154Y-79558777D01*
X123477517Y-79590017D01*
X123446277Y-79615654D01*
X123410638Y-79634704D01*
X123371968Y-79646435D01*
X123325612Y-79651000D01*
X122674388Y-79651000D01*
X122628032Y-79646435D01*
X122589362Y-79634704D01*
X122553723Y-79615654D01*
X122522483Y-79590017D01*
X122496846Y-79558777D01*
X122477796Y-79523138D01*
X122466065Y-79484468D01*
X122461500Y-79438112D01*
X122461500Y-78361888D01*
X122466065Y-78315532D01*
X122477796Y-78276862D01*
X122496846Y-78241223D01*
X122522483Y-78209983D01*
X122553723Y-78184346D01*
X122589362Y-78165296D01*
X122628032Y-78153565D01*
X122674388Y-78149000D01*
X123325612Y-78149000D01*
X123371968Y-78153565D01*
G37*
G36*
X119726000Y-79481000D02*
G01*
X117074000Y-79481000D01*
X117074000Y-78319000D01*
X119726000Y-78319000D01*
X119726000Y-79481000D01*
G37*
G36*
X140451000Y-79091000D02*
G01*
X137949000Y-79091000D01*
X137949000Y-78249000D01*
X140451000Y-78249000D01*
X140451000Y-79091000D01*
G37*
G36*
X144351000Y-79091000D02*
G01*
X141849000Y-79091000D01*
X141849000Y-78249000D01*
X144351000Y-78249000D01*
X144351000Y-79091000D01*
G37*
G36*
X140451000Y-77821000D02*
G01*
X137949000Y-77821000D01*
X137949000Y-76979000D01*
X140451000Y-76979000D01*
X140451000Y-77821000D01*
G37*
G36*
X144351000Y-77821000D02*
G01*
X141849000Y-77821000D01*
X141849000Y-76979000D01*
X144351000Y-76979000D01*
X144351000Y-77821000D01*
G37*
G36*
X121471968Y-75853565D02*
G01*
X121510638Y-75865296D01*
X121546277Y-75884346D01*
X121577517Y-75909983D01*
X121603154Y-75941223D01*
X121622204Y-75976862D01*
X121633935Y-76015532D01*
X121638500Y-76061888D01*
X121638500Y-77138112D01*
X121633935Y-77184468D01*
X121622204Y-77223138D01*
X121603154Y-77258777D01*
X121577517Y-77290017D01*
X121546277Y-77315654D01*
X121510638Y-77334704D01*
X121471968Y-77346435D01*
X121425612Y-77351000D01*
X120774388Y-77351000D01*
X120728032Y-77346435D01*
X120689362Y-77334704D01*
X120653723Y-77315654D01*
X120622483Y-77290017D01*
X120596846Y-77258777D01*
X120577796Y-77223138D01*
X120566065Y-77184468D01*
X120561500Y-77138112D01*
X120561500Y-76061888D01*
X120566065Y-76015532D01*
X120577796Y-75976862D01*
X120596846Y-75941223D01*
X120622483Y-75909983D01*
X120653723Y-75884346D01*
X120689362Y-75865296D01*
X120728032Y-75853565D01*
X120774388Y-75849000D01*
X121425612Y-75849000D01*
X121471968Y-75853565D01*
G37*
G36*
X123346968Y-75853565D02*
G01*
X123385638Y-75865296D01*
X123421277Y-75884346D01*
X123452517Y-75909983D01*
X123478154Y-75941223D01*
X123497204Y-75976862D01*
X123508935Y-76015532D01*
X123513500Y-76061888D01*
X123513500Y-77138112D01*
X123508935Y-77184468D01*
X123497204Y-77223138D01*
X123478154Y-77258777D01*
X123452517Y-77290017D01*
X123421277Y-77315654D01*
X123385638Y-77334704D01*
X123346968Y-77346435D01*
X123300612Y-77351000D01*
X122649388Y-77351000D01*
X122603032Y-77346435D01*
X122564362Y-77334704D01*
X122528723Y-77315654D01*
X122497483Y-77290017D01*
X122471846Y-77258777D01*
X122452796Y-77223138D01*
X122441065Y-77184468D01*
X122436500Y-77138112D01*
X122436500Y-76061888D01*
X122441065Y-76015532D01*
X122452796Y-75976862D01*
X122471846Y-75941223D01*
X122497483Y-75909983D01*
X122528723Y-75884346D01*
X122564362Y-75865296D01*
X122603032Y-75853565D01*
X122649388Y-75849000D01*
X123300612Y-75849000D01*
X123346968Y-75853565D01*
G37*
G36*
X134576000Y-76326000D02*
G01*
X125574000Y-76326000D01*
X125574000Y-74474000D01*
X134576000Y-74474000D01*
X134576000Y-76326000D01*
G37*
G36*
X114549672Y-75588449D02*
G01*
X114549674Y-75588450D01*
X114549675Y-75588450D01*
X114618103Y-75616793D01*
X114679686Y-75657942D01*
X114732058Y-75710314D01*
X114773207Y-75771897D01*
X114800871Y-75838686D01*
X114801551Y-75840328D01*
X114816000Y-75912966D01*
X114816000Y-75987033D01*
X114801550Y-76059675D01*
X114773207Y-76128103D01*
X114732058Y-76189686D01*
X114679686Y-76242058D01*
X114618103Y-76283207D01*
X114549675Y-76311550D01*
X114549674Y-76311550D01*
X114549672Y-76311551D01*
X114477034Y-76326000D01*
X114402966Y-76326000D01*
X114330328Y-76311551D01*
X114330326Y-76311550D01*
X114330325Y-76311550D01*
X114261897Y-76283207D01*
X114200314Y-76242058D01*
X114147942Y-76189686D01*
X114106793Y-76128103D01*
X114078450Y-76059675D01*
X114064000Y-75987033D01*
X114064000Y-75912966D01*
X114078449Y-75840328D01*
X114079129Y-75838686D01*
X114106793Y-75771897D01*
X114147942Y-75710314D01*
X114200314Y-75657942D01*
X114261897Y-75616793D01*
X114330325Y-75588450D01*
X114330326Y-75588450D01*
X114330328Y-75588449D01*
X114402966Y-75574000D01*
X114477034Y-75574000D01*
X114549672Y-75588449D01*
G37*
G36*
X113578410Y-74975525D02*
G01*
X113663426Y-75001314D01*
X113741775Y-75043193D01*
X113810449Y-75099551D01*
X113866807Y-75168225D01*
X113908686Y-75246574D01*
X113934475Y-75331590D01*
X113943182Y-75420000D01*
X113934475Y-75508410D01*
X113908686Y-75593426D01*
X113866807Y-75671775D01*
X113810449Y-75740449D01*
X113741775Y-75796807D01*
X113663426Y-75838686D01*
X113578410Y-75864475D01*
X113512158Y-75871000D01*
X112867842Y-75871000D01*
X112801590Y-75864475D01*
X112716574Y-75838686D01*
X112638225Y-75796807D01*
X112569551Y-75740449D01*
X112513193Y-75671775D01*
X112471314Y-75593426D01*
X112445525Y-75508410D01*
X112436818Y-75420000D01*
X112445525Y-75331590D01*
X112471314Y-75246574D01*
X112513193Y-75168225D01*
X112569551Y-75099551D01*
X112638225Y-75043193D01*
X112716574Y-75001314D01*
X112801590Y-74975525D01*
X112867842Y-74969000D01*
X113512158Y-74969000D01*
X113578410Y-74975525D01*
G37*
G36*
X107628410Y-74615525D02*
G01*
X107713426Y-74641314D01*
X107791775Y-74683193D01*
X107860449Y-74739551D01*
X107916807Y-74808225D01*
X107958686Y-74886574D01*
X107984475Y-74971590D01*
X107993182Y-75060000D01*
X107984475Y-75148410D01*
X107958686Y-75233426D01*
X107916807Y-75311775D01*
X107860449Y-75380449D01*
X107791775Y-75436807D01*
X107713426Y-75478686D01*
X107628410Y-75504475D01*
X107562158Y-75511000D01*
X106917842Y-75511000D01*
X106851590Y-75504475D01*
X106766574Y-75478686D01*
X106688225Y-75436807D01*
X106619551Y-75380449D01*
X106563193Y-75311775D01*
X106521314Y-75233426D01*
X106495525Y-75148410D01*
X106486818Y-75060000D01*
X106495525Y-74971590D01*
X106521314Y-74886574D01*
X106563193Y-74808225D01*
X106619551Y-74739551D01*
X106688225Y-74683193D01*
X106766574Y-74641314D01*
X106851590Y-74615525D01*
X106917842Y-74609000D01*
X107562158Y-74609000D01*
X107628410Y-74615525D01*
G37*
G36*
X123346968Y-73953565D02*
G01*
X123385638Y-73965296D01*
X123421277Y-73984346D01*
X123452517Y-74009983D01*
X123478154Y-74041223D01*
X123497204Y-74076862D01*
X123508935Y-74115532D01*
X123513500Y-74161888D01*
X123513500Y-75238112D01*
X123508935Y-75284468D01*
X123497204Y-75323138D01*
X123478154Y-75358777D01*
X123452517Y-75390017D01*
X123421277Y-75415654D01*
X123385638Y-75434704D01*
X123346968Y-75446435D01*
X123300612Y-75451000D01*
X122649388Y-75451000D01*
X122603032Y-75446435D01*
X122564362Y-75434704D01*
X122528723Y-75415654D01*
X122497483Y-75390017D01*
X122471846Y-75358777D01*
X122452796Y-75323138D01*
X122441065Y-75284468D01*
X122436500Y-75238112D01*
X122436500Y-74161888D01*
X122441065Y-74115532D01*
X122452796Y-74076862D01*
X122471846Y-74041223D01*
X122497483Y-74009983D01*
X122528723Y-73984346D01*
X122564362Y-73965296D01*
X122603032Y-73953565D01*
X122649388Y-73949000D01*
X123300612Y-73949000D01*
X123346968Y-73953565D01*
G37*
G36*
X121471968Y-73953565D02*
G01*
X121510638Y-73965296D01*
X121546277Y-73984346D01*
X121577517Y-74009983D01*
X121603154Y-74041223D01*
X121622204Y-74076862D01*
X121633935Y-74115532D01*
X121638500Y-74161888D01*
X121638500Y-75238112D01*
X121633935Y-75284468D01*
X121622204Y-75323138D01*
X121603154Y-75358777D01*
X121577517Y-75390017D01*
X121546277Y-75415654D01*
X121510638Y-75434704D01*
X121471968Y-75446435D01*
X121425612Y-75451000D01*
X120774388Y-75451000D01*
X120728032Y-75446435D01*
X120689362Y-75434704D01*
X120653723Y-75415654D01*
X120622483Y-75390017D01*
X120596846Y-75358777D01*
X120577796Y-75323138D01*
X120566065Y-75284468D01*
X120561500Y-75238112D01*
X120561500Y-74161888D01*
X120566065Y-74115532D01*
X120577796Y-74076862D01*
X120596846Y-74041223D01*
X120622483Y-74009983D01*
X120653723Y-73984346D01*
X120689362Y-73965296D01*
X120728032Y-73953565D01*
X120774388Y-73949000D01*
X121425612Y-73949000D01*
X121471968Y-73953565D01*
G37*
G36*
X122246968Y-71253565D02*
G01*
X122285638Y-71265296D01*
X122321277Y-71284346D01*
X122352517Y-71309983D01*
X122378154Y-71341223D01*
X122397204Y-71376862D01*
X122408935Y-71415532D01*
X122413500Y-71461888D01*
X122413500Y-72538112D01*
X122408935Y-72584468D01*
X122397204Y-72623138D01*
X122378154Y-72658777D01*
X122352517Y-72690017D01*
X122321277Y-72715654D01*
X122285638Y-72734704D01*
X122246968Y-72746435D01*
X122200612Y-72751000D01*
X121549388Y-72751000D01*
X121503032Y-72746435D01*
X121464362Y-72734704D01*
X121428723Y-72715654D01*
X121397483Y-72690017D01*
X121371846Y-72658777D01*
X121352796Y-72623138D01*
X121341065Y-72584468D01*
X121336500Y-72538112D01*
X121336500Y-71461888D01*
X121341065Y-71415532D01*
X121352796Y-71376862D01*
X121371846Y-71341223D01*
X121397483Y-71309983D01*
X121428723Y-71284346D01*
X121464362Y-71265296D01*
X121503032Y-71253565D01*
X121549388Y-71249000D01*
X122200612Y-71249000D01*
X122246968Y-71253565D01*
G37*
G36*
X120371968Y-71253565D02*
G01*
X120410638Y-71265296D01*
X120446277Y-71284346D01*
X120477517Y-71309983D01*
X120503154Y-71341223D01*
X120522204Y-71376862D01*
X120533935Y-71415532D01*
X120538500Y-71461888D01*
X120538500Y-72538112D01*
X120533935Y-72584468D01*
X120522204Y-72623138D01*
X120503154Y-72658777D01*
X120477517Y-72690017D01*
X120446277Y-72715654D01*
X120410638Y-72734704D01*
X120371968Y-72746435D01*
X120325612Y-72751000D01*
X119674388Y-72751000D01*
X119628032Y-72746435D01*
X119589362Y-72734704D01*
X119553723Y-72715654D01*
X119522483Y-72690017D01*
X119496846Y-72658777D01*
X119477796Y-72623138D01*
X119466065Y-72584468D01*
X119461500Y-72538112D01*
X119461500Y-71461888D01*
X119466065Y-71415532D01*
X119477796Y-71376862D01*
X119496846Y-71341223D01*
X119522483Y-71309983D01*
X119553723Y-71284346D01*
X119589362Y-71265296D01*
X119628032Y-71253565D01*
X119674388Y-71249000D01*
X120325612Y-71249000D01*
X120371968Y-71253565D01*
G37*
G36*
X131084468Y-71466065D02*
G01*
X131123138Y-71477796D01*
X131158777Y-71496846D01*
X131190017Y-71522483D01*
X131215654Y-71553723D01*
X131234704Y-71589362D01*
X131246435Y-71628032D01*
X131251000Y-71674388D01*
X131251000Y-72325612D01*
X131246435Y-72371968D01*
X131234704Y-72410638D01*
X131215654Y-72446277D01*
X131190017Y-72477517D01*
X131158777Y-72503154D01*
X131123138Y-72522204D01*
X131084468Y-72533935D01*
X131038112Y-72538500D01*
X129961888Y-72538500D01*
X129915532Y-72533935D01*
X129876862Y-72522204D01*
X129841223Y-72503154D01*
X129809983Y-72477517D01*
X129784346Y-72446277D01*
X129765296Y-72410638D01*
X129753565Y-72371968D01*
X129749000Y-72325612D01*
X129749000Y-71674388D01*
X129753565Y-71628032D01*
X129765296Y-71589362D01*
X129784346Y-71553723D01*
X129809983Y-71522483D01*
X129841223Y-71496846D01*
X129876862Y-71477796D01*
X129915532Y-71466065D01*
X129961888Y-71461500D01*
X131038112Y-71461500D01*
X131084468Y-71466065D01*
G37*
G36*
X136384468Y-71441065D02*
G01*
X136423138Y-71452796D01*
X136458777Y-71471846D01*
X136490017Y-71497483D01*
X136515654Y-71528723D01*
X136534704Y-71564362D01*
X136546435Y-71603032D01*
X136551000Y-71649388D01*
X136551000Y-72300612D01*
X136546435Y-72346968D01*
X136534704Y-72385638D01*
X136515654Y-72421277D01*
X136490017Y-72452517D01*
X136458777Y-72478154D01*
X136423138Y-72497204D01*
X136384468Y-72508935D01*
X136338112Y-72513500D01*
X135261888Y-72513500D01*
X135215532Y-72508935D01*
X135176862Y-72497204D01*
X135141223Y-72478154D01*
X135109983Y-72452517D01*
X135084346Y-72421277D01*
X135065296Y-72385638D01*
X135053565Y-72346968D01*
X135049000Y-72300612D01*
X135049000Y-71649388D01*
X135053565Y-71603032D01*
X135065296Y-71564362D01*
X135084346Y-71528723D01*
X135109983Y-71497483D01*
X135141223Y-71471846D01*
X135176862Y-71452796D01*
X135215532Y-71441065D01*
X135261888Y-71436500D01*
X136338112Y-71436500D01*
X136384468Y-71441065D01*
G37*
G36*
X128584468Y-71341065D02*
G01*
X128623138Y-71352796D01*
X128658777Y-71371846D01*
X128690017Y-71397483D01*
X128715654Y-71428723D01*
X128734704Y-71464362D01*
X128746435Y-71503032D01*
X128751000Y-71549388D01*
X128751000Y-72200612D01*
X128746435Y-72246968D01*
X128734704Y-72285638D01*
X128715654Y-72321277D01*
X128690017Y-72352517D01*
X128658777Y-72378154D01*
X128623138Y-72397204D01*
X128584468Y-72408935D01*
X128538112Y-72413500D01*
X127461888Y-72413500D01*
X127415532Y-72408935D01*
X127376862Y-72397204D01*
X127341223Y-72378154D01*
X127309983Y-72352517D01*
X127284346Y-72321277D01*
X127265296Y-72285638D01*
X127253565Y-72246968D01*
X127249000Y-72200612D01*
X127249000Y-71549388D01*
X127253565Y-71503032D01*
X127265296Y-71464362D01*
X127284346Y-71428723D01*
X127309983Y-71397483D01*
X127341223Y-71371846D01*
X127376862Y-71352796D01*
X127415532Y-71341065D01*
X127461888Y-71336500D01*
X128538112Y-71336500D01*
X128584468Y-71341065D01*
G37*
G36*
X134051000Y-72376000D02*
G01*
X132249000Y-72376000D01*
X132249000Y-71624000D01*
X134051000Y-71624000D01*
X134051000Y-72376000D01*
G37*
G36*
X124481000Y-72326000D02*
G01*
X123319000Y-72326000D01*
X123319000Y-69674000D01*
X124481000Y-69674000D01*
X124481000Y-72326000D01*
G37*
G36*
X126681000Y-72326000D02*
G01*
X125519000Y-72326000D01*
X125519000Y-71574000D01*
X126681000Y-71574000D01*
X126681000Y-72326000D01*
G37*
G36*
X121371968Y-69253565D02*
G01*
X121410638Y-69265296D01*
X121446277Y-69284346D01*
X121477517Y-69309983D01*
X121503154Y-69341223D01*
X121522204Y-69376862D01*
X121533935Y-69415532D01*
X121538500Y-69461888D01*
X121538500Y-70538112D01*
X121533935Y-70584468D01*
X121522204Y-70623138D01*
X121503154Y-70658777D01*
X121477517Y-70690017D01*
X121446277Y-70715654D01*
X121410638Y-70734704D01*
X121371968Y-70746435D01*
X121325612Y-70751000D01*
X120674388Y-70751000D01*
X120628032Y-70746435D01*
X120589362Y-70734704D01*
X120553723Y-70715654D01*
X120522483Y-70690017D01*
X120496846Y-70658777D01*
X120477796Y-70623138D01*
X120466065Y-70584468D01*
X120461500Y-70538112D01*
X120461500Y-69461888D01*
X120466065Y-69415532D01*
X120477796Y-69376862D01*
X120496846Y-69341223D01*
X120522483Y-69309983D01*
X120553723Y-69284346D01*
X120589362Y-69265296D01*
X120628032Y-69253565D01*
X120674388Y-69249000D01*
X121325612Y-69249000D01*
X121371968Y-69253565D01*
G37*
G36*
X119496968Y-69253565D02*
G01*
X119535638Y-69265296D01*
X119571277Y-69284346D01*
X119602517Y-69309983D01*
X119628154Y-69341223D01*
X119647204Y-69376862D01*
X119658935Y-69415532D01*
X119663500Y-69461888D01*
X119663500Y-70538112D01*
X119658935Y-70584468D01*
X119647204Y-70623138D01*
X119628154Y-70658777D01*
X119602517Y-70690017D01*
X119571277Y-70715654D01*
X119535638Y-70734704D01*
X119496968Y-70746435D01*
X119450612Y-70751000D01*
X118799388Y-70751000D01*
X118753032Y-70746435D01*
X118714362Y-70734704D01*
X118678723Y-70715654D01*
X118647483Y-70690017D01*
X118621846Y-70658777D01*
X118602796Y-70623138D01*
X118591065Y-70584468D01*
X118586500Y-70538112D01*
X118586500Y-69461888D01*
X118591065Y-69415532D01*
X118602796Y-69376862D01*
X118621846Y-69341223D01*
X118647483Y-69309983D01*
X118678723Y-69284346D01*
X118714362Y-69265296D01*
X118753032Y-69253565D01*
X118799388Y-69249000D01*
X119450612Y-69249000D01*
X119496968Y-69253565D01*
G37*
G36*
X131084468Y-69591065D02*
G01*
X131123138Y-69602796D01*
X131158777Y-69621846D01*
X131190017Y-69647483D01*
X131215654Y-69678723D01*
X131234704Y-69714362D01*
X131246435Y-69753032D01*
X131251000Y-69799388D01*
X131251000Y-70450612D01*
X131246435Y-70496968D01*
X131234704Y-70535638D01*
X131215654Y-70571277D01*
X131190017Y-70602517D01*
X131158777Y-70628154D01*
X131123138Y-70647204D01*
X131084468Y-70658935D01*
X131038112Y-70663500D01*
X129961888Y-70663500D01*
X129915532Y-70658935D01*
X129876862Y-70647204D01*
X129841223Y-70628154D01*
X129809983Y-70602517D01*
X129784346Y-70571277D01*
X129765296Y-70535638D01*
X129753565Y-70496968D01*
X129749000Y-70450612D01*
X129749000Y-69799388D01*
X129753565Y-69753032D01*
X129765296Y-69714362D01*
X129784346Y-69678723D01*
X129809983Y-69647483D01*
X129841223Y-69621846D01*
X129876862Y-69602796D01*
X129915532Y-69591065D01*
X129961888Y-69586500D01*
X131038112Y-69586500D01*
X131084468Y-69591065D01*
G37*
G36*
X136384468Y-69566065D02*
G01*
X136423138Y-69577796D01*
X136458777Y-69596846D01*
X136490017Y-69622483D01*
X136515654Y-69653723D01*
X136534704Y-69689362D01*
X136546435Y-69728032D01*
X136551000Y-69774388D01*
X136551000Y-70425612D01*
X136546435Y-70471968D01*
X136534704Y-70510638D01*
X136515654Y-70546277D01*
X136490017Y-70577517D01*
X136458777Y-70603154D01*
X136423138Y-70622204D01*
X136384468Y-70633935D01*
X136338112Y-70638500D01*
X135261888Y-70638500D01*
X135215532Y-70633935D01*
X135176862Y-70622204D01*
X135141223Y-70603154D01*
X135109983Y-70577517D01*
X135084346Y-70546277D01*
X135065296Y-70510638D01*
X135053565Y-70471968D01*
X135049000Y-70425612D01*
X135049000Y-69774388D01*
X135053565Y-69728032D01*
X135065296Y-69689362D01*
X135084346Y-69653723D01*
X135109983Y-69622483D01*
X135141223Y-69596846D01*
X135176862Y-69577796D01*
X135215532Y-69566065D01*
X135261888Y-69561500D01*
X136338112Y-69561500D01*
X136384468Y-69566065D01*
G37*
G36*
X128584468Y-69466065D02*
G01*
X128623138Y-69477796D01*
X128658777Y-69496846D01*
X128690017Y-69522483D01*
X128715654Y-69553723D01*
X128734704Y-69589362D01*
X128746435Y-69628032D01*
X128751000Y-69674388D01*
X128751000Y-70325612D01*
X128746435Y-70371968D01*
X128734704Y-70410638D01*
X128715654Y-70446277D01*
X128690017Y-70477517D01*
X128658777Y-70503154D01*
X128623138Y-70522204D01*
X128584468Y-70533935D01*
X128538112Y-70538500D01*
X127461888Y-70538500D01*
X127415532Y-70533935D01*
X127376862Y-70522204D01*
X127341223Y-70503154D01*
X127309983Y-70477517D01*
X127284346Y-70446277D01*
X127265296Y-70410638D01*
X127253565Y-70371968D01*
X127249000Y-70325612D01*
X127249000Y-69674388D01*
X127253565Y-69628032D01*
X127265296Y-69589362D01*
X127284346Y-69553723D01*
X127309983Y-69522483D01*
X127341223Y-69496846D01*
X127376862Y-69477796D01*
X127415532Y-69466065D01*
X127461888Y-69461500D01*
X128538112Y-69461500D01*
X128584468Y-69466065D01*
G37*
G36*
X134051000Y-70476000D02*
G01*
X132249000Y-70476000D01*
X132249000Y-69724000D01*
X134051000Y-69724000D01*
X134051000Y-70476000D01*
G37*
G36*
X126681000Y-70426000D02*
G01*
X125519000Y-70426000D01*
X125519000Y-69674000D01*
X126681000Y-69674000D01*
X126681000Y-70426000D01*
G37*
M02*
