G04 #@! TF.GenerationSoftware,KiCad,Pcbnew,(5.1.6)-1*
G04 #@! TF.CreationDate,2020-08-17T23:15:29+02:00*
G04 #@! TF.ProjectId,Programmer,50726f67-7261-46d6-9d65-722e6b696361,rev?*
G04 #@! TF.SameCoordinates,Original*
G04 #@! TF.FileFunction,Copper,L2,Bot*
G04 #@! TF.FilePolarity,Positive*
%FSLAX46Y46*%
G04 Gerber Fmt 4.6, Leading zero omitted, Abs format (unit mm)*
G04 Created by KiCad (PCBNEW (5.1.6)-1) date 2020-08-17 23:15:29*
%MOMM*%
%LPD*%
G01*
G04 APERTURE LIST*
G04 #@! TA.AperFunction,SMDPad,CuDef*
%ADD10R,1.550000X1.300000*%
G04 #@! TD*
G04 #@! TA.AperFunction,ViaPad*
%ADD11C,0.800000*%
G04 #@! TD*
G04 #@! TA.AperFunction,Conductor*
%ADD12C,0.250000*%
G04 #@! TD*
G04 #@! TA.AperFunction,Conductor*
%ADD13C,0.127000*%
G04 #@! TD*
G04 #@! TA.AperFunction,Conductor*
%ADD14C,0.254000*%
G04 #@! TD*
G04 APERTURE END LIST*
D10*
X143800000Y-68800000D03*
X143800000Y-73300000D03*
X135850000Y-73300000D03*
X135850000Y-68800000D03*
X135825000Y-87250000D03*
X135825000Y-82750000D03*
X143775000Y-82750000D03*
X143775000Y-87250000D03*
D11*
X143900000Y-70300000D03*
X112000000Y-68000000D03*
X112000000Y-86000000D03*
X145000000Y-86000000D03*
X123000000Y-73000000D03*
X125000000Y-73000000D03*
X126111000Y-79629000D03*
X137500000Y-75300000D03*
X136700000Y-79200000D03*
X134500000Y-77300000D03*
X139200000Y-75400000D03*
X133600000Y-73700000D03*
X134600000Y-70100000D03*
X132368416Y-76830084D03*
X128397000Y-84328000D03*
D12*
X135850000Y-73300000D02*
X136875000Y-73300000D01*
X137500000Y-73925000D02*
X137500000Y-75300000D01*
X136875000Y-73300000D02*
X137500000Y-73300000D01*
X137500000Y-73925000D02*
X137500000Y-73300000D01*
X137500000Y-73300000D02*
X143800000Y-73300000D01*
D13*
X136700000Y-79200000D02*
X134800000Y-77300000D01*
X134800000Y-77300000D02*
X134500000Y-77300000D01*
D12*
X143775000Y-79975000D02*
X139200000Y-75400000D01*
X143775000Y-82750000D02*
X143775000Y-79975000D01*
X135825000Y-82750000D02*
X143775000Y-82750000D01*
X134600000Y-72700000D02*
X134600000Y-70100000D01*
X133600000Y-73700000D02*
X134600000Y-72700000D01*
X128397000Y-80801500D02*
X128397000Y-84328000D01*
X132368416Y-76830084D02*
X128397000Y-80801500D01*
D14*
G36*
X134623815Y-67698815D02*
G01*
X134544463Y-67795506D01*
X134485498Y-67905820D01*
X134449188Y-68025518D01*
X134436928Y-68150000D01*
X134440000Y-68514250D01*
X134598750Y-68673000D01*
X135723000Y-68673000D01*
X135723000Y-68653000D01*
X135977000Y-68653000D01*
X135977000Y-68673000D01*
X137101250Y-68673000D01*
X137260000Y-68514250D01*
X137263072Y-68150000D01*
X137250812Y-68025518D01*
X137214502Y-67905820D01*
X137155537Y-67795506D01*
X137076185Y-67698815D01*
X137028889Y-67660000D01*
X142621111Y-67660000D01*
X142573815Y-67698815D01*
X142494463Y-67795506D01*
X142435498Y-67905820D01*
X142399188Y-68025518D01*
X142386928Y-68150000D01*
X142390000Y-68514250D01*
X142548750Y-68673000D01*
X143673000Y-68673000D01*
X143673000Y-68653000D01*
X143927000Y-68653000D01*
X143927000Y-68673000D01*
X145051250Y-68673000D01*
X145210000Y-68514250D01*
X145213072Y-68150000D01*
X145200812Y-68025518D01*
X145164502Y-67905820D01*
X145105537Y-67795506D01*
X145026185Y-67698815D01*
X144978889Y-67660000D01*
X145340000Y-67660000D01*
X145340001Y-86967572D01*
X145340000Y-86967582D01*
X145340001Y-88340000D01*
X145010364Y-88340000D01*
X145080537Y-88254494D01*
X145139502Y-88144180D01*
X145175812Y-88024482D01*
X145188072Y-87900000D01*
X145185000Y-87535750D01*
X145026250Y-87377000D01*
X143902000Y-87377000D01*
X143902000Y-87397000D01*
X143648000Y-87397000D01*
X143648000Y-87377000D01*
X142523750Y-87377000D01*
X142365000Y-87535750D01*
X142361928Y-87900000D01*
X142374188Y-88024482D01*
X142410498Y-88144180D01*
X142469463Y-88254494D01*
X142539636Y-88340000D01*
X137060364Y-88340000D01*
X137130537Y-88254494D01*
X137189502Y-88144180D01*
X137225812Y-88024482D01*
X137238072Y-87900000D01*
X137235000Y-87535750D01*
X137076250Y-87377000D01*
X135952000Y-87377000D01*
X135952000Y-87397000D01*
X135698000Y-87397000D01*
X135698000Y-87377000D01*
X134573750Y-87377000D01*
X134415000Y-87535750D01*
X134411928Y-87900000D01*
X134424188Y-88024482D01*
X134460498Y-88144180D01*
X134519463Y-88254494D01*
X134589636Y-88340000D01*
X105660000Y-88340000D01*
X105660000Y-86600000D01*
X134411928Y-86600000D01*
X134415000Y-86964250D01*
X134573750Y-87123000D01*
X135698000Y-87123000D01*
X135698000Y-86123750D01*
X135952000Y-86123750D01*
X135952000Y-87123000D01*
X137076250Y-87123000D01*
X137235000Y-86964250D01*
X137238072Y-86600000D01*
X142361928Y-86600000D01*
X142365000Y-86964250D01*
X142523750Y-87123000D01*
X143648000Y-87123000D01*
X143648000Y-86123750D01*
X143902000Y-86123750D01*
X143902000Y-87123000D01*
X145026250Y-87123000D01*
X145185000Y-86964250D01*
X145188072Y-86600000D01*
X145175812Y-86475518D01*
X145139502Y-86355820D01*
X145080537Y-86245506D01*
X145001185Y-86148815D01*
X144904494Y-86069463D01*
X144794180Y-86010498D01*
X144674482Y-85974188D01*
X144550000Y-85961928D01*
X144060750Y-85965000D01*
X143902000Y-86123750D01*
X143648000Y-86123750D01*
X143489250Y-85965000D01*
X143000000Y-85961928D01*
X142875518Y-85974188D01*
X142755820Y-86010498D01*
X142645506Y-86069463D01*
X142548815Y-86148815D01*
X142469463Y-86245506D01*
X142410498Y-86355820D01*
X142374188Y-86475518D01*
X142361928Y-86600000D01*
X137238072Y-86600000D01*
X137225812Y-86475518D01*
X137189502Y-86355820D01*
X137130537Y-86245506D01*
X137051185Y-86148815D01*
X136954494Y-86069463D01*
X136844180Y-86010498D01*
X136724482Y-85974188D01*
X136600000Y-85961928D01*
X136110750Y-85965000D01*
X135952000Y-86123750D01*
X135698000Y-86123750D01*
X135539250Y-85965000D01*
X135050000Y-85961928D01*
X134925518Y-85974188D01*
X134805820Y-86010498D01*
X134695506Y-86069463D01*
X134598815Y-86148815D01*
X134519463Y-86245506D01*
X134460498Y-86355820D01*
X134424188Y-86475518D01*
X134411928Y-86600000D01*
X105660000Y-86600000D01*
X105660000Y-84226061D01*
X127362000Y-84226061D01*
X127362000Y-84429939D01*
X127401774Y-84629898D01*
X127479795Y-84818256D01*
X127593063Y-84987774D01*
X127737226Y-85131937D01*
X127906744Y-85245205D01*
X128095102Y-85323226D01*
X128295061Y-85363000D01*
X128498939Y-85363000D01*
X128698898Y-85323226D01*
X128887256Y-85245205D01*
X129056774Y-85131937D01*
X129200937Y-84987774D01*
X129314205Y-84818256D01*
X129392226Y-84629898D01*
X129432000Y-84429939D01*
X129432000Y-84226061D01*
X129392226Y-84026102D01*
X129314205Y-83837744D01*
X129200937Y-83668226D01*
X129157000Y-83624289D01*
X129157000Y-81116301D01*
X132408218Y-77865084D01*
X132470355Y-77865084D01*
X132670314Y-77825310D01*
X132858672Y-77747289D01*
X133028190Y-77634021D01*
X133172353Y-77489858D01*
X133285621Y-77320340D01*
X133336270Y-77198061D01*
X133465000Y-77198061D01*
X133465000Y-77401939D01*
X133504774Y-77601898D01*
X133582795Y-77790256D01*
X133696063Y-77959774D01*
X133840226Y-78103937D01*
X134009744Y-78217205D01*
X134198102Y-78295226D01*
X134398061Y-78335000D01*
X134601939Y-78335000D01*
X134801898Y-78295226D01*
X134805788Y-78293615D01*
X135665000Y-79152828D01*
X135665000Y-79301939D01*
X135704774Y-79501898D01*
X135782795Y-79690256D01*
X135896063Y-79859774D01*
X136040226Y-80003937D01*
X136209744Y-80117205D01*
X136398102Y-80195226D01*
X136598061Y-80235000D01*
X136801939Y-80235000D01*
X137001898Y-80195226D01*
X137190256Y-80117205D01*
X137359774Y-80003937D01*
X137503937Y-79859774D01*
X137617205Y-79690256D01*
X137695226Y-79501898D01*
X137735000Y-79301939D01*
X137735000Y-79098061D01*
X137695226Y-78898102D01*
X137617205Y-78709744D01*
X137503937Y-78540226D01*
X137359774Y-78396063D01*
X137190256Y-78282795D01*
X137001898Y-78204774D01*
X136801939Y-78165000D01*
X136652828Y-78165000D01*
X135497534Y-77009707D01*
X135495226Y-76998102D01*
X135417205Y-76809744D01*
X135303937Y-76640226D01*
X135159774Y-76496063D01*
X134990256Y-76382795D01*
X134801898Y-76304774D01*
X134601939Y-76265000D01*
X134398061Y-76265000D01*
X134198102Y-76304774D01*
X134009744Y-76382795D01*
X133840226Y-76496063D01*
X133696063Y-76640226D01*
X133582795Y-76809744D01*
X133504774Y-76998102D01*
X133465000Y-77198061D01*
X133336270Y-77198061D01*
X133363642Y-77131982D01*
X133403416Y-76932023D01*
X133403416Y-76728145D01*
X133363642Y-76528186D01*
X133285621Y-76339828D01*
X133172353Y-76170310D01*
X133028190Y-76026147D01*
X132858672Y-75912879D01*
X132670314Y-75834858D01*
X132470355Y-75795084D01*
X132266477Y-75795084D01*
X132066518Y-75834858D01*
X131878160Y-75912879D01*
X131708642Y-76026147D01*
X131564479Y-76170310D01*
X131451211Y-76339828D01*
X131373190Y-76528186D01*
X131333416Y-76728145D01*
X131333416Y-76790282D01*
X127886003Y-80237696D01*
X127856999Y-80261499D01*
X127801871Y-80328674D01*
X127762026Y-80377224D01*
X127719547Y-80456696D01*
X127691454Y-80509254D01*
X127647997Y-80652515D01*
X127637000Y-80764168D01*
X127637000Y-80764178D01*
X127633324Y-80801500D01*
X127637000Y-80838823D01*
X127637001Y-83624288D01*
X127593063Y-83668226D01*
X127479795Y-83837744D01*
X127401774Y-84026102D01*
X127362000Y-84226061D01*
X105660000Y-84226061D01*
X105660000Y-81393137D01*
X110315000Y-81393137D01*
X110315000Y-81606863D01*
X110356696Y-81816483D01*
X110438485Y-82013940D01*
X110557225Y-82191647D01*
X110708353Y-82342775D01*
X110886060Y-82461515D01*
X111083517Y-82543304D01*
X111293137Y-82585000D01*
X111506863Y-82585000D01*
X111716483Y-82543304D01*
X111913940Y-82461515D01*
X112091647Y-82342775D01*
X112242775Y-82191647D01*
X112361515Y-82013940D01*
X112443304Y-81816483D01*
X112485000Y-81606863D01*
X112485000Y-81393137D01*
X112443304Y-81183517D01*
X112361515Y-80986060D01*
X112242775Y-80808353D01*
X112091647Y-80657225D01*
X111913940Y-80538485D01*
X111716483Y-80456696D01*
X111506863Y-80415000D01*
X111293137Y-80415000D01*
X111083517Y-80456696D01*
X110886060Y-80538485D01*
X110708353Y-80657225D01*
X110557225Y-80808353D01*
X110438485Y-80986060D01*
X110356696Y-81183517D01*
X110315000Y-81393137D01*
X105660000Y-81393137D01*
X105660000Y-76993137D01*
X110315000Y-76993137D01*
X110315000Y-77206863D01*
X110356696Y-77416483D01*
X110438485Y-77613940D01*
X110557225Y-77791647D01*
X110708353Y-77942775D01*
X110886060Y-78061515D01*
X111083517Y-78143304D01*
X111293137Y-78185000D01*
X111506863Y-78185000D01*
X111716483Y-78143304D01*
X111913940Y-78061515D01*
X112091647Y-77942775D01*
X112242775Y-77791647D01*
X112361515Y-77613940D01*
X112443304Y-77416483D01*
X112485000Y-77206863D01*
X112485000Y-76993137D01*
X112443304Y-76783517D01*
X112361515Y-76586060D01*
X112242775Y-76408353D01*
X112091647Y-76257225D01*
X111913940Y-76138485D01*
X111716483Y-76056696D01*
X111506863Y-76015000D01*
X111293137Y-76015000D01*
X111083517Y-76056696D01*
X110886060Y-76138485D01*
X110708353Y-76257225D01*
X110557225Y-76408353D01*
X110438485Y-76586060D01*
X110356696Y-76783517D01*
X110315000Y-76993137D01*
X105660000Y-76993137D01*
X105660000Y-73598061D01*
X132565000Y-73598061D01*
X132565000Y-73801939D01*
X132604774Y-74001898D01*
X132682795Y-74190256D01*
X132796063Y-74359774D01*
X132940226Y-74503937D01*
X133109744Y-74617205D01*
X133298102Y-74695226D01*
X133498061Y-74735000D01*
X133701939Y-74735000D01*
X133901898Y-74695226D01*
X134090256Y-74617205D01*
X134259774Y-74503937D01*
X134403937Y-74359774D01*
X134498424Y-74218363D01*
X134544463Y-74304494D01*
X134623815Y-74401185D01*
X134720506Y-74480537D01*
X134830820Y-74539502D01*
X134950518Y-74575812D01*
X135075000Y-74588072D01*
X136625000Y-74588072D01*
X136740000Y-74576746D01*
X136740000Y-74596289D01*
X136696063Y-74640226D01*
X136582795Y-74809744D01*
X136504774Y-74998102D01*
X136465000Y-75198061D01*
X136465000Y-75401939D01*
X136504774Y-75601898D01*
X136582795Y-75790256D01*
X136696063Y-75959774D01*
X136840226Y-76103937D01*
X137009744Y-76217205D01*
X137198102Y-76295226D01*
X137398061Y-76335000D01*
X137601939Y-76335000D01*
X137801898Y-76295226D01*
X137990256Y-76217205D01*
X138159774Y-76103937D01*
X138303937Y-75959774D01*
X138316591Y-75940836D01*
X138396063Y-76059774D01*
X138540226Y-76203937D01*
X138709744Y-76317205D01*
X138898102Y-76395226D01*
X139098061Y-76435000D01*
X139160199Y-76435000D01*
X143015001Y-80289803D01*
X143015000Y-81461928D01*
X143000000Y-81461928D01*
X142875518Y-81474188D01*
X142755820Y-81510498D01*
X142645506Y-81569463D01*
X142548815Y-81648815D01*
X142469463Y-81745506D01*
X142410498Y-81855820D01*
X142374188Y-81975518D01*
X142372762Y-81990000D01*
X137227238Y-81990000D01*
X137225812Y-81975518D01*
X137189502Y-81855820D01*
X137130537Y-81745506D01*
X137051185Y-81648815D01*
X136954494Y-81569463D01*
X136844180Y-81510498D01*
X136724482Y-81474188D01*
X136600000Y-81461928D01*
X135050000Y-81461928D01*
X134925518Y-81474188D01*
X134805820Y-81510498D01*
X134695506Y-81569463D01*
X134598815Y-81648815D01*
X134519463Y-81745506D01*
X134460498Y-81855820D01*
X134424188Y-81975518D01*
X134411928Y-82100000D01*
X134411928Y-83400000D01*
X134424188Y-83524482D01*
X134460498Y-83644180D01*
X134519463Y-83754494D01*
X134598815Y-83851185D01*
X134695506Y-83930537D01*
X134805820Y-83989502D01*
X134925518Y-84025812D01*
X135050000Y-84038072D01*
X136600000Y-84038072D01*
X136724482Y-84025812D01*
X136844180Y-83989502D01*
X136954494Y-83930537D01*
X137051185Y-83851185D01*
X137130537Y-83754494D01*
X137189502Y-83644180D01*
X137225812Y-83524482D01*
X137227238Y-83510000D01*
X142372762Y-83510000D01*
X142374188Y-83524482D01*
X142410498Y-83644180D01*
X142469463Y-83754494D01*
X142548815Y-83851185D01*
X142645506Y-83930537D01*
X142755820Y-83989502D01*
X142875518Y-84025812D01*
X143000000Y-84038072D01*
X144550000Y-84038072D01*
X144674482Y-84025812D01*
X144794180Y-83989502D01*
X144904494Y-83930537D01*
X145001185Y-83851185D01*
X145080537Y-83754494D01*
X145139502Y-83644180D01*
X145175812Y-83524482D01*
X145188072Y-83400000D01*
X145188072Y-82100000D01*
X145175812Y-81975518D01*
X145139502Y-81855820D01*
X145080537Y-81745506D01*
X145001185Y-81648815D01*
X144904494Y-81569463D01*
X144794180Y-81510498D01*
X144674482Y-81474188D01*
X144550000Y-81461928D01*
X144535000Y-81461928D01*
X144535000Y-80012322D01*
X144538676Y-79974999D01*
X144535000Y-79937676D01*
X144535000Y-79937667D01*
X144524003Y-79826014D01*
X144480546Y-79682753D01*
X144409974Y-79550723D01*
X144338799Y-79463997D01*
X144315001Y-79434999D01*
X144286003Y-79411201D01*
X140235000Y-75360199D01*
X140235000Y-75298061D01*
X140195226Y-75098102D01*
X140117205Y-74909744D01*
X140003937Y-74740226D01*
X139859774Y-74596063D01*
X139690256Y-74482795D01*
X139501898Y-74404774D01*
X139301939Y-74365000D01*
X139098061Y-74365000D01*
X138898102Y-74404774D01*
X138709744Y-74482795D01*
X138540226Y-74596063D01*
X138396063Y-74740226D01*
X138383409Y-74759164D01*
X138303937Y-74640226D01*
X138260000Y-74596289D01*
X138260000Y-74060000D01*
X142397762Y-74060000D01*
X142399188Y-74074482D01*
X142435498Y-74194180D01*
X142494463Y-74304494D01*
X142573815Y-74401185D01*
X142670506Y-74480537D01*
X142780820Y-74539502D01*
X142900518Y-74575812D01*
X143025000Y-74588072D01*
X144575000Y-74588072D01*
X144699482Y-74575812D01*
X144819180Y-74539502D01*
X144929494Y-74480537D01*
X145026185Y-74401185D01*
X145105537Y-74304494D01*
X145164502Y-74194180D01*
X145200812Y-74074482D01*
X145213072Y-73950000D01*
X145213072Y-72650000D01*
X145200812Y-72525518D01*
X145164502Y-72405820D01*
X145105537Y-72295506D01*
X145026185Y-72198815D01*
X144929494Y-72119463D01*
X144819180Y-72060498D01*
X144699482Y-72024188D01*
X144575000Y-72011928D01*
X143025000Y-72011928D01*
X142900518Y-72024188D01*
X142780820Y-72060498D01*
X142670506Y-72119463D01*
X142573815Y-72198815D01*
X142494463Y-72295506D01*
X142435498Y-72405820D01*
X142399188Y-72525518D01*
X142397762Y-72540000D01*
X137537333Y-72540000D01*
X137500000Y-72536323D01*
X137462667Y-72540000D01*
X137252238Y-72540000D01*
X137250812Y-72525518D01*
X137214502Y-72405820D01*
X137155537Y-72295506D01*
X137076185Y-72198815D01*
X136979494Y-72119463D01*
X136869180Y-72060498D01*
X136749482Y-72024188D01*
X136625000Y-72011928D01*
X135360000Y-72011928D01*
X135360000Y-70803711D01*
X135403937Y-70759774D01*
X135517205Y-70590256D01*
X135595226Y-70401898D01*
X135635000Y-70201939D01*
X135635000Y-70014250D01*
X135723000Y-69926250D01*
X135723000Y-68927000D01*
X135977000Y-68927000D01*
X135977000Y-69926250D01*
X136135750Y-70085000D01*
X136625000Y-70088072D01*
X136749482Y-70075812D01*
X136869180Y-70039502D01*
X136979494Y-69980537D01*
X137076185Y-69901185D01*
X137155537Y-69804494D01*
X137214502Y-69694180D01*
X137250812Y-69574482D01*
X137263072Y-69450000D01*
X142386928Y-69450000D01*
X142399188Y-69574482D01*
X142435498Y-69694180D01*
X142494463Y-69804494D01*
X142573815Y-69901185D01*
X142670506Y-69980537D01*
X142780820Y-70039502D01*
X142900518Y-70075812D01*
X143025000Y-70088072D01*
X143514250Y-70085000D01*
X143673000Y-69926250D01*
X143673000Y-68927000D01*
X143927000Y-68927000D01*
X143927000Y-69926250D01*
X144085750Y-70085000D01*
X144575000Y-70088072D01*
X144699482Y-70075812D01*
X144819180Y-70039502D01*
X144929494Y-69980537D01*
X145026185Y-69901185D01*
X145105537Y-69804494D01*
X145164502Y-69694180D01*
X145200812Y-69574482D01*
X145213072Y-69450000D01*
X145210000Y-69085750D01*
X145051250Y-68927000D01*
X143927000Y-68927000D01*
X143673000Y-68927000D01*
X142548750Y-68927000D01*
X142390000Y-69085750D01*
X142386928Y-69450000D01*
X137263072Y-69450000D01*
X137260000Y-69085750D01*
X137101250Y-68927000D01*
X135977000Y-68927000D01*
X135723000Y-68927000D01*
X134598750Y-68927000D01*
X134451486Y-69074264D01*
X134298102Y-69104774D01*
X134109744Y-69182795D01*
X133940226Y-69296063D01*
X133796063Y-69440226D01*
X133682795Y-69609744D01*
X133604774Y-69798102D01*
X133565000Y-69998061D01*
X133565000Y-70201939D01*
X133604774Y-70401898D01*
X133682795Y-70590256D01*
X133796063Y-70759774D01*
X133840001Y-70803712D01*
X133840000Y-72385198D01*
X133560199Y-72665000D01*
X133498061Y-72665000D01*
X133298102Y-72704774D01*
X133109744Y-72782795D01*
X132940226Y-72896063D01*
X132796063Y-73040226D01*
X132682795Y-73209744D01*
X132604774Y-73398102D01*
X132565000Y-73598061D01*
X105660000Y-73598061D01*
X105660000Y-67660000D01*
X134671111Y-67660000D01*
X134623815Y-67698815D01*
G37*
X134623815Y-67698815D02*
X134544463Y-67795506D01*
X134485498Y-67905820D01*
X134449188Y-68025518D01*
X134436928Y-68150000D01*
X134440000Y-68514250D01*
X134598750Y-68673000D01*
X135723000Y-68673000D01*
X135723000Y-68653000D01*
X135977000Y-68653000D01*
X135977000Y-68673000D01*
X137101250Y-68673000D01*
X137260000Y-68514250D01*
X137263072Y-68150000D01*
X137250812Y-68025518D01*
X137214502Y-67905820D01*
X137155537Y-67795506D01*
X137076185Y-67698815D01*
X137028889Y-67660000D01*
X142621111Y-67660000D01*
X142573815Y-67698815D01*
X142494463Y-67795506D01*
X142435498Y-67905820D01*
X142399188Y-68025518D01*
X142386928Y-68150000D01*
X142390000Y-68514250D01*
X142548750Y-68673000D01*
X143673000Y-68673000D01*
X143673000Y-68653000D01*
X143927000Y-68653000D01*
X143927000Y-68673000D01*
X145051250Y-68673000D01*
X145210000Y-68514250D01*
X145213072Y-68150000D01*
X145200812Y-68025518D01*
X145164502Y-67905820D01*
X145105537Y-67795506D01*
X145026185Y-67698815D01*
X144978889Y-67660000D01*
X145340000Y-67660000D01*
X145340001Y-86967572D01*
X145340000Y-86967582D01*
X145340001Y-88340000D01*
X145010364Y-88340000D01*
X145080537Y-88254494D01*
X145139502Y-88144180D01*
X145175812Y-88024482D01*
X145188072Y-87900000D01*
X145185000Y-87535750D01*
X145026250Y-87377000D01*
X143902000Y-87377000D01*
X143902000Y-87397000D01*
X143648000Y-87397000D01*
X143648000Y-87377000D01*
X142523750Y-87377000D01*
X142365000Y-87535750D01*
X142361928Y-87900000D01*
X142374188Y-88024482D01*
X142410498Y-88144180D01*
X142469463Y-88254494D01*
X142539636Y-88340000D01*
X137060364Y-88340000D01*
X137130537Y-88254494D01*
X137189502Y-88144180D01*
X137225812Y-88024482D01*
X137238072Y-87900000D01*
X137235000Y-87535750D01*
X137076250Y-87377000D01*
X135952000Y-87377000D01*
X135952000Y-87397000D01*
X135698000Y-87397000D01*
X135698000Y-87377000D01*
X134573750Y-87377000D01*
X134415000Y-87535750D01*
X134411928Y-87900000D01*
X134424188Y-88024482D01*
X134460498Y-88144180D01*
X134519463Y-88254494D01*
X134589636Y-88340000D01*
X105660000Y-88340000D01*
X105660000Y-86600000D01*
X134411928Y-86600000D01*
X134415000Y-86964250D01*
X134573750Y-87123000D01*
X135698000Y-87123000D01*
X135698000Y-86123750D01*
X135952000Y-86123750D01*
X135952000Y-87123000D01*
X137076250Y-87123000D01*
X137235000Y-86964250D01*
X137238072Y-86600000D01*
X142361928Y-86600000D01*
X142365000Y-86964250D01*
X142523750Y-87123000D01*
X143648000Y-87123000D01*
X143648000Y-86123750D01*
X143902000Y-86123750D01*
X143902000Y-87123000D01*
X145026250Y-87123000D01*
X145185000Y-86964250D01*
X145188072Y-86600000D01*
X145175812Y-86475518D01*
X145139502Y-86355820D01*
X145080537Y-86245506D01*
X145001185Y-86148815D01*
X144904494Y-86069463D01*
X144794180Y-86010498D01*
X144674482Y-85974188D01*
X144550000Y-85961928D01*
X144060750Y-85965000D01*
X143902000Y-86123750D01*
X143648000Y-86123750D01*
X143489250Y-85965000D01*
X143000000Y-85961928D01*
X142875518Y-85974188D01*
X142755820Y-86010498D01*
X142645506Y-86069463D01*
X142548815Y-86148815D01*
X142469463Y-86245506D01*
X142410498Y-86355820D01*
X142374188Y-86475518D01*
X142361928Y-86600000D01*
X137238072Y-86600000D01*
X137225812Y-86475518D01*
X137189502Y-86355820D01*
X137130537Y-86245506D01*
X137051185Y-86148815D01*
X136954494Y-86069463D01*
X136844180Y-86010498D01*
X136724482Y-85974188D01*
X136600000Y-85961928D01*
X136110750Y-85965000D01*
X135952000Y-86123750D01*
X135698000Y-86123750D01*
X135539250Y-85965000D01*
X135050000Y-85961928D01*
X134925518Y-85974188D01*
X134805820Y-86010498D01*
X134695506Y-86069463D01*
X134598815Y-86148815D01*
X134519463Y-86245506D01*
X134460498Y-86355820D01*
X134424188Y-86475518D01*
X134411928Y-86600000D01*
X105660000Y-86600000D01*
X105660000Y-84226061D01*
X127362000Y-84226061D01*
X127362000Y-84429939D01*
X127401774Y-84629898D01*
X127479795Y-84818256D01*
X127593063Y-84987774D01*
X127737226Y-85131937D01*
X127906744Y-85245205D01*
X128095102Y-85323226D01*
X128295061Y-85363000D01*
X128498939Y-85363000D01*
X128698898Y-85323226D01*
X128887256Y-85245205D01*
X129056774Y-85131937D01*
X129200937Y-84987774D01*
X129314205Y-84818256D01*
X129392226Y-84629898D01*
X129432000Y-84429939D01*
X129432000Y-84226061D01*
X129392226Y-84026102D01*
X129314205Y-83837744D01*
X129200937Y-83668226D01*
X129157000Y-83624289D01*
X129157000Y-81116301D01*
X132408218Y-77865084D01*
X132470355Y-77865084D01*
X132670314Y-77825310D01*
X132858672Y-77747289D01*
X133028190Y-77634021D01*
X133172353Y-77489858D01*
X133285621Y-77320340D01*
X133336270Y-77198061D01*
X133465000Y-77198061D01*
X133465000Y-77401939D01*
X133504774Y-77601898D01*
X133582795Y-77790256D01*
X133696063Y-77959774D01*
X133840226Y-78103937D01*
X134009744Y-78217205D01*
X134198102Y-78295226D01*
X134398061Y-78335000D01*
X134601939Y-78335000D01*
X134801898Y-78295226D01*
X134805788Y-78293615D01*
X135665000Y-79152828D01*
X135665000Y-79301939D01*
X135704774Y-79501898D01*
X135782795Y-79690256D01*
X135896063Y-79859774D01*
X136040226Y-80003937D01*
X136209744Y-80117205D01*
X136398102Y-80195226D01*
X136598061Y-80235000D01*
X136801939Y-80235000D01*
X137001898Y-80195226D01*
X137190256Y-80117205D01*
X137359774Y-80003937D01*
X137503937Y-79859774D01*
X137617205Y-79690256D01*
X137695226Y-79501898D01*
X137735000Y-79301939D01*
X137735000Y-79098061D01*
X137695226Y-78898102D01*
X137617205Y-78709744D01*
X137503937Y-78540226D01*
X137359774Y-78396063D01*
X137190256Y-78282795D01*
X137001898Y-78204774D01*
X136801939Y-78165000D01*
X136652828Y-78165000D01*
X135497534Y-77009707D01*
X135495226Y-76998102D01*
X135417205Y-76809744D01*
X135303937Y-76640226D01*
X135159774Y-76496063D01*
X134990256Y-76382795D01*
X134801898Y-76304774D01*
X134601939Y-76265000D01*
X134398061Y-76265000D01*
X134198102Y-76304774D01*
X134009744Y-76382795D01*
X133840226Y-76496063D01*
X133696063Y-76640226D01*
X133582795Y-76809744D01*
X133504774Y-76998102D01*
X133465000Y-77198061D01*
X133336270Y-77198061D01*
X133363642Y-77131982D01*
X133403416Y-76932023D01*
X133403416Y-76728145D01*
X133363642Y-76528186D01*
X133285621Y-76339828D01*
X133172353Y-76170310D01*
X133028190Y-76026147D01*
X132858672Y-75912879D01*
X132670314Y-75834858D01*
X132470355Y-75795084D01*
X132266477Y-75795084D01*
X132066518Y-75834858D01*
X131878160Y-75912879D01*
X131708642Y-76026147D01*
X131564479Y-76170310D01*
X131451211Y-76339828D01*
X131373190Y-76528186D01*
X131333416Y-76728145D01*
X131333416Y-76790282D01*
X127886003Y-80237696D01*
X127856999Y-80261499D01*
X127801871Y-80328674D01*
X127762026Y-80377224D01*
X127719547Y-80456696D01*
X127691454Y-80509254D01*
X127647997Y-80652515D01*
X127637000Y-80764168D01*
X127637000Y-80764178D01*
X127633324Y-80801500D01*
X127637000Y-80838823D01*
X127637001Y-83624288D01*
X127593063Y-83668226D01*
X127479795Y-83837744D01*
X127401774Y-84026102D01*
X127362000Y-84226061D01*
X105660000Y-84226061D01*
X105660000Y-81393137D01*
X110315000Y-81393137D01*
X110315000Y-81606863D01*
X110356696Y-81816483D01*
X110438485Y-82013940D01*
X110557225Y-82191647D01*
X110708353Y-82342775D01*
X110886060Y-82461515D01*
X111083517Y-82543304D01*
X111293137Y-82585000D01*
X111506863Y-82585000D01*
X111716483Y-82543304D01*
X111913940Y-82461515D01*
X112091647Y-82342775D01*
X112242775Y-82191647D01*
X112361515Y-82013940D01*
X112443304Y-81816483D01*
X112485000Y-81606863D01*
X112485000Y-81393137D01*
X112443304Y-81183517D01*
X112361515Y-80986060D01*
X112242775Y-80808353D01*
X112091647Y-80657225D01*
X111913940Y-80538485D01*
X111716483Y-80456696D01*
X111506863Y-80415000D01*
X111293137Y-80415000D01*
X111083517Y-80456696D01*
X110886060Y-80538485D01*
X110708353Y-80657225D01*
X110557225Y-80808353D01*
X110438485Y-80986060D01*
X110356696Y-81183517D01*
X110315000Y-81393137D01*
X105660000Y-81393137D01*
X105660000Y-76993137D01*
X110315000Y-76993137D01*
X110315000Y-77206863D01*
X110356696Y-77416483D01*
X110438485Y-77613940D01*
X110557225Y-77791647D01*
X110708353Y-77942775D01*
X110886060Y-78061515D01*
X111083517Y-78143304D01*
X111293137Y-78185000D01*
X111506863Y-78185000D01*
X111716483Y-78143304D01*
X111913940Y-78061515D01*
X112091647Y-77942775D01*
X112242775Y-77791647D01*
X112361515Y-77613940D01*
X112443304Y-77416483D01*
X112485000Y-77206863D01*
X112485000Y-76993137D01*
X112443304Y-76783517D01*
X112361515Y-76586060D01*
X112242775Y-76408353D01*
X112091647Y-76257225D01*
X111913940Y-76138485D01*
X111716483Y-76056696D01*
X111506863Y-76015000D01*
X111293137Y-76015000D01*
X111083517Y-76056696D01*
X110886060Y-76138485D01*
X110708353Y-76257225D01*
X110557225Y-76408353D01*
X110438485Y-76586060D01*
X110356696Y-76783517D01*
X110315000Y-76993137D01*
X105660000Y-76993137D01*
X105660000Y-73598061D01*
X132565000Y-73598061D01*
X132565000Y-73801939D01*
X132604774Y-74001898D01*
X132682795Y-74190256D01*
X132796063Y-74359774D01*
X132940226Y-74503937D01*
X133109744Y-74617205D01*
X133298102Y-74695226D01*
X133498061Y-74735000D01*
X133701939Y-74735000D01*
X133901898Y-74695226D01*
X134090256Y-74617205D01*
X134259774Y-74503937D01*
X134403937Y-74359774D01*
X134498424Y-74218363D01*
X134544463Y-74304494D01*
X134623815Y-74401185D01*
X134720506Y-74480537D01*
X134830820Y-74539502D01*
X134950518Y-74575812D01*
X135075000Y-74588072D01*
X136625000Y-74588072D01*
X136740000Y-74576746D01*
X136740000Y-74596289D01*
X136696063Y-74640226D01*
X136582795Y-74809744D01*
X136504774Y-74998102D01*
X136465000Y-75198061D01*
X136465000Y-75401939D01*
X136504774Y-75601898D01*
X136582795Y-75790256D01*
X136696063Y-75959774D01*
X136840226Y-76103937D01*
X137009744Y-76217205D01*
X137198102Y-76295226D01*
X137398061Y-76335000D01*
X137601939Y-76335000D01*
X137801898Y-76295226D01*
X137990256Y-76217205D01*
X138159774Y-76103937D01*
X138303937Y-75959774D01*
X138316591Y-75940836D01*
X138396063Y-76059774D01*
X138540226Y-76203937D01*
X138709744Y-76317205D01*
X138898102Y-76395226D01*
X139098061Y-76435000D01*
X139160199Y-76435000D01*
X143015001Y-80289803D01*
X143015000Y-81461928D01*
X143000000Y-81461928D01*
X142875518Y-81474188D01*
X142755820Y-81510498D01*
X142645506Y-81569463D01*
X142548815Y-81648815D01*
X142469463Y-81745506D01*
X142410498Y-81855820D01*
X142374188Y-81975518D01*
X142372762Y-81990000D01*
X137227238Y-81990000D01*
X137225812Y-81975518D01*
X137189502Y-81855820D01*
X137130537Y-81745506D01*
X137051185Y-81648815D01*
X136954494Y-81569463D01*
X136844180Y-81510498D01*
X136724482Y-81474188D01*
X136600000Y-81461928D01*
X135050000Y-81461928D01*
X134925518Y-81474188D01*
X134805820Y-81510498D01*
X134695506Y-81569463D01*
X134598815Y-81648815D01*
X134519463Y-81745506D01*
X134460498Y-81855820D01*
X134424188Y-81975518D01*
X134411928Y-82100000D01*
X134411928Y-83400000D01*
X134424188Y-83524482D01*
X134460498Y-83644180D01*
X134519463Y-83754494D01*
X134598815Y-83851185D01*
X134695506Y-83930537D01*
X134805820Y-83989502D01*
X134925518Y-84025812D01*
X135050000Y-84038072D01*
X136600000Y-84038072D01*
X136724482Y-84025812D01*
X136844180Y-83989502D01*
X136954494Y-83930537D01*
X137051185Y-83851185D01*
X137130537Y-83754494D01*
X137189502Y-83644180D01*
X137225812Y-83524482D01*
X137227238Y-83510000D01*
X142372762Y-83510000D01*
X142374188Y-83524482D01*
X142410498Y-83644180D01*
X142469463Y-83754494D01*
X142548815Y-83851185D01*
X142645506Y-83930537D01*
X142755820Y-83989502D01*
X142875518Y-84025812D01*
X143000000Y-84038072D01*
X144550000Y-84038072D01*
X144674482Y-84025812D01*
X144794180Y-83989502D01*
X144904494Y-83930537D01*
X145001185Y-83851185D01*
X145080537Y-83754494D01*
X145139502Y-83644180D01*
X145175812Y-83524482D01*
X145188072Y-83400000D01*
X145188072Y-82100000D01*
X145175812Y-81975518D01*
X145139502Y-81855820D01*
X145080537Y-81745506D01*
X145001185Y-81648815D01*
X144904494Y-81569463D01*
X144794180Y-81510498D01*
X144674482Y-81474188D01*
X144550000Y-81461928D01*
X144535000Y-81461928D01*
X144535000Y-80012322D01*
X144538676Y-79974999D01*
X144535000Y-79937676D01*
X144535000Y-79937667D01*
X144524003Y-79826014D01*
X144480546Y-79682753D01*
X144409974Y-79550723D01*
X144338799Y-79463997D01*
X144315001Y-79434999D01*
X144286003Y-79411201D01*
X140235000Y-75360199D01*
X140235000Y-75298061D01*
X140195226Y-75098102D01*
X140117205Y-74909744D01*
X140003937Y-74740226D01*
X139859774Y-74596063D01*
X139690256Y-74482795D01*
X139501898Y-74404774D01*
X139301939Y-74365000D01*
X139098061Y-74365000D01*
X138898102Y-74404774D01*
X138709744Y-74482795D01*
X138540226Y-74596063D01*
X138396063Y-74740226D01*
X138383409Y-74759164D01*
X138303937Y-74640226D01*
X138260000Y-74596289D01*
X138260000Y-74060000D01*
X142397762Y-74060000D01*
X142399188Y-74074482D01*
X142435498Y-74194180D01*
X142494463Y-74304494D01*
X142573815Y-74401185D01*
X142670506Y-74480537D01*
X142780820Y-74539502D01*
X142900518Y-74575812D01*
X143025000Y-74588072D01*
X144575000Y-74588072D01*
X144699482Y-74575812D01*
X144819180Y-74539502D01*
X144929494Y-74480537D01*
X145026185Y-74401185D01*
X145105537Y-74304494D01*
X145164502Y-74194180D01*
X145200812Y-74074482D01*
X145213072Y-73950000D01*
X145213072Y-72650000D01*
X145200812Y-72525518D01*
X145164502Y-72405820D01*
X145105537Y-72295506D01*
X145026185Y-72198815D01*
X144929494Y-72119463D01*
X144819180Y-72060498D01*
X144699482Y-72024188D01*
X144575000Y-72011928D01*
X143025000Y-72011928D01*
X142900518Y-72024188D01*
X142780820Y-72060498D01*
X142670506Y-72119463D01*
X142573815Y-72198815D01*
X142494463Y-72295506D01*
X142435498Y-72405820D01*
X142399188Y-72525518D01*
X142397762Y-72540000D01*
X137537333Y-72540000D01*
X137500000Y-72536323D01*
X137462667Y-72540000D01*
X137252238Y-72540000D01*
X137250812Y-72525518D01*
X137214502Y-72405820D01*
X137155537Y-72295506D01*
X137076185Y-72198815D01*
X136979494Y-72119463D01*
X136869180Y-72060498D01*
X136749482Y-72024188D01*
X136625000Y-72011928D01*
X135360000Y-72011928D01*
X135360000Y-70803711D01*
X135403937Y-70759774D01*
X135517205Y-70590256D01*
X135595226Y-70401898D01*
X135635000Y-70201939D01*
X135635000Y-70014250D01*
X135723000Y-69926250D01*
X135723000Y-68927000D01*
X135977000Y-68927000D01*
X135977000Y-69926250D01*
X136135750Y-70085000D01*
X136625000Y-70088072D01*
X136749482Y-70075812D01*
X136869180Y-70039502D01*
X136979494Y-69980537D01*
X137076185Y-69901185D01*
X137155537Y-69804494D01*
X137214502Y-69694180D01*
X137250812Y-69574482D01*
X137263072Y-69450000D01*
X142386928Y-69450000D01*
X142399188Y-69574482D01*
X142435498Y-69694180D01*
X142494463Y-69804494D01*
X142573815Y-69901185D01*
X142670506Y-69980537D01*
X142780820Y-70039502D01*
X142900518Y-70075812D01*
X143025000Y-70088072D01*
X143514250Y-70085000D01*
X143673000Y-69926250D01*
X143673000Y-68927000D01*
X143927000Y-68927000D01*
X143927000Y-69926250D01*
X144085750Y-70085000D01*
X144575000Y-70088072D01*
X144699482Y-70075812D01*
X144819180Y-70039502D01*
X144929494Y-69980537D01*
X145026185Y-69901185D01*
X145105537Y-69804494D01*
X145164502Y-69694180D01*
X145200812Y-69574482D01*
X145213072Y-69450000D01*
X145210000Y-69085750D01*
X145051250Y-68927000D01*
X143927000Y-68927000D01*
X143673000Y-68927000D01*
X142548750Y-68927000D01*
X142390000Y-69085750D01*
X142386928Y-69450000D01*
X137263072Y-69450000D01*
X137260000Y-69085750D01*
X137101250Y-68927000D01*
X135977000Y-68927000D01*
X135723000Y-68927000D01*
X134598750Y-68927000D01*
X134451486Y-69074264D01*
X134298102Y-69104774D01*
X134109744Y-69182795D01*
X133940226Y-69296063D01*
X133796063Y-69440226D01*
X133682795Y-69609744D01*
X133604774Y-69798102D01*
X133565000Y-69998061D01*
X133565000Y-70201939D01*
X133604774Y-70401898D01*
X133682795Y-70590256D01*
X133796063Y-70759774D01*
X133840001Y-70803712D01*
X133840000Y-72385198D01*
X133560199Y-72665000D01*
X133498061Y-72665000D01*
X133298102Y-72704774D01*
X133109744Y-72782795D01*
X132940226Y-72896063D01*
X132796063Y-73040226D01*
X132682795Y-73209744D01*
X132604774Y-73398102D01*
X132565000Y-73598061D01*
X105660000Y-73598061D01*
X105660000Y-67660000D01*
X134671111Y-67660000D01*
X134623815Y-67698815D01*
M02*
