G04 #@! TF.GenerationSoftware,KiCad,Pcbnew,(5.1.6)-1*
G04 #@! TF.CreationDate,2020-08-03T23:14:59+02:00*
G04 #@! TF.ProjectId,Programmer,50726f67-7261-46d6-9d65-722e6b696361,rev?*
G04 #@! TF.SameCoordinates,Original*
G04 #@! TF.FileFunction,Paste,Top*
G04 #@! TF.FilePolarity,Positive*
%FSLAX46Y46*%
G04 Gerber Fmt 4.6, Leading zero omitted, Abs format (unit mm)*
G04 Created by KiCad (PCBNEW (5.1.6)-1) date 2020-08-03 23:14:59*
%MOMM*%
%LPD*%
G01*
G04 APERTURE LIST*
%ADD10R,0.650000X1.060000*%
%ADD11R,0.700000X0.300000*%
%ADD12R,0.450000X1.750000*%
%ADD13R,1.060000X0.650000*%
%ADD14R,0.400000X0.650000*%
%ADD15R,2.400000X0.740000*%
G04 APERTURE END LIST*
D10*
X118400000Y-81100000D03*
X119350000Y-81100000D03*
X117450000Y-81100000D03*
X117450000Y-78900000D03*
X118400000Y-78900000D03*
X119350000Y-78900000D03*
D11*
X115100000Y-81800000D03*
X115100000Y-80300000D03*
X115100000Y-80800000D03*
X115100000Y-81300000D03*
X115100000Y-82300000D03*
X115100000Y-79800000D03*
X115100000Y-79300000D03*
X115100000Y-78800000D03*
X115100000Y-78300000D03*
X115100000Y-77800000D03*
X115100000Y-77300000D03*
X115100000Y-76800000D03*
D12*
X134300000Y-82600000D03*
X133650000Y-82600000D03*
X133000000Y-82600000D03*
X132350000Y-82600000D03*
X131700000Y-82600000D03*
X131050000Y-82600000D03*
X130400000Y-82600000D03*
X129750000Y-82600000D03*
X129100000Y-82600000D03*
X128450000Y-82600000D03*
X127800000Y-82600000D03*
X127150000Y-82600000D03*
X126500000Y-82600000D03*
X125850000Y-82600000D03*
X125850000Y-75400000D03*
X126500000Y-75400000D03*
X127150000Y-75400000D03*
X127800000Y-75400000D03*
X128450000Y-75400000D03*
X129100000Y-75400000D03*
X129750000Y-75400000D03*
X130400000Y-75400000D03*
X131050000Y-75400000D03*
X131700000Y-75400000D03*
X132350000Y-75400000D03*
X133000000Y-75400000D03*
X133650000Y-75400000D03*
X134300000Y-75400000D03*
D13*
X126100000Y-70050000D03*
X126100000Y-71950000D03*
X123900000Y-71950000D03*
X123900000Y-71000000D03*
X123900000Y-70050000D03*
G36*
G01*
X130043750Y-71512500D02*
X130956250Y-71512500D01*
G75*
G02*
X131200000Y-71756250I0J-243750D01*
G01*
X131200000Y-72243750D01*
G75*
G02*
X130956250Y-72487500I-243750J0D01*
G01*
X130043750Y-72487500D01*
G75*
G02*
X129800000Y-72243750I0J243750D01*
G01*
X129800000Y-71756250D01*
G75*
G02*
X130043750Y-71512500I243750J0D01*
G01*
G37*
G36*
G01*
X130043750Y-69637500D02*
X130956250Y-69637500D01*
G75*
G02*
X131200000Y-69881250I0J-243750D01*
G01*
X131200000Y-70368750D01*
G75*
G02*
X130956250Y-70612500I-243750J0D01*
G01*
X130043750Y-70612500D01*
G75*
G02*
X129800000Y-70368750I0J243750D01*
G01*
X129800000Y-69881250D01*
G75*
G02*
X130043750Y-69637500I243750J0D01*
G01*
G37*
G36*
G01*
X136256250Y-70587500D02*
X135343750Y-70587500D01*
G75*
G02*
X135100000Y-70343750I0J243750D01*
G01*
X135100000Y-69856250D01*
G75*
G02*
X135343750Y-69612500I243750J0D01*
G01*
X136256250Y-69612500D01*
G75*
G02*
X136500000Y-69856250I0J-243750D01*
G01*
X136500000Y-70343750D01*
G75*
G02*
X136256250Y-70587500I-243750J0D01*
G01*
G37*
G36*
G01*
X136256250Y-72462500D02*
X135343750Y-72462500D01*
G75*
G02*
X135100000Y-72218750I0J243750D01*
G01*
X135100000Y-71731250D01*
G75*
G02*
X135343750Y-71487500I243750J0D01*
G01*
X136256250Y-71487500D01*
G75*
G02*
X136500000Y-71731250I0J-243750D01*
G01*
X136500000Y-72218750D01*
G75*
G02*
X136256250Y-72462500I-243750J0D01*
G01*
G37*
G36*
G01*
X122487500Y-81956250D02*
X122487500Y-81043750D01*
G75*
G02*
X122731250Y-80800000I243750J0D01*
G01*
X123218750Y-80800000D01*
G75*
G02*
X123462500Y-81043750I0J-243750D01*
G01*
X123462500Y-81956250D01*
G75*
G02*
X123218750Y-82200000I-243750J0D01*
G01*
X122731250Y-82200000D01*
G75*
G02*
X122487500Y-81956250I0J243750D01*
G01*
G37*
G36*
G01*
X120612500Y-81956250D02*
X120612500Y-81043750D01*
G75*
G02*
X120856250Y-80800000I243750J0D01*
G01*
X121343750Y-80800000D01*
G75*
G02*
X121587500Y-81043750I0J-243750D01*
G01*
X121587500Y-81956250D01*
G75*
G02*
X121343750Y-82200000I-243750J0D01*
G01*
X120856250Y-82200000D01*
G75*
G02*
X120612500Y-81956250I0J243750D01*
G01*
G37*
G36*
G01*
X122512500Y-79356250D02*
X122512500Y-78443750D01*
G75*
G02*
X122756250Y-78200000I243750J0D01*
G01*
X123243750Y-78200000D01*
G75*
G02*
X123487500Y-78443750I0J-243750D01*
G01*
X123487500Y-79356250D01*
G75*
G02*
X123243750Y-79600000I-243750J0D01*
G01*
X122756250Y-79600000D01*
G75*
G02*
X122512500Y-79356250I0J243750D01*
G01*
G37*
G36*
G01*
X120637500Y-79356250D02*
X120637500Y-78443750D01*
G75*
G02*
X120881250Y-78200000I243750J0D01*
G01*
X121368750Y-78200000D01*
G75*
G02*
X121612500Y-78443750I0J-243750D01*
G01*
X121612500Y-79356250D01*
G75*
G02*
X121368750Y-79600000I-243750J0D01*
G01*
X120881250Y-79600000D01*
G75*
G02*
X120637500Y-79356250I0J243750D01*
G01*
G37*
G36*
G01*
X117887500Y-83443750D02*
X117887500Y-84356250D01*
G75*
G02*
X117643750Y-84600000I-243750J0D01*
G01*
X117156250Y-84600000D01*
G75*
G02*
X116912500Y-84356250I0J243750D01*
G01*
X116912500Y-83443750D01*
G75*
G02*
X117156250Y-83200000I243750J0D01*
G01*
X117643750Y-83200000D01*
G75*
G02*
X117887500Y-83443750I0J-243750D01*
G01*
G37*
G36*
G01*
X119762500Y-83443750D02*
X119762500Y-84356250D01*
G75*
G02*
X119518750Y-84600000I-243750J0D01*
G01*
X119031250Y-84600000D01*
G75*
G02*
X118787500Y-84356250I0J243750D01*
G01*
X118787500Y-83443750D01*
G75*
G02*
X119031250Y-83200000I243750J0D01*
G01*
X119518750Y-83200000D01*
G75*
G02*
X119762500Y-83443750I0J-243750D01*
G01*
G37*
G36*
G01*
X121587500Y-76143750D02*
X121587500Y-77056250D01*
G75*
G02*
X121343750Y-77300000I-243750J0D01*
G01*
X120856250Y-77300000D01*
G75*
G02*
X120612500Y-77056250I0J243750D01*
G01*
X120612500Y-76143750D01*
G75*
G02*
X120856250Y-75900000I243750J0D01*
G01*
X121343750Y-75900000D01*
G75*
G02*
X121587500Y-76143750I0J-243750D01*
G01*
G37*
G36*
G01*
X123462500Y-76143750D02*
X123462500Y-77056250D01*
G75*
G02*
X123218750Y-77300000I-243750J0D01*
G01*
X122731250Y-77300000D01*
G75*
G02*
X122487500Y-77056250I0J243750D01*
G01*
X122487500Y-76143750D01*
G75*
G02*
X122731250Y-75900000I243750J0D01*
G01*
X123218750Y-75900000D01*
G75*
G02*
X123462500Y-76143750I0J-243750D01*
G01*
G37*
D14*
X132500000Y-70100000D03*
X133800000Y-70100000D03*
X133150000Y-72000000D03*
X133150000Y-70100000D03*
X133800000Y-72000000D03*
X132500000Y-72000000D03*
D15*
X143100000Y-79940000D03*
X139200000Y-79940000D03*
X143100000Y-78670000D03*
X139200000Y-78670000D03*
X143100000Y-77400000D03*
X139200000Y-77400000D03*
G36*
G01*
X119612500Y-69543750D02*
X119612500Y-70456250D01*
G75*
G02*
X119368750Y-70700000I-243750J0D01*
G01*
X118881250Y-70700000D01*
G75*
G02*
X118637500Y-70456250I0J243750D01*
G01*
X118637500Y-69543750D01*
G75*
G02*
X118881250Y-69300000I243750J0D01*
G01*
X119368750Y-69300000D01*
G75*
G02*
X119612500Y-69543750I0J-243750D01*
G01*
G37*
G36*
G01*
X121487500Y-69543750D02*
X121487500Y-70456250D01*
G75*
G02*
X121243750Y-70700000I-243750J0D01*
G01*
X120756250Y-70700000D01*
G75*
G02*
X120512500Y-70456250I0J243750D01*
G01*
X120512500Y-69543750D01*
G75*
G02*
X120756250Y-69300000I243750J0D01*
G01*
X121243750Y-69300000D01*
G75*
G02*
X121487500Y-69543750I0J-243750D01*
G01*
G37*
G36*
G01*
X125787500Y-84643750D02*
X125787500Y-85556250D01*
G75*
G02*
X125543750Y-85800000I-243750J0D01*
G01*
X125056250Y-85800000D01*
G75*
G02*
X124812500Y-85556250I0J243750D01*
G01*
X124812500Y-84643750D01*
G75*
G02*
X125056250Y-84400000I243750J0D01*
G01*
X125543750Y-84400000D01*
G75*
G02*
X125787500Y-84643750I0J-243750D01*
G01*
G37*
G36*
G01*
X127662500Y-84643750D02*
X127662500Y-85556250D01*
G75*
G02*
X127418750Y-85800000I-243750J0D01*
G01*
X126931250Y-85800000D01*
G75*
G02*
X126687500Y-85556250I0J243750D01*
G01*
X126687500Y-84643750D01*
G75*
G02*
X126931250Y-84400000I243750J0D01*
G01*
X127418750Y-84400000D01*
G75*
G02*
X127662500Y-84643750I0J-243750D01*
G01*
G37*
G36*
G01*
X127543750Y-71387500D02*
X128456250Y-71387500D01*
G75*
G02*
X128700000Y-71631250I0J-243750D01*
G01*
X128700000Y-72118750D01*
G75*
G02*
X128456250Y-72362500I-243750J0D01*
G01*
X127543750Y-72362500D01*
G75*
G02*
X127300000Y-72118750I0J243750D01*
G01*
X127300000Y-71631250D01*
G75*
G02*
X127543750Y-71387500I243750J0D01*
G01*
G37*
G36*
G01*
X127543750Y-69512500D02*
X128456250Y-69512500D01*
G75*
G02*
X128700000Y-69756250I0J-243750D01*
G01*
X128700000Y-70243750D01*
G75*
G02*
X128456250Y-70487500I-243750J0D01*
G01*
X127543750Y-70487500D01*
G75*
G02*
X127300000Y-70243750I0J243750D01*
G01*
X127300000Y-69756250D01*
G75*
G02*
X127543750Y-69512500I243750J0D01*
G01*
G37*
G36*
G01*
X120487500Y-71543750D02*
X120487500Y-72456250D01*
G75*
G02*
X120243750Y-72700000I-243750J0D01*
G01*
X119756250Y-72700000D01*
G75*
G02*
X119512500Y-72456250I0J243750D01*
G01*
X119512500Y-71543750D01*
G75*
G02*
X119756250Y-71300000I243750J0D01*
G01*
X120243750Y-71300000D01*
G75*
G02*
X120487500Y-71543750I0J-243750D01*
G01*
G37*
G36*
G01*
X122362500Y-71543750D02*
X122362500Y-72456250D01*
G75*
G02*
X122118750Y-72700000I-243750J0D01*
G01*
X121631250Y-72700000D01*
G75*
G02*
X121387500Y-72456250I0J243750D01*
G01*
X121387500Y-71543750D01*
G75*
G02*
X121631250Y-71300000I243750J0D01*
G01*
X122118750Y-71300000D01*
G75*
G02*
X122362500Y-71543750I0J-243750D01*
G01*
G37*
G36*
G01*
X122487500Y-75156250D02*
X122487500Y-74243750D01*
G75*
G02*
X122731250Y-74000000I243750J0D01*
G01*
X123218750Y-74000000D01*
G75*
G02*
X123462500Y-74243750I0J-243750D01*
G01*
X123462500Y-75156250D01*
G75*
G02*
X123218750Y-75400000I-243750J0D01*
G01*
X122731250Y-75400000D01*
G75*
G02*
X122487500Y-75156250I0J243750D01*
G01*
G37*
G36*
G01*
X120612500Y-75156250D02*
X120612500Y-74243750D01*
G75*
G02*
X120856250Y-74000000I243750J0D01*
G01*
X121343750Y-74000000D01*
G75*
G02*
X121587500Y-74243750I0J-243750D01*
G01*
X121587500Y-75156250D01*
G75*
G02*
X121343750Y-75400000I-243750J0D01*
G01*
X120856250Y-75400000D01*
G75*
G02*
X120612500Y-75156250I0J243750D01*
G01*
G37*
M02*
