M48
; DRILL file {KiCad (5.1.6)-1} date 07/29/20 11:18:28
; FORMAT={-:-/ absolute / inch / decimal}
; #@! TF.CreationDate,2020-07-29T11:18:28+02:00
; #@! TF.GenerationSoftware,Kicad,Pcbnew,(5.1.6)-1
; #@! TF.FileFunction,Plated,1,2,PTH
FMAT,2
INCH
T1C0.0157
T2C0.0299
T3C0.0315
T4C0.0394
T5C0.0402
T6C0.0512
%
G90
G05
T1
X6.0Y-5.42
X6.01Y-5.04
X6.02Y-4.4844
X6.16Y-5.14
X6.31Y-4.65
X6.31Y-4.81
X6.31Y-4.88
X6.36Y-5.22
X6.59Y-5.43
X6.69Y-4.89
X6.71Y-4.57
X6.9256Y-5.0634
X7.01Y-4.19
X7.02Y-4.86
X7.07Y-4.2
X7.17Y-4.41
T2
X5.1972Y-3.6959
X5.4965Y-3.6959
X5.8Y-5.225
X5.8Y-5.525
T3
X5.1972Y-4.7982
X5.7957Y-4.7982
T4
X6.77Y-5.22
X6.77Y-5.32
X6.77Y-5.42
X6.87Y-5.22
X6.87Y-5.32
X6.87Y-5.42
T5
X4.8425Y-4.9213
X4.8425Y-5.0394
X4.8425Y-4.252
X4.8425Y-4.3701
X4.8425Y-4.4882
T6
X5.1Y-5.225
X5.4Y-5.225
T0
M30
