G04 #@! TF.GenerationSoftware,KiCad,Pcbnew,(5.1.6)-1*
G04 #@! TF.CreationDate,2020-07-29T11:18:25+02:00*
G04 #@! TF.ProjectId,loftrelayRound,6c6f6674-7265-46c6-9179-526f756e642e,rev?*
G04 #@! TF.SameCoordinates,Original*
G04 #@! TF.FileFunction,Paste,Top*
G04 #@! TF.FilePolarity,Positive*
%FSLAX46Y46*%
G04 Gerber Fmt 4.6, Leading zero omitted, Abs format (unit mm)*
G04 Created by KiCad (PCBNEW (5.1.6)-1) date 2020-07-29 11:18:25*
%MOMM*%
%LPD*%
G01*
G04 APERTURE LIST*
%ADD10R,1.500000X1.250000*%
%ADD11R,1.250000X1.500000*%
%ADD12R,1.300000X1.500000*%
%ADD13R,1.500000X1.300000*%
%ADD14R,2.500000X1.000000*%
%ADD15R,1.000000X1.800000*%
%ADD16R,0.800000X0.900000*%
%ADD17R,2.000000X3.800000*%
%ADD18R,2.000000X1.500000*%
%ADD19R,2.400000X0.740000*%
G04 APERTURE END LIST*
D10*
X154218000Y-138938000D03*
X156718000Y-138938000D03*
D11*
X154940000Y-126238000D03*
X154940000Y-128738000D03*
X168910000Y-132802000D03*
X168910000Y-130302000D03*
D12*
X154686000Y-113284000D03*
X154686000Y-115984000D03*
X154686000Y-108458000D03*
X154686000Y-111158000D03*
D13*
X175768000Y-119800000D03*
X178468000Y-119800000D03*
D12*
X175514000Y-123952000D03*
X175514000Y-126652000D03*
D13*
X175768000Y-121666000D03*
X178468000Y-121666000D03*
D14*
X157500000Y-112070000D03*
X157500000Y-114070000D03*
X157500000Y-116070000D03*
X157500000Y-118070000D03*
X157500000Y-120070000D03*
X157500000Y-122070000D03*
X157500000Y-124070000D03*
X157500000Y-126070000D03*
D15*
X160100000Y-127570000D03*
X162100000Y-127570000D03*
X164100000Y-127570000D03*
X166100000Y-127570000D03*
X168100000Y-127570000D03*
X170100000Y-127570000D03*
D14*
X172700000Y-126070000D03*
X172700000Y-124070000D03*
X172700000Y-122070000D03*
X172700000Y-120070000D03*
X172700000Y-118070000D03*
X172700000Y-116070000D03*
X172700000Y-114070000D03*
X172700000Y-112070000D03*
D16*
X155006000Y-133572000D03*
X154056000Y-131572000D03*
X155956000Y-131572000D03*
D10*
X178268000Y-114300000D03*
X175768000Y-114300000D03*
D17*
X165608000Y-134112000D03*
D18*
X159308000Y-134112000D03*
X159308000Y-136412000D03*
X159308000Y-131812000D03*
D16*
X153990000Y-137128000D03*
X155890000Y-137128000D03*
X154940000Y-135128000D03*
D19*
X180684000Y-110490000D03*
X176784000Y-110490000D03*
X180684000Y-109220000D03*
X176784000Y-109220000D03*
X180684000Y-107950000D03*
X176784000Y-107950000D03*
D12*
X152908000Y-118712000D03*
X152908000Y-121412000D03*
X154940000Y-122936000D03*
X154940000Y-120236000D03*
M02*
