G04 #@! TF.GenerationSoftware,KiCad,Pcbnew,(5.0.2)-1*
G04 #@! TF.CreationDate,2020-01-19T23:31:25+01:00*
G04 #@! TF.ProjectId,loftrelayRound,6c6f6674-7265-46c6-9179-526f756e642e,rev?*
G04 #@! TF.SameCoordinates,Original*
G04 #@! TF.FileFunction,Legend,Bot*
G04 #@! TF.FilePolarity,Positive*
%FSLAX46Y46*%
G04 Gerber Fmt 4.6, Leading zero omitted, Abs format (unit mm)*
G04 Created by KiCad (PCBNEW (5.0.2)-1) date 19/01/2020 23:31:25*
%MOMM*%
%LPD*%
G01*
G04 APERTURE LIST*
%ADD10C,0.120000*%
%ADD11C,0.150000*%
G04 APERTURE END LIST*
D10*
G04 #@! TO.C,R1*
X136090000Y-107236000D02*
X136090000Y-109236000D01*
X138230000Y-109236000D02*
X138230000Y-107236000D01*
G04 #@! TO.C,R2*
X147148000Y-100194000D02*
X148348000Y-100194000D01*
X148348000Y-98434000D02*
X147148000Y-98434000D01*
G04 #@! TO.C,D2*
X133052000Y-104792000D02*
X133052000Y-101592000D01*
X135172000Y-101592000D02*
X135172000Y-104792000D01*
X135172000Y-104792000D02*
X133052000Y-104792000D01*
G04 #@! TO.C,U2*
X142862000Y-104362000D02*
X142862000Y-104062000D01*
X138062000Y-104362000D02*
X142862000Y-104362000D01*
X138062000Y-104062000D02*
X138062000Y-104362000D01*
X138062000Y-100362000D02*
X138062000Y-100662000D01*
X142862000Y-100362000D02*
X138062000Y-100362000D01*
X142862000Y-100662000D02*
X142862000Y-100362000D01*
X138062000Y-104062000D02*
X136362000Y-104062000D01*
G04 #@! TO.C,D3*
X148318000Y-100462000D02*
X148318000Y-101392000D01*
X148318000Y-103622000D02*
X148318000Y-102692000D01*
X148318000Y-103622000D02*
X146158000Y-103622000D01*
X148318000Y-100462000D02*
X146858000Y-100462000D01*
D11*
G04 #@! TO.C,F1*
X127254000Y-119253000D02*
X132334000Y-119253000D01*
X132334000Y-108204000D02*
X127254000Y-108204000D01*
X132334000Y-108204000D02*
X132334000Y-119253000D01*
X127254000Y-119253000D02*
X127254000Y-108204000D01*
X127762000Y-115062000D02*
X127254000Y-115062000D01*
X127762000Y-119253000D02*
X127762000Y-115062000D01*
X131826000Y-115062000D02*
X132334000Y-115062000D01*
X131826000Y-119253000D02*
X131826000Y-115062000D01*
X131826000Y-112522000D02*
X132334000Y-112522000D01*
X131826000Y-108204000D02*
X131826000Y-112522000D01*
X127762000Y-112522000D02*
X127254000Y-112522000D01*
X127762000Y-108204000D02*
X127762000Y-112522000D01*
G04 #@! TO.C,R1*
X135762380Y-108069333D02*
X135286190Y-107736000D01*
X135762380Y-107497904D02*
X134762380Y-107497904D01*
X134762380Y-107878857D01*
X134810000Y-107974095D01*
X134857619Y-108021714D01*
X134952857Y-108069333D01*
X135095714Y-108069333D01*
X135190952Y-108021714D01*
X135238571Y-107974095D01*
X135286190Y-107878857D01*
X135286190Y-107497904D01*
X135762380Y-109021714D02*
X135762380Y-108450285D01*
X135762380Y-108736000D02*
X134762380Y-108736000D01*
X134905238Y-108640761D01*
X135000476Y-108545523D01*
X135048095Y-108450285D01*
G04 #@! TO.C,R2*
X147914666Y-101466380D02*
X148248000Y-100990190D01*
X148486095Y-101466380D02*
X148486095Y-100466380D01*
X148105142Y-100466380D01*
X148009904Y-100514000D01*
X147962285Y-100561619D01*
X147914666Y-100656857D01*
X147914666Y-100799714D01*
X147962285Y-100894952D01*
X148009904Y-100942571D01*
X148105142Y-100990190D01*
X148486095Y-100990190D01*
X147533714Y-100561619D02*
X147486095Y-100514000D01*
X147390857Y-100466380D01*
X147152761Y-100466380D01*
X147057523Y-100514000D01*
X147009904Y-100561619D01*
X146962285Y-100656857D01*
X146962285Y-100752095D01*
X147009904Y-100894952D01*
X147581333Y-101466380D01*
X146962285Y-101466380D01*
G04 #@! TO.C,D2*
X136364380Y-101853904D02*
X135364380Y-101853904D01*
X135364380Y-102092000D01*
X135412000Y-102234857D01*
X135507238Y-102330095D01*
X135602476Y-102377714D01*
X135792952Y-102425333D01*
X135935809Y-102425333D01*
X136126285Y-102377714D01*
X136221523Y-102330095D01*
X136316761Y-102234857D01*
X136364380Y-102092000D01*
X136364380Y-101853904D01*
X135459619Y-102806285D02*
X135412000Y-102853904D01*
X135364380Y-102949142D01*
X135364380Y-103187238D01*
X135412000Y-103282476D01*
X135459619Y-103330095D01*
X135554857Y-103377714D01*
X135650095Y-103377714D01*
X135792952Y-103330095D01*
X136364380Y-102758666D01*
X136364380Y-103377714D01*
G04 #@! TO.C,U2*
X141223904Y-104514380D02*
X141223904Y-105323904D01*
X141176285Y-105419142D01*
X141128666Y-105466761D01*
X141033428Y-105514380D01*
X140842952Y-105514380D01*
X140747714Y-105466761D01*
X140700095Y-105419142D01*
X140652476Y-105323904D01*
X140652476Y-104514380D01*
X140223904Y-104609619D02*
X140176285Y-104562000D01*
X140081047Y-104514380D01*
X139842952Y-104514380D01*
X139747714Y-104562000D01*
X139700095Y-104609619D01*
X139652476Y-104704857D01*
X139652476Y-104800095D01*
X139700095Y-104942952D01*
X140271523Y-105514380D01*
X139652476Y-105514380D01*
G04 #@! TO.C,D3*
X148296095Y-104994380D02*
X148296095Y-103994380D01*
X148058000Y-103994380D01*
X147915142Y-104042000D01*
X147819904Y-104137238D01*
X147772285Y-104232476D01*
X147724666Y-104422952D01*
X147724666Y-104565809D01*
X147772285Y-104756285D01*
X147819904Y-104851523D01*
X147915142Y-104946761D01*
X148058000Y-104994380D01*
X148296095Y-104994380D01*
X147391333Y-103994380D02*
X146772285Y-103994380D01*
X147105619Y-104375333D01*
X146962761Y-104375333D01*
X146867523Y-104422952D01*
X146819904Y-104470571D01*
X146772285Y-104565809D01*
X146772285Y-104803904D01*
X146819904Y-104899142D01*
X146867523Y-104946761D01*
X146962761Y-104994380D01*
X147248476Y-104994380D01*
X147343714Y-104946761D01*
X147391333Y-104899142D01*
G04 #@! TO.C,F1*
X130127333Y-114228571D02*
X130460666Y-114228571D01*
X130460666Y-114752380D02*
X130460666Y-113752380D01*
X129984476Y-113752380D01*
X129079714Y-114752380D02*
X129651142Y-114752380D01*
X129365428Y-114752380D02*
X129365428Y-113752380D01*
X129460666Y-113895238D01*
X129555904Y-113990476D01*
X129651142Y-114038095D01*
G04 #@! TD*
M02*
