M48
;DRILL file {KiCad (5.0.2)-1} date 19/01/2020 23:28:35
;FORMAT={-:-/ absolute / inch / decimal}
FMAT,2
INCH,TZ
T1C0.0157
T2C0.0299
T3C0.0315
T4C0.0394
T5C0.0472
T6C0.0512
%
G90
G05
T1
X6.Y-5.42
X6.01Y-5.04
X6.02Y-4.4844
X6.16Y-5.14
X6.31Y-4.65
X6.31Y-4.81
X6.31Y-4.88
X6.36Y-5.22
X6.59Y-5.43
X6.69Y-4.89
X6.71Y-4.57
X6.9256Y-5.0634
X7.01Y-4.19
X7.02Y-4.86
X7.07Y-4.2
X7.17Y-4.41
T2
X5.8Y-5.225
X5.8Y-5.525
X5.1972Y-3.6959
X5.4965Y-3.6959
T3
X5.2797Y-5.05
X5.575Y-5.05
X5.1972Y-4.7982
X5.7957Y-4.7982
T4
X6.77Y-5.22
X6.77Y-5.32
X6.77Y-5.42
X6.87Y-5.22
X6.87Y-5.32
X6.87Y-5.42
T5
X4.85Y-4.84
X4.85Y-4.9384
X4.84Y-4.35
X4.84Y-4.4484
X4.84Y-4.5469
T6
X5.1Y-5.225
X5.4Y-5.225
T0
M30
