G04 #@! TF.GenerationSoftware,KiCad,Pcbnew,(5.0.2)-1*
G04 #@! TF.CreationDate,2020-01-19T23:31:25+01:00*
G04 #@! TF.ProjectId,loftrelayRound,6c6f6674-7265-46c6-9179-526f756e642e,rev?*
G04 #@! TF.SameCoordinates,Original*
G04 #@! TF.FileFunction,Soldermask,Top*
G04 #@! TF.FilePolarity,Negative*
%FSLAX46Y46*%
G04 Gerber Fmt 4.6, Leading zero omitted, Abs format (unit mm)*
G04 Created by KiCad (PCBNEW (5.0.2)-1) date 19/01/2020 23:31:25*
%MOMM*%
%LPD*%
G01*
G04 APERTURE LIST*
%ADD10C,0.100000*%
G04 APERTURE END LIST*
D10*
G36*
X147507287Y-139393446D02*
X147600022Y-139411892D01*
X147774731Y-139484259D01*
X147929872Y-139587921D01*
X147931967Y-139589321D01*
X148065679Y-139723033D01*
X148170742Y-139880271D01*
X148243108Y-140054979D01*
X148280000Y-140240447D01*
X148280000Y-140429553D01*
X148243108Y-140615021D01*
X148170742Y-140789729D01*
X148065679Y-140946967D01*
X147931967Y-141080679D01*
X147931964Y-141080681D01*
X147774731Y-141185741D01*
X147600022Y-141258108D01*
X147507287Y-141276554D01*
X147414553Y-141295000D01*
X147225447Y-141295000D01*
X147132713Y-141276554D01*
X147039978Y-141258108D01*
X146865269Y-141185741D01*
X146708036Y-141080681D01*
X146708033Y-141080679D01*
X146574321Y-140946967D01*
X146469258Y-140789729D01*
X146396892Y-140615021D01*
X146360000Y-140429553D01*
X146360000Y-140240447D01*
X146396892Y-140054979D01*
X146469258Y-139880271D01*
X146574321Y-139723033D01*
X146708033Y-139589321D01*
X146710128Y-139587922D01*
X146865269Y-139484259D01*
X147039978Y-139411892D01*
X147132713Y-139393446D01*
X147225447Y-139375000D01*
X147414553Y-139375000D01*
X147507287Y-139393446D01*
X147507287Y-139393446D01*
G37*
G36*
X157668000Y-139763000D02*
X155768000Y-139763000D01*
X155768000Y-138113000D01*
X157668000Y-138113000D01*
X157668000Y-139763000D01*
X157668000Y-139763000D01*
G37*
G36*
X155168000Y-139763000D02*
X153268000Y-139763000D01*
X153268000Y-138113000D01*
X155168000Y-138113000D01*
X155168000Y-139763000D01*
X155168000Y-139763000D01*
G37*
G36*
X174626707Y-136625597D02*
X174703836Y-136633193D01*
X174835787Y-136673220D01*
X174901763Y-136693233D01*
X175084172Y-136790733D01*
X175244054Y-136921946D01*
X175375267Y-137081828D01*
X175472767Y-137264237D01*
X175472767Y-137264238D01*
X175532807Y-137462164D01*
X175553080Y-137668000D01*
X175532807Y-137873836D01*
X175492780Y-138005787D01*
X175472767Y-138071763D01*
X175375267Y-138254172D01*
X175244054Y-138414054D01*
X175084172Y-138545267D01*
X174901763Y-138642767D01*
X174835787Y-138662780D01*
X174703836Y-138702807D01*
X174626707Y-138710403D01*
X174549580Y-138718000D01*
X174446420Y-138718000D01*
X174369293Y-138710403D01*
X174292164Y-138702807D01*
X174160213Y-138662780D01*
X174094237Y-138642767D01*
X173911828Y-138545267D01*
X173751946Y-138414054D01*
X173620733Y-138254172D01*
X173523233Y-138071763D01*
X173503220Y-138005787D01*
X173463193Y-137873836D01*
X173442920Y-137668000D01*
X173463193Y-137462164D01*
X173523233Y-137264238D01*
X173523233Y-137264237D01*
X173620733Y-137081828D01*
X173751946Y-136921946D01*
X173911828Y-136790733D01*
X174094237Y-136693233D01*
X174160213Y-136673220D01*
X174292164Y-136633193D01*
X174369293Y-136625597D01*
X174446420Y-136618000D01*
X174549580Y-136618000D01*
X174626707Y-136625597D01*
X174626707Y-136625597D01*
G37*
G36*
X172086707Y-136625597D02*
X172163836Y-136633193D01*
X172295787Y-136673220D01*
X172361763Y-136693233D01*
X172544172Y-136790733D01*
X172704054Y-136921946D01*
X172835267Y-137081828D01*
X172932767Y-137264237D01*
X172932767Y-137264238D01*
X172992807Y-137462164D01*
X173013080Y-137668000D01*
X172992807Y-137873836D01*
X172952780Y-138005787D01*
X172932767Y-138071763D01*
X172835267Y-138254172D01*
X172704054Y-138414054D01*
X172544172Y-138545267D01*
X172361763Y-138642767D01*
X172295787Y-138662780D01*
X172163836Y-138702807D01*
X172086707Y-138710403D01*
X172009580Y-138718000D01*
X171906420Y-138718000D01*
X171829293Y-138710403D01*
X171752164Y-138702807D01*
X171620213Y-138662780D01*
X171554237Y-138642767D01*
X171371828Y-138545267D01*
X171211946Y-138414054D01*
X171080733Y-138254172D01*
X170983233Y-138071763D01*
X170963220Y-138005787D01*
X170923193Y-137873836D01*
X170902920Y-137668000D01*
X170923193Y-137462164D01*
X170983233Y-137264238D01*
X170983233Y-137264237D01*
X171080733Y-137081828D01*
X171211946Y-136921946D01*
X171371828Y-136790733D01*
X171554237Y-136693233D01*
X171620213Y-136673220D01*
X171752164Y-136633193D01*
X171829293Y-136625597D01*
X171906420Y-136618000D01*
X172009580Y-136618000D01*
X172086707Y-136625597D01*
X172086707Y-136625597D01*
G37*
G36*
X154590000Y-137778000D02*
X153390000Y-137778000D01*
X153390000Y-136478000D01*
X154590000Y-136478000D01*
X154590000Y-137778000D01*
X154590000Y-137778000D01*
G37*
G36*
X156490000Y-137778000D02*
X155290000Y-137778000D01*
X155290000Y-136478000D01*
X156490000Y-136478000D01*
X156490000Y-137778000D01*
X156490000Y-137778000D01*
G37*
G36*
X160508000Y-137362000D02*
X158108000Y-137362000D01*
X158108000Y-135462000D01*
X160508000Y-135462000D01*
X160508000Y-137362000D01*
X160508000Y-137362000D01*
G37*
G36*
X166808000Y-136212000D02*
X164408000Y-136212000D01*
X164408000Y-132012000D01*
X166808000Y-132012000D01*
X166808000Y-136212000D01*
X166808000Y-136212000D01*
G37*
G36*
X172086707Y-134085597D02*
X172163836Y-134093193D01*
X172295787Y-134133220D01*
X172361763Y-134153233D01*
X172544172Y-134250733D01*
X172704054Y-134381946D01*
X172835267Y-134541828D01*
X172932767Y-134724237D01*
X172932767Y-134724238D01*
X172992807Y-134922164D01*
X173013080Y-135128000D01*
X172992807Y-135333836D01*
X172953929Y-135462000D01*
X172932767Y-135531763D01*
X172835267Y-135714172D01*
X172704054Y-135874054D01*
X172544172Y-136005267D01*
X172361763Y-136102767D01*
X172295787Y-136122780D01*
X172163836Y-136162807D01*
X172086707Y-136170403D01*
X172009580Y-136178000D01*
X171906420Y-136178000D01*
X171829293Y-136170403D01*
X171752164Y-136162807D01*
X171620213Y-136122780D01*
X171554237Y-136102767D01*
X171371828Y-136005267D01*
X171211946Y-135874054D01*
X171080733Y-135714172D01*
X170983233Y-135531763D01*
X170962071Y-135462000D01*
X170923193Y-135333836D01*
X170902920Y-135128000D01*
X170923193Y-134922164D01*
X170983233Y-134724238D01*
X170983233Y-134724237D01*
X171080733Y-134541828D01*
X171211946Y-134381946D01*
X171371828Y-134250733D01*
X171554237Y-134153233D01*
X171620213Y-134133220D01*
X171752164Y-134093193D01*
X171829293Y-134085597D01*
X171906420Y-134078000D01*
X172009580Y-134078000D01*
X172086707Y-134085597D01*
X172086707Y-134085597D01*
G37*
G36*
X174626707Y-134085597D02*
X174703836Y-134093193D01*
X174835787Y-134133220D01*
X174901763Y-134153233D01*
X175084172Y-134250733D01*
X175244054Y-134381946D01*
X175375267Y-134541828D01*
X175472767Y-134724237D01*
X175472767Y-134724238D01*
X175532807Y-134922164D01*
X175553080Y-135128000D01*
X175532807Y-135333836D01*
X175493929Y-135462000D01*
X175472767Y-135531763D01*
X175375267Y-135714172D01*
X175244054Y-135874054D01*
X175084172Y-136005267D01*
X174901763Y-136102767D01*
X174835787Y-136122780D01*
X174703836Y-136162807D01*
X174626707Y-136170403D01*
X174549580Y-136178000D01*
X174446420Y-136178000D01*
X174369293Y-136170403D01*
X174292164Y-136162807D01*
X174160213Y-136122780D01*
X174094237Y-136102767D01*
X173911828Y-136005267D01*
X173751946Y-135874054D01*
X173620733Y-135714172D01*
X173523233Y-135531763D01*
X173502071Y-135462000D01*
X173463193Y-135333836D01*
X173442920Y-135128000D01*
X173463193Y-134922164D01*
X173523233Y-134724238D01*
X173523233Y-134724237D01*
X173620733Y-134541828D01*
X173751946Y-134381946D01*
X173911828Y-134250733D01*
X174094237Y-134153233D01*
X174160213Y-134133220D01*
X174292164Y-134093193D01*
X174369293Y-134085597D01*
X174446420Y-134078000D01*
X174549580Y-134078000D01*
X174626707Y-134085597D01*
X174626707Y-134085597D01*
G37*
G36*
X155540000Y-135778000D02*
X154340000Y-135778000D01*
X154340000Y-134478000D01*
X155540000Y-134478000D01*
X155540000Y-135778000D01*
X155540000Y-135778000D01*
G37*
G36*
X160508000Y-135062000D02*
X158108000Y-135062000D01*
X158108000Y-133162000D01*
X160508000Y-133162000D01*
X160508000Y-135062000D01*
X160508000Y-135062000D01*
G37*
G36*
X155606000Y-134222000D02*
X154406000Y-134222000D01*
X154406000Y-132922000D01*
X155606000Y-132922000D01*
X155606000Y-134222000D01*
X155606000Y-134222000D01*
G37*
G36*
X137510026Y-131561115D02*
X137728412Y-131651573D01*
X137924958Y-131782901D01*
X138092099Y-131950042D01*
X138223427Y-132146588D01*
X138313885Y-132364974D01*
X138360000Y-132596809D01*
X138360000Y-132833191D01*
X138313885Y-133065026D01*
X138223427Y-133283412D01*
X138092099Y-133479958D01*
X137924958Y-133647099D01*
X137728412Y-133778427D01*
X137510026Y-133868885D01*
X137278191Y-133915000D01*
X137041809Y-133915000D01*
X136809974Y-133868885D01*
X136591588Y-133778427D01*
X136395042Y-133647099D01*
X136227901Y-133479958D01*
X136096573Y-133283412D01*
X136006115Y-133065026D01*
X135960000Y-132833191D01*
X135960000Y-132596809D01*
X136006115Y-132364974D01*
X136096573Y-132146588D01*
X136227901Y-131950042D01*
X136395042Y-131782901D01*
X136591588Y-131651573D01*
X136809974Y-131561115D01*
X137041809Y-131515000D01*
X137278191Y-131515000D01*
X137510026Y-131561115D01*
X137510026Y-131561115D01*
G37*
G36*
X129890026Y-131561115D02*
X130108412Y-131651573D01*
X130304958Y-131782901D01*
X130472099Y-131950042D01*
X130603427Y-132146588D01*
X130693885Y-132364974D01*
X130740000Y-132596809D01*
X130740000Y-132833191D01*
X130693885Y-133065026D01*
X130603427Y-133283412D01*
X130472099Y-133479958D01*
X130304958Y-133647099D01*
X130108412Y-133778427D01*
X129890026Y-133868885D01*
X129658191Y-133915000D01*
X129421809Y-133915000D01*
X129189974Y-133868885D01*
X128971588Y-133778427D01*
X128775042Y-133647099D01*
X128607901Y-133479958D01*
X128476573Y-133283412D01*
X128386115Y-133065026D01*
X128340000Y-132833191D01*
X128340000Y-132596809D01*
X128386115Y-132364974D01*
X128476573Y-132146588D01*
X128607901Y-131950042D01*
X128775042Y-131782901D01*
X128971588Y-131651573D01*
X129189974Y-131561115D01*
X129421809Y-131515000D01*
X129658191Y-131515000D01*
X129890026Y-131561115D01*
X129890026Y-131561115D01*
G37*
G36*
X169735000Y-133752000D02*
X168085000Y-133752000D01*
X168085000Y-131852000D01*
X169735000Y-131852000D01*
X169735000Y-133752000D01*
X169735000Y-133752000D01*
G37*
G36*
X147507287Y-131773446D02*
X147600022Y-131791892D01*
X147774731Y-131864259D01*
X147903114Y-131950042D01*
X147931967Y-131969321D01*
X148065679Y-132103033D01*
X148065681Y-132103036D01*
X148170741Y-132260269D01*
X148243108Y-132434978D01*
X148280000Y-132620448D01*
X148280000Y-132809552D01*
X148243108Y-132995022D01*
X148170741Y-133169731D01*
X148094782Y-133283412D01*
X148065679Y-133326967D01*
X147931967Y-133460679D01*
X147931964Y-133460681D01*
X147774731Y-133565741D01*
X147600022Y-133638108D01*
X147507287Y-133656554D01*
X147414553Y-133675000D01*
X147225447Y-133675000D01*
X147132713Y-133656554D01*
X147039978Y-133638108D01*
X146865269Y-133565741D01*
X146708036Y-133460681D01*
X146708033Y-133460679D01*
X146574321Y-133326967D01*
X146545218Y-133283412D01*
X146469259Y-133169731D01*
X146396892Y-132995022D01*
X146360000Y-132809552D01*
X146360000Y-132620448D01*
X146396892Y-132434978D01*
X146469259Y-132260269D01*
X146574319Y-132103036D01*
X146574321Y-132103033D01*
X146708033Y-131969321D01*
X146736886Y-131950042D01*
X146865269Y-131864259D01*
X147039978Y-131791892D01*
X147132713Y-131773446D01*
X147225447Y-131755000D01*
X147414553Y-131755000D01*
X147507287Y-131773446D01*
X147507287Y-131773446D01*
G37*
G36*
X172086707Y-131545597D02*
X172163836Y-131553193D01*
X172295787Y-131593220D01*
X172361763Y-131613233D01*
X172544172Y-131710733D01*
X172704054Y-131841946D01*
X172835267Y-132001828D01*
X172932767Y-132184237D01*
X172932767Y-132184238D01*
X172992807Y-132382164D01*
X173013080Y-132588000D01*
X172992807Y-132793836D01*
X172953929Y-132922000D01*
X172932767Y-132991763D01*
X172835267Y-133174172D01*
X172704054Y-133334054D01*
X172544172Y-133465267D01*
X172361763Y-133562767D01*
X172295787Y-133582780D01*
X172163836Y-133622807D01*
X172086707Y-133630403D01*
X172009580Y-133638000D01*
X171906420Y-133638000D01*
X171829293Y-133630403D01*
X171752164Y-133622807D01*
X171620213Y-133582780D01*
X171554237Y-133562767D01*
X171371828Y-133465267D01*
X171211946Y-133334054D01*
X171080733Y-133174172D01*
X170983233Y-132991763D01*
X170962071Y-132922000D01*
X170923193Y-132793836D01*
X170902920Y-132588000D01*
X170923193Y-132382164D01*
X170983233Y-132184238D01*
X170983233Y-132184237D01*
X171080733Y-132001828D01*
X171211946Y-131841946D01*
X171371828Y-131710733D01*
X171554237Y-131613233D01*
X171620213Y-131593220D01*
X171752164Y-131553193D01*
X171829293Y-131545597D01*
X171906420Y-131538000D01*
X172009580Y-131538000D01*
X172086707Y-131545597D01*
X172086707Y-131545597D01*
G37*
G36*
X175548000Y-133638000D02*
X173448000Y-133638000D01*
X173448000Y-131538000D01*
X175548000Y-131538000D01*
X175548000Y-133638000D01*
X175548000Y-133638000D01*
G37*
G36*
X160508000Y-132762000D02*
X158108000Y-132762000D01*
X158108000Y-130862000D01*
X160508000Y-130862000D01*
X160508000Y-132762000D01*
X160508000Y-132762000D01*
G37*
G36*
X156556000Y-132222000D02*
X155356000Y-132222000D01*
X155356000Y-130922000D01*
X156556000Y-130922000D01*
X156556000Y-132222000D01*
X156556000Y-132222000D01*
G37*
G36*
X154656000Y-132222000D02*
X153456000Y-132222000D01*
X153456000Y-130922000D01*
X154656000Y-130922000D01*
X154656000Y-132222000D01*
X154656000Y-132222000D01*
G37*
G36*
X169735000Y-131252000D02*
X168085000Y-131252000D01*
X168085000Y-129352000D01*
X169735000Y-129352000D01*
X169735000Y-131252000D01*
X169735000Y-131252000D01*
G37*
G36*
X155765000Y-129688000D02*
X154115000Y-129688000D01*
X154115000Y-127788000D01*
X155765000Y-127788000D01*
X155765000Y-129688000D01*
X155765000Y-129688000D01*
G37*
G36*
X141780770Y-127285372D02*
X141896689Y-127308429D01*
X142078678Y-127383811D01*
X142242463Y-127493249D01*
X142381751Y-127632537D01*
X142491189Y-127796322D01*
X142566571Y-127978311D01*
X142605000Y-128171509D01*
X142605000Y-128368491D01*
X142566571Y-128561689D01*
X142491189Y-128743678D01*
X142381751Y-128907463D01*
X142242463Y-129046751D01*
X142078678Y-129156189D01*
X141896689Y-129231571D01*
X141780770Y-129254628D01*
X141703493Y-129270000D01*
X141506507Y-129270000D01*
X141429230Y-129254628D01*
X141313311Y-129231571D01*
X141131322Y-129156189D01*
X140967537Y-129046751D01*
X140828249Y-128907463D01*
X140718811Y-128743678D01*
X140643429Y-128561689D01*
X140605000Y-128368491D01*
X140605000Y-128171509D01*
X140643429Y-127978311D01*
X140718811Y-127796322D01*
X140828249Y-127632537D01*
X140967537Y-127493249D01*
X141131322Y-127383811D01*
X141313311Y-127308429D01*
X141429230Y-127285372D01*
X141506507Y-127270000D01*
X141703493Y-127270000D01*
X141780770Y-127285372D01*
X141780770Y-127285372D01*
G37*
G36*
X134301030Y-127284469D02*
X134301033Y-127284470D01*
X134301034Y-127284470D01*
X134489535Y-127341651D01*
X134489537Y-127341652D01*
X134663260Y-127434509D01*
X134815528Y-127559472D01*
X134940491Y-127711740D01*
X135033348Y-127885463D01*
X135090531Y-128073970D01*
X135109838Y-128270000D01*
X135090531Y-128466030D01*
X135033348Y-128654537D01*
X134940491Y-128828260D01*
X134815528Y-128980528D01*
X134663260Y-129105491D01*
X134663258Y-129105492D01*
X134489535Y-129198349D01*
X134301034Y-129255530D01*
X134301033Y-129255530D01*
X134301030Y-129255531D01*
X134154124Y-129270000D01*
X134055876Y-129270000D01*
X133908970Y-129255531D01*
X133908967Y-129255530D01*
X133908966Y-129255530D01*
X133720465Y-129198349D01*
X133546742Y-129105492D01*
X133546740Y-129105491D01*
X133394472Y-128980528D01*
X133269509Y-128828260D01*
X133176652Y-128654537D01*
X133119469Y-128466030D01*
X133100162Y-128270000D01*
X133119469Y-128073970D01*
X133176652Y-127885463D01*
X133269509Y-127711740D01*
X133394472Y-127559472D01*
X133546740Y-127434509D01*
X133720463Y-127341652D01*
X133720465Y-127341651D01*
X133908966Y-127284470D01*
X133908967Y-127284470D01*
X133908970Y-127284469D01*
X134055876Y-127270000D01*
X134154124Y-127270000D01*
X134301030Y-127284469D01*
X134301030Y-127284469D01*
G37*
G36*
X164800000Y-128670000D02*
X163400000Y-128670000D01*
X163400000Y-126470000D01*
X164800000Y-126470000D01*
X164800000Y-128670000D01*
X164800000Y-128670000D01*
G37*
G36*
X162800000Y-128670000D02*
X161400000Y-128670000D01*
X161400000Y-126470000D01*
X162800000Y-126470000D01*
X162800000Y-128670000D01*
X162800000Y-128670000D01*
G37*
G36*
X160800000Y-128670000D02*
X159400000Y-128670000D01*
X159400000Y-126470000D01*
X160800000Y-126470000D01*
X160800000Y-128670000D01*
X160800000Y-128670000D01*
G37*
G36*
X170800000Y-128670000D02*
X169400000Y-128670000D01*
X169400000Y-126470000D01*
X170800000Y-126470000D01*
X170800000Y-128670000D01*
X170800000Y-128670000D01*
G37*
G36*
X168800000Y-128670000D02*
X167400000Y-128670000D01*
X167400000Y-126470000D01*
X168800000Y-126470000D01*
X168800000Y-128670000D01*
X168800000Y-128670000D01*
G37*
G36*
X166800000Y-128670000D02*
X165400000Y-128670000D01*
X165400000Y-126470000D01*
X166800000Y-126470000D01*
X166800000Y-128670000D01*
X166800000Y-128670000D01*
G37*
G36*
X176364000Y-127602000D02*
X174664000Y-127602000D01*
X174664000Y-125702000D01*
X176364000Y-125702000D01*
X176364000Y-127602000D01*
X176364000Y-127602000D01*
G37*
G36*
X155765000Y-127188000D02*
X154115000Y-127188000D01*
X154115000Y-125288000D01*
X155765000Y-125288000D01*
X155765000Y-127188000D01*
X155765000Y-127188000D01*
G37*
G36*
X174150000Y-126770000D02*
X171250000Y-126770000D01*
X171250000Y-125370000D01*
X174150000Y-125370000D01*
X174150000Y-126770000D01*
X174150000Y-126770000D01*
G37*
G36*
X158950000Y-126770000D02*
X156050000Y-126770000D01*
X156050000Y-125370000D01*
X158950000Y-125370000D01*
X158950000Y-126770000D01*
X158950000Y-126770000D01*
G37*
G36*
X124340000Y-124086000D02*
X123564323Y-124086000D01*
X123539937Y-124088402D01*
X123516488Y-124095515D01*
X123494877Y-124107066D01*
X123475935Y-124122612D01*
X123460389Y-124141554D01*
X123448838Y-124163165D01*
X123441725Y-124186614D01*
X123439323Y-124211000D01*
X123441725Y-124235386D01*
X123448838Y-124258835D01*
X123460389Y-124280446D01*
X123475935Y-124299388D01*
X123494877Y-124314934D01*
X123516488Y-124326485D01*
X123525442Y-124330194D01*
X123525443Y-124330194D01*
X123593741Y-124358484D01*
X123734728Y-124416883D01*
X123923085Y-124542739D01*
X124083261Y-124702915D01*
X124209117Y-124891272D01*
X124295806Y-125100557D01*
X124340000Y-125322734D01*
X124340000Y-125549266D01*
X124295806Y-125771443D01*
X124209117Y-125980728D01*
X124083261Y-126169085D01*
X123923085Y-126329261D01*
X123734728Y-126455117D01*
X123525443Y-126541806D01*
X123303266Y-126586000D01*
X123076734Y-126586000D01*
X122854557Y-126541806D01*
X122645272Y-126455117D01*
X122456915Y-126329261D01*
X122296739Y-126169085D01*
X122170883Y-125980728D01*
X122084194Y-125771443D01*
X122040000Y-125549266D01*
X122040000Y-125322733D01*
X122067320Y-125185386D01*
X122069722Y-125161000D01*
X122067320Y-125136614D01*
X122060207Y-125113165D01*
X122048656Y-125091554D01*
X122033110Y-125072612D01*
X122014168Y-125057066D01*
X121992557Y-125045515D01*
X121969108Y-125038402D01*
X121944722Y-125036000D01*
X121766281Y-125036000D01*
X121602066Y-125003336D01*
X121447373Y-124939260D01*
X121308153Y-124846236D01*
X121189764Y-124727847D01*
X121096740Y-124588627D01*
X121032664Y-124433934D01*
X121000000Y-124269719D01*
X121000000Y-124102281D01*
X121032664Y-123938066D01*
X121096740Y-123783373D01*
X121189764Y-123644153D01*
X121308153Y-123525764D01*
X121447373Y-123432740D01*
X121602066Y-123368664D01*
X121766281Y-123336000D01*
X121915000Y-123336000D01*
X121939386Y-123333598D01*
X121962835Y-123326485D01*
X121984446Y-123314934D01*
X122003388Y-123299388D01*
X122018934Y-123280446D01*
X122030485Y-123258835D01*
X122037598Y-123235386D01*
X122040000Y-123211000D01*
X122040000Y-121786000D01*
X124340000Y-121786000D01*
X124340000Y-124086000D01*
X124340000Y-124086000D01*
G37*
G36*
X176364000Y-124902000D02*
X174664000Y-124902000D01*
X174664000Y-123002000D01*
X176364000Y-123002000D01*
X176364000Y-124902000D01*
X176364000Y-124902000D01*
G37*
G36*
X174150000Y-124770000D02*
X171250000Y-124770000D01*
X171250000Y-123370000D01*
X174150000Y-123370000D01*
X174150000Y-124770000D01*
X174150000Y-124770000D01*
G37*
G36*
X158950000Y-124770000D02*
X156050000Y-124770000D01*
X156050000Y-123370000D01*
X158950000Y-123370000D01*
X158950000Y-124770000D01*
X158950000Y-124770000D01*
G37*
G36*
X155790000Y-123886000D02*
X154090000Y-123886000D01*
X154090000Y-121986000D01*
X155790000Y-121986000D01*
X155790000Y-123886000D01*
X155790000Y-123886000D01*
G37*
G36*
X133210001Y-123224999D02*
X130810001Y-123224999D01*
X130810001Y-120524999D01*
X133210001Y-120524999D01*
X133210001Y-123224999D01*
X133210001Y-123224999D01*
G37*
G36*
X147603779Y-120576878D02*
X147849467Y-120678645D01*
X148070579Y-120826388D01*
X148258612Y-121014421D01*
X148406355Y-121235533D01*
X148508122Y-121481221D01*
X148560001Y-121742034D01*
X148560001Y-122007964D01*
X148508122Y-122268777D01*
X148406355Y-122514465D01*
X148258612Y-122735577D01*
X148070579Y-122923610D01*
X147849467Y-123071353D01*
X147603779Y-123173120D01*
X147342966Y-123224999D01*
X147077036Y-123224999D01*
X146816223Y-123173120D01*
X146570535Y-123071353D01*
X146349423Y-122923610D01*
X146161390Y-122735577D01*
X146013647Y-122514465D01*
X145911880Y-122268777D01*
X145860001Y-122007964D01*
X145860001Y-121742034D01*
X145911880Y-121481221D01*
X146013647Y-121235533D01*
X146161390Y-121014421D01*
X146349423Y-120826388D01*
X146570535Y-120678645D01*
X146816223Y-120576878D01*
X147077036Y-120524999D01*
X147342966Y-120524999D01*
X147603779Y-120576878D01*
X147603779Y-120576878D01*
G37*
G36*
X174150000Y-122770000D02*
X171250000Y-122770000D01*
X171250000Y-121370000D01*
X174150000Y-121370000D01*
X174150000Y-122770000D01*
X174150000Y-122770000D01*
G37*
G36*
X158950000Y-122770000D02*
X156050000Y-122770000D01*
X156050000Y-121370000D01*
X158950000Y-121370000D01*
X158950000Y-122770000D01*
X158950000Y-122770000D01*
G37*
G36*
X179418000Y-122516000D02*
X177518000Y-122516000D01*
X177518000Y-117150000D01*
X179418000Y-117150000D01*
X179418000Y-122516000D01*
X179418000Y-122516000D01*
G37*
G36*
X176718000Y-122516000D02*
X174818000Y-122516000D01*
X174818000Y-117150000D01*
X176718000Y-117150000D01*
X176718000Y-122516000D01*
X176718000Y-122516000D01*
G37*
G36*
X153758000Y-122362000D02*
X152058000Y-122362000D01*
X152058000Y-120462000D01*
X153758000Y-120462000D01*
X153758000Y-122362000D01*
X153758000Y-122362000D01*
G37*
G36*
X155790000Y-121186000D02*
X154090000Y-121186000D01*
X154090000Y-119286000D01*
X155790000Y-119286000D01*
X155790000Y-121186000D01*
X155790000Y-121186000D01*
G37*
G36*
X158950000Y-120770000D02*
X156050000Y-120770000D01*
X156050000Y-119370000D01*
X158950000Y-119370000D01*
X158950000Y-120770000D01*
X158950000Y-120770000D01*
G37*
G36*
X174150000Y-120770000D02*
X171250000Y-120770000D01*
X171250000Y-119370000D01*
X174150000Y-119370000D01*
X174150000Y-120770000D01*
X174150000Y-120770000D01*
G37*
G36*
X153758000Y-119662000D02*
X152058000Y-119662000D01*
X152058000Y-117762000D01*
X153758000Y-117762000D01*
X153758000Y-119662000D01*
X153758000Y-119662000D01*
G37*
G36*
X158950000Y-118770000D02*
X156050000Y-118770000D01*
X156050000Y-117370000D01*
X158950000Y-117370000D01*
X158950000Y-118770000D01*
X158950000Y-118770000D01*
G37*
G36*
X174150000Y-118770000D02*
X171250000Y-118770000D01*
X171250000Y-117370000D01*
X174150000Y-117370000D01*
X174150000Y-118770000D01*
X174150000Y-118770000D01*
G37*
G36*
X155536000Y-116934000D02*
X153836000Y-116934000D01*
X153836000Y-115034000D01*
X155536000Y-115034000D01*
X155536000Y-116934000D01*
X155536000Y-116934000D01*
G37*
G36*
X158950000Y-116770000D02*
X156050000Y-116770000D01*
X156050000Y-115370000D01*
X158950000Y-115370000D01*
X158950000Y-116770000D01*
X158950000Y-116770000D01*
G37*
G36*
X174150000Y-116770000D02*
X171250000Y-116770000D01*
X171250000Y-115370000D01*
X174150000Y-115370000D01*
X174150000Y-116770000D01*
X174150000Y-116770000D01*
G37*
G36*
X124086000Y-111640000D02*
X123310323Y-111640000D01*
X123285937Y-111642402D01*
X123262488Y-111649515D01*
X123240877Y-111661066D01*
X123221935Y-111676612D01*
X123206389Y-111695554D01*
X123194838Y-111717165D01*
X123187725Y-111740614D01*
X123185323Y-111765000D01*
X123187725Y-111789386D01*
X123194838Y-111812835D01*
X123206389Y-111834446D01*
X123221935Y-111853388D01*
X123240877Y-111868934D01*
X123262488Y-111880485D01*
X123271442Y-111884194D01*
X123271443Y-111884194D01*
X123339741Y-111912484D01*
X123480728Y-111970883D01*
X123669085Y-112096739D01*
X123829261Y-112256915D01*
X123955117Y-112445272D01*
X124041806Y-112654557D01*
X124086000Y-112876734D01*
X124086000Y-113103266D01*
X124041806Y-113325443D01*
X123955117Y-113534728D01*
X123829261Y-113723085D01*
X123669085Y-113883261D01*
X123480728Y-114009117D01*
X123271443Y-114095806D01*
X123162871Y-114117402D01*
X123139423Y-114124515D01*
X123117813Y-114136066D01*
X123098870Y-114151612D01*
X123083325Y-114170554D01*
X123071774Y-114192165D01*
X123064661Y-114215614D01*
X123062259Y-114240000D01*
X123064661Y-114264387D01*
X123071774Y-114287836D01*
X123083325Y-114309446D01*
X123098871Y-114328389D01*
X123117813Y-114343934D01*
X123139424Y-114355485D01*
X123162871Y-114362598D01*
X123271443Y-114384194D01*
X123480728Y-114470883D01*
X123669085Y-114596739D01*
X123829261Y-114756915D01*
X123955117Y-114945272D01*
X124041806Y-115154557D01*
X124086000Y-115376734D01*
X124086000Y-115603266D01*
X124041806Y-115825443D01*
X123955117Y-116034728D01*
X123829261Y-116223085D01*
X123669085Y-116383261D01*
X123480728Y-116509117D01*
X123271443Y-116595806D01*
X123049266Y-116640000D01*
X122822734Y-116640000D01*
X122600557Y-116595806D01*
X122391272Y-116509117D01*
X122202915Y-116383261D01*
X122042739Y-116223085D01*
X121916883Y-116034728D01*
X121830194Y-115825443D01*
X121786000Y-115603266D01*
X121786000Y-115376734D01*
X121830194Y-115154557D01*
X121916883Y-114945272D01*
X122042739Y-114756915D01*
X122202915Y-114596739D01*
X122391272Y-114470883D01*
X122600557Y-114384194D01*
X122709129Y-114362598D01*
X122732577Y-114355485D01*
X122754187Y-114343934D01*
X122773130Y-114328388D01*
X122788675Y-114309446D01*
X122800226Y-114287835D01*
X122807339Y-114264386D01*
X122809741Y-114240000D01*
X122807339Y-114215613D01*
X122800226Y-114192164D01*
X122788675Y-114170554D01*
X122773129Y-114151611D01*
X122754187Y-114136066D01*
X122732576Y-114124515D01*
X122709129Y-114117402D01*
X122600557Y-114095806D01*
X122391272Y-114009117D01*
X122202915Y-113883261D01*
X122042739Y-113723085D01*
X121916883Y-113534728D01*
X121830194Y-113325443D01*
X121786000Y-113103266D01*
X121786000Y-112876733D01*
X121813320Y-112739386D01*
X121815722Y-112715000D01*
X121813320Y-112690614D01*
X121806207Y-112667165D01*
X121794656Y-112645554D01*
X121779110Y-112626612D01*
X121760168Y-112611066D01*
X121738557Y-112599515D01*
X121715108Y-112592402D01*
X121690722Y-112590000D01*
X121512281Y-112590000D01*
X121348066Y-112557336D01*
X121193373Y-112493260D01*
X121054153Y-112400236D01*
X120935764Y-112281847D01*
X120842740Y-112142627D01*
X120778664Y-111987934D01*
X120746000Y-111823719D01*
X120746000Y-111656281D01*
X120778664Y-111492066D01*
X120842740Y-111337373D01*
X120935764Y-111198153D01*
X121054153Y-111079764D01*
X121193373Y-110986740D01*
X121348066Y-110922664D01*
X121512281Y-110890000D01*
X121661000Y-110890000D01*
X121685386Y-110887598D01*
X121708835Y-110880485D01*
X121730446Y-110868934D01*
X121749388Y-110853388D01*
X121764934Y-110834446D01*
X121776485Y-110812835D01*
X121783598Y-110789386D01*
X121786000Y-110765000D01*
X121786000Y-109340000D01*
X124086000Y-109340000D01*
X124086000Y-111640000D01*
X124086000Y-111640000D01*
G37*
G36*
X176718000Y-115125000D02*
X174818000Y-115125000D01*
X174818000Y-113475000D01*
X176718000Y-113475000D01*
X176718000Y-115125000D01*
X176718000Y-115125000D01*
G37*
G36*
X179218000Y-115125000D02*
X177318000Y-115125000D01*
X177318000Y-113475000D01*
X179218000Y-113475000D01*
X179218000Y-115125000D01*
X179218000Y-115125000D01*
G37*
G36*
X158950000Y-114770000D02*
X156050000Y-114770000D01*
X156050000Y-113370000D01*
X158950000Y-113370000D01*
X158950000Y-114770000D01*
X158950000Y-114770000D01*
G37*
G36*
X174150000Y-114770000D02*
X171250000Y-114770000D01*
X171250000Y-113370000D01*
X174150000Y-113370000D01*
X174150000Y-114770000D01*
X174150000Y-114770000D01*
G37*
G36*
X155536000Y-114234000D02*
X153836000Y-114234000D01*
X153836000Y-110208000D01*
X155536000Y-110208000D01*
X155536000Y-114234000D01*
X155536000Y-114234000D01*
G37*
G36*
X158950000Y-112770000D02*
X156050000Y-112770000D01*
X156050000Y-111370000D01*
X158950000Y-111370000D01*
X158950000Y-112770000D01*
X158950000Y-112770000D01*
G37*
G36*
X174150000Y-112770000D02*
X171250000Y-112770000D01*
X171250000Y-111370000D01*
X174150000Y-111370000D01*
X174150000Y-112770000D01*
X174150000Y-112770000D01*
G37*
G36*
X178184000Y-111060000D02*
X175384000Y-111060000D01*
X175384000Y-107380000D01*
X178184000Y-107380000D01*
X178184000Y-111060000D01*
X178184000Y-111060000D01*
G37*
G36*
X182084000Y-111060000D02*
X179284000Y-111060000D01*
X179284000Y-107380000D01*
X182084000Y-107380000D01*
X182084000Y-111060000D01*
X182084000Y-111060000D01*
G37*
G36*
X155536000Y-109408000D02*
X153836000Y-109408000D01*
X153836000Y-107508000D01*
X155536000Y-107508000D01*
X155536000Y-109408000D01*
X155536000Y-109408000D01*
G37*
G36*
X140003779Y-92576878D02*
X140249467Y-92678645D01*
X140470579Y-92826388D01*
X140658612Y-93014421D01*
X140806355Y-93235533D01*
X140908122Y-93481221D01*
X140960001Y-93742034D01*
X140960001Y-94007964D01*
X140908122Y-94268777D01*
X140806355Y-94514465D01*
X140658612Y-94735577D01*
X140470579Y-94923610D01*
X140249467Y-95071353D01*
X140003779Y-95173120D01*
X139742966Y-95224999D01*
X139477036Y-95224999D01*
X139216223Y-95173120D01*
X138970535Y-95071353D01*
X138749423Y-94923610D01*
X138561390Y-94735577D01*
X138413647Y-94514465D01*
X138311880Y-94268777D01*
X138260001Y-94007964D01*
X138260001Y-93742034D01*
X138311880Y-93481221D01*
X138413647Y-93235533D01*
X138561390Y-93014421D01*
X138749423Y-92826388D01*
X138970535Y-92678645D01*
X139216223Y-92576878D01*
X139477036Y-92524999D01*
X139742966Y-92524999D01*
X140003779Y-92576878D01*
X140003779Y-92576878D01*
G37*
G36*
X132403779Y-92576878D02*
X132649467Y-92678645D01*
X132870579Y-92826388D01*
X133058612Y-93014421D01*
X133206355Y-93235533D01*
X133308122Y-93481221D01*
X133360001Y-93742034D01*
X133360001Y-94007964D01*
X133308122Y-94268777D01*
X133206355Y-94514465D01*
X133058612Y-94735577D01*
X132870579Y-94923610D01*
X132649467Y-95071353D01*
X132403779Y-95173120D01*
X132142966Y-95224999D01*
X131877036Y-95224999D01*
X131616223Y-95173120D01*
X131370535Y-95071353D01*
X131149423Y-94923610D01*
X130961390Y-94735577D01*
X130813647Y-94514465D01*
X130711880Y-94268777D01*
X130660001Y-94007964D01*
X130660001Y-93742034D01*
X130711880Y-93481221D01*
X130813647Y-93235533D01*
X130961390Y-93014421D01*
X131149423Y-92826388D01*
X131370535Y-92678645D01*
X131616223Y-92576878D01*
X131877036Y-92524999D01*
X132142966Y-92524999D01*
X132403779Y-92576878D01*
X132403779Y-92576878D01*
G37*
M02*
