G04 #@! TF.GenerationSoftware,KiCad,Pcbnew,(5.1.6)-1*
G04 #@! TF.CreationDate,2020-07-29T11:18:25+02:00*
G04 #@! TF.ProjectId,loftrelayRound,6c6f6674-7265-46c6-9179-526f756e642e,rev?*
G04 #@! TF.SameCoordinates,Original*
G04 #@! TF.FileFunction,Soldermask,Top*
G04 #@! TF.FilePolarity,Negative*
%FSLAX46Y46*%
G04 Gerber Fmt 4.6, Leading zero omitted, Abs format (unit mm)*
G04 Created by KiCad (PCBNEW (5.1.6)-1) date 2020-07-29 11:18:25*
%MOMM*%
%LPD*%
G01*
G04 APERTURE LIST*
%ADD10C,0.100000*%
G04 APERTURE END LIST*
D10*
G36*
X147507287Y-139393446D02*
G01*
X147600022Y-139411892D01*
X147774731Y-139484259D01*
X147931964Y-139589319D01*
X148065681Y-139723036D01*
X148170741Y-139880269D01*
X148243108Y-140054978D01*
X148280000Y-140240448D01*
X148280000Y-140429552D01*
X148243108Y-140615022D01*
X148170741Y-140789731D01*
X148065681Y-140946964D01*
X147931964Y-141080681D01*
X147774731Y-141185741D01*
X147600022Y-141258108D01*
X147507287Y-141276554D01*
X147414553Y-141295000D01*
X147225447Y-141295000D01*
X147132713Y-141276554D01*
X147039978Y-141258108D01*
X146865269Y-141185741D01*
X146708036Y-141080681D01*
X146574319Y-140946964D01*
X146469259Y-140789731D01*
X146396892Y-140615022D01*
X146360000Y-140429552D01*
X146360000Y-140240448D01*
X146396892Y-140054978D01*
X146469259Y-139880269D01*
X146574319Y-139723036D01*
X146708036Y-139589319D01*
X146865269Y-139484259D01*
X147039978Y-139411892D01*
X147132713Y-139393446D01*
X147225447Y-139375000D01*
X147414553Y-139375000D01*
X147507287Y-139393446D01*
G37*
G36*
X157668000Y-139763000D02*
G01*
X155768000Y-139763000D01*
X155768000Y-138113000D01*
X157668000Y-138113000D01*
X157668000Y-139763000D01*
G37*
G36*
X155168000Y-139763000D02*
G01*
X153268000Y-139763000D01*
X153268000Y-138113000D01*
X155168000Y-138113000D01*
X155168000Y-139763000D01*
G37*
G36*
X172086687Y-136623027D02*
G01*
X172264274Y-136658350D01*
X172455362Y-136737502D01*
X172627336Y-136852411D01*
X172773589Y-136998664D01*
X172888498Y-137170638D01*
X172967650Y-137361726D01*
X173002973Y-137539313D01*
X173008000Y-137564583D01*
X173008000Y-137771417D01*
X173002973Y-137796687D01*
X172967650Y-137974274D01*
X172888498Y-138165362D01*
X172773589Y-138337336D01*
X172627336Y-138483589D01*
X172455362Y-138598498D01*
X172264274Y-138677650D01*
X172086687Y-138712973D01*
X172061417Y-138718000D01*
X171854583Y-138718000D01*
X171829313Y-138712973D01*
X171651726Y-138677650D01*
X171460638Y-138598498D01*
X171288664Y-138483589D01*
X171142411Y-138337336D01*
X171027502Y-138165362D01*
X170948350Y-137974274D01*
X170913027Y-137796687D01*
X170908000Y-137771417D01*
X170908000Y-137564583D01*
X170913027Y-137539313D01*
X170948350Y-137361726D01*
X171027502Y-137170638D01*
X171142411Y-136998664D01*
X171288664Y-136852411D01*
X171460638Y-136737502D01*
X171651726Y-136658350D01*
X171829313Y-136623027D01*
X171854583Y-136618000D01*
X172061417Y-136618000D01*
X172086687Y-136623027D01*
G37*
G36*
X174626687Y-136623027D02*
G01*
X174804274Y-136658350D01*
X174995362Y-136737502D01*
X175167336Y-136852411D01*
X175313589Y-136998664D01*
X175428498Y-137170638D01*
X175507650Y-137361726D01*
X175542973Y-137539313D01*
X175548000Y-137564583D01*
X175548000Y-137771417D01*
X175542973Y-137796687D01*
X175507650Y-137974274D01*
X175428498Y-138165362D01*
X175313589Y-138337336D01*
X175167336Y-138483589D01*
X174995362Y-138598498D01*
X174804274Y-138677650D01*
X174626687Y-138712973D01*
X174601417Y-138718000D01*
X174394583Y-138718000D01*
X174369313Y-138712973D01*
X174191726Y-138677650D01*
X174000638Y-138598498D01*
X173828664Y-138483589D01*
X173682411Y-138337336D01*
X173567502Y-138165362D01*
X173488350Y-137974274D01*
X173453027Y-137796687D01*
X173448000Y-137771417D01*
X173448000Y-137564583D01*
X173453027Y-137539313D01*
X173488350Y-137361726D01*
X173567502Y-137170638D01*
X173682411Y-136998664D01*
X173828664Y-136852411D01*
X174000638Y-136737502D01*
X174191726Y-136658350D01*
X174369313Y-136623027D01*
X174394583Y-136618000D01*
X174601417Y-136618000D01*
X174626687Y-136623027D01*
G37*
G36*
X154590000Y-137778000D02*
G01*
X153390000Y-137778000D01*
X153390000Y-136478000D01*
X154590000Y-136478000D01*
X154590000Y-137778000D01*
G37*
G36*
X156490000Y-137778000D02*
G01*
X155290000Y-137778000D01*
X155290000Y-136478000D01*
X156490000Y-136478000D01*
X156490000Y-137778000D01*
G37*
G36*
X160508000Y-137362000D02*
G01*
X158108000Y-137362000D01*
X158108000Y-135462000D01*
X160508000Y-135462000D01*
X160508000Y-137362000D01*
G37*
G36*
X166808000Y-136212000D02*
G01*
X164408000Y-136212000D01*
X164408000Y-132012000D01*
X166808000Y-132012000D01*
X166808000Y-136212000D01*
G37*
G36*
X172086687Y-134083027D02*
G01*
X172264274Y-134118350D01*
X172455362Y-134197502D01*
X172627336Y-134312411D01*
X172773589Y-134458664D01*
X172888498Y-134630638D01*
X172967650Y-134821726D01*
X173008000Y-135024584D01*
X173008000Y-135231416D01*
X172967650Y-135434274D01*
X172888498Y-135625362D01*
X172773589Y-135797336D01*
X172627336Y-135943589D01*
X172455362Y-136058498D01*
X172264274Y-136137650D01*
X172086687Y-136172973D01*
X172061417Y-136178000D01*
X171854583Y-136178000D01*
X171829313Y-136172973D01*
X171651726Y-136137650D01*
X171460638Y-136058498D01*
X171288664Y-135943589D01*
X171142411Y-135797336D01*
X171027502Y-135625362D01*
X170948350Y-135434274D01*
X170908000Y-135231416D01*
X170908000Y-135024584D01*
X170948350Y-134821726D01*
X171027502Y-134630638D01*
X171142411Y-134458664D01*
X171288664Y-134312411D01*
X171460638Y-134197502D01*
X171651726Y-134118350D01*
X171829313Y-134083027D01*
X171854583Y-134078000D01*
X172061417Y-134078000D01*
X172086687Y-134083027D01*
G37*
G36*
X174626687Y-134083027D02*
G01*
X174804274Y-134118350D01*
X174995362Y-134197502D01*
X175167336Y-134312411D01*
X175313589Y-134458664D01*
X175428498Y-134630638D01*
X175507650Y-134821726D01*
X175548000Y-135024584D01*
X175548000Y-135231416D01*
X175507650Y-135434274D01*
X175428498Y-135625362D01*
X175313589Y-135797336D01*
X175167336Y-135943589D01*
X174995362Y-136058498D01*
X174804274Y-136137650D01*
X174626687Y-136172973D01*
X174601417Y-136178000D01*
X174394583Y-136178000D01*
X174369313Y-136172973D01*
X174191726Y-136137650D01*
X174000638Y-136058498D01*
X173828664Y-135943589D01*
X173682411Y-135797336D01*
X173567502Y-135625362D01*
X173488350Y-135434274D01*
X173448000Y-135231416D01*
X173448000Y-135024584D01*
X173488350Y-134821726D01*
X173567502Y-134630638D01*
X173682411Y-134458664D01*
X173828664Y-134312411D01*
X174000638Y-134197502D01*
X174191726Y-134118350D01*
X174369313Y-134083027D01*
X174394583Y-134078000D01*
X174601417Y-134078000D01*
X174626687Y-134083027D01*
G37*
G36*
X155540000Y-135778000D02*
G01*
X154340000Y-135778000D01*
X154340000Y-134478000D01*
X155540000Y-134478000D01*
X155540000Y-135778000D01*
G37*
G36*
X160508000Y-135062000D02*
G01*
X158108000Y-135062000D01*
X158108000Y-133162000D01*
X160508000Y-133162000D01*
X160508000Y-135062000D01*
G37*
G36*
X155606000Y-134222000D02*
G01*
X154406000Y-134222000D01*
X154406000Y-132922000D01*
X155606000Y-132922000D01*
X155606000Y-134222000D01*
G37*
G36*
X137510026Y-131561115D02*
G01*
X137721202Y-131648587D01*
X137728413Y-131651574D01*
X137860704Y-131739968D01*
X137924955Y-131782899D01*
X138092101Y-131950045D01*
X138223427Y-132146589D01*
X138313885Y-132364974D01*
X138360000Y-132596809D01*
X138360000Y-132833191D01*
X138313885Y-133065026D01*
X138223427Y-133283411D01*
X138223426Y-133283413D01*
X138092101Y-133479955D01*
X137924955Y-133647101D01*
X137728413Y-133778426D01*
X137728412Y-133778427D01*
X137728411Y-133778427D01*
X137510026Y-133868885D01*
X137278191Y-133915000D01*
X137041809Y-133915000D01*
X136809974Y-133868885D01*
X136591589Y-133778427D01*
X136591588Y-133778427D01*
X136591587Y-133778426D01*
X136395045Y-133647101D01*
X136227899Y-133479955D01*
X136096574Y-133283413D01*
X136096573Y-133283411D01*
X136006115Y-133065026D01*
X135960000Y-132833191D01*
X135960000Y-132596809D01*
X136006115Y-132364974D01*
X136096573Y-132146589D01*
X136227899Y-131950045D01*
X136395045Y-131782899D01*
X136459296Y-131739968D01*
X136591587Y-131651574D01*
X136598798Y-131648587D01*
X136809974Y-131561115D01*
X137041809Y-131515000D01*
X137278191Y-131515000D01*
X137510026Y-131561115D01*
G37*
G36*
X129890026Y-131561115D02*
G01*
X130101202Y-131648587D01*
X130108413Y-131651574D01*
X130240704Y-131739968D01*
X130304955Y-131782899D01*
X130472101Y-131950045D01*
X130603427Y-132146589D01*
X130693885Y-132364974D01*
X130740000Y-132596809D01*
X130740000Y-132833191D01*
X130693885Y-133065026D01*
X130603427Y-133283411D01*
X130603426Y-133283413D01*
X130472101Y-133479955D01*
X130304955Y-133647101D01*
X130108413Y-133778426D01*
X130108412Y-133778427D01*
X130108411Y-133778427D01*
X129890026Y-133868885D01*
X129658191Y-133915000D01*
X129421809Y-133915000D01*
X129189974Y-133868885D01*
X128971589Y-133778427D01*
X128971588Y-133778427D01*
X128971587Y-133778426D01*
X128775045Y-133647101D01*
X128607899Y-133479955D01*
X128476574Y-133283413D01*
X128476573Y-133283411D01*
X128386115Y-133065026D01*
X128340000Y-132833191D01*
X128340000Y-132596809D01*
X128386115Y-132364974D01*
X128476573Y-132146589D01*
X128607899Y-131950045D01*
X128775045Y-131782899D01*
X128839296Y-131739968D01*
X128971587Y-131651574D01*
X128978798Y-131648587D01*
X129189974Y-131561115D01*
X129421809Y-131515000D01*
X129658191Y-131515000D01*
X129890026Y-131561115D01*
G37*
G36*
X169735000Y-133752000D02*
G01*
X168085000Y-133752000D01*
X168085000Y-131852000D01*
X169735000Y-131852000D01*
X169735000Y-133752000D01*
G37*
G36*
X147502084Y-131772411D02*
G01*
X147600022Y-131791892D01*
X147774731Y-131864259D01*
X147931964Y-131969319D01*
X148065681Y-132103036D01*
X148170741Y-132260269D01*
X148243108Y-132434978D01*
X148280000Y-132620448D01*
X148280000Y-132809552D01*
X148243108Y-132995022D01*
X148170741Y-133169731D01*
X148065681Y-133326964D01*
X147931964Y-133460681D01*
X147774731Y-133565741D01*
X147600022Y-133638108D01*
X147507287Y-133656554D01*
X147414553Y-133675000D01*
X147225447Y-133675000D01*
X147132713Y-133656554D01*
X147039978Y-133638108D01*
X146865269Y-133565741D01*
X146708036Y-133460681D01*
X146574319Y-133326964D01*
X146469259Y-133169731D01*
X146396892Y-132995022D01*
X146360000Y-132809552D01*
X146360000Y-132620448D01*
X146396892Y-132434978D01*
X146469259Y-132260269D01*
X146574319Y-132103036D01*
X146708036Y-131969319D01*
X146865269Y-131864259D01*
X147039978Y-131791892D01*
X147137916Y-131772411D01*
X147225447Y-131755000D01*
X147414553Y-131755000D01*
X147502084Y-131772411D01*
G37*
G36*
X175548000Y-133638000D02*
G01*
X173448000Y-133638000D01*
X173448000Y-131538000D01*
X175548000Y-131538000D01*
X175548000Y-133638000D01*
G37*
G36*
X172086687Y-131543027D02*
G01*
X172264274Y-131578350D01*
X172455362Y-131657502D01*
X172627336Y-131772411D01*
X172773589Y-131918664D01*
X172888498Y-132090638D01*
X172967650Y-132281726D01*
X173008000Y-132484584D01*
X173008000Y-132691416D01*
X172967650Y-132894274D01*
X172888498Y-133085362D01*
X172773589Y-133257336D01*
X172627336Y-133403589D01*
X172455362Y-133518498D01*
X172264274Y-133597650D01*
X172086687Y-133632973D01*
X172061417Y-133638000D01*
X171854583Y-133638000D01*
X171829313Y-133632973D01*
X171651726Y-133597650D01*
X171460638Y-133518498D01*
X171288664Y-133403589D01*
X171142411Y-133257336D01*
X171027502Y-133085362D01*
X170948350Y-132894274D01*
X170908000Y-132691416D01*
X170908000Y-132484584D01*
X170948350Y-132281726D01*
X171027502Y-132090638D01*
X171142411Y-131918664D01*
X171288664Y-131772411D01*
X171460638Y-131657502D01*
X171651726Y-131578350D01*
X171829313Y-131543027D01*
X171854583Y-131538000D01*
X172061417Y-131538000D01*
X172086687Y-131543027D01*
G37*
G36*
X160508000Y-132762000D02*
G01*
X158108000Y-132762000D01*
X158108000Y-130862000D01*
X160508000Y-130862000D01*
X160508000Y-132762000D01*
G37*
G36*
X154656000Y-132222000D02*
G01*
X153456000Y-132222000D01*
X153456000Y-130922000D01*
X154656000Y-130922000D01*
X154656000Y-132222000D01*
G37*
G36*
X156556000Y-132222000D02*
G01*
X155356000Y-132222000D01*
X155356000Y-130922000D01*
X156556000Y-130922000D01*
X156556000Y-132222000D01*
G37*
G36*
X125203559Y-130197088D02*
G01*
X125355519Y-130260032D01*
X125355521Y-130260033D01*
X125492281Y-130351413D01*
X125608587Y-130467719D01*
X125699968Y-130604481D01*
X125762912Y-130756441D01*
X125795000Y-130917758D01*
X125795000Y-131082242D01*
X125762912Y-131243559D01*
X125699968Y-131395519D01*
X125699967Y-131395521D01*
X125608587Y-131532281D01*
X125492281Y-131648587D01*
X125355521Y-131739967D01*
X125355520Y-131739968D01*
X125355519Y-131739968D01*
X125203559Y-131802912D01*
X125042242Y-131835000D01*
X124877758Y-131835000D01*
X124716441Y-131802912D01*
X124564481Y-131739968D01*
X124564480Y-131739968D01*
X124564479Y-131739967D01*
X124427719Y-131648587D01*
X124311413Y-131532281D01*
X124220033Y-131395521D01*
X124220032Y-131395519D01*
X124157088Y-131243559D01*
X124125000Y-131082242D01*
X124125000Y-130917758D01*
X124157088Y-130756441D01*
X124220032Y-130604481D01*
X124311413Y-130467719D01*
X124427719Y-130351413D01*
X124564479Y-130260033D01*
X124564481Y-130260032D01*
X124716441Y-130197088D01*
X124877758Y-130165000D01*
X125042242Y-130165000D01*
X125203559Y-130197088D01*
G37*
G36*
X169735000Y-131252000D02*
G01*
X168085000Y-131252000D01*
X168085000Y-129352000D01*
X169735000Y-129352000D01*
X169735000Y-131252000D01*
G37*
G36*
X155765000Y-129688000D02*
G01*
X154115000Y-129688000D01*
X154115000Y-127788000D01*
X155765000Y-127788000D01*
X155765000Y-129688000D01*
G37*
G36*
X123376448Y-127056873D02*
G01*
X123446232Y-127063746D01*
X123535770Y-127090907D01*
X123625309Y-127118068D01*
X123713523Y-127165220D01*
X123790345Y-127206282D01*
X123790347Y-127206283D01*
X123790346Y-127206283D01*
X123935002Y-127324998D01*
X124053717Y-127469654D01*
X124141932Y-127634691D01*
X124196254Y-127813769D01*
X124214596Y-128000000D01*
X124196254Y-128186231D01*
X124141932Y-128365309D01*
X124053717Y-128530346D01*
X123935002Y-128675002D01*
X123803315Y-128783073D01*
X123790345Y-128793718D01*
X123713523Y-128834780D01*
X123625309Y-128881932D01*
X123535770Y-128909093D01*
X123446232Y-128936254D01*
X123376448Y-128943127D01*
X123306666Y-128950000D01*
X122693334Y-128950000D01*
X122623552Y-128943127D01*
X122553768Y-128936254D01*
X122464230Y-128909093D01*
X122374691Y-128881932D01*
X122286477Y-128834780D01*
X122209655Y-128793718D01*
X122196685Y-128783073D01*
X122064998Y-128675002D01*
X121946283Y-128530346D01*
X121858068Y-128365309D01*
X121803746Y-128186231D01*
X121785404Y-128000000D01*
X121803746Y-127813769D01*
X121858068Y-127634691D01*
X121946283Y-127469654D01*
X122064998Y-127324998D01*
X122209654Y-127206283D01*
X122209653Y-127206283D01*
X122209655Y-127206282D01*
X122286477Y-127165220D01*
X122374691Y-127118068D01*
X122464230Y-127090907D01*
X122553768Y-127063746D01*
X122623552Y-127056873D01*
X122693334Y-127050000D01*
X123306666Y-127050000D01*
X123376448Y-127056873D01*
G37*
G36*
X164800000Y-128670000D02*
G01*
X163400000Y-128670000D01*
X163400000Y-126470000D01*
X164800000Y-126470000D01*
X164800000Y-128670000D01*
G37*
G36*
X160800000Y-128670000D02*
G01*
X159400000Y-128670000D01*
X159400000Y-126470000D01*
X160800000Y-126470000D01*
X160800000Y-128670000D01*
G37*
G36*
X162800000Y-128670000D02*
G01*
X161400000Y-128670000D01*
X161400000Y-126470000D01*
X162800000Y-126470000D01*
X162800000Y-128670000D01*
G37*
G36*
X168800000Y-128670000D02*
G01*
X167400000Y-128670000D01*
X167400000Y-126470000D01*
X168800000Y-126470000D01*
X168800000Y-128670000D01*
G37*
G36*
X166800000Y-128670000D02*
G01*
X165400000Y-128670000D01*
X165400000Y-126470000D01*
X166800000Y-126470000D01*
X166800000Y-128670000D01*
G37*
G36*
X170800000Y-128670000D02*
G01*
X169400000Y-128670000D01*
X169400000Y-126470000D01*
X170800000Y-126470000D01*
X170800000Y-128670000D01*
G37*
G36*
X176364000Y-127602000D02*
G01*
X174664000Y-127602000D01*
X174664000Y-125702000D01*
X176364000Y-125702000D01*
X176364000Y-127602000D01*
G37*
G36*
X155765000Y-127188000D02*
G01*
X154115000Y-127188000D01*
X154115000Y-125288000D01*
X155765000Y-125288000D01*
X155765000Y-127188000D01*
G37*
G36*
X158950000Y-126770000D02*
G01*
X156050000Y-126770000D01*
X156050000Y-125370000D01*
X158950000Y-125370000D01*
X158950000Y-126770000D01*
G37*
G36*
X174150000Y-126770000D02*
G01*
X171250000Y-126770000D01*
X171250000Y-125370000D01*
X174150000Y-125370000D01*
X174150000Y-126770000D01*
G37*
G36*
X124022067Y-124055076D02*
G01*
X124065728Y-124068320D01*
X124105964Y-124089827D01*
X124141231Y-124118769D01*
X124170173Y-124154036D01*
X124191680Y-124194272D01*
X124204924Y-124237933D01*
X124210000Y-124289474D01*
X124210000Y-125710526D01*
X124204924Y-125762067D01*
X124191680Y-125805728D01*
X124170173Y-125845964D01*
X124141231Y-125881231D01*
X124105964Y-125910173D01*
X124065728Y-125931680D01*
X124022067Y-125944924D01*
X123970526Y-125950000D01*
X122029474Y-125950000D01*
X121977933Y-125944924D01*
X121934272Y-125931680D01*
X121894036Y-125910173D01*
X121858769Y-125881231D01*
X121829827Y-125845964D01*
X121808320Y-125805728D01*
X121795076Y-125762067D01*
X121790000Y-125710526D01*
X121790000Y-124289474D01*
X121795076Y-124237933D01*
X121808320Y-124194272D01*
X121829827Y-124154036D01*
X121858769Y-124118769D01*
X121894036Y-124089827D01*
X121934272Y-124068320D01*
X121977933Y-124055076D01*
X122029474Y-124050000D01*
X123970526Y-124050000D01*
X124022067Y-124055076D01*
G37*
G36*
X176364000Y-124902000D02*
G01*
X174664000Y-124902000D01*
X174664000Y-123002000D01*
X176364000Y-123002000D01*
X176364000Y-124902000D01*
G37*
G36*
X158950000Y-124770000D02*
G01*
X156050000Y-124770000D01*
X156050000Y-123370000D01*
X158950000Y-123370000D01*
X158950000Y-124770000D01*
G37*
G36*
X174150000Y-124770000D02*
G01*
X171250000Y-124770000D01*
X171250000Y-123370000D01*
X174150000Y-123370000D01*
X174150000Y-124770000D01*
G37*
G36*
X155790000Y-123886000D02*
G01*
X154090000Y-123886000D01*
X154090000Y-121986000D01*
X155790000Y-121986000D01*
X155790000Y-123886000D01*
G37*
G36*
X133210001Y-123224999D02*
G01*
X130810001Y-123224999D01*
X130810001Y-120524999D01*
X133210001Y-120524999D01*
X133210001Y-123224999D01*
G37*
G36*
X147603780Y-120576878D02*
G01*
X147849464Y-120678644D01*
X147849466Y-120678645D01*
X147960770Y-120753016D01*
X148070575Y-120826385D01*
X148258615Y-121014425D01*
X148406356Y-121235536D01*
X148508122Y-121481220D01*
X148560001Y-121742034D01*
X148560001Y-122007964D01*
X148508122Y-122268778D01*
X148469508Y-122362000D01*
X148406355Y-122514464D01*
X148258614Y-122735574D01*
X148070576Y-122923612D01*
X147849466Y-123071353D01*
X147849465Y-123071354D01*
X147849464Y-123071354D01*
X147603780Y-123173120D01*
X147342966Y-123224999D01*
X147077036Y-123224999D01*
X146816222Y-123173120D01*
X146570538Y-123071354D01*
X146570537Y-123071354D01*
X146570536Y-123071353D01*
X146349426Y-122923612D01*
X146161388Y-122735574D01*
X146013647Y-122514464D01*
X145950494Y-122362000D01*
X145911880Y-122268778D01*
X145860001Y-122007964D01*
X145860001Y-121742034D01*
X145911880Y-121481220D01*
X146013646Y-121235536D01*
X146161387Y-121014425D01*
X146349427Y-120826385D01*
X146459232Y-120753016D01*
X146570536Y-120678645D01*
X146570538Y-120678644D01*
X146816222Y-120576878D01*
X147077036Y-120524999D01*
X147342966Y-120524999D01*
X147603780Y-120576878D01*
G37*
G36*
X125203559Y-121197088D02*
G01*
X125355519Y-121260032D01*
X125355521Y-121260033D01*
X125492281Y-121351413D01*
X125608587Y-121467719D01*
X125699968Y-121604481D01*
X125762912Y-121756441D01*
X125795000Y-121917758D01*
X125795000Y-122082242D01*
X125762912Y-122243559D01*
X125713852Y-122362000D01*
X125699967Y-122395521D01*
X125608587Y-122532281D01*
X125492281Y-122648587D01*
X125355521Y-122739967D01*
X125355520Y-122739968D01*
X125355519Y-122739968D01*
X125203559Y-122802912D01*
X125042242Y-122835000D01*
X124877758Y-122835000D01*
X124716441Y-122802912D01*
X124564481Y-122739968D01*
X124564480Y-122739968D01*
X124564479Y-122739967D01*
X124427719Y-122648587D01*
X124311413Y-122532281D01*
X124220033Y-122395521D01*
X124206148Y-122362000D01*
X124157088Y-122243559D01*
X124125000Y-122082242D01*
X124125000Y-121917758D01*
X124157088Y-121756441D01*
X124220032Y-121604481D01*
X124311413Y-121467719D01*
X124427719Y-121351413D01*
X124564479Y-121260033D01*
X124564481Y-121260032D01*
X124716441Y-121197088D01*
X124877758Y-121165000D01*
X125042242Y-121165000D01*
X125203559Y-121197088D01*
G37*
G36*
X174150000Y-122770000D02*
G01*
X171250000Y-122770000D01*
X171250000Y-121370000D01*
X174150000Y-121370000D01*
X174150000Y-122770000D01*
G37*
G36*
X158950000Y-122770000D02*
G01*
X156050000Y-122770000D01*
X156050000Y-121370000D01*
X158950000Y-121370000D01*
X158950000Y-122770000D01*
G37*
G36*
X176718000Y-122516000D02*
G01*
X174818000Y-122516000D01*
X174818000Y-118950000D01*
X176718000Y-118950000D01*
X176718000Y-122516000D01*
G37*
G36*
X179418000Y-122516000D02*
G01*
X177518000Y-122516000D01*
X177518000Y-118950000D01*
X179418000Y-118950000D01*
X179418000Y-122516000D01*
G37*
G36*
X153758000Y-122362000D02*
G01*
X152058000Y-122362000D01*
X152058000Y-120462000D01*
X153758000Y-120462000D01*
X153758000Y-122362000D01*
G37*
G36*
X155790000Y-121186000D02*
G01*
X154090000Y-121186000D01*
X154090000Y-119286000D01*
X155790000Y-119286000D01*
X155790000Y-121186000D01*
G37*
G36*
X174150000Y-120770000D02*
G01*
X171250000Y-120770000D01*
X171250000Y-119370000D01*
X174150000Y-119370000D01*
X174150000Y-120770000D01*
G37*
G36*
X158950000Y-120770000D02*
G01*
X156050000Y-120770000D01*
X156050000Y-119370000D01*
X158950000Y-119370000D01*
X158950000Y-120770000D01*
G37*
G36*
X153758000Y-119662000D02*
G01*
X152058000Y-119662000D01*
X152058000Y-117762000D01*
X153758000Y-117762000D01*
X153758000Y-119662000D01*
G37*
G36*
X158950000Y-118770000D02*
G01*
X156050000Y-118770000D01*
X156050000Y-117370000D01*
X158950000Y-117370000D01*
X158950000Y-118770000D01*
G37*
G36*
X174150000Y-118770000D02*
G01*
X171250000Y-118770000D01*
X171250000Y-117370000D01*
X174150000Y-117370000D01*
X174150000Y-118770000D01*
G37*
G36*
X125203559Y-116197088D02*
G01*
X125355519Y-116260032D01*
X125355521Y-116260033D01*
X125492281Y-116351413D01*
X125608587Y-116467719D01*
X125699968Y-116604481D01*
X125762912Y-116756441D01*
X125795000Y-116917758D01*
X125795000Y-117082242D01*
X125762912Y-117243559D01*
X125710538Y-117370000D01*
X125699967Y-117395521D01*
X125608587Y-117532281D01*
X125492281Y-117648587D01*
X125355521Y-117739967D01*
X125355520Y-117739968D01*
X125355519Y-117739968D01*
X125203559Y-117802912D01*
X125042242Y-117835000D01*
X124877758Y-117835000D01*
X124716441Y-117802912D01*
X124564481Y-117739968D01*
X124564480Y-117739968D01*
X124564479Y-117739967D01*
X124427719Y-117648587D01*
X124311413Y-117532281D01*
X124220033Y-117395521D01*
X124209462Y-117370000D01*
X124157088Y-117243559D01*
X124125000Y-117082242D01*
X124125000Y-116917758D01*
X124157088Y-116756441D01*
X124220032Y-116604481D01*
X124311413Y-116467719D01*
X124427719Y-116351413D01*
X124564479Y-116260033D01*
X124564481Y-116260032D01*
X124716441Y-116197088D01*
X124877758Y-116165000D01*
X125042242Y-116165000D01*
X125203559Y-116197088D01*
G37*
G36*
X155536000Y-116934000D02*
G01*
X153836000Y-116934000D01*
X153836000Y-115034000D01*
X155536000Y-115034000D01*
X155536000Y-116934000D01*
G37*
G36*
X158950000Y-116770000D02*
G01*
X156050000Y-116770000D01*
X156050000Y-115370000D01*
X158950000Y-115370000D01*
X158950000Y-116770000D01*
G37*
G36*
X174150000Y-116770000D02*
G01*
X171250000Y-116770000D01*
X171250000Y-115370000D01*
X174150000Y-115370000D01*
X174150000Y-116770000D01*
G37*
G36*
X176718000Y-115125000D02*
G01*
X174818000Y-115125000D01*
X174818000Y-113475000D01*
X176718000Y-113475000D01*
X176718000Y-115125000D01*
G37*
G36*
X179218000Y-115125000D02*
G01*
X177318000Y-115125000D01*
X177318000Y-113475000D01*
X179218000Y-113475000D01*
X179218000Y-115125000D01*
G37*
G36*
X123446232Y-113063746D02*
G01*
X123535770Y-113090907D01*
X123625309Y-113118068D01*
X123713523Y-113165220D01*
X123790345Y-113206282D01*
X123790347Y-113206283D01*
X123790346Y-113206283D01*
X123935002Y-113324998D01*
X124053717Y-113469654D01*
X124141932Y-113634691D01*
X124196254Y-113813769D01*
X124214596Y-114000000D01*
X124196254Y-114186231D01*
X124141932Y-114365309D01*
X124053717Y-114530346D01*
X123935002Y-114675002D01*
X123803315Y-114783073D01*
X123790345Y-114793718D01*
X123713523Y-114834780D01*
X123625309Y-114881932D01*
X123535770Y-114909093D01*
X123446232Y-114936254D01*
X123376448Y-114943127D01*
X123306666Y-114950000D01*
X122693334Y-114950000D01*
X122623552Y-114943127D01*
X122553768Y-114936254D01*
X122464230Y-114909093D01*
X122374691Y-114881932D01*
X122286477Y-114834780D01*
X122209655Y-114793718D01*
X122196685Y-114783073D01*
X122064998Y-114675002D01*
X121946283Y-114530346D01*
X121858068Y-114365309D01*
X121803746Y-114186231D01*
X121785404Y-114000000D01*
X121803746Y-113813769D01*
X121858068Y-113634691D01*
X121946283Y-113469654D01*
X122064998Y-113324998D01*
X122209654Y-113206283D01*
X122209653Y-113206283D01*
X122209655Y-113206282D01*
X122286477Y-113165220D01*
X122374691Y-113118068D01*
X122464230Y-113090907D01*
X122553768Y-113063746D01*
X122693334Y-113050000D01*
X123306666Y-113050000D01*
X123446232Y-113063746D01*
G37*
G36*
X174150000Y-114770000D02*
G01*
X171250000Y-114770000D01*
X171250000Y-113370000D01*
X174150000Y-113370000D01*
X174150000Y-114770000D01*
G37*
G36*
X158950000Y-114770000D02*
G01*
X156050000Y-114770000D01*
X156050000Y-113370000D01*
X158950000Y-113370000D01*
X158950000Y-114770000D01*
G37*
G36*
X155536000Y-114234000D02*
G01*
X153836000Y-114234000D01*
X153836000Y-110208000D01*
X155536000Y-110208000D01*
X155536000Y-114234000D01*
G37*
G36*
X158950000Y-112770000D02*
G01*
X156050000Y-112770000D01*
X156050000Y-111370000D01*
X158950000Y-111370000D01*
X158950000Y-112770000D01*
G37*
G36*
X174150000Y-112770000D02*
G01*
X171250000Y-112770000D01*
X171250000Y-111370000D01*
X174150000Y-111370000D01*
X174150000Y-112770000D01*
G37*
G36*
X123446232Y-110063746D02*
G01*
X123535770Y-110090907D01*
X123625309Y-110118068D01*
X123713523Y-110165220D01*
X123790345Y-110206282D01*
X123790347Y-110206283D01*
X123790346Y-110206283D01*
X123935002Y-110324998D01*
X124053717Y-110469654D01*
X124141932Y-110634691D01*
X124196254Y-110813769D01*
X124214596Y-111000000D01*
X124196254Y-111186231D01*
X124141932Y-111365309D01*
X124053717Y-111530346D01*
X123935002Y-111675002D01*
X123803315Y-111783073D01*
X123790345Y-111793718D01*
X123713523Y-111834780D01*
X123625309Y-111881932D01*
X123535770Y-111909093D01*
X123446232Y-111936254D01*
X123376448Y-111943127D01*
X123306666Y-111950000D01*
X122693334Y-111950000D01*
X122623552Y-111943127D01*
X122553768Y-111936254D01*
X122464230Y-111909093D01*
X122374691Y-111881932D01*
X122286477Y-111834780D01*
X122209655Y-111793718D01*
X122196685Y-111783073D01*
X122064998Y-111675002D01*
X121946283Y-111530346D01*
X121858068Y-111365309D01*
X121803746Y-111186231D01*
X121785404Y-111000000D01*
X121803746Y-110813769D01*
X121858068Y-110634691D01*
X121946283Y-110469654D01*
X122064998Y-110324998D01*
X122209654Y-110206283D01*
X122209653Y-110206283D01*
X122209655Y-110206282D01*
X122286477Y-110165220D01*
X122374691Y-110118068D01*
X122464230Y-110090907D01*
X122553768Y-110063746D01*
X122693334Y-110050000D01*
X123306666Y-110050000D01*
X123446232Y-110063746D01*
G37*
G36*
X178184000Y-111060000D02*
G01*
X175384000Y-111060000D01*
X175384000Y-107380000D01*
X178184000Y-107380000D01*
X178184000Y-111060000D01*
G37*
G36*
X182084000Y-111060000D02*
G01*
X179284000Y-111060000D01*
X179284000Y-107380000D01*
X182084000Y-107380000D01*
X182084000Y-111060000D01*
G37*
G36*
X155536000Y-109408000D02*
G01*
X153836000Y-109408000D01*
X153836000Y-107508000D01*
X155536000Y-107508000D01*
X155536000Y-109408000D01*
G37*
G36*
X124022067Y-107055076D02*
G01*
X124065728Y-107068320D01*
X124105964Y-107089827D01*
X124141231Y-107118769D01*
X124170173Y-107154036D01*
X124191680Y-107194272D01*
X124204924Y-107237933D01*
X124210000Y-107289474D01*
X124210000Y-108710526D01*
X124204924Y-108762067D01*
X124191680Y-108805728D01*
X124170173Y-108845964D01*
X124141231Y-108881231D01*
X124105964Y-108910173D01*
X124065728Y-108931680D01*
X124022067Y-108944924D01*
X123970526Y-108950000D01*
X122029474Y-108950000D01*
X121977933Y-108944924D01*
X121934272Y-108931680D01*
X121894036Y-108910173D01*
X121858769Y-108881231D01*
X121829827Y-108845964D01*
X121808320Y-108805728D01*
X121795076Y-108762067D01*
X121790000Y-108710526D01*
X121790000Y-107289474D01*
X121795076Y-107237933D01*
X121808320Y-107194272D01*
X121829827Y-107154036D01*
X121858769Y-107118769D01*
X121894036Y-107089827D01*
X121934272Y-107068320D01*
X121977933Y-107055076D01*
X122029474Y-107050000D01*
X123970526Y-107050000D01*
X124022067Y-107055076D01*
G37*
G36*
X125203559Y-104197088D02*
G01*
X125355519Y-104260032D01*
X125355521Y-104260033D01*
X125492281Y-104351413D01*
X125608587Y-104467719D01*
X125699968Y-104604481D01*
X125762912Y-104756441D01*
X125795000Y-104917758D01*
X125795000Y-105082242D01*
X125762912Y-105243559D01*
X125699968Y-105395519D01*
X125699967Y-105395521D01*
X125608587Y-105532281D01*
X125492281Y-105648587D01*
X125355521Y-105739967D01*
X125355520Y-105739968D01*
X125355519Y-105739968D01*
X125203559Y-105802912D01*
X125042242Y-105835000D01*
X124877758Y-105835000D01*
X124716441Y-105802912D01*
X124564481Y-105739968D01*
X124564480Y-105739968D01*
X124564479Y-105739967D01*
X124427719Y-105648587D01*
X124311413Y-105532281D01*
X124220033Y-105395521D01*
X124220032Y-105395519D01*
X124157088Y-105243559D01*
X124125000Y-105082242D01*
X124125000Y-104917758D01*
X124157088Y-104756441D01*
X124220032Y-104604481D01*
X124311413Y-104467719D01*
X124427719Y-104351413D01*
X124564479Y-104260033D01*
X124564481Y-104260032D01*
X124716441Y-104197088D01*
X124877758Y-104165000D01*
X125042242Y-104165000D01*
X125203559Y-104197088D01*
G37*
G36*
X132403780Y-92576878D02*
G01*
X132649464Y-92678644D01*
X132649466Y-92678645D01*
X132760770Y-92753016D01*
X132870575Y-92826385D01*
X133058615Y-93014425D01*
X133206356Y-93235536D01*
X133308122Y-93481220D01*
X133360001Y-93742034D01*
X133360001Y-94007964D01*
X133308122Y-94268778D01*
X133206356Y-94514462D01*
X133206355Y-94514464D01*
X133058614Y-94735574D01*
X132870576Y-94923612D01*
X132649466Y-95071353D01*
X132649465Y-95071354D01*
X132649464Y-95071354D01*
X132403780Y-95173120D01*
X132142966Y-95224999D01*
X131877036Y-95224999D01*
X131616222Y-95173120D01*
X131370538Y-95071354D01*
X131370537Y-95071354D01*
X131370536Y-95071353D01*
X131149426Y-94923612D01*
X130961388Y-94735574D01*
X130813647Y-94514464D01*
X130813646Y-94514462D01*
X130711880Y-94268778D01*
X130660001Y-94007964D01*
X130660001Y-93742034D01*
X130711880Y-93481220D01*
X130813646Y-93235536D01*
X130961387Y-93014425D01*
X131149427Y-92826385D01*
X131259232Y-92753016D01*
X131370536Y-92678645D01*
X131370538Y-92678644D01*
X131616222Y-92576878D01*
X131877036Y-92524999D01*
X132142966Y-92524999D01*
X132403780Y-92576878D01*
G37*
G36*
X140003780Y-92576878D02*
G01*
X140249464Y-92678644D01*
X140249466Y-92678645D01*
X140360770Y-92753016D01*
X140470575Y-92826385D01*
X140658615Y-93014425D01*
X140806356Y-93235536D01*
X140908122Y-93481220D01*
X140960001Y-93742034D01*
X140960001Y-94007964D01*
X140908122Y-94268778D01*
X140806356Y-94514462D01*
X140806355Y-94514464D01*
X140658614Y-94735574D01*
X140470576Y-94923612D01*
X140249466Y-95071353D01*
X140249465Y-95071354D01*
X140249464Y-95071354D01*
X140003780Y-95173120D01*
X139742966Y-95224999D01*
X139477036Y-95224999D01*
X139216222Y-95173120D01*
X138970538Y-95071354D01*
X138970537Y-95071354D01*
X138970536Y-95071353D01*
X138749426Y-94923612D01*
X138561388Y-94735574D01*
X138413647Y-94514464D01*
X138413646Y-94514462D01*
X138311880Y-94268778D01*
X138260001Y-94007964D01*
X138260001Y-93742034D01*
X138311880Y-93481220D01*
X138413646Y-93235536D01*
X138561387Y-93014425D01*
X138749427Y-92826385D01*
X138859232Y-92753016D01*
X138970536Y-92678645D01*
X138970538Y-92678644D01*
X139216222Y-92576878D01*
X139477036Y-92524999D01*
X139742966Y-92524999D01*
X140003780Y-92576878D01*
G37*
M02*
