G04 #@! TF.GenerationSoftware,KiCad,Pcbnew,(5.0.2)-1*
G04 #@! TF.CreationDate,2020-01-19T23:31:25+01:00*
G04 #@! TF.ProjectId,loftrelayRound,6c6f6674-7265-46c6-9179-526f756e642e,rev?*
G04 #@! TF.SameCoordinates,Original*
G04 #@! TF.FileFunction,Legend,Top*
G04 #@! TF.FilePolarity,Positive*
%FSLAX46Y46*%
G04 Gerber Fmt 4.6, Leading zero omitted, Abs format (unit mm)*
G04 Created by KiCad (PCBNEW (5.0.2)-1) date 19/01/2020 23:31:25*
%MOMM*%
%LPD*%
G01*
G04 APERTURE LIST*
%ADD10C,0.300000*%
%ADD11C,0.120000*%
%ADD12C,0.150000*%
G04 APERTURE END LIST*
D10*
X196723428Y-111570285D02*
X196723428Y-112570285D01*
X195223428Y-111927428D01*
X196723428Y-113427428D02*
X196723428Y-113570285D01*
X196652000Y-113713142D01*
X196580571Y-113784571D01*
X196437714Y-113856000D01*
X196152000Y-113927428D01*
X195794857Y-113927428D01*
X195509142Y-113856000D01*
X195366285Y-113784571D01*
X195294857Y-113713142D01*
X195223428Y-113570285D01*
X195223428Y-113427428D01*
X195294857Y-113284571D01*
X195366285Y-113213142D01*
X195509142Y-113141714D01*
X195794857Y-113070285D01*
X196152000Y-113070285D01*
X196437714Y-113141714D01*
X196580571Y-113213142D01*
X196652000Y-113284571D01*
X196723428Y-113427428D01*
X195366285Y-114570285D02*
X195294857Y-114641714D01*
X195223428Y-114570285D01*
X195294857Y-114498857D01*
X195366285Y-114570285D01*
X195223428Y-114570285D01*
X195223428Y-116070285D02*
X195223428Y-115213142D01*
X195223428Y-115641714D02*
X196723428Y-115641714D01*
X196509142Y-115498857D01*
X196366285Y-115356000D01*
X196294857Y-115213142D01*
X196723428Y-116998857D02*
X196723428Y-117141714D01*
X196652000Y-117284571D01*
X196580571Y-117356000D01*
X196437714Y-117427428D01*
X196152000Y-117498857D01*
X195794857Y-117498857D01*
X195509142Y-117427428D01*
X195366285Y-117356000D01*
X195294857Y-117284571D01*
X195223428Y-117141714D01*
X195223428Y-116998857D01*
X195294857Y-116856000D01*
X195366285Y-116784571D01*
X195509142Y-116713142D01*
X195794857Y-116641714D01*
X196152000Y-116641714D01*
X196437714Y-116713142D01*
X196580571Y-116784571D01*
X196652000Y-116856000D01*
X196723428Y-116998857D01*
X196223428Y-118784571D02*
X195223428Y-118784571D01*
X196794857Y-118427428D02*
X195723428Y-118070285D01*
X195723428Y-118998857D01*
X195223428Y-120713142D02*
X196223428Y-120713142D01*
X196080571Y-120713142D02*
X196152000Y-120784571D01*
X196223428Y-120927428D01*
X196223428Y-121141714D01*
X196152000Y-121284571D01*
X196009142Y-121356000D01*
X195223428Y-121356000D01*
X196009142Y-121356000D02*
X196152000Y-121427428D01*
X196223428Y-121570285D01*
X196223428Y-121784571D01*
X196152000Y-121927428D01*
X196009142Y-121998857D01*
X195223428Y-121998857D01*
X195223428Y-122713142D02*
X196223428Y-122713142D01*
X196080571Y-122713142D02*
X196152000Y-122784571D01*
X196223428Y-122927428D01*
X196223428Y-123141714D01*
X196152000Y-123284571D01*
X196009142Y-123356000D01*
X195223428Y-123356000D01*
X196009142Y-123356000D02*
X196152000Y-123427428D01*
X196223428Y-123570285D01*
X196223428Y-123784571D01*
X196152000Y-123927428D01*
X196009142Y-123998857D01*
X195223428Y-123998857D01*
X193802000Y-82804000D02*
X193802000Y-152908000D01*
X148590000Y-82804000D02*
X194388421Y-82804000D01*
X148590000Y-152908000D02*
X194388421Y-152908000D01*
X193802000Y-152908000D02*
X193215579Y-151781496D01*
X193802000Y-152908000D02*
X194388421Y-151781496D01*
X193802000Y-82804000D02*
X193215579Y-83930504D01*
X193802000Y-82804000D02*
X194388421Y-83930504D01*
D11*
G04 #@! TO.C,C1*
X135085000Y-128270000D02*
X135245000Y-128270000D01*
X140625000Y-128270000D02*
X140465000Y-128270000D01*
X135245000Y-129880000D02*
X140465000Y-129880000D01*
X135245000Y-126660000D02*
X135245000Y-129880000D01*
X140465000Y-126660000D02*
X135245000Y-126660000D01*
X140465000Y-129880000D02*
X140465000Y-126660000D01*
G04 #@! TO.C,C2*
X155968000Y-138088000D02*
X154968000Y-138088000D01*
X154968000Y-139788000D02*
X155968000Y-139788000D01*
G04 #@! TO.C,C3*
X155790000Y-127988000D02*
X155790000Y-126988000D01*
X154090000Y-126988000D02*
X154090000Y-127988000D01*
G04 #@! TO.C,C4*
X168060000Y-131052000D02*
X168060000Y-132052000D01*
X169760000Y-132052000D02*
X169760000Y-131052000D01*
G04 #@! TO.C,R3*
X153806000Y-115234000D02*
X153806000Y-114034000D01*
X155566000Y-114034000D02*
X155566000Y-115234000D01*
G04 #@! TO.C,R4*
X153806000Y-110408000D02*
X153806000Y-109208000D01*
X155566000Y-109208000D02*
X155566000Y-110408000D01*
G04 #@! TO.C,R5*
X177718000Y-120768000D02*
X176518000Y-120768000D01*
X176518000Y-119008000D02*
X177718000Y-119008000D01*
G04 #@! TO.C,R6*
X174634000Y-125902000D02*
X174634000Y-124702000D01*
X176394000Y-124702000D02*
X176394000Y-125902000D01*
G04 #@! TO.C,R7*
X177718000Y-122546000D02*
X176518000Y-122546000D01*
X176518000Y-120786000D02*
X177718000Y-120786000D01*
G04 #@! TO.C,U4*
X156980000Y-103450000D02*
X173220000Y-103450000D01*
X173220000Y-103450000D02*
X173220000Y-111070000D01*
X173220000Y-127070000D02*
X173220000Y-127690000D01*
X173220000Y-127690000D02*
X171100000Y-127690000D01*
X159100000Y-127690000D02*
X156980000Y-127690000D01*
X156980000Y-127690000D02*
X156980000Y-127070000D01*
X156980000Y-111070000D02*
X156980000Y-103450000D01*
X156980000Y-111070000D02*
X156370000Y-111070000D01*
G04 #@! TO.C,Q1*
X153426000Y-133332000D02*
X153426000Y-131872000D01*
X156586000Y-133332000D02*
X156586000Y-131172000D01*
X156586000Y-133332000D02*
X155656000Y-133332000D01*
X153426000Y-133332000D02*
X154356000Y-133332000D01*
G04 #@! TO.C,K1*
X132210000Y-136525000D02*
G75*
G03X132210000Y-136525000I-130000J0D01*
G01*
X149000000Y-142025000D02*
X127860000Y-142025000D01*
X149000000Y-131025000D02*
X149000000Y-142025000D01*
X127860000Y-131025000D02*
X127860000Y-142025000D01*
X149000000Y-131025000D02*
X127860000Y-131025000D01*
X144270000Y-135005000D02*
X144780000Y-135005000D01*
X144270000Y-137545000D02*
X144270000Y-135005000D01*
X144780000Y-137545000D02*
X144270000Y-137545000D01*
X145290000Y-137545000D02*
X144780000Y-137545000D01*
X145290000Y-135005000D02*
X145290000Y-137545000D01*
X144780000Y-135005000D02*
X145290000Y-135005000D01*
X146050000Y-132715000D02*
X144780000Y-132715000D01*
X144780000Y-132715000D02*
X144780000Y-135005000D01*
X144780000Y-137545000D02*
X144780000Y-140335000D01*
X144780000Y-140335000D02*
X146050000Y-140335000D01*
X145290000Y-135765000D02*
X144270000Y-136775000D01*
X137160000Y-136525000D02*
X132080000Y-136525000D01*
X137160000Y-133985000D02*
X137160000Y-136525000D01*
X129540000Y-133985000D02*
X129540000Y-135255000D01*
X132080000Y-136525000D02*
X129290000Y-137925000D01*
G04 #@! TO.C,C5*
X176518000Y-115150000D02*
X177518000Y-115150000D01*
X177518000Y-113450000D02*
X176518000Y-113450000D01*
G04 #@! TO.C,PS1*
X150830001Y-124844999D02*
X128390001Y-124844999D01*
X128390001Y-90904999D02*
X150830001Y-90904999D01*
X128390001Y-124844999D02*
X128390001Y-90904999D01*
X150830001Y-124844999D02*
X150830001Y-90904999D01*
X128060001Y-123874999D02*
X128060001Y-117874999D01*
G04 #@! TO.C,R8*
X177718000Y-118880000D02*
X176518000Y-118880000D01*
X176518000Y-117120000D02*
X177718000Y-117120000D01*
G04 #@! TO.C,U1*
X164368000Y-137522000D02*
X164368000Y-136262000D01*
X164368000Y-130702000D02*
X164368000Y-131962000D01*
X160608000Y-137522000D02*
X164368000Y-137522000D01*
X158358000Y-130702000D02*
X164368000Y-130702000D01*
G04 #@! TO.C,D1*
X156520000Y-135368000D02*
X155590000Y-135368000D01*
X153360000Y-135368000D02*
X154290000Y-135368000D01*
X153360000Y-135368000D02*
X153360000Y-137528000D01*
X156520000Y-135368000D02*
X156520000Y-136828000D01*
G04 #@! TO.C,J4*
X180499000Y-111120000D02*
X180499000Y-111185000D01*
X176969000Y-111120000D02*
X176969000Y-111185000D01*
X180499000Y-107255000D02*
X180499000Y-107320000D01*
X176969000Y-107255000D02*
X176969000Y-107320000D01*
X175644000Y-107320000D02*
X176969000Y-107320000D01*
X176969000Y-111185000D02*
X180499000Y-111185000D01*
X176969000Y-107255000D02*
X180499000Y-107255000D01*
G04 #@! TO.C,J1*
X123236000Y-107670000D02*
X122936000Y-108270000D01*
X122636000Y-107670000D02*
X123236000Y-107670000D01*
X122936000Y-108270000D02*
X122636000Y-107670000D01*
X118186000Y-115740000D02*
X118186000Y-112990000D01*
X121046000Y-115740000D02*
X118186000Y-115740000D01*
X121046000Y-117360000D02*
X121046000Y-115740000D01*
X124826000Y-117360000D02*
X121046000Y-117360000D01*
X124826000Y-112990000D02*
X124826000Y-117360000D01*
X118186000Y-110240000D02*
X118186000Y-112990000D01*
X121046000Y-110240000D02*
X118186000Y-110240000D01*
X121046000Y-108620000D02*
X121046000Y-110240000D01*
X124826000Y-108620000D02*
X121046000Y-108620000D01*
X124826000Y-112990000D02*
X124826000Y-108620000D01*
G04 #@! TO.C,J2*
X123490000Y-120116000D02*
X123190000Y-120716000D01*
X122890000Y-120116000D02*
X123490000Y-120116000D01*
X123190000Y-120716000D02*
X122890000Y-120116000D01*
X118440000Y-126936000D02*
X118440000Y-124186000D01*
X121300000Y-126936000D02*
X118440000Y-126936000D01*
X121300000Y-127306000D02*
X121300000Y-126936000D01*
X125080000Y-127306000D02*
X121300000Y-127306000D01*
X125080000Y-124186000D02*
X125080000Y-127306000D01*
X118440000Y-121436000D02*
X118440000Y-124186000D01*
X121300000Y-121436000D02*
X118440000Y-121436000D01*
X121300000Y-121066000D02*
X121300000Y-121436000D01*
X125080000Y-121066000D02*
X121300000Y-121066000D01*
X125080000Y-124186000D02*
X125080000Y-121066000D01*
G04 #@! TO.C,J3*
X175828000Y-131258000D02*
X174558000Y-131258000D01*
X175828000Y-132588000D02*
X175828000Y-131258000D01*
X173228000Y-133858000D02*
X175828000Y-133858000D01*
X173228000Y-131258000D02*
X173228000Y-133858000D01*
X170628000Y-131258000D02*
X173228000Y-131258000D01*
X170628000Y-138998000D02*
X170628000Y-131258000D01*
X175828000Y-138998000D02*
X170628000Y-138998000D01*
X175828000Y-133858000D02*
X175828000Y-138998000D01*
G04 #@! TO.C,R9*
X152028000Y-120662000D02*
X152028000Y-119462000D01*
X153788000Y-119462000D02*
X153788000Y-120662000D01*
G04 #@! TO.C,R10*
X155820000Y-120986000D02*
X155820000Y-122186000D01*
X154060000Y-122186000D02*
X154060000Y-120986000D01*
G04 #@! TO.C,C1*
D12*
X137688333Y-131237142D02*
X137640714Y-131284761D01*
X137497857Y-131332380D01*
X137402619Y-131332380D01*
X137259761Y-131284761D01*
X137164523Y-131189523D01*
X137116904Y-131094285D01*
X137069285Y-130903809D01*
X137069285Y-130760952D01*
X137116904Y-130570476D01*
X137164523Y-130475238D01*
X137259761Y-130380000D01*
X137402619Y-130332380D01*
X137497857Y-130332380D01*
X137640714Y-130380000D01*
X137688333Y-130427619D01*
X138640714Y-131332380D02*
X138069285Y-131332380D01*
X138355000Y-131332380D02*
X138355000Y-130332380D01*
X138259761Y-130475238D01*
X138164523Y-130570476D01*
X138069285Y-130618095D01*
G04 #@! TO.C,C2*
X155301333Y-141045142D02*
X155253714Y-141092761D01*
X155110857Y-141140380D01*
X155015619Y-141140380D01*
X154872761Y-141092761D01*
X154777523Y-140997523D01*
X154729904Y-140902285D01*
X154682285Y-140711809D01*
X154682285Y-140568952D01*
X154729904Y-140378476D01*
X154777523Y-140283238D01*
X154872761Y-140188000D01*
X155015619Y-140140380D01*
X155110857Y-140140380D01*
X155253714Y-140188000D01*
X155301333Y-140235619D01*
X155682285Y-140235619D02*
X155729904Y-140188000D01*
X155825142Y-140140380D01*
X156063238Y-140140380D01*
X156158476Y-140188000D01*
X156206095Y-140235619D01*
X156253714Y-140330857D01*
X156253714Y-140426095D01*
X156206095Y-140568952D01*
X155634666Y-141140380D01*
X156253714Y-141140380D01*
G04 #@! TO.C,C3*
X157047142Y-127654666D02*
X157094761Y-127702285D01*
X157142380Y-127845142D01*
X157142380Y-127940380D01*
X157094761Y-128083238D01*
X156999523Y-128178476D01*
X156904285Y-128226095D01*
X156713809Y-128273714D01*
X156570952Y-128273714D01*
X156380476Y-128226095D01*
X156285238Y-128178476D01*
X156190000Y-128083238D01*
X156142380Y-127940380D01*
X156142380Y-127845142D01*
X156190000Y-127702285D01*
X156237619Y-127654666D01*
X156142380Y-127321333D02*
X156142380Y-126702285D01*
X156523333Y-127035619D01*
X156523333Y-126892761D01*
X156570952Y-126797523D01*
X156618571Y-126749904D01*
X156713809Y-126702285D01*
X156951904Y-126702285D01*
X157047142Y-126749904D01*
X157094761Y-126797523D01*
X157142380Y-126892761D01*
X157142380Y-127178476D01*
X157094761Y-127273714D01*
X157047142Y-127321333D01*
G04 #@! TO.C,C4*
X171017142Y-131718666D02*
X171064761Y-131766285D01*
X171112380Y-131909142D01*
X171112380Y-132004380D01*
X171064761Y-132147238D01*
X170969523Y-132242476D01*
X170874285Y-132290095D01*
X170683809Y-132337714D01*
X170540952Y-132337714D01*
X170350476Y-132290095D01*
X170255238Y-132242476D01*
X170160000Y-132147238D01*
X170112380Y-132004380D01*
X170112380Y-131909142D01*
X170160000Y-131766285D01*
X170207619Y-131718666D01*
X170445714Y-130861523D02*
X171112380Y-130861523D01*
X170064761Y-131099619D02*
X170779047Y-131337714D01*
X170779047Y-130718666D01*
G04 #@! TO.C,R3*
X153438380Y-114800666D02*
X152962190Y-115134000D01*
X153438380Y-115372095D02*
X152438380Y-115372095D01*
X152438380Y-114991142D01*
X152486000Y-114895904D01*
X152533619Y-114848285D01*
X152628857Y-114800666D01*
X152771714Y-114800666D01*
X152866952Y-114848285D01*
X152914571Y-114895904D01*
X152962190Y-114991142D01*
X152962190Y-115372095D01*
X152438380Y-114467333D02*
X152438380Y-113848285D01*
X152819333Y-114181619D01*
X152819333Y-114038761D01*
X152866952Y-113943523D01*
X152914571Y-113895904D01*
X153009809Y-113848285D01*
X153247904Y-113848285D01*
X153343142Y-113895904D01*
X153390761Y-113943523D01*
X153438380Y-114038761D01*
X153438380Y-114324476D01*
X153390761Y-114419714D01*
X153343142Y-114467333D01*
G04 #@! TO.C,R4*
X156838380Y-109974666D02*
X156362190Y-110308000D01*
X156838380Y-110546095D02*
X155838380Y-110546095D01*
X155838380Y-110165142D01*
X155886000Y-110069904D01*
X155933619Y-110022285D01*
X156028857Y-109974666D01*
X156171714Y-109974666D01*
X156266952Y-110022285D01*
X156314571Y-110069904D01*
X156362190Y-110165142D01*
X156362190Y-110546095D01*
X156171714Y-109117523D02*
X156838380Y-109117523D01*
X155790761Y-109355619D02*
X156505047Y-109593714D01*
X156505047Y-108974666D01*
G04 #@! TO.C,R5*
X176951333Y-118640380D02*
X176618000Y-118164190D01*
X176379904Y-118640380D02*
X176379904Y-117640380D01*
X176760857Y-117640380D01*
X176856095Y-117688000D01*
X176903714Y-117735619D01*
X176951333Y-117830857D01*
X176951333Y-117973714D01*
X176903714Y-118068952D01*
X176856095Y-118116571D01*
X176760857Y-118164190D01*
X176379904Y-118164190D01*
X177856095Y-117640380D02*
X177379904Y-117640380D01*
X177332285Y-118116571D01*
X177379904Y-118068952D01*
X177475142Y-118021333D01*
X177713238Y-118021333D01*
X177808476Y-118068952D01*
X177856095Y-118116571D01*
X177903714Y-118211809D01*
X177903714Y-118449904D01*
X177856095Y-118545142D01*
X177808476Y-118592761D01*
X177713238Y-118640380D01*
X177475142Y-118640380D01*
X177379904Y-118592761D01*
X177332285Y-118545142D01*
G04 #@! TO.C,R6*
X174266380Y-125468666D02*
X173790190Y-125802000D01*
X174266380Y-126040095D02*
X173266380Y-126040095D01*
X173266380Y-125659142D01*
X173314000Y-125563904D01*
X173361619Y-125516285D01*
X173456857Y-125468666D01*
X173599714Y-125468666D01*
X173694952Y-125516285D01*
X173742571Y-125563904D01*
X173790190Y-125659142D01*
X173790190Y-126040095D01*
X173266380Y-124611523D02*
X173266380Y-124802000D01*
X173314000Y-124897238D01*
X173361619Y-124944857D01*
X173504476Y-125040095D01*
X173694952Y-125087714D01*
X174075904Y-125087714D01*
X174171142Y-125040095D01*
X174218761Y-124992476D01*
X174266380Y-124897238D01*
X174266380Y-124706761D01*
X174218761Y-124611523D01*
X174171142Y-124563904D01*
X174075904Y-124516285D01*
X173837809Y-124516285D01*
X173742571Y-124563904D01*
X173694952Y-124611523D01*
X173647333Y-124706761D01*
X173647333Y-124897238D01*
X173694952Y-124992476D01*
X173742571Y-125040095D01*
X173837809Y-125087714D01*
G04 #@! TO.C,R7*
X176951333Y-120418380D02*
X176618000Y-119942190D01*
X176379904Y-120418380D02*
X176379904Y-119418380D01*
X176760857Y-119418380D01*
X176856095Y-119466000D01*
X176903714Y-119513619D01*
X176951333Y-119608857D01*
X176951333Y-119751714D01*
X176903714Y-119846952D01*
X176856095Y-119894571D01*
X176760857Y-119942190D01*
X176379904Y-119942190D01*
X177284666Y-119418380D02*
X177951333Y-119418380D01*
X177522761Y-120418380D01*
G04 #@! TO.C,U4*
X153778095Y-109762380D02*
X153778095Y-110571904D01*
X153825714Y-110667142D01*
X153873333Y-110714761D01*
X153968571Y-110762380D01*
X154159047Y-110762380D01*
X154254285Y-110714761D01*
X154301904Y-110667142D01*
X154349523Y-110571904D01*
X154349523Y-109762380D01*
X155254285Y-110095714D02*
X155254285Y-110762380D01*
X155016190Y-109714761D02*
X154778095Y-110429047D01*
X155397142Y-110429047D01*
G04 #@! TO.C,Q1*
X158053619Y-132667238D02*
X158006000Y-132762476D01*
X157910761Y-132857714D01*
X157767904Y-133000571D01*
X157720285Y-133095809D01*
X157720285Y-133191047D01*
X157958380Y-133143428D02*
X157910761Y-133238666D01*
X157815523Y-133333904D01*
X157625047Y-133381523D01*
X157291714Y-133381523D01*
X157101238Y-133333904D01*
X157006000Y-133238666D01*
X156958380Y-133143428D01*
X156958380Y-132952952D01*
X157006000Y-132857714D01*
X157101238Y-132762476D01*
X157291714Y-132714857D01*
X157625047Y-132714857D01*
X157815523Y-132762476D01*
X157910761Y-132857714D01*
X157958380Y-132952952D01*
X157958380Y-133143428D01*
X157958380Y-131762476D02*
X157958380Y-132333904D01*
X157958380Y-132048190D02*
X156958380Y-132048190D01*
X157101238Y-132143428D01*
X157196476Y-132238666D01*
X157244095Y-132333904D01*
G04 #@! TO.C,K1*
X137081904Y-143667380D02*
X137081904Y-142667380D01*
X137653333Y-143667380D02*
X137224761Y-143095952D01*
X137653333Y-142667380D02*
X137081904Y-143238809D01*
X138605714Y-143667380D02*
X138034285Y-143667380D01*
X138320000Y-143667380D02*
X138320000Y-142667380D01*
X138224761Y-142810238D01*
X138129523Y-142905476D01*
X138034285Y-142953095D01*
G04 #@! TO.C,C5*
X176851333Y-112907142D02*
X176803714Y-112954761D01*
X176660857Y-113002380D01*
X176565619Y-113002380D01*
X176422761Y-112954761D01*
X176327523Y-112859523D01*
X176279904Y-112764285D01*
X176232285Y-112573809D01*
X176232285Y-112430952D01*
X176279904Y-112240476D01*
X176327523Y-112145238D01*
X176422761Y-112050000D01*
X176565619Y-112002380D01*
X176660857Y-112002380D01*
X176803714Y-112050000D01*
X176851333Y-112097619D01*
X177756095Y-112002380D02*
X177279904Y-112002380D01*
X177232285Y-112478571D01*
X177279904Y-112430952D01*
X177375142Y-112383333D01*
X177613238Y-112383333D01*
X177708476Y-112430952D01*
X177756095Y-112478571D01*
X177803714Y-112573809D01*
X177803714Y-112811904D01*
X177756095Y-112907142D01*
X177708476Y-112954761D01*
X177613238Y-113002380D01*
X177375142Y-113002380D01*
X177279904Y-112954761D01*
X177232285Y-112907142D01*
G04 #@! TO.C,PS1*
X127662381Y-123889284D02*
X126662381Y-123889284D01*
X126662381Y-123508332D01*
X126710001Y-123413094D01*
X126757620Y-123365475D01*
X126852858Y-123317856D01*
X126995715Y-123317856D01*
X127090953Y-123365475D01*
X127138572Y-123413094D01*
X127186191Y-123508332D01*
X127186191Y-123889284D01*
X127614762Y-122936903D02*
X127662381Y-122794046D01*
X127662381Y-122555951D01*
X127614762Y-122460713D01*
X127567143Y-122413094D01*
X127471905Y-122365475D01*
X127376667Y-122365475D01*
X127281429Y-122413094D01*
X127233810Y-122460713D01*
X127186191Y-122555951D01*
X127138572Y-122746427D01*
X127090953Y-122841665D01*
X127043334Y-122889284D01*
X126948096Y-122936903D01*
X126852858Y-122936903D01*
X126757620Y-122889284D01*
X126710001Y-122841665D01*
X126662381Y-122746427D01*
X126662381Y-122508332D01*
X126710001Y-122365475D01*
X127662381Y-121413094D02*
X127662381Y-121984522D01*
X127662381Y-121698808D02*
X126662381Y-121698808D01*
X126805239Y-121794046D01*
X126900477Y-121889284D01*
X126948096Y-121984522D01*
G04 #@! TO.C,R8*
X176951333Y-120152380D02*
X176618000Y-119676190D01*
X176379904Y-120152380D02*
X176379904Y-119152380D01*
X176760857Y-119152380D01*
X176856095Y-119200000D01*
X176903714Y-119247619D01*
X176951333Y-119342857D01*
X176951333Y-119485714D01*
X176903714Y-119580952D01*
X176856095Y-119628571D01*
X176760857Y-119676190D01*
X176379904Y-119676190D01*
X177522761Y-119580952D02*
X177427523Y-119533333D01*
X177379904Y-119485714D01*
X177332285Y-119390476D01*
X177332285Y-119342857D01*
X177379904Y-119247619D01*
X177427523Y-119200000D01*
X177522761Y-119152380D01*
X177713238Y-119152380D01*
X177808476Y-119200000D01*
X177856095Y-119247619D01*
X177903714Y-119342857D01*
X177903714Y-119390476D01*
X177856095Y-119485714D01*
X177808476Y-119533333D01*
X177713238Y-119580952D01*
X177522761Y-119580952D01*
X177427523Y-119628571D01*
X177379904Y-119676190D01*
X177332285Y-119771428D01*
X177332285Y-119961904D01*
X177379904Y-120057142D01*
X177427523Y-120104761D01*
X177522761Y-120152380D01*
X177713238Y-120152380D01*
X177808476Y-120104761D01*
X177856095Y-120057142D01*
X177903714Y-119961904D01*
X177903714Y-119771428D01*
X177856095Y-119676190D01*
X177808476Y-119628571D01*
X177713238Y-119580952D01*
G04 #@! TO.C,U1*
X161696095Y-129064380D02*
X161696095Y-129873904D01*
X161743714Y-129969142D01*
X161791333Y-130016761D01*
X161886571Y-130064380D01*
X162077047Y-130064380D01*
X162172285Y-130016761D01*
X162219904Y-129969142D01*
X162267523Y-129873904D01*
X162267523Y-129064380D01*
X163267523Y-130064380D02*
X162696095Y-130064380D01*
X162981809Y-130064380D02*
X162981809Y-129064380D01*
X162886571Y-129207238D01*
X162791333Y-129302476D01*
X162696095Y-129350095D01*
G04 #@! TO.C,D1*
X152892380Y-136866095D02*
X151892380Y-136866095D01*
X151892380Y-136628000D01*
X151940000Y-136485142D01*
X152035238Y-136389904D01*
X152130476Y-136342285D01*
X152320952Y-136294666D01*
X152463809Y-136294666D01*
X152654285Y-136342285D01*
X152749523Y-136389904D01*
X152844761Y-136485142D01*
X152892380Y-136628000D01*
X152892380Y-136866095D01*
X152892380Y-135342285D02*
X152892380Y-135913714D01*
X152892380Y-135628000D02*
X151892380Y-135628000D01*
X152035238Y-135723238D01*
X152130476Y-135818476D01*
X152178095Y-135913714D01*
G04 #@! TO.C,J4*
X178400666Y-105707380D02*
X178400666Y-106421666D01*
X178353047Y-106564523D01*
X178257809Y-106659761D01*
X178114952Y-106707380D01*
X178019714Y-106707380D01*
X179305428Y-106040714D02*
X179305428Y-106707380D01*
X179067333Y-105659761D02*
X178829238Y-106374047D01*
X179448285Y-106374047D01*
G04 #@! TO.C,J1*
X125388380Y-113323333D02*
X126102666Y-113323333D01*
X126245523Y-113370952D01*
X126340761Y-113466190D01*
X126388380Y-113609047D01*
X126388380Y-113704285D01*
X126388380Y-112323333D02*
X126388380Y-112894761D01*
X126388380Y-112609047D02*
X125388380Y-112609047D01*
X125531238Y-112704285D01*
X125626476Y-112799523D01*
X125674095Y-112894761D01*
G04 #@! TO.C,J2*
X125642380Y-124519333D02*
X126356666Y-124519333D01*
X126499523Y-124566952D01*
X126594761Y-124662190D01*
X126642380Y-124805047D01*
X126642380Y-124900285D01*
X125737619Y-124090761D02*
X125690000Y-124043142D01*
X125642380Y-123947904D01*
X125642380Y-123709809D01*
X125690000Y-123614571D01*
X125737619Y-123566952D01*
X125832857Y-123519333D01*
X125928095Y-123519333D01*
X126070952Y-123566952D01*
X126642380Y-124138380D01*
X126642380Y-123519333D01*
G04 #@! TO.C,J3*
X172894666Y-129710380D02*
X172894666Y-130424666D01*
X172847047Y-130567523D01*
X172751809Y-130662761D01*
X172608952Y-130710380D01*
X172513714Y-130710380D01*
X173275619Y-129710380D02*
X173894666Y-129710380D01*
X173561333Y-130091333D01*
X173704190Y-130091333D01*
X173799428Y-130138952D01*
X173847047Y-130186571D01*
X173894666Y-130281809D01*
X173894666Y-130519904D01*
X173847047Y-130615142D01*
X173799428Y-130662761D01*
X173704190Y-130710380D01*
X173418476Y-130710380D01*
X173323238Y-130662761D01*
X173275619Y-130615142D01*
G04 #@! TO.C,R9*
X151660380Y-120228666D02*
X151184190Y-120562000D01*
X151660380Y-120800095D02*
X150660380Y-120800095D01*
X150660380Y-120419142D01*
X150708000Y-120323904D01*
X150755619Y-120276285D01*
X150850857Y-120228666D01*
X150993714Y-120228666D01*
X151088952Y-120276285D01*
X151136571Y-120323904D01*
X151184190Y-120419142D01*
X151184190Y-120800095D01*
X151660380Y-119752476D02*
X151660380Y-119562000D01*
X151612761Y-119466761D01*
X151565142Y-119419142D01*
X151422285Y-119323904D01*
X151231809Y-119276285D01*
X150850857Y-119276285D01*
X150755619Y-119323904D01*
X150708000Y-119371523D01*
X150660380Y-119466761D01*
X150660380Y-119657238D01*
X150708000Y-119752476D01*
X150755619Y-119800095D01*
X150850857Y-119847714D01*
X151088952Y-119847714D01*
X151184190Y-119800095D01*
X151231809Y-119752476D01*
X151279428Y-119657238D01*
X151279428Y-119466761D01*
X151231809Y-119371523D01*
X151184190Y-119323904D01*
X151088952Y-119276285D01*
G04 #@! TO.C,R10*
X153692380Y-122228857D02*
X153216190Y-122562190D01*
X153692380Y-122800285D02*
X152692380Y-122800285D01*
X152692380Y-122419333D01*
X152740000Y-122324095D01*
X152787619Y-122276476D01*
X152882857Y-122228857D01*
X153025714Y-122228857D01*
X153120952Y-122276476D01*
X153168571Y-122324095D01*
X153216190Y-122419333D01*
X153216190Y-122800285D01*
X153692380Y-121276476D02*
X153692380Y-121847904D01*
X153692380Y-121562190D02*
X152692380Y-121562190D01*
X152835238Y-121657428D01*
X152930476Y-121752666D01*
X152978095Y-121847904D01*
X152692380Y-120657428D02*
X152692380Y-120562190D01*
X152740000Y-120466952D01*
X152787619Y-120419333D01*
X152882857Y-120371714D01*
X153073333Y-120324095D01*
X153311428Y-120324095D01*
X153501904Y-120371714D01*
X153597142Y-120419333D01*
X153644761Y-120466952D01*
X153692380Y-120562190D01*
X153692380Y-120657428D01*
X153644761Y-120752666D01*
X153597142Y-120800285D01*
X153501904Y-120847904D01*
X153311428Y-120895523D01*
X153073333Y-120895523D01*
X152882857Y-120847904D01*
X152787619Y-120800285D01*
X152740000Y-120752666D01*
X152692380Y-120657428D01*
G04 #@! TD*
M02*
