G04 #@! TF.GenerationSoftware,KiCad,Pcbnew,(5.1.6)-1*
G04 #@! TF.CreationDate,2020-08-03T23:37:10+02:00*
G04 #@! TF.ProjectId,loftrelayRound,6c6f6674-7265-46c6-9179-526f756e642e,rev?*
G04 #@! TF.SameCoordinates,Original*
G04 #@! TF.FileFunction,Copper,L1,Top*
G04 #@! TF.FilePolarity,Positive*
%FSLAX46Y46*%
G04 Gerber Fmt 4.6, Leading zero omitted, Abs format (unit mm)*
G04 Created by KiCad (PCBNEW (5.1.6)-1) date 2020-08-03 23:37:10*
%MOMM*%
%LPD*%
G01*
G04 APERTURE LIST*
G04 #@! TA.AperFunction,ComponentPad*
%ADD10O,2.020000X1.500000*%
G04 #@! TD*
G04 #@! TA.AperFunction,SMDPad,CuDef*
%ADD11R,1.500000X1.250000*%
G04 #@! TD*
G04 #@! TA.AperFunction,SMDPad,CuDef*
%ADD12R,1.250000X1.500000*%
G04 #@! TD*
G04 #@! TA.AperFunction,SMDPad,CuDef*
%ADD13R,1.300000X1.500000*%
G04 #@! TD*
G04 #@! TA.AperFunction,SMDPad,CuDef*
%ADD14R,1.500000X1.300000*%
G04 #@! TD*
G04 #@! TA.AperFunction,SMDPad,CuDef*
%ADD15R,2.500000X1.000000*%
G04 #@! TD*
G04 #@! TA.AperFunction,SMDPad,CuDef*
%ADD16R,1.000000X1.800000*%
G04 #@! TD*
G04 #@! TA.AperFunction,SMDPad,CuDef*
%ADD17R,0.800000X0.900000*%
G04 #@! TD*
G04 #@! TA.AperFunction,ComponentPad*
%ADD18C,1.520000*%
G04 #@! TD*
G04 #@! TA.AperFunction,ComponentPad*
%ADD19C,2.000000*%
G04 #@! TD*
G04 #@! TA.AperFunction,ComponentPad*
%ADD20C,2.300000*%
G04 #@! TD*
G04 #@! TA.AperFunction,ComponentPad*
%ADD21R,2.000000X2.300000*%
G04 #@! TD*
G04 #@! TA.AperFunction,SMDPad,CuDef*
%ADD22R,2.000000X3.800000*%
G04 #@! TD*
G04 #@! TA.AperFunction,SMDPad,CuDef*
%ADD23R,2.000000X1.500000*%
G04 #@! TD*
G04 #@! TA.AperFunction,SMDPad,CuDef*
%ADD24R,2.400000X0.740000*%
G04 #@! TD*
G04 #@! TA.AperFunction,ComponentPad*
%ADD25O,1.700000X1.700000*%
G04 #@! TD*
G04 #@! TA.AperFunction,ComponentPad*
%ADD26R,1.700000X1.700000*%
G04 #@! TD*
G04 #@! TA.AperFunction,ViaPad*
%ADD27C,0.800000*%
G04 #@! TD*
G04 #@! TA.AperFunction,Conductor*
%ADD28C,0.254000*%
G04 #@! TD*
G04 #@! TA.AperFunction,Conductor*
%ADD29C,0.508000*%
G04 #@! TD*
G04 APERTURE END LIST*
D10*
X123000000Y-128000000D03*
G04 #@! TA.AperFunction,ComponentPad*
G36*
G01*
X122240000Y-124250000D02*
X123760000Y-124250000D01*
G75*
G02*
X124010000Y-124500000I0J-250000D01*
G01*
X124010000Y-125500000D01*
G75*
G02*
X123760000Y-125750000I-250000J0D01*
G01*
X122240000Y-125750000D01*
G75*
G02*
X121990000Y-125500000I0J250000D01*
G01*
X121990000Y-124500000D01*
G75*
G02*
X122240000Y-124250000I250000J0D01*
G01*
G37*
G04 #@! TD.AperFunction*
X123000000Y-114000000D03*
X123000000Y-111000000D03*
G04 #@! TA.AperFunction,ComponentPad*
G36*
G01*
X122240000Y-107250000D02*
X123760000Y-107250000D01*
G75*
G02*
X124010000Y-107500000I0J-250000D01*
G01*
X124010000Y-108500000D01*
G75*
G02*
X123760000Y-108750000I-250000J0D01*
G01*
X122240000Y-108750000D01*
G75*
G02*
X121990000Y-108500000I0J250000D01*
G01*
X121990000Y-107500000D01*
G75*
G02*
X122240000Y-107250000I250000J0D01*
G01*
G37*
G04 #@! TD.AperFunction*
D11*
X154218000Y-138938000D03*
X156718000Y-138938000D03*
D12*
X154940000Y-126238000D03*
X154940000Y-128738000D03*
X168910000Y-132802000D03*
X168910000Y-130302000D03*
D13*
X154686000Y-113284000D03*
X154686000Y-115984000D03*
X154686000Y-108458000D03*
X154686000Y-111158000D03*
D14*
X175768000Y-119800000D03*
X178468000Y-119800000D03*
D13*
X175514000Y-123952000D03*
X175514000Y-126652000D03*
D14*
X175768000Y-121666000D03*
X178468000Y-121666000D03*
D15*
X157500000Y-112070000D03*
X157500000Y-114070000D03*
X157500000Y-116070000D03*
X157500000Y-118070000D03*
X157500000Y-120070000D03*
X157500000Y-122070000D03*
X157500000Y-124070000D03*
X157500000Y-126070000D03*
D16*
X160100000Y-127570000D03*
X162100000Y-127570000D03*
X164100000Y-127570000D03*
X166100000Y-127570000D03*
X168100000Y-127570000D03*
X170100000Y-127570000D03*
D15*
X172700000Y-126070000D03*
X172700000Y-124070000D03*
X172700000Y-122070000D03*
X172700000Y-120070000D03*
X172700000Y-118070000D03*
X172700000Y-116070000D03*
X172700000Y-114070000D03*
X172700000Y-112070000D03*
D17*
X155006000Y-133572000D03*
X154056000Y-131572000D03*
X155956000Y-131572000D03*
D18*
X147320000Y-140335000D03*
D19*
X129540000Y-132715000D03*
X137160000Y-132715000D03*
D18*
X147320000Y-132715000D03*
D11*
X178268000Y-114300000D03*
X175768000Y-114300000D03*
D20*
X132010001Y-93874999D03*
D21*
X132010001Y-121874999D03*
D20*
X147210001Y-121874999D03*
X139610001Y-93874999D03*
D22*
X165608000Y-134112000D03*
D23*
X159308000Y-134112000D03*
X159308000Y-136412000D03*
X159308000Y-131812000D03*
D17*
X153990000Y-137128000D03*
X155890000Y-137128000D03*
X154940000Y-135128000D03*
D24*
X180684000Y-110490000D03*
X176784000Y-110490000D03*
X180684000Y-109220000D03*
X176784000Y-109220000D03*
X180684000Y-107950000D03*
X176784000Y-107950000D03*
D25*
X171958000Y-137668000D03*
X174498000Y-137668000D03*
X171958000Y-135128000D03*
X174498000Y-135128000D03*
X171958000Y-132588000D03*
D26*
X174498000Y-132588000D03*
D13*
X152908000Y-118712000D03*
X152908000Y-121412000D03*
X154940000Y-122936000D03*
X154940000Y-120236000D03*
D27*
X161544000Y-132588000D03*
X175910453Y-128609793D03*
X182118000Y-112014000D03*
X178054000Y-106426000D03*
X152654000Y-128016000D03*
X152400000Y-137668000D03*
X167386000Y-137922000D03*
X178308000Y-123444000D03*
X179578000Y-106680000D03*
X152908000Y-113904000D03*
X160274000Y-118110000D03*
X170434000Y-116078000D03*
X156464000Y-130556000D03*
X169926000Y-124206000D03*
X160274000Y-123952000D03*
X160274000Y-122174000D03*
D28*
X154686000Y-111158000D02*
X154686000Y-113284000D01*
D29*
X155108000Y-126070000D02*
X154940000Y-126238000D01*
X157500000Y-126070000D02*
X155108000Y-126070000D01*
X159308000Y-134112000D02*
X165608000Y-134112000D01*
X168518000Y-130302000D02*
X168910000Y-130302000D01*
X165608000Y-133212000D02*
X168518000Y-130302000D01*
X165608000Y-134112000D02*
X165608000Y-133212000D01*
X157800000Y-134112000D02*
X157226000Y-133538000D01*
X159308000Y-134112000D02*
X157800000Y-134112000D01*
X157500000Y-133264000D02*
X157500000Y-126070000D01*
X157226000Y-133538000D02*
X157500000Y-133264000D01*
X174498000Y-131230000D02*
X174498000Y-132588000D01*
X173570000Y-130302000D02*
X174498000Y-131230000D01*
X168910000Y-130302000D02*
X173570000Y-130302000D01*
X153416000Y-118712000D02*
X154940000Y-120236000D01*
X152908000Y-118712000D02*
X153416000Y-118712000D01*
X153528000Y-113284000D02*
X154686000Y-113284000D01*
X152908000Y-113904000D02*
X153528000Y-113284000D01*
X152908000Y-118712000D02*
X152908000Y-113904000D01*
X152908000Y-118812000D02*
X152908000Y-118712000D01*
X151750000Y-119970000D02*
X152908000Y-118812000D01*
X151750000Y-124181000D02*
X151750000Y-119970000D01*
X153807000Y-126238000D02*
X151750000Y-124181000D01*
X154940000Y-126238000D02*
X153807000Y-126238000D01*
X178308000Y-121826000D02*
X178468000Y-121666000D01*
X178308000Y-123444000D02*
X178308000Y-121826000D01*
X180684000Y-107950000D02*
X180684000Y-107786000D01*
X180684000Y-107786000D02*
X179578000Y-106680000D01*
X178468000Y-121666000D02*
X178468000Y-119800000D01*
X157540000Y-118110000D02*
X157500000Y-118070000D01*
X160274000Y-118110000D02*
X157540000Y-118110000D01*
D28*
X175768000Y-114300000D02*
X175220000Y-114300000D01*
X175760000Y-116070000D02*
X175768000Y-116078000D01*
X172700000Y-116070000D02*
X175760000Y-116070000D01*
X175768000Y-114300000D02*
X175768000Y-116078000D01*
D29*
X172700000Y-116070000D02*
X170442000Y-116070000D01*
X170442000Y-116070000D02*
X170434000Y-116078000D01*
D28*
X156774000Y-112070000D02*
X156210000Y-111506000D01*
X157500000Y-112070000D02*
X156774000Y-112070000D01*
X154686000Y-108558000D02*
X156210000Y-110082000D01*
X154686000Y-108458000D02*
X154686000Y-108558000D01*
X156210000Y-110082000D02*
X156210000Y-112268000D01*
X157302000Y-112268000D02*
X157500000Y-112070000D01*
X156210000Y-112268000D02*
X157302000Y-112268000D01*
X172818000Y-123952000D02*
X172700000Y-124070000D01*
X175514000Y-123952000D02*
X172818000Y-123952000D01*
D29*
X155956000Y-131572000D02*
X155956000Y-131064000D01*
X155956000Y-131064000D02*
X156464000Y-130556000D01*
X172564000Y-124206000D02*
X172700000Y-124070000D01*
X169926000Y-124206000D02*
X172564000Y-124206000D01*
D28*
X153990000Y-137128000D02*
X156178000Y-137128000D01*
X156178000Y-137128000D02*
X155890000Y-137128000D01*
X155890000Y-138110000D02*
X156718000Y-138938000D01*
X155890000Y-137128000D02*
X155890000Y-138110000D01*
X158592000Y-137128000D02*
X159308000Y-136412000D01*
X155890000Y-137128000D02*
X158592000Y-137128000D01*
D29*
X146105999Y-140917721D02*
X146920278Y-141732000D01*
X147320000Y-132715000D02*
X146105999Y-133929001D01*
X146105999Y-133929001D02*
X146105999Y-140917721D01*
X156593000Y-138938000D02*
X156718000Y-138938000D01*
X153799000Y-141732000D02*
X156593000Y-138938000D01*
X146920278Y-141732000D02*
X153799000Y-141732000D01*
X141236346Y-93874999D02*
X150876000Y-103514653D01*
X139610001Y-93874999D02*
X141236346Y-93874999D01*
X150876000Y-129159000D02*
X147320000Y-132715000D01*
X150876000Y-103514653D02*
X150876000Y-129159000D01*
D28*
X172700000Y-112070000D02*
X173172000Y-112070000D01*
X173172000Y-112070000D02*
X173736000Y-111506000D01*
X173736000Y-111506000D02*
X173990000Y-111506000D01*
X173990000Y-111506000D02*
X174752000Y-110744000D01*
X174752000Y-110744000D02*
X174752000Y-109728000D01*
X175260000Y-109220000D02*
X176784000Y-109220000D01*
X174752000Y-109728000D02*
X175260000Y-109220000D01*
X175330000Y-107950000D02*
X174244000Y-109036000D01*
X176784000Y-107950000D02*
X175330000Y-107950000D01*
X174244000Y-109036000D02*
X174244000Y-110490000D01*
X174244000Y-110490000D02*
X173736000Y-110998000D01*
X173736000Y-110998000D02*
X171196000Y-110998000D01*
X166124000Y-116070000D02*
X157500000Y-116070000D01*
X171196000Y-110998000D02*
X166124000Y-116070000D01*
X157414000Y-115984000D02*
X157500000Y-116070000D01*
X154686000Y-115984000D02*
X157414000Y-115984000D01*
X155006000Y-135062000D02*
X154940000Y-135128000D01*
X155006000Y-133572000D02*
X155006000Y-135062000D01*
D29*
X147320000Y-140335000D02*
X147320000Y-137668000D01*
X149860000Y-135128000D02*
X154940000Y-135128000D01*
X147320000Y-137668000D02*
X149860000Y-135128000D01*
D28*
X172882000Y-119888000D02*
X172700000Y-120070000D01*
X175868000Y-119888000D02*
X175768000Y-119888000D01*
X179854000Y-110490000D02*
X176845001Y-113498999D01*
X180684000Y-110490000D02*
X179854000Y-110490000D01*
D29*
X175498000Y-120070000D02*
X175768000Y-119800000D01*
X172700000Y-120070000D02*
X175498000Y-120070000D01*
D28*
X176845001Y-118722999D02*
X175768000Y-119800000D01*
X176845001Y-113498999D02*
X176845001Y-118722999D01*
X175954000Y-110490000D02*
X176784000Y-110490000D01*
X174752000Y-111692000D02*
X175954000Y-110490000D01*
X174752000Y-112768000D02*
X174752000Y-111692000D01*
X173450000Y-114070000D02*
X174752000Y-112768000D01*
X172700000Y-114070000D02*
X173450000Y-114070000D01*
X173104000Y-121666000D02*
X172700000Y-122070000D01*
X175768000Y-121666000D02*
X173104000Y-121666000D01*
D29*
X175123921Y-138972001D02*
X177546000Y-136549922D01*
X171958000Y-137668000D02*
X173262001Y-138972001D01*
X177453999Y-123853921D02*
X177453999Y-123251999D01*
X177453999Y-123251999D02*
X175868000Y-121666000D01*
X177546000Y-123945922D02*
X177453999Y-123853921D01*
X175868000Y-121666000D02*
X175768000Y-121666000D01*
X177546000Y-136549922D02*
X177546000Y-123945922D01*
X173262001Y-138972001D02*
X175123921Y-138972001D01*
X156074000Y-124070000D02*
X157500000Y-124070000D01*
X154940000Y-122936000D02*
X156074000Y-124070000D01*
X157618000Y-123952000D02*
X157500000Y-124070000D01*
X160274000Y-123952000D02*
X157618000Y-123952000D01*
X157161999Y-121731999D02*
X157500000Y-122070000D01*
X154385999Y-121731999D02*
X157161999Y-121731999D01*
X154066000Y-121412000D02*
X154385999Y-121731999D01*
X152908000Y-121412000D02*
X154066000Y-121412000D01*
X157604000Y-122174000D02*
X157500000Y-122070000D01*
X160274000Y-122174000D02*
X157604000Y-122174000D01*
D28*
G36*
X171254589Y-131272010D02*
G01*
X171011368Y-131434525D01*
X170804525Y-131641368D01*
X170642010Y-131884589D01*
X170530068Y-132154842D01*
X170473000Y-132441740D01*
X170473000Y-132734260D01*
X170530068Y-133021158D01*
X170642010Y-133291411D01*
X170804525Y-133534632D01*
X171011368Y-133741475D01*
X171185760Y-133858000D01*
X171011368Y-133974525D01*
X170804525Y-134181368D01*
X170642010Y-134424589D01*
X170530068Y-134694842D01*
X170473000Y-134981740D01*
X170473000Y-135274260D01*
X170530068Y-135561158D01*
X170642010Y-135831411D01*
X170804525Y-136074632D01*
X171011368Y-136281475D01*
X171185760Y-136398000D01*
X171011368Y-136514525D01*
X170804525Y-136721368D01*
X170642010Y-136964589D01*
X170530068Y-137234842D01*
X170473000Y-137521740D01*
X170473000Y-137814260D01*
X170530068Y-138101158D01*
X170642010Y-138371411D01*
X170804525Y-138614632D01*
X171011368Y-138821475D01*
X171254589Y-138983990D01*
X171524842Y-139095932D01*
X171811740Y-139153000D01*
X172104260Y-139153000D01*
X172172242Y-139139477D01*
X172602507Y-139569742D01*
X172630342Y-139603660D01*
X172765710Y-139714754D01*
X172920150Y-139797304D01*
X172975639Y-139814136D01*
X173087726Y-139848137D01*
X173104326Y-139849772D01*
X173218334Y-139861001D01*
X173218341Y-139861001D01*
X173262001Y-139865301D01*
X173305661Y-139861001D01*
X175080261Y-139861001D01*
X175123921Y-139865301D01*
X175167581Y-139861001D01*
X175167588Y-139861001D01*
X175227528Y-139855097D01*
X174918723Y-140240415D01*
X173348070Y-141949646D01*
X171665611Y-143548943D01*
X169879022Y-145031008D01*
X167996455Y-146389081D01*
X166026500Y-147616963D01*
X163978145Y-148709053D01*
X161860736Y-149660368D01*
X159683935Y-150466566D01*
X157457674Y-151123970D01*
X155192111Y-151629580D01*
X152897583Y-151981089D01*
X151254541Y-152120177D01*
X151210766Y-142621000D01*
X153755340Y-142621000D01*
X153799000Y-142625300D01*
X153842660Y-142621000D01*
X153842667Y-142621000D01*
X153973274Y-142608136D01*
X154140851Y-142557303D01*
X154295291Y-142474753D01*
X154430659Y-142363659D01*
X154458499Y-142329736D01*
X156587164Y-140201072D01*
X157468000Y-140201072D01*
X157592482Y-140188812D01*
X157712180Y-140152502D01*
X157822494Y-140093537D01*
X157919185Y-140014185D01*
X157998537Y-139917494D01*
X158057502Y-139807180D01*
X158093812Y-139687482D01*
X158106072Y-139563000D01*
X158106072Y-138313000D01*
X158093812Y-138188518D01*
X158057502Y-138068820D01*
X157998537Y-137958506D01*
X157942316Y-137890000D01*
X158554577Y-137890000D01*
X158592000Y-137893686D01*
X158629423Y-137890000D01*
X158629426Y-137890000D01*
X158741378Y-137878974D01*
X158885015Y-137835402D01*
X158951113Y-137800072D01*
X160308000Y-137800072D01*
X160432482Y-137787812D01*
X160552180Y-137751502D01*
X160662494Y-137692537D01*
X160759185Y-137613185D01*
X160838537Y-137516494D01*
X160897502Y-137406180D01*
X160933812Y-137286482D01*
X160946072Y-137162000D01*
X160946072Y-135662000D01*
X160933812Y-135537518D01*
X160897502Y-135417820D01*
X160838537Y-135307506D01*
X160801191Y-135262000D01*
X160838537Y-135216494D01*
X160897502Y-135106180D01*
X160929408Y-135001000D01*
X163969928Y-135001000D01*
X163969928Y-136012000D01*
X163982188Y-136136482D01*
X164018498Y-136256180D01*
X164077463Y-136366494D01*
X164156815Y-136463185D01*
X164253506Y-136542537D01*
X164363820Y-136601502D01*
X164483518Y-136637812D01*
X164608000Y-136650072D01*
X166608000Y-136650072D01*
X166732482Y-136637812D01*
X166852180Y-136601502D01*
X166962494Y-136542537D01*
X167059185Y-136463185D01*
X167138537Y-136366494D01*
X167197502Y-136256180D01*
X167233812Y-136136482D01*
X167246072Y-136012000D01*
X167246072Y-133552000D01*
X167646928Y-133552000D01*
X167659188Y-133676482D01*
X167695498Y-133796180D01*
X167754463Y-133906494D01*
X167833815Y-134003185D01*
X167930506Y-134082537D01*
X168040820Y-134141502D01*
X168160518Y-134177812D01*
X168285000Y-134190072D01*
X168624250Y-134187000D01*
X168783000Y-134028250D01*
X168783000Y-132929000D01*
X169037000Y-132929000D01*
X169037000Y-134028250D01*
X169195750Y-134187000D01*
X169535000Y-134190072D01*
X169659482Y-134177812D01*
X169779180Y-134141502D01*
X169889494Y-134082537D01*
X169986185Y-134003185D01*
X170065537Y-133906494D01*
X170124502Y-133796180D01*
X170160812Y-133676482D01*
X170173072Y-133552000D01*
X170170000Y-133087750D01*
X170011250Y-132929000D01*
X169037000Y-132929000D01*
X168783000Y-132929000D01*
X167808750Y-132929000D01*
X167650000Y-133087750D01*
X167646928Y-133552000D01*
X167246072Y-133552000D01*
X167246072Y-132831163D01*
X167649415Y-132427821D01*
X167650000Y-132516250D01*
X167808750Y-132675000D01*
X168783000Y-132675000D01*
X168783000Y-132655000D01*
X169037000Y-132655000D01*
X169037000Y-132675000D01*
X170011250Y-132675000D01*
X170170000Y-132516250D01*
X170173072Y-132052000D01*
X170160812Y-131927518D01*
X170124502Y-131807820D01*
X170065537Y-131697506D01*
X169986185Y-131600815D01*
X169926704Y-131552000D01*
X169986185Y-131503185D01*
X170065537Y-131406494D01*
X170124502Y-131296180D01*
X170156408Y-131191000D01*
X171450165Y-131191000D01*
X171254589Y-131272010D01*
G37*
X171254589Y-131272010D02*
X171011368Y-131434525D01*
X170804525Y-131641368D01*
X170642010Y-131884589D01*
X170530068Y-132154842D01*
X170473000Y-132441740D01*
X170473000Y-132734260D01*
X170530068Y-133021158D01*
X170642010Y-133291411D01*
X170804525Y-133534632D01*
X171011368Y-133741475D01*
X171185760Y-133858000D01*
X171011368Y-133974525D01*
X170804525Y-134181368D01*
X170642010Y-134424589D01*
X170530068Y-134694842D01*
X170473000Y-134981740D01*
X170473000Y-135274260D01*
X170530068Y-135561158D01*
X170642010Y-135831411D01*
X170804525Y-136074632D01*
X171011368Y-136281475D01*
X171185760Y-136398000D01*
X171011368Y-136514525D01*
X170804525Y-136721368D01*
X170642010Y-136964589D01*
X170530068Y-137234842D01*
X170473000Y-137521740D01*
X170473000Y-137814260D01*
X170530068Y-138101158D01*
X170642010Y-138371411D01*
X170804525Y-138614632D01*
X171011368Y-138821475D01*
X171254589Y-138983990D01*
X171524842Y-139095932D01*
X171811740Y-139153000D01*
X172104260Y-139153000D01*
X172172242Y-139139477D01*
X172602507Y-139569742D01*
X172630342Y-139603660D01*
X172765710Y-139714754D01*
X172920150Y-139797304D01*
X172975639Y-139814136D01*
X173087726Y-139848137D01*
X173104326Y-139849772D01*
X173218334Y-139861001D01*
X173218341Y-139861001D01*
X173262001Y-139865301D01*
X173305661Y-139861001D01*
X175080261Y-139861001D01*
X175123921Y-139865301D01*
X175167581Y-139861001D01*
X175167588Y-139861001D01*
X175227528Y-139855097D01*
X174918723Y-140240415D01*
X173348070Y-141949646D01*
X171665611Y-143548943D01*
X169879022Y-145031008D01*
X167996455Y-146389081D01*
X166026500Y-147616963D01*
X163978145Y-148709053D01*
X161860736Y-149660368D01*
X159683935Y-150466566D01*
X157457674Y-151123970D01*
X155192111Y-151629580D01*
X152897583Y-151981089D01*
X151254541Y-152120177D01*
X151210766Y-142621000D01*
X153755340Y-142621000D01*
X153799000Y-142625300D01*
X153842660Y-142621000D01*
X153842667Y-142621000D01*
X153973274Y-142608136D01*
X154140851Y-142557303D01*
X154295291Y-142474753D01*
X154430659Y-142363659D01*
X154458499Y-142329736D01*
X156587164Y-140201072D01*
X157468000Y-140201072D01*
X157592482Y-140188812D01*
X157712180Y-140152502D01*
X157822494Y-140093537D01*
X157919185Y-140014185D01*
X157998537Y-139917494D01*
X158057502Y-139807180D01*
X158093812Y-139687482D01*
X158106072Y-139563000D01*
X158106072Y-138313000D01*
X158093812Y-138188518D01*
X158057502Y-138068820D01*
X157998537Y-137958506D01*
X157942316Y-137890000D01*
X158554577Y-137890000D01*
X158592000Y-137893686D01*
X158629423Y-137890000D01*
X158629426Y-137890000D01*
X158741378Y-137878974D01*
X158885015Y-137835402D01*
X158951113Y-137800072D01*
X160308000Y-137800072D01*
X160432482Y-137787812D01*
X160552180Y-137751502D01*
X160662494Y-137692537D01*
X160759185Y-137613185D01*
X160838537Y-137516494D01*
X160897502Y-137406180D01*
X160933812Y-137286482D01*
X160946072Y-137162000D01*
X160946072Y-135662000D01*
X160933812Y-135537518D01*
X160897502Y-135417820D01*
X160838537Y-135307506D01*
X160801191Y-135262000D01*
X160838537Y-135216494D01*
X160897502Y-135106180D01*
X160929408Y-135001000D01*
X163969928Y-135001000D01*
X163969928Y-136012000D01*
X163982188Y-136136482D01*
X164018498Y-136256180D01*
X164077463Y-136366494D01*
X164156815Y-136463185D01*
X164253506Y-136542537D01*
X164363820Y-136601502D01*
X164483518Y-136637812D01*
X164608000Y-136650072D01*
X166608000Y-136650072D01*
X166732482Y-136637812D01*
X166852180Y-136601502D01*
X166962494Y-136542537D01*
X167059185Y-136463185D01*
X167138537Y-136366494D01*
X167197502Y-136256180D01*
X167233812Y-136136482D01*
X167246072Y-136012000D01*
X167246072Y-133552000D01*
X167646928Y-133552000D01*
X167659188Y-133676482D01*
X167695498Y-133796180D01*
X167754463Y-133906494D01*
X167833815Y-134003185D01*
X167930506Y-134082537D01*
X168040820Y-134141502D01*
X168160518Y-134177812D01*
X168285000Y-134190072D01*
X168624250Y-134187000D01*
X168783000Y-134028250D01*
X168783000Y-132929000D01*
X169037000Y-132929000D01*
X169037000Y-134028250D01*
X169195750Y-134187000D01*
X169535000Y-134190072D01*
X169659482Y-134177812D01*
X169779180Y-134141502D01*
X169889494Y-134082537D01*
X169986185Y-134003185D01*
X170065537Y-133906494D01*
X170124502Y-133796180D01*
X170160812Y-133676482D01*
X170173072Y-133552000D01*
X170170000Y-133087750D01*
X170011250Y-132929000D01*
X169037000Y-132929000D01*
X168783000Y-132929000D01*
X167808750Y-132929000D01*
X167650000Y-133087750D01*
X167646928Y-133552000D01*
X167246072Y-133552000D01*
X167246072Y-132831163D01*
X167649415Y-132427821D01*
X167650000Y-132516250D01*
X167808750Y-132675000D01*
X168783000Y-132675000D01*
X168783000Y-132655000D01*
X169037000Y-132655000D01*
X169037000Y-132675000D01*
X170011250Y-132675000D01*
X170170000Y-132516250D01*
X170173072Y-132052000D01*
X170160812Y-131927518D01*
X170124502Y-131807820D01*
X170065537Y-131697506D01*
X169986185Y-131600815D01*
X169926704Y-131552000D01*
X169986185Y-131503185D01*
X170065537Y-131406494D01*
X170124502Y-131296180D01*
X170156408Y-131191000D01*
X171450165Y-131191000D01*
X171254589Y-131272010D01*
G36*
X154088815Y-136029185D02*
G01*
X154101905Y-136039928D01*
X153590000Y-136039928D01*
X153465518Y-136052188D01*
X153345820Y-136088498D01*
X153235506Y-136147463D01*
X153138815Y-136226815D01*
X153059463Y-136323506D01*
X153000498Y-136433820D01*
X152964188Y-136553518D01*
X152951928Y-136678000D01*
X152951928Y-137578000D01*
X152964188Y-137702482D01*
X153000498Y-137822180D01*
X153020199Y-137859038D01*
X153016815Y-137861815D01*
X152937463Y-137958506D01*
X152878498Y-138068820D01*
X152842188Y-138188518D01*
X152829928Y-138313000D01*
X152833000Y-138652250D01*
X152991750Y-138811000D01*
X154091000Y-138811000D01*
X154091000Y-138791000D01*
X154345000Y-138791000D01*
X154345000Y-138811000D01*
X154365000Y-138811000D01*
X154365000Y-139065000D01*
X154345000Y-139065000D01*
X154345000Y-139085000D01*
X154091000Y-139085000D01*
X154091000Y-139065000D01*
X152991750Y-139065000D01*
X152833000Y-139223750D01*
X152829928Y-139563000D01*
X152842188Y-139687482D01*
X152878498Y-139807180D01*
X152937463Y-139917494D01*
X153016815Y-140014185D01*
X153113506Y-140093537D01*
X153223820Y-140152502D01*
X153343518Y-140188812D01*
X153468000Y-140201072D01*
X153932250Y-140198000D01*
X154090998Y-140039252D01*
X154090998Y-140182767D01*
X153430765Y-140843000D01*
X151202573Y-140843000D01*
X151180333Y-136017000D01*
X154078815Y-136017000D01*
X154088815Y-136029185D01*
G37*
X154088815Y-136029185D02*
X154101905Y-136039928D01*
X153590000Y-136039928D01*
X153465518Y-136052188D01*
X153345820Y-136088498D01*
X153235506Y-136147463D01*
X153138815Y-136226815D01*
X153059463Y-136323506D01*
X153000498Y-136433820D01*
X152964188Y-136553518D01*
X152951928Y-136678000D01*
X152951928Y-137578000D01*
X152964188Y-137702482D01*
X153000498Y-137822180D01*
X153020199Y-137859038D01*
X153016815Y-137861815D01*
X152937463Y-137958506D01*
X152878498Y-138068820D01*
X152842188Y-138188518D01*
X152829928Y-138313000D01*
X152833000Y-138652250D01*
X152991750Y-138811000D01*
X154091000Y-138811000D01*
X154091000Y-138791000D01*
X154345000Y-138791000D01*
X154345000Y-138811000D01*
X154365000Y-138811000D01*
X154365000Y-139065000D01*
X154345000Y-139065000D01*
X154345000Y-139085000D01*
X154091000Y-139085000D01*
X154091000Y-139065000D01*
X152991750Y-139065000D01*
X152833000Y-139223750D01*
X152829928Y-139563000D01*
X152842188Y-139687482D01*
X152878498Y-139807180D01*
X152937463Y-139917494D01*
X153016815Y-140014185D01*
X153113506Y-140093537D01*
X153223820Y-140152502D01*
X153343518Y-140188812D01*
X153468000Y-140201072D01*
X153932250Y-140198000D01*
X154090998Y-140039252D01*
X154090998Y-140182767D01*
X153430765Y-140843000D01*
X151202573Y-140843000D01*
X151180333Y-136017000D01*
X154078815Y-136017000D01*
X154088815Y-136029185D01*
G36*
X170811928Y-112570000D02*
G01*
X170824188Y-112694482D01*
X170860498Y-112814180D01*
X170919463Y-112924494D01*
X170998815Y-113021185D01*
X171058296Y-113070000D01*
X170998815Y-113118815D01*
X170919463Y-113215506D01*
X170860498Y-113325820D01*
X170824188Y-113445518D01*
X170811928Y-113570000D01*
X170811928Y-114570000D01*
X170824188Y-114694482D01*
X170860498Y-114814180D01*
X170919463Y-114924494D01*
X170998815Y-115021185D01*
X171058296Y-115070000D01*
X170998815Y-115118815D01*
X170950159Y-115178103D01*
X170924256Y-115160795D01*
X170735898Y-115082774D01*
X170535939Y-115043000D01*
X170332061Y-115043000D01*
X170132102Y-115082774D01*
X169943744Y-115160795D01*
X169774226Y-115274063D01*
X169630063Y-115418226D01*
X169516795Y-115587744D01*
X169438774Y-115776102D01*
X169399000Y-115976061D01*
X169399000Y-116179939D01*
X169438774Y-116379898D01*
X169516795Y-116568256D01*
X169630063Y-116737774D01*
X169774226Y-116881937D01*
X169943744Y-116995205D01*
X170132102Y-117073226D01*
X170332061Y-117113000D01*
X170535939Y-117113000D01*
X170735898Y-117073226D01*
X170924256Y-116995205D01*
X170958639Y-116972231D01*
X170998815Y-117021185D01*
X171058296Y-117070000D01*
X170998815Y-117118815D01*
X170919463Y-117215506D01*
X170860498Y-117325820D01*
X170824188Y-117445518D01*
X170811928Y-117570000D01*
X170811928Y-118570000D01*
X170824188Y-118694482D01*
X170860498Y-118814180D01*
X170919463Y-118924494D01*
X170998815Y-119021185D01*
X171058296Y-119070000D01*
X170998815Y-119118815D01*
X170919463Y-119215506D01*
X170860498Y-119325820D01*
X170824188Y-119445518D01*
X170811928Y-119570000D01*
X170811928Y-120570000D01*
X170824188Y-120694482D01*
X170860498Y-120814180D01*
X170919463Y-120924494D01*
X170998815Y-121021185D01*
X171058296Y-121070000D01*
X170998815Y-121118815D01*
X170919463Y-121215506D01*
X170860498Y-121325820D01*
X170824188Y-121445518D01*
X170811928Y-121570000D01*
X170811928Y-122570000D01*
X170824188Y-122694482D01*
X170860498Y-122814180D01*
X170919463Y-122924494D01*
X170998815Y-123021185D01*
X171058296Y-123070000D01*
X170998815Y-123118815D01*
X170919463Y-123215506D01*
X170865212Y-123317000D01*
X170458468Y-123317000D01*
X170416256Y-123288795D01*
X170227898Y-123210774D01*
X170027939Y-123171000D01*
X169824061Y-123171000D01*
X169624102Y-123210774D01*
X169435744Y-123288795D01*
X169266226Y-123402063D01*
X169122063Y-123546226D01*
X169008795Y-123715744D01*
X168930774Y-123904102D01*
X168891000Y-124104061D01*
X168891000Y-124307939D01*
X168930774Y-124507898D01*
X169008795Y-124696256D01*
X169122063Y-124865774D01*
X169266226Y-125009937D01*
X169435744Y-125123205D01*
X169624102Y-125201226D01*
X169824061Y-125241000D01*
X170027939Y-125241000D01*
X170227898Y-125201226D01*
X170416256Y-125123205D01*
X170458468Y-125095000D01*
X171027834Y-125095000D01*
X170998815Y-125118815D01*
X170919463Y-125215506D01*
X170860498Y-125325820D01*
X170824188Y-125445518D01*
X170811928Y-125570000D01*
X170815000Y-125784250D01*
X170973750Y-125943000D01*
X172573000Y-125943000D01*
X172573000Y-125923000D01*
X172827000Y-125923000D01*
X172827000Y-125943000D01*
X172847000Y-125943000D01*
X172847000Y-126197000D01*
X172827000Y-126197000D01*
X172827000Y-127046250D01*
X172985750Y-127205000D01*
X173950000Y-127208072D01*
X174074482Y-127195812D01*
X174194180Y-127159502D01*
X174227651Y-127141611D01*
X174225928Y-127402000D01*
X174238188Y-127526482D01*
X174274498Y-127646180D01*
X174333463Y-127756494D01*
X174412815Y-127853185D01*
X174509506Y-127932537D01*
X174619820Y-127991502D01*
X174739518Y-128027812D01*
X174864000Y-128040072D01*
X175228250Y-128037000D01*
X175387000Y-127878250D01*
X175387000Y-126779000D01*
X175367000Y-126779000D01*
X175367000Y-126525000D01*
X175387000Y-126525000D01*
X175387000Y-126505000D01*
X175641000Y-126505000D01*
X175641000Y-126525000D01*
X175661000Y-126525000D01*
X175661000Y-126779000D01*
X175641000Y-126779000D01*
X175641000Y-127878250D01*
X175799750Y-128037000D01*
X176164000Y-128040072D01*
X176288482Y-128027812D01*
X176408180Y-127991502D01*
X176518494Y-127932537D01*
X176615185Y-127853185D01*
X176657001Y-127802232D01*
X176657000Y-136181686D01*
X175831595Y-137007091D01*
X175813990Y-136964589D01*
X175651475Y-136721368D01*
X175444632Y-136514525D01*
X175262466Y-136392805D01*
X175379355Y-136323178D01*
X175595588Y-136128269D01*
X175769641Y-135894920D01*
X175894825Y-135632099D01*
X175939476Y-135484890D01*
X175818155Y-135255000D01*
X174625000Y-135255000D01*
X174625000Y-135275000D01*
X174371000Y-135275000D01*
X174371000Y-135255000D01*
X174351000Y-135255000D01*
X174351000Y-135001000D01*
X174371000Y-135001000D01*
X174371000Y-134981000D01*
X174625000Y-134981000D01*
X174625000Y-135001000D01*
X175818155Y-135001000D01*
X175939476Y-134771110D01*
X175894825Y-134623901D01*
X175769641Y-134361080D01*
X175595588Y-134127731D01*
X175511534Y-134051966D01*
X175592180Y-134027502D01*
X175702494Y-133968537D01*
X175799185Y-133889185D01*
X175878537Y-133792494D01*
X175937502Y-133682180D01*
X175973812Y-133562482D01*
X175986072Y-133438000D01*
X175986072Y-131738000D01*
X175973812Y-131613518D01*
X175937502Y-131493820D01*
X175878537Y-131383506D01*
X175799185Y-131286815D01*
X175702494Y-131207463D01*
X175592180Y-131148498D01*
X175472482Y-131112188D01*
X175378788Y-131102960D01*
X175374136Y-131055726D01*
X175374136Y-131055724D01*
X175337108Y-130933659D01*
X175323303Y-130888149D01*
X175240753Y-130733709D01*
X175129659Y-130598341D01*
X175095743Y-130570507D01*
X174229499Y-129704264D01*
X174201659Y-129670341D01*
X174066291Y-129559247D01*
X173911851Y-129476697D01*
X173744274Y-129425864D01*
X173613667Y-129413000D01*
X173613660Y-129413000D01*
X173570000Y-129408700D01*
X173526340Y-129413000D01*
X170156408Y-129413000D01*
X170124502Y-129307820D01*
X170065537Y-129197506D01*
X169992141Y-129108072D01*
X170600000Y-129108072D01*
X170724482Y-129095812D01*
X170844180Y-129059502D01*
X170954494Y-129000537D01*
X171051185Y-128921185D01*
X171130537Y-128824494D01*
X171189502Y-128714180D01*
X171225812Y-128594482D01*
X171238072Y-128470000D01*
X171238072Y-127169286D01*
X171325518Y-127195812D01*
X171450000Y-127208072D01*
X172414250Y-127205000D01*
X172573000Y-127046250D01*
X172573000Y-126197000D01*
X171024603Y-126197000D01*
X170954494Y-126139463D01*
X170844180Y-126080498D01*
X170724482Y-126044188D01*
X170600000Y-126031928D01*
X169600000Y-126031928D01*
X169475518Y-126044188D01*
X169355820Y-126080498D01*
X169245506Y-126139463D01*
X169148815Y-126218815D01*
X169100000Y-126278296D01*
X169051185Y-126218815D01*
X168954494Y-126139463D01*
X168844180Y-126080498D01*
X168724482Y-126044188D01*
X168600000Y-126031928D01*
X167600000Y-126031928D01*
X167475518Y-126044188D01*
X167355820Y-126080498D01*
X167245506Y-126139463D01*
X167148815Y-126218815D01*
X167100000Y-126278296D01*
X167051185Y-126218815D01*
X166954494Y-126139463D01*
X166844180Y-126080498D01*
X166724482Y-126044188D01*
X166600000Y-126031928D01*
X165600000Y-126031928D01*
X165475518Y-126044188D01*
X165355820Y-126080498D01*
X165245506Y-126139463D01*
X165148815Y-126218815D01*
X165100000Y-126278296D01*
X165051185Y-126218815D01*
X164954494Y-126139463D01*
X164844180Y-126080498D01*
X164724482Y-126044188D01*
X164600000Y-126031928D01*
X163600000Y-126031928D01*
X163475518Y-126044188D01*
X163355820Y-126080498D01*
X163245506Y-126139463D01*
X163148815Y-126218815D01*
X163100000Y-126278296D01*
X163051185Y-126218815D01*
X162954494Y-126139463D01*
X162844180Y-126080498D01*
X162724482Y-126044188D01*
X162600000Y-126031928D01*
X161600000Y-126031928D01*
X161475518Y-126044188D01*
X161355820Y-126080498D01*
X161245506Y-126139463D01*
X161148815Y-126218815D01*
X161100000Y-126278296D01*
X161051185Y-126218815D01*
X160954494Y-126139463D01*
X160844180Y-126080498D01*
X160724482Y-126044188D01*
X160600000Y-126031928D01*
X159600000Y-126031928D01*
X159475518Y-126044188D01*
X159388072Y-126070714D01*
X159388072Y-125570000D01*
X159375812Y-125445518D01*
X159339502Y-125325820D01*
X159280537Y-125215506D01*
X159201185Y-125118815D01*
X159141704Y-125070000D01*
X159201185Y-125021185D01*
X159280537Y-124924494D01*
X159325166Y-124841000D01*
X159741532Y-124841000D01*
X159783744Y-124869205D01*
X159972102Y-124947226D01*
X160172061Y-124987000D01*
X160375939Y-124987000D01*
X160575898Y-124947226D01*
X160764256Y-124869205D01*
X160933774Y-124755937D01*
X161077937Y-124611774D01*
X161191205Y-124442256D01*
X161269226Y-124253898D01*
X161309000Y-124053939D01*
X161309000Y-123850061D01*
X161269226Y-123650102D01*
X161191205Y-123461744D01*
X161077937Y-123292226D01*
X160933774Y-123148063D01*
X160806468Y-123063000D01*
X160933774Y-122977937D01*
X161077937Y-122833774D01*
X161191205Y-122664256D01*
X161269226Y-122475898D01*
X161309000Y-122275939D01*
X161309000Y-122072061D01*
X161269226Y-121872102D01*
X161191205Y-121683744D01*
X161077937Y-121514226D01*
X160933774Y-121370063D01*
X160764256Y-121256795D01*
X160575898Y-121178774D01*
X160375939Y-121139000D01*
X160172061Y-121139000D01*
X159972102Y-121178774D01*
X159783744Y-121256795D01*
X159741532Y-121285000D01*
X159317683Y-121285000D01*
X159280537Y-121215506D01*
X159201185Y-121118815D01*
X159141704Y-121070000D01*
X159201185Y-121021185D01*
X159280537Y-120924494D01*
X159339502Y-120814180D01*
X159375812Y-120694482D01*
X159388072Y-120570000D01*
X159388072Y-119570000D01*
X159375812Y-119445518D01*
X159339502Y-119325820D01*
X159280537Y-119215506D01*
X159201185Y-119118815D01*
X159141704Y-119070000D01*
X159201185Y-119021185D01*
X159219392Y-118999000D01*
X159741532Y-118999000D01*
X159783744Y-119027205D01*
X159972102Y-119105226D01*
X160172061Y-119145000D01*
X160375939Y-119145000D01*
X160575898Y-119105226D01*
X160764256Y-119027205D01*
X160933774Y-118913937D01*
X161077937Y-118769774D01*
X161191205Y-118600256D01*
X161269226Y-118411898D01*
X161309000Y-118211939D01*
X161309000Y-118008061D01*
X161269226Y-117808102D01*
X161191205Y-117619744D01*
X161077937Y-117450226D01*
X160933774Y-117306063D01*
X160764256Y-117192795D01*
X160575898Y-117114774D01*
X160375939Y-117075000D01*
X160172061Y-117075000D01*
X159972102Y-117114774D01*
X159783744Y-117192795D01*
X159741532Y-117221000D01*
X159283474Y-117221000D01*
X159280537Y-117215506D01*
X159201185Y-117118815D01*
X159141704Y-117070000D01*
X159201185Y-117021185D01*
X159280537Y-116924494D01*
X159329977Y-116832000D01*
X166086577Y-116832000D01*
X166124000Y-116835686D01*
X166161423Y-116832000D01*
X166161426Y-116832000D01*
X166273378Y-116820974D01*
X166417015Y-116777402D01*
X166549392Y-116706645D01*
X166665422Y-116611422D01*
X166689284Y-116582346D01*
X170811928Y-112459703D01*
X170811928Y-112570000D01*
G37*
X170811928Y-112570000D02*
X170824188Y-112694482D01*
X170860498Y-112814180D01*
X170919463Y-112924494D01*
X170998815Y-113021185D01*
X171058296Y-113070000D01*
X170998815Y-113118815D01*
X170919463Y-113215506D01*
X170860498Y-113325820D01*
X170824188Y-113445518D01*
X170811928Y-113570000D01*
X170811928Y-114570000D01*
X170824188Y-114694482D01*
X170860498Y-114814180D01*
X170919463Y-114924494D01*
X170998815Y-115021185D01*
X171058296Y-115070000D01*
X170998815Y-115118815D01*
X170950159Y-115178103D01*
X170924256Y-115160795D01*
X170735898Y-115082774D01*
X170535939Y-115043000D01*
X170332061Y-115043000D01*
X170132102Y-115082774D01*
X169943744Y-115160795D01*
X169774226Y-115274063D01*
X169630063Y-115418226D01*
X169516795Y-115587744D01*
X169438774Y-115776102D01*
X169399000Y-115976061D01*
X169399000Y-116179939D01*
X169438774Y-116379898D01*
X169516795Y-116568256D01*
X169630063Y-116737774D01*
X169774226Y-116881937D01*
X169943744Y-116995205D01*
X170132102Y-117073226D01*
X170332061Y-117113000D01*
X170535939Y-117113000D01*
X170735898Y-117073226D01*
X170924256Y-116995205D01*
X170958639Y-116972231D01*
X170998815Y-117021185D01*
X171058296Y-117070000D01*
X170998815Y-117118815D01*
X170919463Y-117215506D01*
X170860498Y-117325820D01*
X170824188Y-117445518D01*
X170811928Y-117570000D01*
X170811928Y-118570000D01*
X170824188Y-118694482D01*
X170860498Y-118814180D01*
X170919463Y-118924494D01*
X170998815Y-119021185D01*
X171058296Y-119070000D01*
X170998815Y-119118815D01*
X170919463Y-119215506D01*
X170860498Y-119325820D01*
X170824188Y-119445518D01*
X170811928Y-119570000D01*
X170811928Y-120570000D01*
X170824188Y-120694482D01*
X170860498Y-120814180D01*
X170919463Y-120924494D01*
X170998815Y-121021185D01*
X171058296Y-121070000D01*
X170998815Y-121118815D01*
X170919463Y-121215506D01*
X170860498Y-121325820D01*
X170824188Y-121445518D01*
X170811928Y-121570000D01*
X170811928Y-122570000D01*
X170824188Y-122694482D01*
X170860498Y-122814180D01*
X170919463Y-122924494D01*
X170998815Y-123021185D01*
X171058296Y-123070000D01*
X170998815Y-123118815D01*
X170919463Y-123215506D01*
X170865212Y-123317000D01*
X170458468Y-123317000D01*
X170416256Y-123288795D01*
X170227898Y-123210774D01*
X170027939Y-123171000D01*
X169824061Y-123171000D01*
X169624102Y-123210774D01*
X169435744Y-123288795D01*
X169266226Y-123402063D01*
X169122063Y-123546226D01*
X169008795Y-123715744D01*
X168930774Y-123904102D01*
X168891000Y-124104061D01*
X168891000Y-124307939D01*
X168930774Y-124507898D01*
X169008795Y-124696256D01*
X169122063Y-124865774D01*
X169266226Y-125009937D01*
X169435744Y-125123205D01*
X169624102Y-125201226D01*
X169824061Y-125241000D01*
X170027939Y-125241000D01*
X170227898Y-125201226D01*
X170416256Y-125123205D01*
X170458468Y-125095000D01*
X171027834Y-125095000D01*
X170998815Y-125118815D01*
X170919463Y-125215506D01*
X170860498Y-125325820D01*
X170824188Y-125445518D01*
X170811928Y-125570000D01*
X170815000Y-125784250D01*
X170973750Y-125943000D01*
X172573000Y-125943000D01*
X172573000Y-125923000D01*
X172827000Y-125923000D01*
X172827000Y-125943000D01*
X172847000Y-125943000D01*
X172847000Y-126197000D01*
X172827000Y-126197000D01*
X172827000Y-127046250D01*
X172985750Y-127205000D01*
X173950000Y-127208072D01*
X174074482Y-127195812D01*
X174194180Y-127159502D01*
X174227651Y-127141611D01*
X174225928Y-127402000D01*
X174238188Y-127526482D01*
X174274498Y-127646180D01*
X174333463Y-127756494D01*
X174412815Y-127853185D01*
X174509506Y-127932537D01*
X174619820Y-127991502D01*
X174739518Y-128027812D01*
X174864000Y-128040072D01*
X175228250Y-128037000D01*
X175387000Y-127878250D01*
X175387000Y-126779000D01*
X175367000Y-126779000D01*
X175367000Y-126525000D01*
X175387000Y-126525000D01*
X175387000Y-126505000D01*
X175641000Y-126505000D01*
X175641000Y-126525000D01*
X175661000Y-126525000D01*
X175661000Y-126779000D01*
X175641000Y-126779000D01*
X175641000Y-127878250D01*
X175799750Y-128037000D01*
X176164000Y-128040072D01*
X176288482Y-128027812D01*
X176408180Y-127991502D01*
X176518494Y-127932537D01*
X176615185Y-127853185D01*
X176657001Y-127802232D01*
X176657000Y-136181686D01*
X175831595Y-137007091D01*
X175813990Y-136964589D01*
X175651475Y-136721368D01*
X175444632Y-136514525D01*
X175262466Y-136392805D01*
X175379355Y-136323178D01*
X175595588Y-136128269D01*
X175769641Y-135894920D01*
X175894825Y-135632099D01*
X175939476Y-135484890D01*
X175818155Y-135255000D01*
X174625000Y-135255000D01*
X174625000Y-135275000D01*
X174371000Y-135275000D01*
X174371000Y-135255000D01*
X174351000Y-135255000D01*
X174351000Y-135001000D01*
X174371000Y-135001000D01*
X174371000Y-134981000D01*
X174625000Y-134981000D01*
X174625000Y-135001000D01*
X175818155Y-135001000D01*
X175939476Y-134771110D01*
X175894825Y-134623901D01*
X175769641Y-134361080D01*
X175595588Y-134127731D01*
X175511534Y-134051966D01*
X175592180Y-134027502D01*
X175702494Y-133968537D01*
X175799185Y-133889185D01*
X175878537Y-133792494D01*
X175937502Y-133682180D01*
X175973812Y-133562482D01*
X175986072Y-133438000D01*
X175986072Y-131738000D01*
X175973812Y-131613518D01*
X175937502Y-131493820D01*
X175878537Y-131383506D01*
X175799185Y-131286815D01*
X175702494Y-131207463D01*
X175592180Y-131148498D01*
X175472482Y-131112188D01*
X175378788Y-131102960D01*
X175374136Y-131055726D01*
X175374136Y-131055724D01*
X175337108Y-130933659D01*
X175323303Y-130888149D01*
X175240753Y-130733709D01*
X175129659Y-130598341D01*
X175095743Y-130570507D01*
X174229499Y-129704264D01*
X174201659Y-129670341D01*
X174066291Y-129559247D01*
X173911851Y-129476697D01*
X173744274Y-129425864D01*
X173613667Y-129413000D01*
X173613660Y-129413000D01*
X173570000Y-129408700D01*
X173526340Y-129413000D01*
X170156408Y-129413000D01*
X170124502Y-129307820D01*
X170065537Y-129197506D01*
X169992141Y-129108072D01*
X170600000Y-129108072D01*
X170724482Y-129095812D01*
X170844180Y-129059502D01*
X170954494Y-129000537D01*
X171051185Y-128921185D01*
X171130537Y-128824494D01*
X171189502Y-128714180D01*
X171225812Y-128594482D01*
X171238072Y-128470000D01*
X171238072Y-127169286D01*
X171325518Y-127195812D01*
X171450000Y-127208072D01*
X172414250Y-127205000D01*
X172573000Y-127046250D01*
X172573000Y-126197000D01*
X171024603Y-126197000D01*
X170954494Y-126139463D01*
X170844180Y-126080498D01*
X170724482Y-126044188D01*
X170600000Y-126031928D01*
X169600000Y-126031928D01*
X169475518Y-126044188D01*
X169355820Y-126080498D01*
X169245506Y-126139463D01*
X169148815Y-126218815D01*
X169100000Y-126278296D01*
X169051185Y-126218815D01*
X168954494Y-126139463D01*
X168844180Y-126080498D01*
X168724482Y-126044188D01*
X168600000Y-126031928D01*
X167600000Y-126031928D01*
X167475518Y-126044188D01*
X167355820Y-126080498D01*
X167245506Y-126139463D01*
X167148815Y-126218815D01*
X167100000Y-126278296D01*
X167051185Y-126218815D01*
X166954494Y-126139463D01*
X166844180Y-126080498D01*
X166724482Y-126044188D01*
X166600000Y-126031928D01*
X165600000Y-126031928D01*
X165475518Y-126044188D01*
X165355820Y-126080498D01*
X165245506Y-126139463D01*
X165148815Y-126218815D01*
X165100000Y-126278296D01*
X165051185Y-126218815D01*
X164954494Y-126139463D01*
X164844180Y-126080498D01*
X164724482Y-126044188D01*
X164600000Y-126031928D01*
X163600000Y-126031928D01*
X163475518Y-126044188D01*
X163355820Y-126080498D01*
X163245506Y-126139463D01*
X163148815Y-126218815D01*
X163100000Y-126278296D01*
X163051185Y-126218815D01*
X162954494Y-126139463D01*
X162844180Y-126080498D01*
X162724482Y-126044188D01*
X162600000Y-126031928D01*
X161600000Y-126031928D01*
X161475518Y-126044188D01*
X161355820Y-126080498D01*
X161245506Y-126139463D01*
X161148815Y-126218815D01*
X161100000Y-126278296D01*
X161051185Y-126218815D01*
X160954494Y-126139463D01*
X160844180Y-126080498D01*
X160724482Y-126044188D01*
X160600000Y-126031928D01*
X159600000Y-126031928D01*
X159475518Y-126044188D01*
X159388072Y-126070714D01*
X159388072Y-125570000D01*
X159375812Y-125445518D01*
X159339502Y-125325820D01*
X159280537Y-125215506D01*
X159201185Y-125118815D01*
X159141704Y-125070000D01*
X159201185Y-125021185D01*
X159280537Y-124924494D01*
X159325166Y-124841000D01*
X159741532Y-124841000D01*
X159783744Y-124869205D01*
X159972102Y-124947226D01*
X160172061Y-124987000D01*
X160375939Y-124987000D01*
X160575898Y-124947226D01*
X160764256Y-124869205D01*
X160933774Y-124755937D01*
X161077937Y-124611774D01*
X161191205Y-124442256D01*
X161269226Y-124253898D01*
X161309000Y-124053939D01*
X161309000Y-123850061D01*
X161269226Y-123650102D01*
X161191205Y-123461744D01*
X161077937Y-123292226D01*
X160933774Y-123148063D01*
X160806468Y-123063000D01*
X160933774Y-122977937D01*
X161077937Y-122833774D01*
X161191205Y-122664256D01*
X161269226Y-122475898D01*
X161309000Y-122275939D01*
X161309000Y-122072061D01*
X161269226Y-121872102D01*
X161191205Y-121683744D01*
X161077937Y-121514226D01*
X160933774Y-121370063D01*
X160764256Y-121256795D01*
X160575898Y-121178774D01*
X160375939Y-121139000D01*
X160172061Y-121139000D01*
X159972102Y-121178774D01*
X159783744Y-121256795D01*
X159741532Y-121285000D01*
X159317683Y-121285000D01*
X159280537Y-121215506D01*
X159201185Y-121118815D01*
X159141704Y-121070000D01*
X159201185Y-121021185D01*
X159280537Y-120924494D01*
X159339502Y-120814180D01*
X159375812Y-120694482D01*
X159388072Y-120570000D01*
X159388072Y-119570000D01*
X159375812Y-119445518D01*
X159339502Y-119325820D01*
X159280537Y-119215506D01*
X159201185Y-119118815D01*
X159141704Y-119070000D01*
X159201185Y-119021185D01*
X159219392Y-118999000D01*
X159741532Y-118999000D01*
X159783744Y-119027205D01*
X159972102Y-119105226D01*
X160172061Y-119145000D01*
X160375939Y-119145000D01*
X160575898Y-119105226D01*
X160764256Y-119027205D01*
X160933774Y-118913937D01*
X161077937Y-118769774D01*
X161191205Y-118600256D01*
X161269226Y-118411898D01*
X161309000Y-118211939D01*
X161309000Y-118008061D01*
X161269226Y-117808102D01*
X161191205Y-117619744D01*
X161077937Y-117450226D01*
X160933774Y-117306063D01*
X160764256Y-117192795D01*
X160575898Y-117114774D01*
X160375939Y-117075000D01*
X160172061Y-117075000D01*
X159972102Y-117114774D01*
X159783744Y-117192795D01*
X159741532Y-117221000D01*
X159283474Y-117221000D01*
X159280537Y-117215506D01*
X159201185Y-117118815D01*
X159141704Y-117070000D01*
X159201185Y-117021185D01*
X159280537Y-116924494D01*
X159329977Y-116832000D01*
X166086577Y-116832000D01*
X166124000Y-116835686D01*
X166161423Y-116832000D01*
X166161426Y-116832000D01*
X166273378Y-116820974D01*
X166417015Y-116777402D01*
X166549392Y-116706645D01*
X166665422Y-116611422D01*
X166689284Y-116582346D01*
X170811928Y-112459703D01*
X170811928Y-112570000D01*
G36*
X182719979Y-112079213D02*
G01*
X183032684Y-114379351D01*
X183189394Y-116695352D01*
X183189394Y-119016648D01*
X183032684Y-121332649D01*
X182719979Y-123632787D01*
X182252705Y-125906567D01*
X181632996Y-128143614D01*
X180863677Y-130333720D01*
X179948260Y-132466894D01*
X178890921Y-134533402D01*
X178435000Y-135293151D01*
X178435000Y-124474015D01*
X178609898Y-124439226D01*
X178798256Y-124361205D01*
X178967774Y-124247937D01*
X179111937Y-124103774D01*
X179225205Y-123934256D01*
X179303226Y-123745898D01*
X179343000Y-123545939D01*
X179343000Y-123342061D01*
X179303226Y-123142102D01*
X179225205Y-122953744D01*
X179224966Y-122953386D01*
X179342482Y-122941812D01*
X179462180Y-122905502D01*
X179572494Y-122846537D01*
X179669185Y-122767185D01*
X179748537Y-122670494D01*
X179807502Y-122560180D01*
X179843812Y-122440482D01*
X179856072Y-122316000D01*
X179856072Y-121016000D01*
X179843812Y-120891518D01*
X179807502Y-120771820D01*
X179786752Y-120733000D01*
X179807502Y-120694180D01*
X179843812Y-120574482D01*
X179856072Y-120450000D01*
X179856072Y-119150000D01*
X179843812Y-119025518D01*
X179807502Y-118905820D01*
X179748537Y-118795506D01*
X179669185Y-118698815D01*
X179572494Y-118619463D01*
X179462180Y-118560498D01*
X179342482Y-118524188D01*
X179218000Y-118511928D01*
X177718000Y-118511928D01*
X177607001Y-118522860D01*
X177607001Y-115562483D01*
X177982250Y-115560000D01*
X178141000Y-115401250D01*
X178141000Y-114427000D01*
X178395000Y-114427000D01*
X178395000Y-115401250D01*
X178553750Y-115560000D01*
X179018000Y-115563072D01*
X179142482Y-115550812D01*
X179262180Y-115514502D01*
X179372494Y-115455537D01*
X179469185Y-115376185D01*
X179548537Y-115279494D01*
X179607502Y-115169180D01*
X179643812Y-115049482D01*
X179656072Y-114925000D01*
X179653000Y-114585750D01*
X179494250Y-114427000D01*
X178395000Y-114427000D01*
X178141000Y-114427000D01*
X178121000Y-114427000D01*
X178121000Y-114173000D01*
X178141000Y-114173000D01*
X178141000Y-114153000D01*
X178395000Y-114153000D01*
X178395000Y-114173000D01*
X179494250Y-114173000D01*
X179653000Y-114014250D01*
X179656072Y-113675000D01*
X179643812Y-113550518D01*
X179607502Y-113430820D01*
X179548537Y-113320506D01*
X179469185Y-113223815D01*
X179372494Y-113144463D01*
X179262180Y-113085498D01*
X179142482Y-113049188D01*
X179018000Y-113036928D01*
X178553750Y-113040000D01*
X178395002Y-113198748D01*
X178395002Y-113040000D01*
X178381630Y-113040000D01*
X179923559Y-111498072D01*
X181884000Y-111498072D01*
X182008482Y-111485812D01*
X182128180Y-111449502D01*
X182238494Y-111390537D01*
X182335185Y-111311185D01*
X182414537Y-111214494D01*
X182473502Y-111104180D01*
X182500986Y-111013579D01*
X182719979Y-112079213D01*
G37*
X182719979Y-112079213D02*
X183032684Y-114379351D01*
X183189394Y-116695352D01*
X183189394Y-119016648D01*
X183032684Y-121332649D01*
X182719979Y-123632787D01*
X182252705Y-125906567D01*
X181632996Y-128143614D01*
X180863677Y-130333720D01*
X179948260Y-132466894D01*
X178890921Y-134533402D01*
X178435000Y-135293151D01*
X178435000Y-124474015D01*
X178609898Y-124439226D01*
X178798256Y-124361205D01*
X178967774Y-124247937D01*
X179111937Y-124103774D01*
X179225205Y-123934256D01*
X179303226Y-123745898D01*
X179343000Y-123545939D01*
X179343000Y-123342061D01*
X179303226Y-123142102D01*
X179225205Y-122953744D01*
X179224966Y-122953386D01*
X179342482Y-122941812D01*
X179462180Y-122905502D01*
X179572494Y-122846537D01*
X179669185Y-122767185D01*
X179748537Y-122670494D01*
X179807502Y-122560180D01*
X179843812Y-122440482D01*
X179856072Y-122316000D01*
X179856072Y-121016000D01*
X179843812Y-120891518D01*
X179807502Y-120771820D01*
X179786752Y-120733000D01*
X179807502Y-120694180D01*
X179843812Y-120574482D01*
X179856072Y-120450000D01*
X179856072Y-119150000D01*
X179843812Y-119025518D01*
X179807502Y-118905820D01*
X179748537Y-118795506D01*
X179669185Y-118698815D01*
X179572494Y-118619463D01*
X179462180Y-118560498D01*
X179342482Y-118524188D01*
X179218000Y-118511928D01*
X177718000Y-118511928D01*
X177607001Y-118522860D01*
X177607001Y-115562483D01*
X177982250Y-115560000D01*
X178141000Y-115401250D01*
X178141000Y-114427000D01*
X178395000Y-114427000D01*
X178395000Y-115401250D01*
X178553750Y-115560000D01*
X179018000Y-115563072D01*
X179142482Y-115550812D01*
X179262180Y-115514502D01*
X179372494Y-115455537D01*
X179469185Y-115376185D01*
X179548537Y-115279494D01*
X179607502Y-115169180D01*
X179643812Y-115049482D01*
X179656072Y-114925000D01*
X179653000Y-114585750D01*
X179494250Y-114427000D01*
X178395000Y-114427000D01*
X178141000Y-114427000D01*
X178121000Y-114427000D01*
X178121000Y-114173000D01*
X178141000Y-114173000D01*
X178141000Y-114153000D01*
X178395000Y-114153000D01*
X178395000Y-114173000D01*
X179494250Y-114173000D01*
X179653000Y-114014250D01*
X179656072Y-113675000D01*
X179643812Y-113550518D01*
X179607502Y-113430820D01*
X179548537Y-113320506D01*
X179469185Y-113223815D01*
X179372494Y-113144463D01*
X179262180Y-113085498D01*
X179142482Y-113049188D01*
X179018000Y-113036928D01*
X178553750Y-113040000D01*
X178395002Y-113198748D01*
X178395002Y-113040000D01*
X178381630Y-113040000D01*
X179923559Y-111498072D01*
X181884000Y-111498072D01*
X182008482Y-111485812D01*
X182128180Y-111449502D01*
X182238494Y-111390537D01*
X182335185Y-111311185D01*
X182414537Y-111214494D01*
X182473502Y-111104180D01*
X182500986Y-111013579D01*
X182719979Y-112079213D01*
G36*
X153147501Y-126835736D02*
G01*
X153175341Y-126869659D01*
X153310709Y-126980753D01*
X153465149Y-127063303D01*
X153531058Y-127083296D01*
X153632724Y-127114136D01*
X153665924Y-127117406D01*
X153691444Y-127119919D01*
X153725498Y-127232180D01*
X153784463Y-127342494D01*
X153863815Y-127439185D01*
X153923296Y-127488000D01*
X153863815Y-127536815D01*
X153784463Y-127633506D01*
X153725498Y-127743820D01*
X153689188Y-127863518D01*
X153676928Y-127988000D01*
X153680000Y-128452250D01*
X153838750Y-128611000D01*
X154813000Y-128611000D01*
X154813000Y-128591000D01*
X155067000Y-128591000D01*
X155067000Y-128611000D01*
X156041250Y-128611000D01*
X156200000Y-128452250D01*
X156203072Y-127988000D01*
X156190812Y-127863518D01*
X156154502Y-127743820D01*
X156095537Y-127633506D01*
X156016185Y-127536815D01*
X155956704Y-127488000D01*
X156016185Y-127439185D01*
X156095537Y-127342494D01*
X156154502Y-127232180D01*
X156164373Y-127199639D01*
X156250000Y-127208072D01*
X156611001Y-127208072D01*
X156611001Y-129529963D01*
X156565939Y-129521000D01*
X156362061Y-129521000D01*
X156196580Y-129553916D01*
X156203072Y-129488000D01*
X156200000Y-129023750D01*
X156041250Y-128865000D01*
X155067000Y-128865000D01*
X155067000Y-129964250D01*
X155225750Y-130123000D01*
X155521968Y-130125682D01*
X155468774Y-130254102D01*
X155458870Y-130303895D01*
X155358259Y-130404506D01*
X155324342Y-130432341D01*
X155296507Y-130466258D01*
X155296505Y-130466260D01*
X155271944Y-130496188D01*
X155213248Y-130567709D01*
X155199805Y-130592859D01*
X155104815Y-130670815D01*
X155025463Y-130767506D01*
X155006000Y-130803918D01*
X154986537Y-130767506D01*
X154907185Y-130670815D01*
X154810494Y-130591463D01*
X154700180Y-130532498D01*
X154580482Y-130496188D01*
X154456000Y-130483928D01*
X154341750Y-130487000D01*
X154183000Y-130645750D01*
X154183000Y-131445000D01*
X154203000Y-131445000D01*
X154203000Y-131699000D01*
X154183000Y-131699000D01*
X154183000Y-132498250D01*
X154267607Y-132582857D01*
X154251506Y-132591463D01*
X154154815Y-132670815D01*
X154075463Y-132767506D01*
X154016498Y-132877820D01*
X153980188Y-132997518D01*
X153967928Y-133122000D01*
X153967928Y-134022000D01*
X153980188Y-134146482D01*
X154008253Y-134239000D01*
X151172140Y-134239000D01*
X151161924Y-132022000D01*
X153017928Y-132022000D01*
X153030188Y-132146482D01*
X153066498Y-132266180D01*
X153125463Y-132376494D01*
X153204815Y-132473185D01*
X153301506Y-132552537D01*
X153411820Y-132611502D01*
X153531518Y-132647812D01*
X153656000Y-132660072D01*
X153770250Y-132657000D01*
X153929000Y-132498250D01*
X153929000Y-131699000D01*
X153179750Y-131699000D01*
X153021000Y-131857750D01*
X153017928Y-132022000D01*
X151161924Y-132022000D01*
X151157777Y-131122000D01*
X153017928Y-131122000D01*
X153021000Y-131286250D01*
X153179750Y-131445000D01*
X153929000Y-131445000D01*
X153929000Y-130645750D01*
X153770250Y-130487000D01*
X153656000Y-130483928D01*
X153531518Y-130496188D01*
X153411820Y-130532498D01*
X153301506Y-130591463D01*
X153204815Y-130670815D01*
X153125463Y-130767506D01*
X153066498Y-130877820D01*
X153030188Y-130997518D01*
X153017928Y-131122000D01*
X151157777Y-131122000D01*
X151153246Y-130138989D01*
X151473736Y-129818499D01*
X151507659Y-129790659D01*
X151618753Y-129655291D01*
X151701303Y-129500851D01*
X151705201Y-129488000D01*
X153676928Y-129488000D01*
X153689188Y-129612482D01*
X153725498Y-129732180D01*
X153784463Y-129842494D01*
X153863815Y-129939185D01*
X153960506Y-130018537D01*
X154070820Y-130077502D01*
X154190518Y-130113812D01*
X154315000Y-130126072D01*
X154654250Y-130123000D01*
X154813000Y-129964250D01*
X154813000Y-128865000D01*
X153838750Y-128865000D01*
X153680000Y-129023750D01*
X153676928Y-129488000D01*
X151705201Y-129488000D01*
X151729256Y-129408700D01*
X151752136Y-129333276D01*
X151760814Y-129245165D01*
X151765000Y-129202667D01*
X151765000Y-129202661D01*
X151769300Y-129159001D01*
X151765000Y-129115341D01*
X151765000Y-125453235D01*
X153147501Y-126835736D01*
G37*
X153147501Y-126835736D02*
X153175341Y-126869659D01*
X153310709Y-126980753D01*
X153465149Y-127063303D01*
X153531058Y-127083296D01*
X153632724Y-127114136D01*
X153665924Y-127117406D01*
X153691444Y-127119919D01*
X153725498Y-127232180D01*
X153784463Y-127342494D01*
X153863815Y-127439185D01*
X153923296Y-127488000D01*
X153863815Y-127536815D01*
X153784463Y-127633506D01*
X153725498Y-127743820D01*
X153689188Y-127863518D01*
X153676928Y-127988000D01*
X153680000Y-128452250D01*
X153838750Y-128611000D01*
X154813000Y-128611000D01*
X154813000Y-128591000D01*
X155067000Y-128591000D01*
X155067000Y-128611000D01*
X156041250Y-128611000D01*
X156200000Y-128452250D01*
X156203072Y-127988000D01*
X156190812Y-127863518D01*
X156154502Y-127743820D01*
X156095537Y-127633506D01*
X156016185Y-127536815D01*
X155956704Y-127488000D01*
X156016185Y-127439185D01*
X156095537Y-127342494D01*
X156154502Y-127232180D01*
X156164373Y-127199639D01*
X156250000Y-127208072D01*
X156611001Y-127208072D01*
X156611001Y-129529963D01*
X156565939Y-129521000D01*
X156362061Y-129521000D01*
X156196580Y-129553916D01*
X156203072Y-129488000D01*
X156200000Y-129023750D01*
X156041250Y-128865000D01*
X155067000Y-128865000D01*
X155067000Y-129964250D01*
X155225750Y-130123000D01*
X155521968Y-130125682D01*
X155468774Y-130254102D01*
X155458870Y-130303895D01*
X155358259Y-130404506D01*
X155324342Y-130432341D01*
X155296507Y-130466258D01*
X155296505Y-130466260D01*
X155271944Y-130496188D01*
X155213248Y-130567709D01*
X155199805Y-130592859D01*
X155104815Y-130670815D01*
X155025463Y-130767506D01*
X155006000Y-130803918D01*
X154986537Y-130767506D01*
X154907185Y-130670815D01*
X154810494Y-130591463D01*
X154700180Y-130532498D01*
X154580482Y-130496188D01*
X154456000Y-130483928D01*
X154341750Y-130487000D01*
X154183000Y-130645750D01*
X154183000Y-131445000D01*
X154203000Y-131445000D01*
X154203000Y-131699000D01*
X154183000Y-131699000D01*
X154183000Y-132498250D01*
X154267607Y-132582857D01*
X154251506Y-132591463D01*
X154154815Y-132670815D01*
X154075463Y-132767506D01*
X154016498Y-132877820D01*
X153980188Y-132997518D01*
X153967928Y-133122000D01*
X153967928Y-134022000D01*
X153980188Y-134146482D01*
X154008253Y-134239000D01*
X151172140Y-134239000D01*
X151161924Y-132022000D01*
X153017928Y-132022000D01*
X153030188Y-132146482D01*
X153066498Y-132266180D01*
X153125463Y-132376494D01*
X153204815Y-132473185D01*
X153301506Y-132552537D01*
X153411820Y-132611502D01*
X153531518Y-132647812D01*
X153656000Y-132660072D01*
X153770250Y-132657000D01*
X153929000Y-132498250D01*
X153929000Y-131699000D01*
X153179750Y-131699000D01*
X153021000Y-131857750D01*
X153017928Y-132022000D01*
X151161924Y-132022000D01*
X151157777Y-131122000D01*
X153017928Y-131122000D01*
X153021000Y-131286250D01*
X153179750Y-131445000D01*
X153929000Y-131445000D01*
X153929000Y-130645750D01*
X153770250Y-130487000D01*
X153656000Y-130483928D01*
X153531518Y-130496188D01*
X153411820Y-130532498D01*
X153301506Y-130591463D01*
X153204815Y-130670815D01*
X153125463Y-130767506D01*
X153066498Y-130877820D01*
X153030188Y-130997518D01*
X153017928Y-131122000D01*
X151157777Y-131122000D01*
X151153246Y-130138989D01*
X151473736Y-129818499D01*
X151507659Y-129790659D01*
X151618753Y-129655291D01*
X151701303Y-129500851D01*
X151705201Y-129488000D01*
X153676928Y-129488000D01*
X153689188Y-129612482D01*
X153725498Y-129732180D01*
X153784463Y-129842494D01*
X153863815Y-129939185D01*
X153960506Y-130018537D01*
X154070820Y-130077502D01*
X154190518Y-130113812D01*
X154315000Y-130126072D01*
X154654250Y-130123000D01*
X154813000Y-129964250D01*
X154813000Y-128865000D01*
X153838750Y-128865000D01*
X153680000Y-129023750D01*
X153676928Y-129488000D01*
X151705201Y-129488000D01*
X151729256Y-129408700D01*
X151752136Y-129333276D01*
X151760814Y-129245165D01*
X151765000Y-129202667D01*
X151765000Y-129202661D01*
X151769300Y-129159001D01*
X151765000Y-129115341D01*
X151765000Y-125453235D01*
X153147501Y-126835736D01*
G36*
X158961928Y-128470000D02*
G01*
X158974188Y-128594482D01*
X159010498Y-128714180D01*
X159069463Y-128824494D01*
X159148815Y-128921185D01*
X159245506Y-129000537D01*
X159355820Y-129059502D01*
X159475518Y-129095812D01*
X159600000Y-129108072D01*
X160600000Y-129108072D01*
X160724482Y-129095812D01*
X160844180Y-129059502D01*
X160954494Y-129000537D01*
X161051185Y-128921185D01*
X161100000Y-128861704D01*
X161148815Y-128921185D01*
X161245506Y-129000537D01*
X161355820Y-129059502D01*
X161475518Y-129095812D01*
X161600000Y-129108072D01*
X162600000Y-129108072D01*
X162724482Y-129095812D01*
X162844180Y-129059502D01*
X162954494Y-129000537D01*
X163051185Y-128921185D01*
X163100000Y-128861704D01*
X163148815Y-128921185D01*
X163245506Y-129000537D01*
X163355820Y-129059502D01*
X163475518Y-129095812D01*
X163600000Y-129108072D01*
X164600000Y-129108072D01*
X164724482Y-129095812D01*
X164844180Y-129059502D01*
X164954494Y-129000537D01*
X165051185Y-128921185D01*
X165100000Y-128861704D01*
X165148815Y-128921185D01*
X165245506Y-129000537D01*
X165355820Y-129059502D01*
X165475518Y-129095812D01*
X165600000Y-129108072D01*
X166600000Y-129108072D01*
X166724482Y-129095812D01*
X166844180Y-129059502D01*
X166954494Y-129000537D01*
X167051185Y-128921185D01*
X167100000Y-128861704D01*
X167148815Y-128921185D01*
X167245506Y-129000537D01*
X167355820Y-129059502D01*
X167475518Y-129095812D01*
X167600000Y-129108072D01*
X167827859Y-129108072D01*
X167754463Y-129197506D01*
X167695498Y-129307820D01*
X167659188Y-129427518D01*
X167646928Y-129552000D01*
X167646928Y-129915836D01*
X165988837Y-131573928D01*
X164608000Y-131573928D01*
X164483518Y-131586188D01*
X164363820Y-131622498D01*
X164253506Y-131681463D01*
X164156815Y-131760815D01*
X164077463Y-131857506D01*
X164018498Y-131967820D01*
X163982188Y-132087518D01*
X163969928Y-132212000D01*
X163969928Y-133223000D01*
X160929408Y-133223000D01*
X160897502Y-133117820D01*
X160838537Y-133007506D01*
X160801191Y-132962000D01*
X160838537Y-132916494D01*
X160897502Y-132806180D01*
X160933812Y-132686482D01*
X160946072Y-132562000D01*
X160943000Y-132097750D01*
X160784250Y-131939000D01*
X159435000Y-131939000D01*
X159435000Y-131959000D01*
X159181000Y-131959000D01*
X159181000Y-131939000D01*
X159161000Y-131939000D01*
X159161000Y-131685000D01*
X159181000Y-131685000D01*
X159181000Y-130585750D01*
X159435000Y-130585750D01*
X159435000Y-131685000D01*
X160784250Y-131685000D01*
X160943000Y-131526250D01*
X160946072Y-131062000D01*
X160933812Y-130937518D01*
X160897502Y-130817820D01*
X160838537Y-130707506D01*
X160759185Y-130610815D01*
X160662494Y-130531463D01*
X160552180Y-130472498D01*
X160432482Y-130436188D01*
X160308000Y-130423928D01*
X159593750Y-130427000D01*
X159435000Y-130585750D01*
X159181000Y-130585750D01*
X159022250Y-130427000D01*
X158389000Y-130424276D01*
X158389000Y-127208072D01*
X158750000Y-127208072D01*
X158874482Y-127195812D01*
X158961928Y-127169286D01*
X158961928Y-128470000D01*
G37*
X158961928Y-128470000D02*
X158974188Y-128594482D01*
X159010498Y-128714180D01*
X159069463Y-128824494D01*
X159148815Y-128921185D01*
X159245506Y-129000537D01*
X159355820Y-129059502D01*
X159475518Y-129095812D01*
X159600000Y-129108072D01*
X160600000Y-129108072D01*
X160724482Y-129095812D01*
X160844180Y-129059502D01*
X160954494Y-129000537D01*
X161051185Y-128921185D01*
X161100000Y-128861704D01*
X161148815Y-128921185D01*
X161245506Y-129000537D01*
X161355820Y-129059502D01*
X161475518Y-129095812D01*
X161600000Y-129108072D01*
X162600000Y-129108072D01*
X162724482Y-129095812D01*
X162844180Y-129059502D01*
X162954494Y-129000537D01*
X163051185Y-128921185D01*
X163100000Y-128861704D01*
X163148815Y-128921185D01*
X163245506Y-129000537D01*
X163355820Y-129059502D01*
X163475518Y-129095812D01*
X163600000Y-129108072D01*
X164600000Y-129108072D01*
X164724482Y-129095812D01*
X164844180Y-129059502D01*
X164954494Y-129000537D01*
X165051185Y-128921185D01*
X165100000Y-128861704D01*
X165148815Y-128921185D01*
X165245506Y-129000537D01*
X165355820Y-129059502D01*
X165475518Y-129095812D01*
X165600000Y-129108072D01*
X166600000Y-129108072D01*
X166724482Y-129095812D01*
X166844180Y-129059502D01*
X166954494Y-129000537D01*
X167051185Y-128921185D01*
X167100000Y-128861704D01*
X167148815Y-128921185D01*
X167245506Y-129000537D01*
X167355820Y-129059502D01*
X167475518Y-129095812D01*
X167600000Y-129108072D01*
X167827859Y-129108072D01*
X167754463Y-129197506D01*
X167695498Y-129307820D01*
X167659188Y-129427518D01*
X167646928Y-129552000D01*
X167646928Y-129915836D01*
X165988837Y-131573928D01*
X164608000Y-131573928D01*
X164483518Y-131586188D01*
X164363820Y-131622498D01*
X164253506Y-131681463D01*
X164156815Y-131760815D01*
X164077463Y-131857506D01*
X164018498Y-131967820D01*
X163982188Y-132087518D01*
X163969928Y-132212000D01*
X163969928Y-133223000D01*
X160929408Y-133223000D01*
X160897502Y-133117820D01*
X160838537Y-133007506D01*
X160801191Y-132962000D01*
X160838537Y-132916494D01*
X160897502Y-132806180D01*
X160933812Y-132686482D01*
X160946072Y-132562000D01*
X160943000Y-132097750D01*
X160784250Y-131939000D01*
X159435000Y-131939000D01*
X159435000Y-131959000D01*
X159181000Y-131959000D01*
X159181000Y-131939000D01*
X159161000Y-131939000D01*
X159161000Y-131685000D01*
X159181000Y-131685000D01*
X159181000Y-130585750D01*
X159435000Y-130585750D01*
X159435000Y-131685000D01*
X160784250Y-131685000D01*
X160943000Y-131526250D01*
X160946072Y-131062000D01*
X160933812Y-130937518D01*
X160897502Y-130817820D01*
X160838537Y-130707506D01*
X160759185Y-130610815D01*
X160662494Y-130531463D01*
X160552180Y-130472498D01*
X160432482Y-130436188D01*
X160308000Y-130423928D01*
X159593750Y-130427000D01*
X159435000Y-130585750D01*
X159181000Y-130585750D01*
X159022250Y-130427000D01*
X158389000Y-130424276D01*
X158389000Y-127208072D01*
X158750000Y-127208072D01*
X158874482Y-127195812D01*
X158961928Y-127169286D01*
X158961928Y-128470000D01*
G36*
X150584559Y-83535107D02*
G01*
X152897583Y-83730911D01*
X155192111Y-84082420D01*
X156591636Y-84394755D01*
X156834395Y-109641681D01*
X156751422Y-109540578D01*
X156722353Y-109516722D01*
X155974072Y-108768442D01*
X155974072Y-107708000D01*
X155961812Y-107583518D01*
X155925502Y-107463820D01*
X155866537Y-107353506D01*
X155787185Y-107256815D01*
X155690494Y-107177463D01*
X155580180Y-107118498D01*
X155460482Y-107082188D01*
X155336000Y-107069928D01*
X154036000Y-107069928D01*
X153911518Y-107082188D01*
X153791820Y-107118498D01*
X153681506Y-107177463D01*
X153584815Y-107256815D01*
X153505463Y-107353506D01*
X153446498Y-107463820D01*
X153410188Y-107583518D01*
X153397928Y-107708000D01*
X153397928Y-109208000D01*
X153410188Y-109332482D01*
X153446498Y-109452180D01*
X153505463Y-109562494D01*
X153584815Y-109659185D01*
X153681506Y-109738537D01*
X153791820Y-109797502D01*
X153826427Y-109808000D01*
X153791820Y-109818498D01*
X153681506Y-109877463D01*
X153584815Y-109956815D01*
X153505463Y-110053506D01*
X153446498Y-110163820D01*
X153410188Y-110283518D01*
X153397928Y-110408000D01*
X153397928Y-111908000D01*
X153410188Y-112032482D01*
X153446498Y-112152180D01*
X153483284Y-112221000D01*
X153446498Y-112289820D01*
X153412444Y-112402081D01*
X153386924Y-112404594D01*
X153353724Y-112407864D01*
X153252609Y-112438537D01*
X153186149Y-112458697D01*
X153031709Y-112541247D01*
X152896341Y-112652341D01*
X152868501Y-112686264D01*
X152655895Y-112898870D01*
X152606102Y-112908774D01*
X152417744Y-112986795D01*
X152248226Y-113100063D01*
X152104063Y-113244226D01*
X151990795Y-113413744D01*
X151912774Y-113602102D01*
X151873000Y-113802061D01*
X151873000Y-114005939D01*
X151912774Y-114205898D01*
X151990795Y-114394256D01*
X152019001Y-114436469D01*
X152019000Y-117370927D01*
X152013820Y-117372498D01*
X151903506Y-117431463D01*
X151806815Y-117510815D01*
X151765000Y-117561767D01*
X151765000Y-103558312D01*
X151769300Y-103514652D01*
X151765000Y-103470987D01*
X151765000Y-103470986D01*
X151752136Y-103340379D01*
X151752136Y-103340377D01*
X151701302Y-103172800D01*
X151697589Y-103165853D01*
X151618753Y-103018362D01*
X151507659Y-102882994D01*
X151473737Y-102855155D01*
X151025448Y-102406866D01*
X151002999Y-97535415D01*
X151000444Y-97510650D01*
X150993107Y-97486859D01*
X150981270Y-97464957D01*
X150965388Y-97445785D01*
X150946070Y-97430079D01*
X150924060Y-97418445D01*
X150900202Y-97411327D01*
X150876000Y-97409000D01*
X146027582Y-97409000D01*
X141895845Y-93277263D01*
X141868005Y-93243340D01*
X141732637Y-93132246D01*
X141578197Y-93049696D01*
X141410620Y-92998863D01*
X141280013Y-92985999D01*
X141280006Y-92985999D01*
X141236346Y-92981699D01*
X141192686Y-92985999D01*
X141162792Y-92985999D01*
X140996501Y-92737128D01*
X140747872Y-92488499D01*
X140455516Y-92293152D01*
X140130666Y-92158595D01*
X139785808Y-92089999D01*
X139434194Y-92089999D01*
X139089336Y-92158595D01*
X138764486Y-92293152D01*
X138472130Y-92488499D01*
X138223501Y-92737128D01*
X138028154Y-93029484D01*
X137893597Y-93354334D01*
X137825001Y-93699192D01*
X137825001Y-94050806D01*
X137893597Y-94395664D01*
X138028154Y-94720514D01*
X138223501Y-95012870D01*
X138472130Y-95261499D01*
X138764486Y-95456846D01*
X139089336Y-95591403D01*
X139434194Y-95659999D01*
X139785808Y-95659999D01*
X140130666Y-95591403D01*
X140455516Y-95456846D01*
X140747872Y-95261499D01*
X140996501Y-95012870D01*
X141044759Y-94940647D01*
X143513112Y-97409000D01*
X128397000Y-97409000D01*
X128397000Y-95117348D01*
X130947257Y-95117348D01*
X131061119Y-95397089D01*
X131376297Y-95552960D01*
X131715827Y-95644348D01*
X132066662Y-95667740D01*
X132415320Y-95622239D01*
X132748401Y-95509593D01*
X132958883Y-95397089D01*
X133072745Y-95117348D01*
X132010001Y-94054604D01*
X130947257Y-95117348D01*
X128397000Y-95117348D01*
X128397000Y-93931660D01*
X130217260Y-93931660D01*
X130262761Y-94280318D01*
X130375407Y-94613399D01*
X130487911Y-94823881D01*
X130767652Y-94937743D01*
X131830396Y-93874999D01*
X132189606Y-93874999D01*
X133252350Y-94937743D01*
X133532091Y-94823881D01*
X133687962Y-94508703D01*
X133779350Y-94169173D01*
X133802742Y-93818338D01*
X133757241Y-93469680D01*
X133644595Y-93136599D01*
X133532091Y-92926117D01*
X133252350Y-92812255D01*
X132189606Y-93874999D01*
X131830396Y-93874999D01*
X130767652Y-92812255D01*
X130487911Y-92926117D01*
X130332040Y-93241295D01*
X130240652Y-93580825D01*
X130217260Y-93931660D01*
X128397000Y-93931660D01*
X128397000Y-92632650D01*
X130947257Y-92632650D01*
X132010001Y-93695394D01*
X133072745Y-92632650D01*
X132958883Y-92352909D01*
X132643705Y-92197038D01*
X132304175Y-92105650D01*
X131953340Y-92082258D01*
X131604682Y-92127759D01*
X131271601Y-92240405D01*
X131061119Y-92352909D01*
X130947257Y-92632650D01*
X128397000Y-92632650D01*
X128397000Y-90250622D01*
X128738791Y-89986056D01*
X130666152Y-88692340D01*
X132676454Y-87531692D01*
X134760525Y-86509406D01*
X136908855Y-85630148D01*
X139111643Y-84897929D01*
X141358837Y-84316090D01*
X143640184Y-83887286D01*
X145945276Y-83613473D01*
X148263593Y-83495902D01*
X150584559Y-83535107D01*
G37*
X150584559Y-83535107D02*
X152897583Y-83730911D01*
X155192111Y-84082420D01*
X156591636Y-84394755D01*
X156834395Y-109641681D01*
X156751422Y-109540578D01*
X156722353Y-109516722D01*
X155974072Y-108768442D01*
X155974072Y-107708000D01*
X155961812Y-107583518D01*
X155925502Y-107463820D01*
X155866537Y-107353506D01*
X155787185Y-107256815D01*
X155690494Y-107177463D01*
X155580180Y-107118498D01*
X155460482Y-107082188D01*
X155336000Y-107069928D01*
X154036000Y-107069928D01*
X153911518Y-107082188D01*
X153791820Y-107118498D01*
X153681506Y-107177463D01*
X153584815Y-107256815D01*
X153505463Y-107353506D01*
X153446498Y-107463820D01*
X153410188Y-107583518D01*
X153397928Y-107708000D01*
X153397928Y-109208000D01*
X153410188Y-109332482D01*
X153446498Y-109452180D01*
X153505463Y-109562494D01*
X153584815Y-109659185D01*
X153681506Y-109738537D01*
X153791820Y-109797502D01*
X153826427Y-109808000D01*
X153791820Y-109818498D01*
X153681506Y-109877463D01*
X153584815Y-109956815D01*
X153505463Y-110053506D01*
X153446498Y-110163820D01*
X153410188Y-110283518D01*
X153397928Y-110408000D01*
X153397928Y-111908000D01*
X153410188Y-112032482D01*
X153446498Y-112152180D01*
X153483284Y-112221000D01*
X153446498Y-112289820D01*
X153412444Y-112402081D01*
X153386924Y-112404594D01*
X153353724Y-112407864D01*
X153252609Y-112438537D01*
X153186149Y-112458697D01*
X153031709Y-112541247D01*
X152896341Y-112652341D01*
X152868501Y-112686264D01*
X152655895Y-112898870D01*
X152606102Y-112908774D01*
X152417744Y-112986795D01*
X152248226Y-113100063D01*
X152104063Y-113244226D01*
X151990795Y-113413744D01*
X151912774Y-113602102D01*
X151873000Y-113802061D01*
X151873000Y-114005939D01*
X151912774Y-114205898D01*
X151990795Y-114394256D01*
X152019001Y-114436469D01*
X152019000Y-117370927D01*
X152013820Y-117372498D01*
X151903506Y-117431463D01*
X151806815Y-117510815D01*
X151765000Y-117561767D01*
X151765000Y-103558312D01*
X151769300Y-103514652D01*
X151765000Y-103470987D01*
X151765000Y-103470986D01*
X151752136Y-103340379D01*
X151752136Y-103340377D01*
X151701302Y-103172800D01*
X151697589Y-103165853D01*
X151618753Y-103018362D01*
X151507659Y-102882994D01*
X151473737Y-102855155D01*
X151025448Y-102406866D01*
X151002999Y-97535415D01*
X151000444Y-97510650D01*
X150993107Y-97486859D01*
X150981270Y-97464957D01*
X150965388Y-97445785D01*
X150946070Y-97430079D01*
X150924060Y-97418445D01*
X150900202Y-97411327D01*
X150876000Y-97409000D01*
X146027582Y-97409000D01*
X141895845Y-93277263D01*
X141868005Y-93243340D01*
X141732637Y-93132246D01*
X141578197Y-93049696D01*
X141410620Y-92998863D01*
X141280013Y-92985999D01*
X141280006Y-92985999D01*
X141236346Y-92981699D01*
X141192686Y-92985999D01*
X141162792Y-92985999D01*
X140996501Y-92737128D01*
X140747872Y-92488499D01*
X140455516Y-92293152D01*
X140130666Y-92158595D01*
X139785808Y-92089999D01*
X139434194Y-92089999D01*
X139089336Y-92158595D01*
X138764486Y-92293152D01*
X138472130Y-92488499D01*
X138223501Y-92737128D01*
X138028154Y-93029484D01*
X137893597Y-93354334D01*
X137825001Y-93699192D01*
X137825001Y-94050806D01*
X137893597Y-94395664D01*
X138028154Y-94720514D01*
X138223501Y-95012870D01*
X138472130Y-95261499D01*
X138764486Y-95456846D01*
X139089336Y-95591403D01*
X139434194Y-95659999D01*
X139785808Y-95659999D01*
X140130666Y-95591403D01*
X140455516Y-95456846D01*
X140747872Y-95261499D01*
X140996501Y-95012870D01*
X141044759Y-94940647D01*
X143513112Y-97409000D01*
X128397000Y-97409000D01*
X128397000Y-95117348D01*
X130947257Y-95117348D01*
X131061119Y-95397089D01*
X131376297Y-95552960D01*
X131715827Y-95644348D01*
X132066662Y-95667740D01*
X132415320Y-95622239D01*
X132748401Y-95509593D01*
X132958883Y-95397089D01*
X133072745Y-95117348D01*
X132010001Y-94054604D01*
X130947257Y-95117348D01*
X128397000Y-95117348D01*
X128397000Y-93931660D01*
X130217260Y-93931660D01*
X130262761Y-94280318D01*
X130375407Y-94613399D01*
X130487911Y-94823881D01*
X130767652Y-94937743D01*
X131830396Y-93874999D01*
X132189606Y-93874999D01*
X133252350Y-94937743D01*
X133532091Y-94823881D01*
X133687962Y-94508703D01*
X133779350Y-94169173D01*
X133802742Y-93818338D01*
X133757241Y-93469680D01*
X133644595Y-93136599D01*
X133532091Y-92926117D01*
X133252350Y-92812255D01*
X132189606Y-93874999D01*
X131830396Y-93874999D01*
X130767652Y-92812255D01*
X130487911Y-92926117D01*
X130332040Y-93241295D01*
X130240652Y-93580825D01*
X130217260Y-93931660D01*
X128397000Y-93931660D01*
X128397000Y-92632650D01*
X130947257Y-92632650D01*
X132010001Y-93695394D01*
X133072745Y-92632650D01*
X132958883Y-92352909D01*
X132643705Y-92197038D01*
X132304175Y-92105650D01*
X131953340Y-92082258D01*
X131604682Y-92127759D01*
X131271601Y-92240405D01*
X131061119Y-92352909D01*
X130947257Y-92632650D01*
X128397000Y-92632650D01*
X128397000Y-90250622D01*
X128738791Y-89986056D01*
X130666152Y-88692340D01*
X132676454Y-87531692D01*
X134760525Y-86509406D01*
X136908855Y-85630148D01*
X139111643Y-84897929D01*
X141358837Y-84316090D01*
X143640184Y-83887286D01*
X145945276Y-83613473D01*
X148263593Y-83495902D01*
X150584559Y-83535107D01*
G36*
X174918723Y-95471585D02*
G01*
X176370403Y-97282950D01*
X177696486Y-99188186D01*
X178890921Y-101178598D01*
X179948260Y-103245106D01*
X180863677Y-105378280D01*
X181412940Y-106941928D01*
X181097164Y-106941928D01*
X180583130Y-106427895D01*
X180573226Y-106378102D01*
X180495205Y-106189744D01*
X180381937Y-106020226D01*
X180237774Y-105876063D01*
X180068256Y-105762795D01*
X179879898Y-105684774D01*
X179679939Y-105645000D01*
X179476061Y-105645000D01*
X179276102Y-105684774D01*
X179087744Y-105762795D01*
X178918226Y-105876063D01*
X178774063Y-106020226D01*
X178660795Y-106189744D01*
X178582774Y-106378102D01*
X178543000Y-106578061D01*
X178543000Y-106781939D01*
X178582774Y-106981898D01*
X178660795Y-107170256D01*
X178774063Y-107339774D01*
X178865547Y-107431258D01*
X178858188Y-107455518D01*
X178845928Y-107580000D01*
X178845928Y-108320000D01*
X178858188Y-108444482D01*
X178894498Y-108564180D01*
X178905627Y-108585000D01*
X178894498Y-108605820D01*
X178858188Y-108725518D01*
X178845928Y-108850000D01*
X178849000Y-108934250D01*
X179007750Y-109093000D01*
X180557000Y-109093000D01*
X180557000Y-109073000D01*
X180811000Y-109073000D01*
X180811000Y-109093000D01*
X180831000Y-109093000D01*
X180831000Y-109347000D01*
X180811000Y-109347000D01*
X180811000Y-109367000D01*
X180557000Y-109367000D01*
X180557000Y-109347000D01*
X179007750Y-109347000D01*
X178849000Y-109505750D01*
X178845928Y-109590000D01*
X178858188Y-109714482D01*
X178894498Y-109834180D01*
X178905627Y-109855000D01*
X178894498Y-109875820D01*
X178858188Y-109995518D01*
X178845928Y-110120000D01*
X178845928Y-110420441D01*
X178622072Y-110644297D01*
X178622072Y-110120000D01*
X178609812Y-109995518D01*
X178573502Y-109875820D01*
X178562373Y-109855000D01*
X178573502Y-109834180D01*
X178609812Y-109714482D01*
X178622072Y-109590000D01*
X178622072Y-108850000D01*
X178609812Y-108725518D01*
X178573502Y-108605820D01*
X178562373Y-108585000D01*
X178573502Y-108564180D01*
X178609812Y-108444482D01*
X178622072Y-108320000D01*
X178622072Y-107580000D01*
X178609812Y-107455518D01*
X178573502Y-107335820D01*
X178514537Y-107225506D01*
X178435185Y-107128815D01*
X178338494Y-107049463D01*
X178228180Y-106990498D01*
X178108482Y-106954188D01*
X177984000Y-106941928D01*
X175584000Y-106941928D01*
X175459518Y-106954188D01*
X175339820Y-106990498D01*
X175229506Y-107049463D01*
X175132815Y-107128815D01*
X175053463Y-107225506D01*
X175045748Y-107239940D01*
X175036985Y-107242598D01*
X175010387Y-107256815D01*
X174904607Y-107313355D01*
X174821904Y-107381228D01*
X174788578Y-107408578D01*
X174764721Y-107437648D01*
X173731654Y-108470716D01*
X173702578Y-108494578D01*
X173650530Y-108558000D01*
X173607355Y-108610608D01*
X173579813Y-108662136D01*
X173536598Y-108742986D01*
X173493026Y-108886623D01*
X173482000Y-108998574D01*
X173478314Y-109036000D01*
X173482000Y-109073424D01*
X173482001Y-110174369D01*
X173420370Y-110236000D01*
X173355000Y-110236000D01*
X173355000Y-93769895D01*
X174918723Y-95471585D01*
G37*
X174918723Y-95471585D02*
X176370403Y-97282950D01*
X177696486Y-99188186D01*
X178890921Y-101178598D01*
X179948260Y-103245106D01*
X180863677Y-105378280D01*
X181412940Y-106941928D01*
X181097164Y-106941928D01*
X180583130Y-106427895D01*
X180573226Y-106378102D01*
X180495205Y-106189744D01*
X180381937Y-106020226D01*
X180237774Y-105876063D01*
X180068256Y-105762795D01*
X179879898Y-105684774D01*
X179679939Y-105645000D01*
X179476061Y-105645000D01*
X179276102Y-105684774D01*
X179087744Y-105762795D01*
X178918226Y-105876063D01*
X178774063Y-106020226D01*
X178660795Y-106189744D01*
X178582774Y-106378102D01*
X178543000Y-106578061D01*
X178543000Y-106781939D01*
X178582774Y-106981898D01*
X178660795Y-107170256D01*
X178774063Y-107339774D01*
X178865547Y-107431258D01*
X178858188Y-107455518D01*
X178845928Y-107580000D01*
X178845928Y-108320000D01*
X178858188Y-108444482D01*
X178894498Y-108564180D01*
X178905627Y-108585000D01*
X178894498Y-108605820D01*
X178858188Y-108725518D01*
X178845928Y-108850000D01*
X178849000Y-108934250D01*
X179007750Y-109093000D01*
X180557000Y-109093000D01*
X180557000Y-109073000D01*
X180811000Y-109073000D01*
X180811000Y-109093000D01*
X180831000Y-109093000D01*
X180831000Y-109347000D01*
X180811000Y-109347000D01*
X180811000Y-109367000D01*
X180557000Y-109367000D01*
X180557000Y-109347000D01*
X179007750Y-109347000D01*
X178849000Y-109505750D01*
X178845928Y-109590000D01*
X178858188Y-109714482D01*
X178894498Y-109834180D01*
X178905627Y-109855000D01*
X178894498Y-109875820D01*
X178858188Y-109995518D01*
X178845928Y-110120000D01*
X178845928Y-110420441D01*
X178622072Y-110644297D01*
X178622072Y-110120000D01*
X178609812Y-109995518D01*
X178573502Y-109875820D01*
X178562373Y-109855000D01*
X178573502Y-109834180D01*
X178609812Y-109714482D01*
X178622072Y-109590000D01*
X178622072Y-108850000D01*
X178609812Y-108725518D01*
X178573502Y-108605820D01*
X178562373Y-108585000D01*
X178573502Y-108564180D01*
X178609812Y-108444482D01*
X178622072Y-108320000D01*
X178622072Y-107580000D01*
X178609812Y-107455518D01*
X178573502Y-107335820D01*
X178514537Y-107225506D01*
X178435185Y-107128815D01*
X178338494Y-107049463D01*
X178228180Y-106990498D01*
X178108482Y-106954188D01*
X177984000Y-106941928D01*
X175584000Y-106941928D01*
X175459518Y-106954188D01*
X175339820Y-106990498D01*
X175229506Y-107049463D01*
X175132815Y-107128815D01*
X175053463Y-107225506D01*
X175045748Y-107239940D01*
X175036985Y-107242598D01*
X175010387Y-107256815D01*
X174904607Y-107313355D01*
X174821904Y-107381228D01*
X174788578Y-107408578D01*
X174764721Y-107437648D01*
X173731654Y-108470716D01*
X173702578Y-108494578D01*
X173650530Y-108558000D01*
X173607355Y-108610608D01*
X173579813Y-108662136D01*
X173536598Y-108742986D01*
X173493026Y-108886623D01*
X173482000Y-108998574D01*
X173478314Y-109036000D01*
X173482000Y-109073424D01*
X173482001Y-110174369D01*
X173420370Y-110236000D01*
X173355000Y-110236000D01*
X173355000Y-93769895D01*
X174918723Y-95471585D01*
M02*
